<svg width="400" height="400" space="preserve" version="1.1" viewBox="0 0 400 400" xmlns="http://www.w3.org/2000/svg">
 <g stroke-width="1.1141">
  <path d="m197.23 14.197c6.511 2.1392 3.9685 11.213 10.667 9.527 6.1323-1.5441 12.757-0.54661 18.098-1.5245 2.9004-0.53088 5.5594-3.8472 8.5327-3.8105 3.6343 0.04326 5.4628 3.0083 8.5346 3.6192 8.7675 1.7434 18.408 2.5705 27.525 4.5721 8.0659 1.7709 17.902 1.2898 25.463 4.0006 8.1397 2.9192 15.192 11.458 22.572 16.767 17.52 12.605 36.537 21.816 54.916 32.199 5.7611 3.2547 18.025 7.2357 22.296 13.145 3.5822 4.9562 2.9705 2.9297-2.3408 4.192-5.3132 1.2636-13.374-0.86906-18.993-1.3344-9.2372-0.76421-19.965-3.6781-27.114-2.4761 12.821 21.879 27.066 41.849 37.576 67.255 2.0065 4.8513 10.14 20.699 9.634 25.721-0.64012 6.347-9.937 8.9961-14.177 11.432-6.6199 3.8027-13.44 6.5816-20.163 10.003-5.2867 2.6911-10.595 4.9195-15.76 8.0982-5.5016 3.3845-3.5055 8.224-3.4402 15.431 0.16856 18.522 0.55111 37.028 0.55111 55.632 0 18.809 0.0947 20.559-11.562 28.77-32.376 22.808-69.144 36.109-100.88 60.587-6.5243 5.0309-11.859 13.386-18.993 11.432-4.816-1.32-9.0459-8.7497-13.833-10.956-26.796-12.356-52.743-36.856-77.418-55.728-11.62-8.886-23.079-18.299-34.407-28.006-10.427-8.9345-10.87-8.0012-11.562-24.959-0.9668-23.677 0.08996-48.584-2.4771-71.637-1.213-10.893-2.6362-12.192-10.392-17.147-6.5546-4.1881-13.012-9.2858-19.337-13.908-8.1511-5.955-16.387-12.967-24.223-19.434-1.8342-1.514-14.181-7.9645-14.727-9.7171-4.4979-14.45 65.249-67.768 73.772-81.354-11.751-3.5903-25.962-3.142-37.987-3.4291-13.298-0.31723-6.5631-3.7083 3.4411-4.9536 7.7165-0.95951 17.206-1.5756 24.223-2.096 12.172-0.90314 26.636-4.7635 40.051-4.7635 5.4145 0 13.087-0.20318 18.03-5.145 7.5517-7.5516 9.7154-18.819 20.851-9.3356 9.4436 8.0418 14.211 10.804 20.989 1.143 4.6106-6.5711 2.0245-10.175 10.598-12.193 6.9788-1.632 15.047 0.20842 21.467 0.39194"/>
  <path d="m178.38 18.389c6.102 0.71046 14.565-2.3988 20.37 3.239-8.3964 1.6254-17.631 3.0214-25.6-1.9059 1.6761-0.71177 3.7688-1.2309 5.227-1.3331" fill="#bfbfbf"/>
  <path d="m257.24 71.545c-1.0804 12.218-15.301-14.128-16.929-18.1-3.7119-9.0617-4.7431-19.133-5.9173-30.674 13.683-1.6582 22.821 35.705 22.849 48.774" fill="#e3e3e3"/>
  <path d="m174.8 26.39c7.6596 2.4919 16.162 0.7629 24.431 0.7629 2.1789 0 1.4639 6.5108 1.1694 8.3827-0.95734 6.0887-2.8114 6.3928-7.9134 9.7171-5.28 3.4396-10.513 9.8154-10.009 18.644 0.50944 8.9162-3.2953 5.1568-7.4011 5.5526-4.2166 0.40635-9.9076 0.30017-14.314-1.5232 1.8115-7.1662 7.1436-13.242 5.2298-21.339 3.9108-3.9508-0.464-28.249 8.8158-20.197" fill="#ff0a05" stroke="#006b33"/>
  <path d="m230.82 24.486c2.4913 21.289 7.9087 42.013 21.746 53.918-5.013 4.7858-19.726 20.537-24.637 15.432-7.1199-7.3995-19.415 3.1276-26.564-0.38144-3.8019-1.8653-3.2574-3.0463-4.4041-10.193-1.5132-9.43-6.4892-7.0273-9.3584-12.86-6.404-13.015 5.0698-19.726 11.561-23.815-0.52649 5.5736-0.16666 11.658 3.0273 15.432 2.4762-8.4744-2.4819-16.785 5.781-22.1 0.50187 6.0953 0.7206 12.209 3.0273 17.72 5.763-7.3681-3.6731-20.571 9.3594-25.531-0.47157 2.5155-1.9762 24.744 2.6163 22.482 3.693-1.8233-3.5888-27.316 7.8405-30.103" fill="#42e106"/>
  <path d="m150.58 36.106c4.6996 2.6216 8.3376 7.8505 11.011 13.718-8.8348 1.2545-19.285-16.621-26.426-23.243 5.7289 1.2584 11.505 4.1474 15.416 9.5257" fill="#bfbfbf"/>
  <path d="m217.6 27.533c-4.0841 3.6126-8.7287 5.6654-12.8 9.3369-4.0907-10.922 9.848-10.8 12.802-9.3369" fill="#dac8b8"/>
  <path d="m267.43 30.774c15.619 0.73143 28.552 4.9903 42.527 14.669 7.9504 5.508 15.103 10.871 22.71 15.432 17.558 10.527 35.496 21.459 53.126 31.056-6.4722-2.6819-17.57-2.4774-24.773-2.4774-13.016 0-23.149-5.0964-34.89-12.479-9.3755-5.8948-19.84-15.625-29.934-22.196-13.882-9.0341-28.588-16.618-41.978-27.627 4.4789-0.3028 9.2609 2.8314 13.219 3.6218" fill="#e2d3c7"/>
  <path d="m263.02 38.585c23.733 17.123 50.572 29.002 72.945 50.87-10.444 3.5838-20.622 9.3422-30.555 12.766 0.19222-16.321-4.9638-33.869-18.787-35.342-6.4211-0.68424-12.437 2.0894-18.787 1.4288-7.2619-0.75503-6.458 0.65277-9.0156-10.479-2.4573-10.7-5.7336-21.084-11.218-29.53 5.3312 2.3988 10.927 7.4179 15.425 10.286" fill="#aa8363"/>
  <path d="m149.2 49.063c1.9364 1.6189 10.291 5.3127 10.735 6.8595 1.9204 6.6825-3.9013 7.2187-6.8131 5.048-7.5508-5.626-12.407-21.714-18.787-5.5251-4.8454 12.29-13.779 32.021-22.572 13.813 2.9004-6.4964 13.791-37.287 19.819-38.486 3.8445-0.76551 14.62 15.583 17.613 18.29" fill="#0fb9f1"/>
  <path d="m163.79 37.442c-0.0265 1.9072-0.0397 3.3229-0.82571 4.9536-1.0549-1.4616-2.1107-2.9218-3.1656-4.3834 1.4014-1.4694 2.4241-0.97132 3.9865-0.5702" fill="#dac8b8"/>
  <path d="m117 41.634c-10.943 2.9349-22.156 4.1264-33.582 6.7625-11.422 2.6361-24.044-1.3619-34.821 1.4288 23.042-6.7821 47.94-1.0355 68.403-8.1913" fill="#c2a58c"/>
  <path d="m113.42 49.635c2.8256 0.87955-3.0661 9.6804-5.2298 13.052-4.0983 6.385-16.707-1.8325-21.195-8.0982 7.5025-3.6034 19.112-4.3572 26.422-4.9536" fill="#b89678"/>
  <path d="m155.4 68.496c-1.9412 5.1384-5.8775 19.969-9.2221 21.91-1.4261 0.82712-16.416-5.0571-17.342-9.9071-0.36551-1.9125 7.582-20.239 8.9465-21.719 4.5017-4.8828 3.1457-3.3387 8.5336 1.3331 3.0302 2.6334 6.2402 6.1923 9.081 8.3827" fill="#ff0"/>
 </g>
 <g stroke-width="1.1141">
  <path d="m95.386 67.353c10.463 12.392 27.307 17.814 39.775 25.149 20.432 12.019 42.022 29.222 63.93 39.343 8.4181 3.8879 9.7353 5.8279 3.0964 14.195-7.0678 8.9057-15.15 16.663-22.64 24.959-11.872 13.147-23.012 27.762-34.752 41.154-5.9912 6.8346-11.215 18.139-18.58 15.431-4.5376-1.6673-10.129-9.9334-14.314-13.338-6.405-5.2105-13.15-9.78-19.544-14.859-8.4295-6.697-16.715-13.379-25.186-19.814-19.927-15.139-43.213-28.314-61.385-47.44 13.63-22.448 36.278-36.344 52.988-54.299 4.335-4.6573 15.161-20.584 20.37-21.339 4.5338-0.64622 11.853 8.8323 16.249 10.871" fill="#9a7350"/>
  <path d="m290.41 72.878c8.0782 3.3321 14.887 23.93 6.743 32.389-5.4628 5.6732-20.779 6.8529-27.8 10.479-3.0065 1.5533-6.1133 3.2456-8.9465 4.7635 11.959-11.551 6.9173-26.552-5.2308-36.581 5.8927-5.3193 5.2602-9.0761 13.008-10.097 7.3292-0.96607 15.255 0.28969 22.224-0.95296" fill="#ec5e03"/>
  <path d="m162.83 74.021c9.3802 2.2808 32.621-4.4909 31.38 16.004-0.73859 12.201-11.553 10.117-7.8452 26.864-8.5829-4.6822-16.698-10.627-25.05-16.005-8.6567-5.5749-10.084-3.627-7.9825-14.098 1.392-7.0011 5.3596-13.074 9.4881-12.765" fill="#0d008f"/>
 </g>
 <g stroke-width="1.1141">
  <path d="m255.59 90.026c2.9818 3.5012 5.2687 8.0536 7.1568 12.765-5.1333-3.6624-8.6208-10.046-11.975-16.385 1.7044 0.83105 3.3426 2.096 4.8198 3.6205" fill="#bfffde"/>
  <path d="m252.98 97.265c3.0074 4.9234 6.779 8.9371 11.011 11.623-3.5869 8.0288-22.246 26.851-29.177 19.434-2.0444-2.1878-4.8397-25.008-3.4411-28.198 3.5983-8.2306 18.74-11.976 21.599-2.8589" fill="#00a0c6"/>
  <path d="m358.81 115.56c11.851 22.689 22.309 46.843 32.756 71.065-36.121 19.657-71.803 36.49-108.66 52.205-6.3453 2.7055-13.605 10.165-19.061 5.145-6.048-5.5657-10.783-28.038-14.59-36.774-9.4749-21.735-23.793-42.946-31.105-65.921 23.674-8.1192 47.452-16.428 70.605-26.674 13.26-5.8672 26.9-9.1704 40.327-15.812 16.334-8.0864 15.653-1.5664 29.733 16.757" fill="#ccb19c"/>
  <path d="m215.82 96.695c3.1457-0.15075 6.2961 0.27004 9.3594 1.3331-8.3357 8.5295-25.611 11.476-35.371 7.2409 7.4996-6.7585 17.196-9.4116 26.012-8.574" fill="#bfbfbf"/>
  <path d="m230.82 127.18c-1.035 17.43-40.587-0.33295-41.015-15.814 8.5526-0.20578 17.409 0.46797 25.737-2.286 4.7971-1.5861 10.518-9.2793 12.662-0.38146 1.4772 6.1398 0.28408 13.419 2.6135 18.481" fill="#ffbf00"/>
  <path d="m211.82 143.75c2.9923 58.823-1.9535 117.83 0.96491 176.33 0.75186 15.063 1.0909 30.336 1.6514 45.059 0.1837 4.833 0.65527 7.3471-0.27555 11.62-0.22821 1.0474 1.8313 3.509 0.82665 4.7648-3.3332 4.1684-6.5451-1.6477-9.6349-3.8119-6.2942-4.4096-12.462-8.519-18.788-12.668-32.245-21.15-63.574-44.553-93.522-69.828-3.9392-3.3242-12.14-8.0969-14.727-12.956-3.1646-5.9459-2.2934-14.04-2.6154-21.337-0.72913-16.533-0.54353-32.655-1.2386-48.203-0.27555-6.1661-0.20738-13.905-0.96396-20.196-0.45736-3.8118 18.206 12.492 20.714 13.719 6.8112 3.3308 14.017 10.831 20.507 15.624 4.2223 3.1171 7.689 11.324 12.457 12.955 10 3.4212 33.66-35.077 43.216-46.487 12.509-14.943 26.542-35.576 41.437-44.603" fill="#8c694b"/>
  <path d="m236.59 187.01c6.85 17.524 14.943 33.967 21.608 51.632 4.5017 11.931 4.2479 17.586 13.832 11.907 19.767-11.713 44.791-24.81 65.719-30.389 0.14771 17.451 1.2272 35.195 1.2405 51.44 6e-3 8.1782 2.0804 27.391-1.5141 33.913-2.6637 4.8343-15.253 11.488-19.958 13.813-13.238 6.5462-26.609 13.617-39.5 21.436-15.258 9.2544-30.416 18.859-45.556 28.386-4.3899 2.7619-8.7713 5.5618-13.076 8.5727-2.6902-34.063-5.1228-71.678-3.853-104.6 1.5709-40.74 3.3464-84.364 0.27555-126.32 8.8064 11.247 13.011 28.563 20.785 40.229" fill="#ba987a"/>
 </g>
</svg>
