<?xml version="1.0" encoding="UTF-8" standalone="no"?>
<!-- Generator: Adobe Illustrator 12.0.0, SVG Export Plug-In . SVG Version: 6.00 Build 51448)  -->

<svg
   id="Layer_1"
   space="preserve"
   sodipodi:docname="magazz.svg"
   viewBox="0 0 400 399.99998"
   sodipodi:version="0.32"
   version="1.1"
   inkscape:version="1.2 (dc2aedaf03, 2022-05-15)"
   width="400"
   height="400"
   inkscape:export-filename="magazz.png"
   inkscape:export-xdpi="96"
   inkscape:export-ydpi="96"
   xmlns:inkscape="http://www.inkscape.org/namespaces/inkscape"
   xmlns:sodipodi="http://sodipodi.sourceforge.net/DTD/sodipodi-0.dtd"
   xmlns="http://www.w3.org/2000/svg"
   xmlns:svg="http://www.w3.org/2000/svg"
   xmlns:rdf="http://www.w3.org/1999/02/22-rdf-syntax-ns#"
   xmlns:cc="http://creativecommons.org/ns#"
   xmlns:dc="http://purl.org/dc/elements/1.1/">
  <defs
     id="defs994" />
  <sodipodi:namedview
     id="base"
     bordercolor="#666666"
     inkscape:pageshadow="2"
     inkscape:window-width="1920"
     pagecolor="#ffffff"
     inkscape:zoom="1.2597763"
     inkscape:window-x="-8"
     borderopacity="1.0"
     inkscape:current-layer="Layer_1"
     inkscape:cx="209.56101"
     inkscape:cy="157.96455"
     inkscape:window-y="-8"
     inkscape:window-height="1017"
     inkscape:pageopacity="0.0"
     inkscape:showpageshadow="2"
     inkscape:pagecheckerboard="0"
     inkscape:deskcolor="#d1d1d1"
     showgrid="false"
     inkscape:window-maximized="1" />
  <path
     id="path3"
     d="m 197.23064,14.197116 c 6.51103,2.13925 3.96854,11.212707 10.66705,9.526996 6.13226,-1.544132 12.75693,-0.54661 18.0985,-1.524472 2.90042,-0.53088 5.55937,-3.847242 8.53271,-3.810539 3.63427,0.04326 5.46278,3.00832 8.53459,3.619161 8.76754,1.743391 18.40814,2.570516 27.52508,4.57212 8.06587,1.770918 17.90154,1.289845 25.4627,4.000606 8.13973,2.919195 15.19239,11.457844 22.57174,16.766633 17.51994,12.604797 36.53693,21.815891 54.91572,32.198872 5.76107,3.254746 18.02463,7.235686 22.29619,13.144855 3.5822,4.956177 2.9705,2.929663 -2.34079,4.191969 -5.31316,1.263627 -13.3743,-0.869062 -18.99333,-1.334407 -9.23721,-0.764207 -19.96487,-3.678148 -27.11412,-2.476124 12.8213,21.878804 27.06583,41.849074 37.57571,67.255294 2.00652,4.85134 10.13962,20.69907 9.63396,25.72081 -0.64012,6.34695 -9.93699,8.99611 -14.17729,11.43162 -6.61993,3.80266 -13.43965,6.5816 -20.16278,10.00284 -5.28666,2.69107 -10.5951,4.91946 -15.7596,8.0982 -5.50161,3.38452 -3.5055,8.22405 -3.44017,15.4309 0.16856,18.52184 0.55111,37.02791 0.55111,55.63232 0,18.80887 0.0947,20.55882 -11.5619,28.76976 -32.37616,22.80817 -69.14414,36.10902 -100.88492,60.58716 -6.52428,5.03092 -11.85923,13.38605 -18.99334,11.43163 -4.81604,-1.32 -9.04592,-8.7497 -13.83261,-10.95579 -26.79596,-12.35575 -52.74347,-36.85619 -77.41833,-55.728 C 107.29686,311.86351 95.837222,302.45056 84.50921,292.74399 74.082667,283.80945 73.639508,284.74276 72.947309,267.78476 71.980504,244.10751 73.037269,219.2007 70.470165,196.1474 69.257159,185.25455 67.833938,183.95551 60.078659,179.00064 53.524074,174.81258 47.067023,169.71482 40.741593,165.09289 32.590501,159.13785 24.354185,152.12631 16.518418,145.65875 14.684232,144.14476 2.3373344,137.69423 1.791908,135.94167 -2.7059657,121.49126 67.041366,68.17385 75.563652,54.587262 63.812367,50.996934 49.601929,51.445237 37.576985,51.158177 c -13.297606,-0.317226 -6.563107,-3.708312 3.441109,-4.95358 7.716456,-0.959508 17.206494,-1.575601 24.223175,-2.095998 12.171718,-0.903141 26.635934,-4.763488 40.050951,-4.763488 5.4145,0 13.0874,-0.203175 18.03032,-5.144956 7.55169,-7.551604 9.71541,-18.819374 20.85119,-9.335626 9.44364,8.041847 14.21138,10.80374 20.98944,1.143035 4.61055,-6.571121 2.02452,-10.174553 10.59793,-12.193208 6.97881,-1.631962 15.04657,0.208422 21.46669,0.391937"
     style="stroke-width:1.11411" />
  <path
     id="path5"
     style="fill:#bfbfbf;stroke-width:1.11411"
     d="m 178.37745,18.389101 c 6.10196,0.710461 14.56459,-2.398791 20.37016,3.239025 -8.39636,1.625413 -17.63072,3.021424 -25.60001,-1.905925 1.67606,-0.711773 3.76875,-1.230855 5.22701,-1.3331" />
  <path
     id="path7"
     style="fill:#e3e3e3;stroke-width:1.11411"
     d="m 257.237,71.545256 c -1.08044,12.218128 -15.30129,-14.127947 -16.92905,-18.099717 -3.71193,-9.061674 -4.74313,-19.132651 -5.91731,-30.674384 13.68301,-1.658181 22.82079,35.705286 22.8492,48.774101" />
  <path
     id="path9"
     style="fill:#ff0a05;fill-opacity:1;stroke:#006b33;stroke-width:1.11411"
     d="m 174.79809,26.390311 c 7.65963,2.491863 16.16204,0.762905 24.43055,0.762905 2.17887,0 1.46394,6.510815 1.16945,8.382664 -0.95734,6.088731 -2.81141,6.392846 -7.91342,9.717058 -5.28003,3.439592 -10.51272,9.815393 -10.00895,18.643727 0.50944,8.916157 -3.29529,5.156755 -7.40113,5.552618 -4.21664,0.406348 -9.90763,0.300173 -14.31365,-1.523179 1.81146,-7.166215 7.14357,-13.241844 5.22984,-21.338751 3.91078,-3.950797 -0.464,-28.249373 8.81583,-20.197042" />
  <path
     id="path11"
     style="fill:#42e106;fill-opacity:1;stroke-width:1.11411"
     d="m 230.81791,24.485701 c 2.49134,21.288948 7.90868,42.012937 21.74603,53.917754 -5.013,4.785791 -19.72624,20.536535 -24.63698,15.432218 -7.1199,-7.399536 -19.41472,3.1276 -26.56397,-0.381438 -3.80187,-1.865293 -3.2574,-3.046346 -4.40411,-10.192911 -1.51318,-9.42999 -6.48925,-7.027275 -9.35843,-12.860393 -6.40402,-13.01509 5.06982,-19.726455 11.56096,-23.814879 -0.52649,5.573577 -0.16666,11.658389 3.0273,15.432215 2.4762,-8.474415 -2.48187,-16.784986 5.78096,-22.100336 0.50187,6.095288 0.7206,12.208917 3.0273,17.719595 5.76296,-7.368093 -3.67311,-20.570615 9.35937,-25.530742 -0.47157,2.51546 -1.97624,24.744253 2.61634,22.481793 3.69299,-1.823348 -3.58883,-27.316077 7.8405,-30.102876" />
  <path
     id="path13"
     style="fill:#bfbfbf;stroke-width:1.11411"
     d="m 150.57586,36.106081 c 4.69957,2.621633 8.33764,7.850466 11.01079,13.717679 -8.83477,1.25446 -19.28499,-16.621132 -26.42571,-23.243378 5.72887,1.258385 11.50509,4.147416 15.41587,9.525699" />
  <path
     id="path15"
     style="fill:#dac8b8;stroke-width:1.11411"
     d="m 217.5989,27.533345 c -4.08407,3.612609 -8.72872,5.66535 -12.79952,9.336943 -4.0907,-10.921708 9.84796,-10.799806 12.80236,-9.336943" />
  <path
     id="path17"
     style="fill:#e2d3c7;stroke-width:1.11411"
     d="m 267.42586,30.773679 c 15.61851,0.731431 28.5525,4.990284 42.52715,14.669336 7.95035,5.508044 15.10338,10.870584 22.71,15.432213 17.5578,10.52716 35.49626,21.459358 53.12603,31.05584 -6.4722,-2.681929 -17.57011,-2.477446 -24.77333,-2.477446 -13.01637,0 -23.14937,-5.09645 -34.89024,-12.478943 C 316.75,71.079923 306.28559,61.349749 296.19142,54.778626 282.30956,45.7445 267.60389,38.160131 254.21348,27.151899 c 4.47894,-0.302804 9.26088,2.831364 13.21901,3.62178" />
  <path
     id="path19"
     style="fill:#aa8363;stroke-width:1.11411"
     d="m 263.02268,38.584839 c 23.73267,17.12316 50.57219,29.001757 72.94508,50.870092 -10.44359,3.583768 -20.62204,9.342179 -30.55523,12.766029 0.19222,-16.320947 -4.96376,-33.868835 -18.78691,-35.342194 -6.42106,-0.68424 -12.43685,2.089439 -18.7869,1.428799 -7.26194,-0.755032 -6.45799,0.652773 -9.01563,-10.478648 -2.45726,-10.700195 -5.7336,-21.084467 -11.21817,-29.530048 5.33116,2.398786 10.92746,7.417898 15.42534,10.28597" />
  <path
     id="path21"
     style="fill:#0fb9f1;fill-opacity:1;stroke-width:1.11411"
     d="m 149.20283,49.063493 c 1.93644,1.618861 10.29113,5.31272 10.73524,6.859487 1.92035,6.682529 -3.90132,7.218653 -6.8131,5.04795 -7.55075,-5.626017 -12.40655,-21.713644 -18.7869,-5.525088 -4.84539,12.290203 -13.77865,32.020589 -22.57175,13.813371 2.90042,-6.496399 13.79095,-37.28745 19.81905,-38.485534 3.8445,-0.765509 14.62045,15.582968 17.61272,18.289814" />
  <path
     id="path23"
     style="fill:#dac8b8;stroke-width:1.11411"
     d="m 163.7854,37.441805 c -0.0265,1.907227 -0.0397,3.322908 -0.82571,4.953565 -1.05487,-1.461559 -2.11069,-2.921804 -3.16555,-4.383365 1.40144,-1.469414 2.42411,-0.971317 3.98652,-0.5702" />
  <path
     id="path25"
     style="fill:#c2a58c;stroke-width:1.11411"
     d="M 116.99806,41.633788 C 106.05544,44.56871 94.842006,45.760225 83.416466,48.396278 71.994708,51.032331 59.372256,47.034342 48.595353,49.825061 71.637718,43.042914 96.5351,48.789528 116.99806,41.633788" />
  <path
     id="path27"
     style="fill:#b89678;fill-opacity:1;stroke-width:1.11411"
     d="m 113.4187,49.634998 c 2.8256,0.879552 -3.06614,9.68037 -5.22985,13.051788 -4.09827,6.384964 -16.707464,-1.832528 -21.194922,-8.098209 7.502456,-3.603438 19.111702,-4.357157 26.421922,-4.953579" />
  <path
     id="path29"
     style="fill:#ffff00;stroke-width:1.11411"
     d="m 155.39569,68.496314 c -1.94119,5.138392 -5.87754,19.968955 -9.22207,21.910277 -1.42606,0.827121 -16.41581,-5.057127 -17.3419,-9.90714 -0.36551,-1.912496 7.582,-20.238981 8.94651,-21.718886 4.50166,-4.882791 3.14567,-3.338655 8.53365,1.333085 3.03015,2.63343 6.2402,6.192299 9.08097,8.382664" />
  <path
     id="path31"
     style="fill:#9a7350;fill-opacity:1;stroke-width:1.11411"
     d="m 95.385536,67.353287 c 10.462524,12.392453 27.307294,17.813974 39.775404,25.149289 20.43171,12.018854 42.02245,29.221994 63.9304,39.342804 8.41812,3.88788 9.73528,5.82788 3.09642,14.19482 -7.06781,8.90568 -15.14977,16.66307 -22.63992,24.95923 -11.87154,13.14747 -23.01206,27.76174 -34.75198,41.15435 -5.99117,6.83458 -11.21533,18.13904 -18.58047,15.43089 -4.53765,-1.66734 -10.12922,-9.93335 -14.31366,-13.33754 -6.40497,-5.21049 -13.149891,-9.77998 -19.544442,-14.85939 C 83.927804,192.69079 75.642245,186.00825 67.171094,179.57346 47.244097,164.43486 23.958372,151.25986 5.786019,132.13376 19.415994,109.68606 42.064441,95.790098 58.773801,77.834554 63.108805,73.17724 73.934948,57.250835 79.143958,56.4958 c 4.53385,-0.646216 11.852609,8.83227 16.249153,10.870579" />
  <path
     id="path33"
     style="fill:#ec5e03;fill-opacity:1;stroke-width:1.11411"
     d="m 290.40762,72.878376 c 8.07818,3.332084 14.88749,23.930234 6.74303,32.388924 -5.46279,5.6732 -20.77923,6.85294 -27.7997,10.47865 -3.00647,1.55331 -6.11332,3.24557 -8.94651,4.7635 11.95867,-11.55091 6.91726,-26.551868 -5.23079,-36.580906 5.8927,-5.319297 5.26015,-9.076103 13.00785,-10.09721 7.32917,-0.966073 15.2549,0.289687 22.22423,-0.952958" />
  <path
     id="path35"
     style="fill:#0d008f;fill-opacity:1;stroke-width:1.11411"
     d="m 162.82901,74.021415 c 9.3802,2.280806 32.62142,-4.490856 31.38,16.003727 -0.73859,12.201058 -11.55338,10.116868 -7.84523,26.863848 -8.5829,-4.68224 -16.698,-10.62679 -25.04984,-16.00506 -8.65674,-5.574898 -10.08376,-3.62703 -7.98254,-14.097823 1.39197,-7.001056 5.35956,-13.074052 9.48814,-12.764692" />
  <path
     id="path37"
     style="fill:#bfffde;stroke-width:1.11411"
     d="m 255.58936,90.026451 c 2.98185,3.501194 5.26866,8.053641 7.15682,12.764729 -5.13326,-3.662429 -8.62077,-10.046107 -11.97475,-16.385202 1.70445,0.831048 3.34262,2.095985 4.81982,3.620473" />
  <path
     id="path39"
     style="fill:#00a0c6;stroke-width:1.11411"
     d="m 252.97586,97.264778 c 3.00741,4.923412 6.779,8.937132 11.01079,11.622982 -3.58694,8.02875 -22.24601,26.85073 -29.17747,19.43415 -2.0444,-2.18775 -4.83971,-25.00774 -3.44111,-28.19826 3.5983,-8.230608 18.73956,-11.975608 21.59926,-2.858872" />
  <path
     id="path41"
     style="fill:#ccb19c;fill-opacity:1;stroke-width:1.11411"
     d="m 358.81317,115.55588 c 11.85071,22.6889 22.30945,46.84328 32.75588,71.06453 -36.12123,19.65698 -71.8031,36.49046 -108.65914,52.20451 -6.34532,2.70551 -13.60535,10.16536 -19.06057,5.14495 -6.04798,-5.56572 -10.78258,-28.03834 -14.59015,-36.7736 -9.47489,-21.73463 -23.79327,-42.94623 -31.10539,-65.92089 23.67395,-8.11919 47.45208,-16.42845 70.60523,-26.67379 13.25973,-5.86719 26.90012,-9.17045 40.32651,-15.812335 16.33438,-8.08643 15.6526,-1.56643 29.73331,16.757445" />
  <path
     id="path43"
     style="fill:#bfbfbf;stroke-width:1.11411"
     d="m 215.81868,96.694568 c 3.14568,-0.150747 6.29609,0.270037 9.35937,1.333086 -8.33574,8.529486 -25.61136,11.476196 -35.37127,7.240946 7.49961,-6.758547 17.19608,-9.411638 26.0119,-8.574032" />
  <path
     id="path45"
     style="fill:#ffbf00;stroke-width:1.11411"
     d="m 230.81791,127.17888 c -1.03498,17.42989 -40.58691,-0.33295 -41.01492,-15.81368 8.55259,-0.20578 17.40914,0.46797 25.7373,-2.28605 4.7971,-1.58609 10.51839,-9.279262 12.66222,-0.38146 1.47721,6.13985 0.28408,13.41881 2.61351,18.48119" />
  <path
     id="path47"
     style="fill:#8c694b;fill-opacity:1;stroke-width:1.11411"
     d="m 211.82268,143.75282 c 2.99227,58.82282 -1.9535,117.82522 0.96491,176.33083 0.75186,15.06258 1.09086,30.33618 1.65144,45.05925 0.1837,4.83298 0.65527,7.34712 -0.27555,11.62038 -0.22821,1.04735 1.83134,3.50905 0.82665,4.76481 -3.33316,4.1684 -6.54511,-1.6477 -9.63491,-3.81186 -6.29418,-4.40958 -12.46243,-8.51897 -18.78785,-12.66771 -32.24455,-21.15 -63.57436,-44.55327 -93.52167,-69.82841 -3.939195,-3.32423 -12.139522,-8.0969 -14.726509,-12.9561 -3.16461,-5.94586 -2.293442,-14.04013 -2.615395,-21.33744 -0.729129,-16.53332 -0.543534,-32.65501 -1.238573,-48.20259 -0.275553,-6.16607 -0.207376,-13.90513 -0.963965,-20.19575 -0.457363,-3.81185 18.206446,12.49209 20.71389,13.719 6.811202,3.33078 14.017262,10.83127 20.507462,15.62361 4.22231,3.11711 7.689,11.32413 12.45674,12.95478 10.00042,3.42124 33.66018,-35.0774 43.2165,-46.48675 12.50883,-14.94327 26.54219,-35.57551 41.43725,-44.60309" />
  <path
     id="path49"
     style="fill:#ba987a;fill-opacity:1;stroke-width:1.11411"
     d="m 236.59412,187.00579 c 6.85003,17.52428 14.94336,33.96713 21.60779,51.63167 4.50166,11.93104 4.24788,17.5859 13.83166,11.90745 19.76698,-11.71344 44.79125,-24.80978 65.71914,-30.38862 0.14771,17.45088 1.22721,35.19538 1.24046,51.44031 0.006,8.17818 2.08038,27.39079 -1.51412,33.91341 -2.66369,4.83428 -15.253,11.48798 -19.95825,13.81336 -13.23794,6.54622 -26.60941,13.61673 -39.49985,21.43575 -15.25773,9.25436 -30.41603,18.8587 -45.55635,28.3857 -4.38992,2.7619 -8.77132,5.5618 -13.07602,8.57273 -2.6902,-34.06283 -5.12284,-71.67797 -3.85302,-104.59648 1.57094,-40.74012 3.34642,-84.36403 0.27555,-126.31798 8.80637,11.24679 13.0107,28.56266 20.78491,40.2289" />
  <metadata
     id="metadata991">
    <rdf:RDF>
      <cc:Work>
        <dc:format>image/svg+xml</dc:format>
        <dc:type
           rdf:resource="http://purl.org/dc/dcmitype/StillImage" />
        <cc:license
           rdf:resource="http://creativecommons.org/publicdomain/zero/1.0/" />
      </cc:Work>
      <cc:License
         rdf:about="http://creativecommons.org/publicdomain/zero/1.0/">
        <cc:permits
           rdf:resource="http://creativecommons.org/ns#Reproduction" />
        <cc:permits
           rdf:resource="http://creativecommons.org/ns#Distribution" />
        <cc:permits
           rdf:resource="http://creativecommons.org/ns#DerivativeWorks" />
      </cc:License>
    </rdf:RDF>
  </metadata>
</svg>
