<svg width="396.37mm" height="397.46mm" version="1.1" viewBox="0 0 396.37 397.46" xmlns="http://www.w3.org/2000/svg">
 <g transform="translate(414.01 81.368)">
  <path d="m-394 175.42c0-96.45 0.0885-120.62 0.44098-120.39 0.24253 0.15269 31.635 18.241 69.762 40.195l69.321 39.918 0.17639-40.116 0.17639-40.116 65.138 43.896 59.846 39.36-0.66695-32.01-0.66695-166.57c33.375-0.0242 53.549-1.5119 92.829 0l-0.75595 195.64v160.87h-355.6zm101.6 36.004v-21.167h-67.733v42.333h67.733zm110.07 0v-21.167h-67.733v42.333h67.733zm110.07 0v-21.167h-67.733v42.333h67.733z" fill="#1b84db" stroke-width=".35278"/>
  <g transform="matrix(-.1061 -.40549 .40549 -.1061 -680.16 179.86)">
   <g transform="matrix(.33539 .47129 -.47129 .33539 121.53 696.48)" fill="#1b84db">
    <circle transform="matrix(.69695 0 0 .69695 107.02 136.77)" cx="344.29" cy="396.65" r="70"/>
    <path d="m357.12 75.219c-88.706 0-167.25 33.723-215.5 85.562l40 61.656c35.116-46.921 100.55-78.469 175.5-78.469 69.397 0 130.64 27.063 167.22 68.312l41.469-58.531c-48.658-47.848-124.05-78.531-208.69-78.531z"/>
    <path d="m350 229.5c-50.457 0-96.517 18.781-131.56 49.688l33.781 52.094c26.406-22.235 60.515-35.656 97.781-35.656 34.984 0 67.177 11.815 92.844 31.656l35.844-50.625c-34.677-29.42-79.598-47.156-128.69-47.156z"/>
    <path transform="translate(-16.162 -216.17)" d="m372.16 138.25c-116.58 0-221.31 45.127-293.44 116.81l37.906 58.406c53.301-61.704 147.01-102.69 253.78-102.69 105.95 0 199.07 40.34 252.59 101.25l41.312-58.281c-72.107-70.929-176.27-115.5-292.16-115.5z"/>
   </g>
  </g>
  <g transform="matrix(.96417 0 0 1.156 -12.306 1.3837)" style="font-feature-settings:normal;font-variant-caps:normal;font-variant-ligatures:normal;font-variant-numeric:normal" aria-label="4.0">
   <path d="m-259.09 32.211v-26.349l40.356-53.392h42.159v53.808h11.094v25.933h-10.956v20.109h-34.948v-20.109zm47.845-25.795v-13.452l0.83208-6.518 0.69341-5.4085 0.55472-5.4085-2.3576 4.4378-3.051 5.5472-3.1896 5.5472-0.27737 0.41604-11.094 14.839z" fill="#1b84db" stroke-width="3.2503"/>
   <path d="m-155.88 36.787q0-6.934 4.9925-11.927 5.1312-5.1312 12.343-5.1312 7.2114 0 12.204 5.1312 5.1312 4.9925 5.1312 12.204 0 7.2114-5.1312 12.204-4.9925 4.9925-12.204 4.9925-7.3501 0-12.343-4.9925-4.9925-5.1312-4.9925-12.481z" fill="#1b84db" stroke-width="3.2503"/>
   <path d="m-123.19 5.7389q0-5.7751 0.986-10.846 3.5214-19.438 16.48-30.988 12.959-11.55 30.566-11.55 17.748 0 30.566 11.55 12.959 11.409 16.621 30.988 0.98601 5.0708 0.98601 10.846 0 5.916-0.98601 10.846-3.6623 19.579-16.621 30.988-12.818 11.409-30.566 11.409-17.748 0-30.707-11.409-12.818-11.409-16.339-30.988-0.986-4.93-0.986-10.846zm41.271 17.889q2.958 2.958 6.902 2.958 5.4934 0 8.5923-5.4934 1.5494-2.958 2.3946-6.4794 0.84514-3.5214 0.84514-8.7331 0-6.4794-1.4086-10.846-1.2677-4.5074-3.8031-7.0428-2.958-2.958-6.7611-2.958-5.4934 0-8.7331 5.6343-3.2397 5.6343-3.2397 15.213 0 6.4794 1.2677 10.846 1.4086 4.3666 3.944 6.902z" fill="#fff" stroke-width="3.3013"/>
  </g>
 </g>
</svg>
