<?xml version="1.0" encoding="UTF-8" standalone="no"?>
<svg
   id="svg2"
   viewBox="0 0 400 400"
   sodipodi:version="0.32"
   sodipodi:docname="inform.svg"
   version="1.1"
   width="400"
   height="400"
   inkscape:version="1.2 (dc2aedaf03, 2022-05-15)"
   inkscape:export-filename="inform.png"
   inkscape:export-xdpi="96"
   inkscape:export-ydpi="96"
   xmlns:inkscape="http://www.inkscape.org/namespaces/inkscape"
   xmlns:sodipodi="http://sodipodi.sourceforge.net/DTD/sodipodi-0.dtd"
   xmlns:xlink="http://www.w3.org/1999/xlink"
   xmlns="http://www.w3.org/2000/svg"
   xmlns:svg="http://www.w3.org/2000/svg"
   xmlns:rdf="http://www.w3.org/1999/02/22-rdf-syntax-ns#"
   xmlns:cc="http://creativecommons.org/ns#"
   xmlns:dc="http://purl.org/dc/elements/1.1/">
  <defs
     id="defs4">
    <linearGradient
       id="linearGradient1364">
      <stop
         id="stop1366"
         stop-color="#830f0f"
         offset="0" />
      <stop
         id="stop1368"
         stop-color="#220505"
         offset="1" />
    </linearGradient>
    <radialGradient
       id="radialGradient1343"
       gradientUnits="userSpaceOnUse"
       cy="7.9666734"
       cx="31.733648"
       gradientTransform="matrix(0.20528261,1.0056719,-0.86485378,0.17654768,32.213252,-4.1423655)"
       r="27.5"
       fx="31.733648"
       fy="7.9666734">
      <stop
         id="stop2124"
         stop-color="#f64343"
         offset="0" />
      <stop
         id="stop2126"
         stop-color="#811515"
         offset="1" />
    </radialGradient>
    <linearGradient
       id="linearGradient1346"
       y2="63.66"
       xlink:href="#linearGradient1364"
       gradientUnits="userSpaceOnUse"
       x2="63.487999"
       y1="8.6307001"
       x1="10.018" />
    <radialGradient
       id="radialGradient2812"
       gradientUnits="userSpaceOnUse"
       cy="14.047"
       cx="18.386999"
       gradientTransform="matrix(0.011424,1.0988,-1.844,0.018788,52.151,-5.6674)"
       r="27.5">
      <stop
         id="stop2816"
         stop-color="#e6e6e6"
         offset="0" />
      <stop
         id="stop2818"
         stop-color="#611"
         stop-opacity="0"
         offset="1" />
    </radialGradient>
    <linearGradient
       id="linearGradient2832"
       y2="63.66"
       xlink:href="#linearGradient1364"
       gradientUnits="userSpaceOnUse"
       x2="63.487999"
       gradientTransform="translate(-0.002841,-0.002841)"
       y1="8.6307001"
       x1="10.018" />
    <linearGradient
       id="linearGradient2848"
       y2="23.858999"
       gradientUnits="userSpaceOnUse"
       x2="-0.33713999"
       y1="22.650999"
       x1="-0.56686002"
       gradientTransform="matrix(20.915,0,0,20.915,34.086326,-457.89208)">
      <stop
         id="stop2844"
         stop-color="#fff"
         offset="0" />
      <stop
         id="stop2846"
         stop-color="#c8c8c8"
         offset="1" />
    </linearGradient>
    <linearGradient
       id="linearGradient10435"
       y2="24.944"
       xlink:href="#linearGradient7925"
       gradientUnits="userSpaceOnUse"
       x2="25.701"
       gradientTransform="scale(0.89256,1.1204)"
       y1="51.917"
       x1="68.289001"
       inkscape:collect="always" />
    <linearGradient
       id="linearGradient7925">
      <stop
         id="stop7926"
         style="stop-color:#d0d0d0"
         offset="0" />
      <stop
         id="stop7927"
         style="stop-color:#a6a3a3"
         offset="1" />
    </linearGradient>
    <linearGradient
       id="linearGradient10439"
       y2="37.499001"
       xlink:href="#linearGradient6053"
       gradientUnits="userSpaceOnUse"
       x2="63.214001"
       gradientTransform="scale(1.0181,0.98223)"
       y1="22.576"
       x1="67.512001"
       inkscape:collect="always" />
    <linearGradient
       id="linearGradient6053"
       inkscape:collect="always">
      <stop
         id="stop6054"
         style="stop-color:#eeeeef"
         offset="0" />
      <stop
         id="stop6055"
         style="stop-color:#eeeeef;stop-opacity:0"
         offset="1" />
    </linearGradient>
    <linearGradient
       id="linearGradient10443"
       y2="60.886002"
       xlink:href="#linearGradient6053"
       gradientUnits="userSpaceOnUse"
       x2="46.098999"
       gradientTransform="scale(1.0181,0.98223)"
       y1="89.566002"
       x1="31.621"
       inkscape:collect="always" />
  </defs>
  <sodipodi:namedview
     id="base"
     bordercolor="#666666"
     pagecolor="#ffffff"
     showgrid="false"
     borderopacity="1.0"
     showguides="false"
     inkscape:showpageshadow="2"
     inkscape:pageopacity="0.0"
     inkscape:pagecheckerboard="0"
     inkscape:deskcolor="#d1d1d1"
     inkscape:zoom="1.0729879"
     inkscape:cx="98.789558"
     inkscape:cy="141.6605"
     inkscape:window-width="1920"
     inkscape:window-height="1017"
     inkscape:window-x="-8"
     inkscape:window-y="-8"
     inkscape:window-maximized="1"
     inkscape:current-layer="svg2" />
  <g
     id="layer1"
     transform="matrix(8.3760741,0,0,8.3760741,-67.34655,-67.34655)">
    <g
       id="g1353">
      <path
         id="path1373"
         fill="url(#linearGradient1346)"
         d="m 32,8.6307 c -12.887,0 -23.369,10.482 -23.369,23.369 -3e-4,12.887 10.482,23.369 23.369,23.369 12.887,0 23.369,-10.482 23.369,-23.369 C 55.369,19.1127 44.887,8.6307 32,8.6307 Z"
         style="fill:url(#linearGradient1346)" />
      <path
         id="path1339"
         fill="url(#radialGradient1343)"
         d="M 54.5,32 C 54.5,44.42 44.42,54.5 32,54.5 19.58,54.5 9.5,44.42 9.5,32 9.5,19.58 19.58,9.5 32,9.5 44.42,9.5 54.5,19.58 54.5,32 Z"
         style="fill:url(#radialGradient1343)" />
      <path
         id="path1341"
         fill="url(#radialGradient2812)"
         d="m 32.017,9.1562 c -9.442,0 -17.512,5.7088 -20.955,13.813 4.944,2.833 10.331,4.887 16.119,4.625 5.574,-0.314 10.373,-4.063 16.056,-3.782 4.214,-0.096 9.007,1.482 11.252,5.188 C 53.143,17.8472 43.658,9.1562 32.017,9.1562 Z"
         style="fill:url(#radialGradient2812)" />
      <path
         id="path2827"
         fill="url(#linearGradient2832)"
         d="M 32,8.625 C 19.113,8.625 8.625,19.113 8.625,32 8.625,44.887 19.113,55.375 32,55.375 44.887,55.375 55.375,44.887 55.375,32 55.375,19.113 44.887,8.625 32,8.625 Z M 32,9.5 C 44.42,9.5 54.5,19.58 54.5,32 54.5,44.42 44.42,54.5 32,54.5 19.58,54.5 9.5,44.42 9.5,32 9.5,19.58 19.58,9.5 32,9.5 Z"
         style="fill:url(#linearGradient2832)" />
      <path
         id="flowRoot2834"
         d="m 27.79112,24.282331 h -2.707028 l -7.684171,1.275815 v 3.534635 l 0.916704,0.08366 c 1.87754,0.16732 2.401461,0.92026 2.401461,3.576465 v 6.295415 c 0,2.488885 -0.262065,2.96993 -1.921043,3.30457 l -1.397122,0.313725 v 3.534635 h 13.665652 v -3.534635 l -1.35341,-0.313725 c -1.659187,-0.37647 -1.921043,-0.815685 -1.921043,-3.30457 v -14.76599 m -3.798582,-9.95554 c -2.314036,0 -4.322294,1.96601 -4.322294,4.287575 0,2.30065 1.833618,4.183 4.147654,4.183 2.357748,0 4.322503,-1.96601 4.322503,-4.329405 0,-2.30065 -1.790115,-4.14117 -4.147863,-4.14117"
         fill="url(#linearGradient2848)"
         style="fill:url(#linearGradient2848);stroke-width:20.915" />
    </g>
  </g>
  <metadata
     id="metadata187">
    <rdf:RDF>
      <cc:Work>
        <dc:format>image/svg+xml</dc:format>
        <dc:type
           rdf:resource="http://purl.org/dc/dcmitype/StillImage" />
        <cc:license
           rdf:resource="http://creativecommons.org/publicdomain/zero/1.0/" />
      </cc:Work>
      <cc:License
         rdf:about="http://creativecommons.org/publicdomain/zero/1.0/">
        <cc:permits
           rdf:resource="http://creativecommons.org/ns#Reproduction" />
        <cc:permits
           rdf:resource="http://creativecommons.org/ns#Distribution" />
        <cc:permits
           rdf:resource="http://creativecommons.org/ns#DerivativeWorks" />
      </cc:License>
    </rdf:RDF>
  </metadata>
  <g
     id="g10453"
     transform="matrix(1.7346076,-2.0917489,2.0917489,1.7346076,62.568382,223.12822)">
    <path
       id="path1683"
       style="fill:url(#linearGradient10435);stroke:#606060;stroke-width:1.25;stroke-linecap:round;stroke-linejoin:round"
       inkscape:connector-curvature="0"
       d="m 64.661,6.0611 c -4.831,1.9764 -8.619,6.2529 -9.679,11.757 -0.673,3.493 -0.092,6.917 1.339,9.901 -3.895,8.12 -19.113,29.069 -26.331,36.587 -6.581,0.93 -12.171,5.856 -13.497,12.74 -1.006,5.227 0.712,10.321 4.096,13.932 l 2.098,-10.894 c 0.523,-2.72 3.135,-4.488 5.855,-3.964 l 7.917,1.525 c 2.72,0.523 4.488,3.135 3.964,5.855 l -2.186,11.354 c 4.83,-1.977 8.619,-6.253 9.679,-11.757 0.842,-4.372 -0.202,-8.667 -2.544,-12.074 5.389,-9.026 18.947,-28.336 26.036,-34.225 7.218,-0.328 13.571,-5.527 14.996,-12.929 1.007,-5.228 -0.711,-10.321 -4.095,-13.932 l -2.098,10.894 c -0.524,2.72 -3.135,4.488 -5.855,3.964 l -7.917,-1.525 c -2.721,-0.524 -4.489,-3.135 -3.965,-5.855 z" />
    <path
       id="path2940"
       inkscape:connector-curvature="0"
       sodipodi:nodetypes="ccccccccccc"
       style="fill:url(#linearGradient10439)"
       d="m 63.934,7.289 c -4.83,1.9765 -7.335,5.45 -8.395,10.954 -0.672,3.493 -0.092,6.757 1.34,9.74 2.685,3.948 7.516,6.622 13.802,8.277 C 77.9,35.932 84.252,31.857 85.678,24.455 86.685,19.227 86.09,14.134 82.706,10.523 l -2.098,10.894 c -0.524,2.72 -3.135,4.488 -5.855,3.964 l -8.88,-1.685 C 63.153,23.172 61.384,20.56 61.908,17.84 Z" />
    <path
       id="path4183"
       inkscape:connector-curvature="0"
       sodipodi:nodetypes="ccccccccccc"
       style="fill:url(#linearGradient10443)"
       d="m 39.019,94.502 c 4.831,-1.977 7.496,-6.253 8.556,-11.757 0.673,-3.493 0.092,-6.757 -1.339,-9.74 -2.686,-3.948 -7.517,-6.622 -13.803,-8.277 -7.218,0.328 -13.571,4.403 -14.996,11.805 -1.007,5.228 -0.413,10.321 2.971,13.932 l 2.098,-10.894 c 0.524,-2.72 3.136,-4.488 5.856,-3.964 l 8.88,1.685 c 2.72,0.524 4.488,3.136 3.964,5.856 z" />
  </g>
</svg>
