<svg width="400" height="400" version="1.1" viewBox="0 0 400 400" xmlns="http://www.w3.org/2000/svg">
 <defs>
  <linearGradient id="linearGradient3078" x1="127.63" x2="127" y1="47.727" y2="139.43" gradientTransform="matrix(1.9755 0 0 1.9755 -54.23 27.849)" gradientUnits="userSpaceOnUse">
   <stop stop-color="#dae2e1" offset="0"/>
   <stop stop-color="#cbcbd0" offset="1"/>
  </linearGradient>
  <linearGradient id="SVGID_1_" x1="-263.32" x2="65.42" y1="512.57" y2="512.57" gradientTransform="rotate(-90 -152.92 255.03)" gradientUnits="userSpaceOnUse">
   <stop stop-color="#3bd921" offset="0"/>
   <stop stop-color="#007169" offset=".5169"/>
   <stop stop-color="#00473D" offset="1"/>
  </linearGradient>
  <linearGradient id="linearGradient5419" x1="435.95" x2="343.82" y1="677.87" y2="230.38" gradientUnits="userSpaceOnUse">
   <stop stop-color="#d0ea2f" offset=".25"/>
   <stop stop-color="#ec8708" offset="1"/>
  </linearGradient>
  <linearGradient id="linearGradient5421" x1="409.12" x2="452.54" y1="347.11" y2="233.98" gradientUnits="userSpaceOnUse">
   <stop stop-color="#703f06" offset="0"/>
   <stop stop-color="#621e00" offset="1"/>
  </linearGradient>
  <linearGradient id="linearGradient5423" x1="351.64" x2="158.59" y1="288.23" y2="201.36" gradientUnits="userSpaceOnUse">
   <stop stop-color="#38822b" offset="0"/>
   <stop stop-color="#00ce02" stop-opacity="0" offset="1"/>
  </linearGradient>
 </defs>
 <path d="m341.74 116.53c1.8678-12.452 4.3582-15.565 11.207-14.32 6.8486 1.2452 26.772 13.697 24.904-3.1131-1.8678-16.81 3.113-36.11-16.81-28.016-19.923 8.0937-34.865 8.7163-36.733 23.037-1.8678 14.32-3.7355 26.771-3.7355 26.771z" fill="#d40000" stroke="#000" stroke-width="6.3"/>
 <rect transform="rotate(-43.681)" x="-88.33" y="190.38" width="146.31" height="94.012" rx="8.7163" ry="8.7163" color="#000000" fill="#d35f72" stroke="#a02c2c" stroke-width="1.9755px"/>
 <rect transform="rotate(-14.616)" x="135.09" y="130.05" width="146.31" height="94.012" rx="8.7163" ry="8.7163" color="#000000" fill="#00aad4" stroke="#045" stroke-width="1.9755px"/>
 <g transform="matrix(.075474 .1872 -.1872 .075474 305.13 104.01)">
  <g transform="translate(4.0406,-68.69)">
   <path d="m404.25 693.33c205.07 93.329 322.49-370.73 92.036-351.88-52.37 12.89-118.11 23.937-187.14 1.6726-242.8-24.351-95.055 436.5 95.1 350.21z" fill="url(#linearGradient5419)"/>
   <path d="m426.79 265.96c-8.1595-24.063-9.0009-33.491-5.0508-33.335 23.513-4.567 32.962 10.557 43.437 24.244-14.542 0.5411-19.918 6.3201-25.254 12.122-17.628 32.357-19.297 56.634-26.264 82.327l-27.274 2.0203c20.262-19.774 29.904-59.692 40.406-87.378z" fill="url(#linearGradient5421)"/>
   <path d="m410.12 307.88c-17.615-70.003-86.197-92.056-140.92-78.287-92.792 23.349 71.872 94.905 140.92 78.287z" fill="url(#linearGradient5423)"/>
   <path d="m390.93 294.24c-60.97-42.23-91.1-45.32-135.36-48.48" fill="none" stroke="#3bae28" stroke-width="1px"/>
  </g>
 </g>
 <g transform="matrix(.34775 .23777 -.23777 .34775 130.96 -3.6923)">
  <path d="m104.63 36.692c90.786 0 164.38 73.591 164.38 164.37 0 90.777-73.596 164.37-164.38 164.37-90.788 0-164.38-73.591-164.38-164.37 0-90.779 73.596-164.37 164.38-164.37z" fill="url(#SVGID_1_)"/>
  <g fill="#fff">
   <path d="m124.6 265.88c0.013-5.689-2.194-11.33-5.977-15.009-7.189-6.998-18.432-6.414-25.113 1.242-3.271 3.748-4.842 8.938-4.825 13.641-0.017 4.696 1.555 9.148 4.825 12.895 6.681 7.654 17.923 8.237 25.113 1.243 3.782-3.683 5.989-8.319 5.977-14.012"/>
   <g stroke="#fff" stroke-miterlimit="10">
    <path d="m61.985 228.45c6.513-6.478 13.458-12.054 21.556-16.19 12.599-6.441 25.599-7.984 39.058-3.425 8.405 2.847 15.715 7.709 22.338 13.767 2.363 2.16 4.596 4.477 6.938 6.771-5.926 5.974-11.689 11.779-17.535 17.667-0.258-0.327-0.40799-0.547-0.589-0.743-3.543-3.776-7.333-7.229-11.675-9.967-7.244-4.574-14.877-6.117-23.075-3.346-5.129 1.735-9.686 4.583-13.903 8.045-2.422 1.986-4.72 4.141-7.118 6.258-5.486-6.025-10.99-12.069-16.563-18.192 0.221-0.253 0.438-0.52 0.568-0.645z"/>
    <path d="m29.012 200.28c0.359-0.26 0.622-0.412 0.843-0.611 5.04-4.546 9.927-9.297 15.145-13.603 10.63-8.766 22.212-15.801 35.083-20.32 12.585-4.415 25.452-5.854 38.595-3.819 11.185 1.727 21.595 5.843 31.403 11.709 9.789 5.853 18.535 13.146 26.652 21.316 1.867 1.881 3.703 3.81 5.604 5.768-5.924 5.968-11.686 11.773-17.547 17.674-0.25-0.33-0.395-0.557-0.572-0.749-7.615-8.269-15.857-15.72-25.355-21.528-8.806-5.381-18.185-8.923-28.406-9.604-8.27-0.55-16.285 0.867-24.079 3.788-9.448 3.545-18.006 8.81-25.901 15.24-5.042 4.107-9.831 8.554-14.869 12.965-5.389-5.915-10.908-11.978-16.596-18.226z"/>
    <path d="m110.8 115.64c1.416 0.137 2.832 0.299 4.248 0.415 17.395 1.394 33.525 7.098 48.734 15.901 17.162 9.937 31.973 23.041 45.549 37.784 0.299 0.321 0.652 0.59 0.979 0.883v0.232c-0.201 0.152-0.422 0.284-0.598 0.465-5.201 5.233-10.395 10.473-15.592 15.706-0.416 0.418-0.842 0.823-1.133 1.103-4.826-4.76-9.453-9.563-14.318-14.08-10.561-9.809-22.039-18.196-34.941-24.279-10.33-4.871-21.107-7.911-32.426-8.571-11.705-0.682-23.092 1.17-34.184 5.115-12.818 4.555-24.5 11.409-35.507 19.61-8.641 6.438-16.718 13.595-24.394 21.263-0.493 0.491-1.012 0.955-1.551 1.465-5.589-6.138-11.089-12.18-16.72-18.364 0.388-0.323 0.686-0.547 0.96-0.8 6.199-5.677 12.236-11.565 18.629-16.99 13.372-11.348 27.868-20.798 43.871-27.52 11.397-4.788 23.172-7.947 35.444-8.907 1.531-0.119 3.057-0.287 4.585-0.43 2.789-1e-3 5.578-1e-3 8.365-1e-3z"/>
   </g>
  </g>
 </g>
 <path d="m40.414 112.8s15.586 126.36 34.264 143.17c11.975 21.92 207.75 3.378 211.64 5.6181 3.88 2.2401 6.5372 23.344 0 29.881-6.5372 6.5372-201.08 0-201.08 0s-6.5372 16.49 0 23.029c6.5372 6.5372 206.37 4.8639 214.78 0 8.4244-4.8639 42.969-201.7 42.969-201.7zm56.551 12.718c4.0587 0.12675 7.6213 3.0587 8.3345 7.2234l17.349 101.25c0.81519 4.7595-2.4019 9.2481-7.1616 10.063l-17.164 2.9435c-4.7595 0.8152-9.2479-2.3403-10.063-7.0998l-17.349-101.25c-0.8155-4.7595 2.3403-9.2471 7.0998-10.063l17.225-2.9635c0.59494-0.1019 1.1488-0.14159 1.7286-0.12348zm179.75 5.8964c0.5801-7.4e-4 1.1988 4e-3 1.7904 0.12349l17.04 3.4572c4.7329 0.95727 7.8101 5.5772 6.8529 10.31l-20.373 100.69c-15.899 4.1105-5.5155 7.7484-10.248 6.7912l-17.101-3.4573c-4.733-0.95726-7.8101-5.5155-6.8529-10.248l20.373-100.69c0.83759-4.1413 4.4592-6.9711 8.5198-6.9763zm-113.07-3.3649c4.8246-0.20146 8.874 3.5098 9.0754 8.3345l4.3216 102.67c0.20148 4.8246-3.5716 8.874-8.3962 9.0754l-17.41 0.69164c-4.8246 0.20146-8.874-3.51-9.0754-8.3345l-4.2592-102.61c-0.20146-4.8246 3.5099-8.874 8.3345-9.0754zm45.192 0.0617 17.41 0.61738c4.8258 0.17415 8.5705 4.188 8.3963 9.0137l-3.7043 102.67c-0.17425 4.8258-4.188 8.5704-9.0137 8.3962l-17.471-0.61738c-4.8258-0.17405-8.5704-4.188-8.3962-9.0138l3.7043-102.67c0.17427-4.8258 4.2498-8.5704 9.0754-8.3962z" fill="url(#linearGradient3078)" stroke="#0d1110" stroke-width="7.376"/>
 <circle cx="105.15" cy="354.97" r="28.638" color="#000000" fill="#6c5353" stroke="#484537" stroke-width="1.9755px"/>
 <circle cx="275.12" cy="354.97" r="28.638" color="#000000" fill="#6c5353" stroke="#484537" stroke-width="1.9755px"/>
</svg>
