<svg width="120" height="120" enable-background="new 0 0 136.982 136.931" space="preserve" version="1.1" viewBox="0 0 120 120" xmlns="http://www.w3.org/2000/svg">
 <path d="m52.067 49.213c0 2.3296-3.258 1.6811-4.6825 1.6811-2.1482 0-1.8191-2.2148-1.8191-3.6798 0-3.2735-1.5412-11.001 0-13.844 0-2.3296 3.2571-1.6811 4.6805-1.6811 2.1492 0 1.8211 2.2138 1.8211 3.6798v13.844" fill="#f4f4f4" stroke-width=".96506"/>
 <path d="m50.621 31.266c-5.1708 0-5.4188 1.4331-5.4188 6.2111 0 1.8355-1.436 13.837 1.8066 13.837 8.9538 4.2038 6.2266-20.048 3.6122-20.048m-4.3785 18.837c-1.7979-2.0971-0.31557-10.052-0.31557-12.626 0-1.1339-0.54815-3.9838 0.31557-5 0.66782-0.77301 4.4788-0.77398 5.1447 0 1.7998 2.099 0.3175 10.053 0.3175 12.628 0 1.131 0.54912 3.9876-0.3175 4.998-0.66396 0.77398-4.4808 0.77398-5.1447 0" fill="#a0a0a0" stroke-width=".96506"/>
 <path d="m111.19 70.15c0.274-6.825-16.573-8.955-21.603-10.561-6.899-2.207-10.339-7.838-16.552-11.199-6.298-3.406-12.346-1.928-18.855-0.623-10.276 2.06-20.554 4.12-30.829 6.181-5.243 1.052-12.715 0.58-12.811 7.114-0.121 8.16-1.595 17.442-0.253 25.507 0.633 3.806 16.108 7.64 18.909 8.736 8.256 3.232 16.512 6.467 24.768 9.699 4.012 1.572 8.415-0.229 12.463-1.214 11.685-2.84 23.331-5.895 34.641-10.011 5.166-1.879 10.378-2.426 10.306-8.533-0.07-5.031-0.13-10.064-0.19-15.096" fill="#fff" stroke="#000"/>
 <path d="m58.441 101.34c0 6.2939-11.045 0.0566-13.426-0.85944-8.1118-3.1254-16.223-6.2498-24.334-9.3752-3.5245-1.3586-9.4313-2.2334-9.3839-6.5775 0.08526-7.6209 0.17245-15.239 0.25673-22.86 0.093-8.2657 9.8373-2.1481 13.21 1.282 1.9299 1.9622 4.9244 6.8649 7.5577 7.7569 3.3065 1.121 6.614 2.242 9.9206 3.364 3.1874 1.0798 16.547 3.4598 16.483 7.8192-0.09397 6.4846-0.18989 12.966-0.28386 19.45" fill="#f4f4f4" stroke-width=".96345"/>
 <path d="m110.38 87.27c0 2.7502-5.72 3.9367-7.661 4.6764-6.1178 2.3322-12.322 4.3668-18.629 6.0909-2.2347 0.6127-23.56 6.9844-24.004 4.8052-1.101-5.4179-0.13684-11.781-0.10603-17.274 0.029-4.8098-0.31808-6.3309 4.2682-7.5415 12.848-3.3944 25.694-6.7898 38.543-10.185 3.0023-0.79252 7.3475-2.9625 7.4028 2.1505 0.0635 5.7581 0.12688 11.517 0.18126 17.278" fill="#e5e5e5" stroke-width=".91651"/>
 <g stroke-width=".96506">
  <g transform="translate(3.2334 -7.7309)">
   <path d="m27.4 76.15c16.617-3.7164 33.235-7.4329 49.853-11.147-1.7477-1.4225-8.8447-9.003-10.778-8.5832-4.64 1.0017-9.2771 2.0025-13.915 3.0042-11.419 2.4686-22.835 4.9353-34.253 7.402 3.0312 3.1094 6.0625 6.215 9.0928 9.3244" fill="#a0a0a0"/>
   <path d="m53.326 68.682c6.9117-1.5875 13.824-3.1741 20.735-4.7626-3.8062-3.1123-5.8511-6.5711-10.714-5.4188-5.7006 1.3491-11.402 2.6993-17.103 4.0494 2.3605 2.0421 4.7211 4.088 7.0816 6.132" fill="#1a7cc4"/>
   <path d="m50.102 65.427c4.0803 3.3777 5.3155 2.4599 10.564 1.3501 4.0031-0.84732 7.9733-1.8491 11.92-2.929-3.4703-3.6498-5.3947-5.4526-10.212-4.5966-5.0936 0.90619-10.101 2.2418-15.044 3.757 0.90233 0.82898 1.8249 1.6396 2.7716 2.4184" fill="#68a0f2"/>
   <path d="m62.322 41.066c0 4.4393-24.655 2.2862-28.025 2.0865-2.3769-0.1409-4.8484 0.23837-4.8484-2.8402v-9.2231c0-5.1611 24.101-2.6838 27.626-2.4011 3.2484 0.2567 5.248 0.0965 5.248 3.7917v8.5861" fill="#f4f4f4"/>
   <path d="m30.858 28.618c-2.8382-0.0086-3.2001 14.468 0.34935 14.746 9.8639 0.77398 19.824 0.69194 29.69-0.02606 2.8768 0 3.1847-14.389-0.30303-14.754-9.8388-1.0297-19.903-1.1957-29.736 0.03378m0.05984 13.88c-1.8027-0.0039-2.2814-12.802 0.27311-13.072 9.8272-1.0336 19.829-1.1494 29.652 0.02895 1.8452 0.0097 2.2505 12.902-0.23644 13.058-9.9121 0.62439-19.781 0.64562-29.689-0.01544" fill="#a0a0a0"/>
   <path d="m59.433 39.244c0 2.8875-19.245 1.5161-21.483 1.4292-1.3993-0.055-5.6128 0.5829-5.6128-1.7149 0-1.4746-0.71993-5.0984 0-6.3433 0-3.1519 19.492-1.6281 22.025-1.4785 6.1416 0.35997 5.0714 2.4377 5.0714 8.1074" fill="#1a7cc4"/>
   <path d="m58.71 38.665c0 2.3422-16.569 1.2912-18.341 1.2469-1.4534-0.03571-5.7016 0.60413-6.9783-0.53464-1.0509-0.93804-0.32908-4.6699-0.32908-5.91 0-3.1847 17.553-1.6879 19.861-1.5817 6.1465 0.28662 5.7874 0.91198 5.7874 6.7795" fill="#68a0f2"/>
   <path d="m57.263 33.598c0 0.95541-23.24 0.95541-23.24 0 9.65e-4 -0.95251 23.24-0.95251 23.24 0" fill="#7ed8fc"/>
   <path d="m67.921 60.6c0.17757 1.2912-16.847 3.9529-16.951 3.1963-0.18433-1.2874 16.849-3.9529 16.951-3.1963" fill="#7ed8fc"/>
   <path d="m94.823 71.607c-3.9838-1.3009-7.9637-2.6008-11.946-3.9017-4.4779-1.4621-6.0924-1.3762-10.741-0.26153-2.6742 0.64176-5.3464 1.2864-8.0216 1.9253-1.9571 0.46902-8.8428 3.2127-9.9025 2.6028 2.6761 1.325 5.3493 2.6578 8.0177 4.0002 4.4991 2.265 6.2053 2.2814 11.199 1.078 3.674-0.88592 7.346-1.7661 11.018-2.65 2.4049-0.58096 8.6295-3.4009 10.376-2.7929" fill="#5e5d5d"/>
  </g>
  <g transform="translate(3.2334 -7.7309)" fill="#c6c6c6">
   <path d="m67.689 72.795c-2.4069 0.57324-4.8137 1.1494-7.2196 1.7226 4.169 2.1135 6.215 1.0452 10.796-0.055-1.1928-0.55491-2.3837-1.1127-3.5765-1.6676"/>
   <path d="m76.645 70.368c2.5294-0.60509 5.0608-1.2102 7.5902-1.8162-4.2125-1.3115-6.5277-0.497-10.857 0.53657 1.0895 0.42656 2.1772 0.85311 3.2667 1.2797"/>
   <path d="m71.954 74.295c2.7813-0.66492 5.5607-1.3308 8.342-1.9986-4.6323-1.8751-7.0169-0.84346-11.907 0.33198 1.188 0.55394 2.3779 1.1127 3.5649 1.6667"/>
   <path d="m72.658 69.264c-2.5449 0.60702-5.0907 1.214-7.6355 1.823 3.9751 1.8114 6.6792 0.46805 10.917-0.54622-1.0953-0.42656-2.1868-0.85118-3.2812-1.2768"/>
   <path d="m64.303 71.257c-2.3393 0.5607-4.6786 1.1214-7.0179 1.6811 3.4375 2.1125 6.2632 0.57228 10.008-0.32523-0.99787-0.45358-1.9928-0.90329-2.9897-1.3559"/>
   <path d="m72.208 69.094c-2.6693-1.796-6.7496 0.27504-9.5319 0.93996 2.6124 1.8577 6.7467-0.27601 9.5319-0.93996"/>
   <path d="m61.945 70.211c-1.0259 0.24512-5.966 2.1376-6.6193 1.7718 2.2283 1.6811 6.1513-0.32136 8.5784-0.90426-0.63983-0.28373-1.2864-0.67361-1.9591-0.86759"/>
   <path d="m80.977 72.134c2.7311-0.65431 5.4622-1.3115 8.1933-1.9658-4.7992-1.573-7.1183-0.81354-12.093 0.37637 1.3038 0.52982 2.6018 1.0596 3.9027 1.5894"/>
   <path d="m79.988 67.229c-2.9251-1.3839-6.2835 0.17082-9.2105 0.86855 2.6086 1.7574 6.49-0.21521 9.2105-0.86855"/>
  </g>
  <g transform="translate(3.2334 -7.7309)" fill="#e5e5e5">
   <path d="m67.77 72.773c-2.1029 0.48253-4.2057 0.96506-6.3086 1.4476 2.6722 2.1579 6.1021 0.38216 9.0426-0.29627-0.90233-0.38023-1.8047-0.8425-2.734-1.1513"/>
   <path d="m77.057 69.879c2.1251-0.52499 4.2491-1.0509 6.3732-1.5759-3.2677-1.3125-5.6118-0.25381-8.9432 0.56745 0.8367 0.32812 1.7004 0.7981 2.5699 1.0085"/>
   <path d="m72.133 73.546c2.4734-0.5964 4.9478-1.1938 7.4194-1.7921-3.7763-1.2874-6.1021-0.34742-9.999 0.57614 0.83284 0.39278 1.6975 0.94865 2.5796 1.216"/>
   <path d="m72.728 69.243c-2.2495 0.55008-4.4972 1.0992-6.7467 1.6483 2.7958 2.1154 6.5527 0.1187 9.5521-0.61281-0.92838-0.34356-1.8568-0.75468-2.8054-1.0355"/>
   <path d="m64.38 71.241c-2.0575 0.49797-4.114 0.9969-6.1706 1.4958 2.3615 1.9504 5.884 0.08975 8.4616-0.53561-0.74696-0.31557-1.5084-0.75854-2.291-0.96023"/>
   <path d="m71.963 68.987c-2.5284-1.5036-5.9814 0.2374-8.6073 0.84925 2.2949 1.6927 6.131-0.27022 8.6073-0.84925"/>
   <path d="m61.992 70.2c-1.1484 0.27408-5.2904 1.9909-6.2092 1.546 2.3268 1.1272 5.2875-0.33584 7.7282-0.90329-0.50666-0.21424-1.0123-0.42752-1.519-0.64273"/>
   <path d="m81.109 71.366c2.2689-0.5385 4.5367-1.077 6.8056-1.6165-3.728-1.215-5.9033-0.39085-9.7432 0.52113 0.97278 0.36383 1.9417 0.80293 2.9376 1.0953"/>
   <path d="m79.431 67.019c-2.4927-1.0461-5.4738 0.30206-7.9415 0.87627 2.3229 1.2729 5.5481-0.31847 7.9415-0.87627"/>
  </g>
  <g transform="translate(3.2334 -7.7309)" fill="#5e5d5d">
   <path d="m68.389 72.629c-1.4061 0.55105 2.4879 1.8056 3.5649 1.6667-1.187-0.55394-2.3769-1.1127-3.5649-1.6667"/>
   <path d="m65.023 71.086c-1.4679 0.64562 1.9649 1.4659 2.9733 1.3559-0.99111-0.45165-1.9832-0.90426-2.9733-1.3559"/>
   <path d="m71.659 74.649c1.3279 0.63983 2.4561 1.4186 3.8622 1.3771-1.3192-0.63983-2.4522-1.4746-3.8622-1.3771"/>
   <path d="m64.627 70.902c-0.96409-0.48735-1.6531-0.89654-2.6809-0.69195 0.87048 0.65431 1.7236 0.75757 2.6809 0.69195"/>
   <path d="m75.939 70.539c1.3771-0.69677-2.21-1.3897-3.2802-1.2758 1.0944 0.42559 2.1859 0.85022 3.2802 1.2758"/>
   <path d="m72.929 68.921c-1.0249-0.44296-1.8133-0.83574-2.8807-0.65141 0.9361 0.60702 1.8761 0.71993 2.8807 0.65141"/>
   <path d="m80.72 72.469c1.4157 0.59834 2.6751 1.3405 4.1449 1.3173-1.4177-0.60316-2.6674-1.3511-4.1449-1.3173"/>
   <path d="m76.377 70.71c1.4881 0.60316 3.0235 1.6001 4.6004 1.4244-1.492-0.60992-3.0197-1.6126-4.6004-1.4244"/>
   <path d="m73.378 69.088c2.374-0.56649 4.7471-1.1339 7.1212-1.6995-1.6618-0.16213-7.2785 1.2768-7.1212 1.6995"/>
   <path d="m72.658 69.264c-2.5082-0.2181-5.525 1.0423-8.0312 1.6396 2.4802 0.22003 5.5307-1.0423 8.0312-1.6396"/>
   <path d="m63.905 71.079c-2.3335 0.55973-4.6661 1.1185-7.0005 1.6782 1.5788 0.17082 7.0034-1.1542 7.0005-1.6782"/>
   <path d="m64.627 70.902c-1.0172 1.0635 0.28855-0.3011 0 0"/>
   <path d="m73.378 69.088c-0.43621 0.0086-0.67458-0.22968-1.1706 0.0058 0.47674 0.2403 0.6823 0.0029 1.1706-0.0058"/>
   <path d="m67.292 72.612c-2.3953 0.57324-4.7934 1.1503-7.1887 1.7226 1.6184 0.16116 7.1578-1.1696 7.1887-1.7226"/>
   <path d="m77.077 70.544c2.5516-0.60992 5.1042-1.2208 7.6558-1.8307-1.7496-0.14379-7.7031 1.3048-7.6558 1.8307"/>
   <path d="m67.996 72.443c2.5169 0.32522 5.8386-1.1224 8.3815-1.7323-2.5545-0.31171-5.827 1.1195-8.3815 1.7323"/>
   <path d="m67.996 72.443c-0.94865 1.0432 0.25478-0.28276 0 0"/>
   <path d="m76.377 70.71c0.1351-0.14283 1.0693-0.01737 0.48349-0.25381-0.91005-0.36962-0.72283 0.50858-0.48349 0.25381"/>
   <path d="m71.954 74.295c2.6481 0.30206 6.0943-1.1861 8.7666-1.8269-2.6819-0.28662-6.0808 1.1851-8.7666 1.8269"/>
   <path d="m80.977 72.134c2.6336 0.31268 6.0278-1.1658 8.6672-1.8008-2.6674-0.28855-6.0046 1.1639-8.6633 1.8008"/>
   <path d="m71.265 74.462c-2.4667 0.59158-4.9314 1.1861-7.3981 1.7776 1.658 0.16792 7.3161-1.1861 7.3981-1.7776"/>
   <path d="m71.265 74.462c0.43138 0.0058 0.59158 0.26829 1.076 0.02027-0.51341-0.3175-0.56359-0.01255-1.076-0.02027"/>
   <path d="m80.72 72.469c0.13318-0.14379 1.0432-0.0068 0.46805-0.24705-0.88785-0.36962-0.69291 0.49025-0.46805 0.24705"/>
  </g>
  <g transform="translate(3.2334 -7.7309)">
   <path d="m84.865 73.786c2.2795-0.55008 6.4167-0.66396 8.3207-1.9494 0.63693-0.43042-3.7908-1.4543-4.5802-1.2999-2.403 0.47288-4.9816 0.69002-7.2051 1.7747 1.1639 0.49122 2.319 0.98243 3.4723 1.4746" fill="#1b4c1f"/>
   <path d="m85.099 72.485c1.6194-0.38988 5.4246-2.1559 6.9397-1.7709-2.651-1.5084-6.3153 0.34935-9.0223 1.0046 0.68712 0.24995 1.38 0.60123 2.0874 0.76626" fill="#1e3a29"/>
   <path d="m73.558 74.082c-0.40532 0.13318-0.81161 0.26539-1.2169 0.39953 4.2935 2.0845 7.2408 0.56649 11.859-0.54236-2.9627-2.68-7.2823-0.61378-10.642 0.14283" fill="#c6c6c6"/>
   <path d="m73.558 74.082c2.6279 1.8886 6.822-0.27118 9.5927-0.94093-2.8932-1.4862-6.6685 0.28566-9.5927 0.94093" fill="#e5e5e5"/>
   <path d="m65.161 76.041c-0.30785 0.12932-0.61764 0.2596-0.92646 0.38795 3.3468 2.5005 6.9474 0.6408 10.618-0.24126-3.0602-2.4165-6.2082-0.89364-9.6911-0.14669" fill="#aa9e04"/>
   <path d="m65.161 76.041c2.4155 1.8626 6.0654 0.01834 8.6662-0.60509-2.4628-1.8819-6.0248-0.02991-8.6662 0.60509" fill="#d3b905"/>
  </g>
  <g transform="translate(3.2334 -7.7309)" fill="#5e5d5d">
   <path d="m59.204 71.139c-0.74792-0.20459 0.63597 0.15538 0.94479 0.23644-0.38313 0.04728-0.57324-0.13414-0.94479-0.23644"/>
   <path d="m67.102 69.709c-0.12642-0.10133 0.26636-0.63308-0.68905-0.32619 0.34453-0.17468 0.71511-0.22872 1.106-0.1602-0.0077 0.16792-0.07528 0.29048-0.2017 0.36962 0.2789-0.0579 0.55394-0.13221 0.8203-0.13221-0.34549 0.083-0.69098 0.16599-1.0355 0.24898"/>
   <path d="m75.07 67.722c0.97374-0.11098 0.44296-0.21907-0.14283-0.19977 0.13414-0.01254 0.25091-0.07141 0.34934-0.17178-0.20555-0.0965-0.58482 0.08782-0.79906 0.09747 0.3175-0.14958 0.65721-0.20363 1.0143-0.15923-0.04241 0.05308-0.08585 0.10519-0.12738 0.1573 0.17757 0.0608 0.3619 0.0608 0.5578 0.0029 0.27794 0.12835-1.1629 0.46226-0.85214 0.27311"/>
   <path d="m62.672 72.748c-0.40146-0.06466-0.83092-0.10616-1.2478 0.01447 0.04343-0.16213 0.08493-0.32522 0.12835-0.48735 0.45165 0.03281 0.86952 0.20845 1.3202 0.23161-0.12932 0.12449-0.0801 0.3397-0.20073 0.24126m-0.40726-0.18143c-0.75371-0.10133-0.7595-0.10133 0 0"/>
   <path d="m70.262 70.238c-0.16309 0.25092-0.98339-0.11291-0.47287 0.29917 0.36189 0.09457 0.6987-0.20459 1.1214-0.03957 0.25381 0.11581-1.0394 0.72186-0.85022 0.33391 0.2818 0.05018 0.49025-0.0386 0.62343-0.26828-0.64562-0.29531-0.82319 0.20942-1.3993-0.17275 0.26636-0.10423 0.77204-0.07913 0.9776-0.15248"/>
   <path d="m78.262 68.211c0.18336 0.11581-0.53175-0.30689 0.82416 0.20652-1.353-0.51341-0.65527 0.16888-0.82416-0.20652m0.59737 0.48735c0.12546-0.0415-1.768-0.31847 0 0"/>
   <path d="m65.588 73.724c0.06369 0.15248 0.55587 0.53754 0.67458 0.72186-0.65528-0.22389-0.92646-0.29627-1.6618-0.48832 0.32908-0.07818 0.65913-0.15537 0.98725-0.23354"/>
   <path d="m73.314 71.763c0.10133-0.02412 1.2642 0.22196 1.4572 0.31364 0.21424 0.09554-1.6107-0.38023-1.4572-0.31364m1.1841 0.54815c0.21328-0.05308-1.3887-0.45261 0 0m-1.0664-0.48446c-0.18915 0.04053 1.189 0.39374 0 0"/>
   <path d="m82.652 70.235c0.15055 0.10712-0.46902-0.78363-1.0181-0.59834 1.6647-0.62922 1.354 0.94479 1.0181 0.59834m-0.88979-0.53947c0.07335 0.30978 0.29724 0.38602 0.67071 0.23065 0.25671-0.37058-0.22582-0.13414-0.67071-0.23065"/>
   <path d="m78.107 74.266c-0.81161 0.23258-1.2314 0.02895-1.2652-0.61185 0.79328-0.22486 1.216-0.02027 1.2652 0.61185m-0.1158-0.06659c-0.17757-0.41304-0.52114-0.57324-1.0297-0.48253-0.74214 0.17468 2.5864 1.1426 1.0297 0.48253"/>
   <path d="m28.875 74.047c6.3433-1.4804 12.685-2.9598 19.028-4.4393-3.3063-2.9589-3.9452-2.0951-8.3082-1.0509-4.3659 1.0432-8.7309 2.0865-13.098 3.1306 0.79231 0.78652 1.5856 1.5721 2.3779 2.3596"/>
  </g>
  <path d="m26.237 50.402c3.0843 4.3399 4.724 9.8146 5.5095 15.039 5.0569-1.1725 10.113-2.3441 15.169-3.5167 2.0083-0.46516 2.7099-0.01062 2.1907-2.0903-1.0751-4.3109-2.679-8.5813-5.027-12.366-3.1152-5.0251-7.7262-10.12-13.785-9.1767-5.3551 0.83188-10.711 1.6638-16.066 2.4956 4.612 2.1762 9.0378 5.4352 12.009 9.6149" fill="#fff"/>
  <path d="m13.979 40.641c0.22389 0.74792 3.8409 2.2476 4.4837 2.6732 2.9212 1.9427 5.6765 4.2694 7.7205 7.1443 3.0361 4.2723 4.8021 9.8195 5.4921 14.996 5.081-1.1523 10.162-2.3046 15.241-3.4578 2.0643-0.46805 2.7408-0.02413 2.2196-2.1907-1.0403-4.3264-2.6645-8.616-5.0125-12.406-3.1364-5.0598-7.762-10.111-13.85-9.198-5.4294 0.81258-10.862 1.6252-16.295 2.4387m12.313 9.7075c-2.8971-4.0774-7.4194-7.6597-12.039-9.638 5.0096-0.73827 10.022-1.4756 15.033-2.2138 6.1185-0.90136 9.7683 2.0527 13.603 7.3335 1.7226 2.3721 9.3089 14.888 4.8118 15.906-5.3233 1.2083-10.647 2.4146-15.97 3.6209 1.5113-0.41015-4.7683-14.068-5.4391-15.009" fill="#e5e5e5"/>
 </g>
 <path d="m7.9804 66.914c-1.812 3.728-0.49 11.329-0.6 15.372-0.072 2.661-2.211 14.941 1.317 16.242-4.079-1.505-3.158-7.203-3.182-10.59-0.03-3.971-2.079-24.58 3.095-24.58 1.199 0-0.621 3.537-0.63 3.555" fill="#fff"/>
 <g transform="translate(3.2334 -7.7309)" fill="#c6c6c6" stroke-width=".96506">
  <path d="m19.279 53.707c3.5302 3.0168 5.9911 7.1318 7.567 11.461 0.36962 1.0172 2.7253 6.8982 1.6531 7.9202 0.61957-0.59158-5.0444-11.065-5.5375-11.937-0.71607-1.2681-10.434-14.146-11.941-12.71 0.93128-0.89075 7.5217 4.6342 8.258 5.2654"/>
  <path d="m37.555 50.551c3.5302 3.0168 5.9911 7.1318 7.567 11.461 0.36962 1.0172 2.7253 6.8982 1.6531 7.9193 0.61957-0.59158-5.0444-11.065-5.5365-11.936-0.71704-1.2681-10.434-14.146-11.942-12.71 0.93224-0.88978 7.5217 4.6352 8.258 5.2654"/>
  <path d="m30.331 45.598c0-1.2681-19.861 1.5441-19.861 2.4223 0 1.4785 19.861-1.52 19.861-2.4223"/>
 </g>
</svg>
