<svg width="400" height="400" enable-background="new 0 0 128 129.396" overflow="visible" version="1.0" viewBox="0 0 400 400" xmlns="http://www.w3.org/2000/svg" xmlns:xlink="http://www.w3.org/1999/xlink">
 <defs>
  <radialGradient id="radialGradient5031" cx="605.71" cy="486.65" r="117.14" gradientTransform="matrix(-2.7744,0,0,1.9697,112.76,-872.89)" gradientUnits="userSpaceOnUse" xlink:href="#linearGradient5060"/>
  <linearGradient id="linearGradient5060">
   <stop offset="0"/>
   <stop stop-opacity="0" offset="1"/>
  </linearGradient>
  <radialGradient id="radialGradient5029" cx="605.71" cy="486.65" r="117.14" gradientTransform="matrix(2.7744,0,0,1.9697,-1891.6,-872.89)" gradientUnits="userSpaceOnUse" xlink:href="#linearGradient5060"/>
  <linearGradient id="linearGradient5027" x1="302.86" x2="302.86" y1="366.65" y2="609.51" gradientTransform="matrix(2.7744,0,0,1.9697,-1892.2,-872.89)" gradientUnits="userSpaceOnUse">
   <stop stop-opacity="0" offset="0"/>
   <stop offset=".5"/>
   <stop stop-opacity="0" offset="1"/>
  </linearGradient>
  <linearGradient id="linearGradient1514" x1="52.006" x2="14.049" y1="166.13" y2="-42.219" gradientTransform="matrix(.33692 0 0 .16689 17.983 15.462)" gradientUnits="userSpaceOnUse">
   <stop stop-color="#ccc" offset="0"/>
   <stop stop-color="#fff" offset=".9831"/>
  </linearGradient>
  <linearGradient id="XMLID_39_" x1="64.388" x2="64.388" y1="65.124" y2="35.569" gradientTransform="matrix(.3541 0 0 .3541 1.6387 -.083649)" gradientUnits="userSpaceOnUse">
   <stop stop-color="#fff" offset="0"/>
   <stop stop-color="#FF6200" offset=".8539"/>
   <stop stop-color="#F25D00" offset="1"/>
   <midPointStop stop-color="#FFFFFF" offset="0"/>
   <midPointStop stop-color="#FFFFFF" offset="0.5"/>
   <midPointStop stop-color="#FF6200" offset="0.8539"/>
   <midPointStop stop-color="#FF6200" offset="0.5"/>
   <midPointStop stop-color="#F25D00" offset="1"/>
  </linearGradient>
  <radialGradient id="radialGradient2305" cx="7.5327" cy="24.203" r="8.2452" gradientTransform="matrix(4.1001,0,0,4.2013,-25.415,-78.54)" gradientUnits="userSpaceOnUse">
   <stop stop-color="#fff" offset="0"/>
   <stop stop-color="#fff" stop-opacity="0" offset="1"/>
  </radialGradient>
  <radialGradient id="radialGradient2313" cx="19.986" cy="36.778" r="1.0821" gradientTransform="matrix(1.1253 0 0 .98274 -3.4287 .56579)" gradientUnits="userSpaceOnUse">
   <stop stop-color="#edd400" offset="0"/>
   <stop stop-color="#980" offset="1"/>
  </radialGradient>
  <radialGradient id="radialGradient2325" cx="20.444" cy="37.426" r="1.0821" gradientTransform="matrix(1.1253 0 0 .98274 -3.4287 .73111)" gradientUnits="userSpaceOnUse">
   <stop offset="0"/>
   <stop stop-opacity="0" offset="1"/>
  </radialGradient>
  <linearGradient id="linearGradient2335" x1="17.603" x2="17.683" y1="26.057" y2="32.654" gradientTransform="matrix(.89879 0 0 1.0719 .47802 -2.0808)" gradientUnits="userSpaceOnUse">
   <stop stop-opacity=".18557" offset="0"/>
   <stop stop-color="#fff" offset="1"/>
  </linearGradient>
  <radialGradient id="radialGradient2339" cx="11.681" cy="19.554" r="8.2452" gradientTransform="matrix(4.1001,0,0,-4.2013,-5.1981,105.35)" gradientUnits="userSpaceOnUse">
   <stop offset="0"/>
   <stop stop-opacity="0" offset="1"/>
  </radialGradient>
  <radialGradient id="radialGradient2374" cx="29.913" cy="30.443" r="4.0019" gradientTransform="matrix(3.7515,0,0,3.1478,-82.009,-65.707)" gradientUnits="userSpaceOnUse">
   <stop stop-color="#fff" offset="0"/>
   <stop stop-color="#fff" stop-opacity="0" offset="1"/>
  </radialGradient>
  <radialGradient id="radialGradient2384" cx="24.195" cy="10.578" r="15.243" gradientTransform="matrix(1.1253,-3.5854e-8,4.2698e-8,1.3401,-3.0067,1.3554)" gradientUnits="userSpaceOnUse">
   <stop stop-color="#575757" offset="0"/>
   <stop stop-color="#575757" stop-opacity="0" offset="1"/>
  </radialGradient>
  <linearGradient id="linearGradient2412" x1="17.85" x2="19.04" y1="28.939" y2="41.032" gradientTransform="matrix(.88878 0 0 1.0893 2.411 -1.5243)" gradientUnits="userSpaceOnUse">
   <stop stop-color="#923c11" offset="0"/>
   <stop stop-color="#c0475f" offset=".17241"/>
   <stop stop-color="#b97e59" offset="1"/>
  </linearGradient>
 </defs>
 <g transform="matrix(8.6102 0 0 8.6102 -6.1857 -9.1273)">
  <g transform="matrix(.021582 0 0 .018595 43.123 41.638)">
   <rect x="-1559.3" y="-150.7" width="1339.6" height="478.36" color="#000000" fill="url(#linearGradient5027)" opacity=".40206"/>
   <path d="m-219.62-150.68v478.33c142.88 0.9 345.4-107.17 345.4-239.2 0-132.02-159.44-239.13-345.4-239.13z" color="#000000" fill="url(#radialGradient5029)" opacity=".40206"/>
   <path d="m-1559.3-150.68v478.33c-142.8 0.9-345.4-107.17-345.4-239.2 0-132.02 159.5-239.13 345.4-239.13z" color="#000000" fill="url(#radialGradient5031)" opacity=".40206"/>
  </g>
  <path d="m21.62 8.1834h5.957c0.84 0 13.887 15.436 13.887 16.341l-0.444 18.497c0 0.905-0.676 1.634-1.516 1.634h-31.457c-0.8398 0-1.5158-0.729-1.5158-1.634l0.0565-18.497c0-0.905 14.192-16.341 15.032-16.341z" color="#000000" fill="url(#linearGradient1514)" stroke="#757575"/>
  <path d="m46.964 45.736h-45.325l-3e-4 -45.325 45.325-3.2e-4v45.325z" fill="none"/>
  <path d="M 23,29 22.954,44.091 H 11.111 L 11,29 Z" clip-rule="evenodd" fill="url(#linearGradient2335)" fill-rule="evenodd"/>
  <path d="m21.78 9.4056h5.56c0.783 0 13 14.399 13 15.244l-0.347 18.212c0 0.459-0.143 0.654-0.512 0.654l-31.387 0.014c-0.3689 0-0.5843-0.08-0.5843-0.454l0.2154-18.426c0-0.845 13.272-15.244 14.055-15.244z" color="#000000" fill="none" opacity=".3125" stroke="#fff"/>
  <g clip-rule="evenodd" fill-rule="evenodd">
   <path d="m7.2075 27.943-0.0542 2.595 18.368-13.179 15.287 11.154 0.071-0.311-16.37-15.904-17.302 15.645z" fill="url(#radialGradient2384)" opacity=".2"/>
   <path d="m22 30v14.091h-9.811l-0.189-14.091z" fill="url(#linearGradient2412)"/>
   <path d="m19.577 36.448c0.673 0 1.216 0.474 1.216 1.058 0 0.59-0.543 1.069-1.216 1.069-0.672 0-1.219-0.479-1.219-1.069 1e-3 -0.584 0.547-1.058 1.219-1.058z" fill="url(#radialGradient2325)" opacity=".40909"/>
   <path d="m19.462 35.932c0.673 0 1.217 0.475 1.217 1.059 0 0.59-0.544 1.068-1.217 1.068-0.672 0-1.218-0.478-1.218-1.068 0-0.584 0.546-1.059 1.218-1.059z" fill="url(#radialGradient2313)"/>
  </g>
  <path d="m24.448 11.559 18.927 17.17 0.494 0.392 0.404-0.171-0.373-0.762-0.277-0.223-19.175-15.573-19.39 15.744-0.2374 0.144-0.2167 0.707 0.4334 0.129 0.3846-0.309 19.026-17.248z" fill="url(#XMLID_39_)"/>
  <path d="m24.33 2.2713-21.882 18.102-0.6243 7.166 1.9999 2.064s20.407-17.157 20.624-17.328l19.632 17.543 1.899-2.324-1.616-7.111-19.915-18.216-0.118 0.1043z" fill="#580707" stroke="#3a0000"/>
  <path d="m2.8413 20.613-0.2915 6.623 21.819-18.256-0.07-5.8933-21.458 17.526z" color="#000000" fill="url(#radialGradient2305)" opacity=".40909"/>
  <path d="m24.484 8.751 0.099-5.8411 19.329 17.652 1.492 6.501-20.92-18.312z" color="#000000" fill="url(#radialGradient2339)" opacity=".13636"/>
  <path d="m27.102 27.72h9.04c0.771 0 1.391 0.62 1.391 1.391l-8e-3 9.079c0 0.771-0.596 1.266-1.367 1.266h-9.056c-0.77 0-1.391-0.62-1.391-1.391v-8.954c0-0.771 0.621-1.391 1.391-1.391z" color="#000000" fill="none" opacity=".31818" stroke="#fff"/>
  <rect x="26.508" y="28.514" width="10.001" height="9.9625" rx=".38128" ry=".38128" color="#000000" fill="#0ba219" stroke="#757575"/>
  <path d="m27.107 34.408c3.618 0.331 5.528-1.445 8.868-1.552l0.025-3.85-8.912-6e-3z" color="#000000" fill="url(#radialGradient2374)" opacity=".39773"/>
 </g>
</svg>
