<?xml version="1.0" encoding="UTF-8" standalone="no"?>
<svg
   id="svg2"
   xml:space="preserve"
   overflow="visible"
   viewBox="0 0 400 400"
   version="1.0"
   enable-background="new 0 0 128 129.396"
   sodipodi:docname="root.svg"
   width="400"
   height="400"
   inkscape:version="1.2 (dc2aedaf03, 2022-05-15)"
   inkscape:export-filename="root.png"
   inkscape:export-xdpi="96"
   inkscape:export-ydpi="96"
   xmlns:inkscape="http://www.inkscape.org/namespaces/inkscape"
   xmlns:sodipodi="http://sodipodi.sourceforge.net/DTD/sodipodi-0.dtd"
   xmlns:xlink="http://www.w3.org/1999/xlink"
   xmlns="http://www.w3.org/2000/svg"
   xmlns:svg="http://www.w3.org/2000/svg"
   xmlns:rdf="http://www.w3.org/1999/02/22-rdf-syntax-ns#"
   xmlns:cc="http://creativecommons.org/ns#"
   xmlns:dc="http://purl.org/dc/elements/1.1/"><sodipodi:namedview
   id="namedview66"
   pagecolor="#ffffff"
   bordercolor="#000000"
   borderopacity="0.25"
   inkscape:showpageshadow="2"
   inkscape:pageopacity="0.0"
   inkscape:pagecheckerboard="0"
   inkscape:deskcolor="#d1d1d1"
   showgrid="false"
   inkscape:zoom="1.1662912"
   inkscape:cx="24.007726"
   inkscape:cy="171.48375"
   inkscape:window-width="1920"
   inkscape:window-height="1017"
   inkscape:window-x="-8"
   inkscape:window-y="-8"
   inkscape:window-maximized="1"
   inkscape:current-layer="svg2" /><defs
   id="defs365"><radialGradient
     id="radialGradient5031"
     xlink:href="#linearGradient5060"
     gradientUnits="userSpaceOnUse"
     cy="486.64999"
     cx="605.71002"
     gradientTransform="matrix(-2.7744,0,0,1.9697,112.76,-872.89)"
     r="117.14" /><linearGradient
     id="linearGradient5060"><stop
       id="stop5062"
       offset="0" /><stop
       id="stop5064"
       stop-opacity="0"
       offset="1" /></linearGradient><radialGradient
     id="radialGradient5029"
     xlink:href="#linearGradient5060"
     gradientUnits="userSpaceOnUse"
     cy="486.64999"
     cx="605.71002"
     gradientTransform="matrix(2.7744,0,0,1.9697,-1891.6,-872.89)"
     r="117.14" /><linearGradient
     id="linearGradient5027"
     x1="302.85999"
     gradientUnits="userSpaceOnUse"
     y1="366.64999"
     gradientTransform="matrix(2.7744,0,0,1.9697,-1892.2,-872.89)"
     x2="302.85999"
     y2="609.51001"><stop
       id="stop5050"
       stop-opacity="0"
       offset="0" /><stop
       id="stop5056"
       offset=".5" /><stop
       id="stop5052"
       stop-opacity="0"
       offset="1" /></linearGradient><linearGradient
     id="linearGradient1514"
     x1="52.006001"
     gradientUnits="userSpaceOnUse"
     y1="166.13"
     gradientTransform="matrix(0.33692,0,0,0.16689,17.983,15.462)"
     x2="14.049"
     y2="-42.219002"><stop
       id="stop17"
       stop-color="#ccc"
       offset="0" /><stop
       id="stop19"
       stop-color="#fff"
       offset=".9831" /></linearGradient><linearGradient
     id="XMLID_39_"
     x1="64.388"
     gradientUnits="userSpaceOnUse"
     y1="65.124001"
     gradientTransform="matrix(0.3541,0,0,0.3541,1.6387,-0.083649)"
     x2="64.388"
     y2="35.569">
						<stop
   id="stop336"
   stop-color="#fff"
   offset="0" />
						<stop
   id="stop338"
   stop-color="#FF6200"
   offset=".8539" />
						<stop
   id="stop340"
   stop-color="#F25D00"
   offset="1" />
						<midPointStop
   id="midPointStop335"
   stop-color="#FFFFFF"
   offset="0" />
						<midPointStop
   id="midPointStop337"
   stop-color="#FFFFFF"
   offset="0.5" />
						<midPointStop
   id="midPointStop339"
   stop-color="#FF6200"
   offset="0.8539" />
						<midPointStop
   id="midPointStop341"
   stop-color="#FF6200"
   offset="0.5" />
						<midPointStop
   id="midPointStop343"
   stop-color="#F25D00"
   offset="1" />
					</linearGradient><radialGradient
     id="radialGradient2305"
     gradientUnits="userSpaceOnUse"
     cy="24.202999"
     cx="7.5327001"
     gradientTransform="matrix(4.1001,0,0,4.2013,-25.415,-78.54)"
     r="8.2452002"><stop
       id="stop2301"
       stop-color="#fff"
       offset="0" /><stop
       id="stop2303"
       stop-color="#fff"
       stop-opacity="0"
       offset="1" /></radialGradient><radialGradient
     id="radialGradient2313"
     gradientUnits="userSpaceOnUse"
     cy="36.778"
     cx="19.986"
     gradientTransform="matrix(1.1253,0,0,0.98274,-3.4287,0.56579)"
     r="1.0821"><stop
       id="stop2309"
       stop-color="#edd400"
       offset="0" /><stop
       id="stop2311"
       stop-color="#980"
       offset="1" /></radialGradient><radialGradient
     id="radialGradient2325"
     gradientUnits="userSpaceOnUse"
     cy="37.425999"
     cx="20.444"
     gradientTransform="matrix(1.1253,0,0,0.98274,-3.4287,0.73111)"
     r="1.0821"><stop
       id="stop2321"
       offset="0" /><stop
       id="stop2323"
       stop-opacity="0"
       offset="1" /></radialGradient><linearGradient
     id="linearGradient2335"
     x1="17.603001"
     gradientUnits="userSpaceOnUse"
     y1="26.056999"
     gradientTransform="matrix(0.89879,0,0,1.0719,0.47802,-2.0808)"
     x2="17.683001"
     y2="32.653999"><stop
       id="stop2331"
       stop-opacity=".18557"
       offset="0" /><stop
       id="stop2333"
       stop-color="#fff"
       offset="1" /></linearGradient><radialGradient
     id="radialGradient2339"
     gradientUnits="userSpaceOnUse"
     cy="19.554001"
     cx="11.681"
     gradientTransform="matrix(4.1001,0,0,-4.2013,-5.1981,105.35)"
     r="8.2452002"><stop
       id="stop2343"
       offset="0" /><stop
       id="stop2345"
       stop-opacity="0"
       offset="1" /></radialGradient><radialGradient
     id="radialGradient2374"
     gradientUnits="userSpaceOnUse"
     cy="30.443001"
     cx="29.913"
     gradientTransform="matrix(3.7515,0,0,3.1478,-82.009,-65.707)"
     r="4.0019002"><stop
       id="stop2370"
       stop-color="#fff"
       offset="0" /><stop
       id="stop2372"
       stop-color="#fff"
       stop-opacity="0"
       offset="1" /></radialGradient><radialGradient
     id="radialGradient2384"
     gradientUnits="userSpaceOnUse"
     cy="10.578"
     cx="24.195"
     gradientTransform="matrix(1.1253,-3.5854e-8,4.2698e-8,1.3401,-3.0067,1.3554)"
     r="15.243"><stop
       id="stop2380"
       stop-color="#575757"
       offset="0" /><stop
       id="stop2382"
       stop-color="#575757"
       stop-opacity="0"
       offset="1" /></radialGradient><linearGradient
     id="linearGradient2412"
     x1="17.85"
     gradientUnits="userSpaceOnUse"
     y1="28.938999"
     gradientTransform="matrix(0.88878,0,0,1.0893,2.411,-1.5243)"
     x2="19.040001"
     y2="41.032001"><stop
       id="stop2408"
       stop-color="#7c7e79"
       offset="0"
       style="stop-color:#923c11;stop-opacity:1;" /><stop
       id="stop2414"
       stop-color="#848681"
       offset="0.17241"
       style="stop-color:#c0475f;stop-opacity:1;" /><stop
       id="stop2410"
       stop-color="#898c86"
       offset="1"
       style="stop-color:#b97e59;stop-opacity:1;" /></linearGradient></defs>
	
<g
   id="g1042"
   transform="matrix(8.6102004,0,0,8.6102004,-6.185651,-9.1272925)"><g
     id="g5022"
     transform="matrix(0.021582,0,0,0.018595,43.123,41.638)"><rect
       id="rect4173"
       opacity="0.40206"
       style="color:#000000;fill:url(#linearGradient5027)"
       height="478.35999"
       width="1339.6"
       y="-150.7"
       x="-1559.3"
       fill="url(#linearGradient5027)" /><path
       id="path5058"
       opacity="0.40206"
       style="color:#000000;fill:url(#radialGradient5029)"
       fill="url(#radialGradient5029)"
       d="m -219.62,-150.68 v 478.33 c 142.88,0.9 345.4,-107.17 345.4,-239.2 0,-132.02 -159.44,-239.13 -345.4,-239.13 z" /><path
       id="path5018"
       opacity="0.40206"
       style="color:#000000;fill:url(#radialGradient5031)"
       fill="url(#radialGradient5031)"
       d="m -1559.3,-150.68 v 478.33 c -142.8,0.9 -345.4,-107.17 -345.4,-239.2 0,-132.02 159.5,-239.13 345.4,-239.13 z" /></g><path
     id="rect1512"
     style="color:#000000;fill:url(#linearGradient1514)"
     fill="url(#linearGradient1514)"
     stroke="#757575"
     d="m 21.62,8.1834 h 5.957 c 0.84,0 13.887,15.436 13.887,16.341 l -0.444,18.497 c 0,0.905 -0.676,1.634 -1.516,1.634 H 8.047 c -0.8398,0 -1.5158,-0.729 -1.5158,-1.634 l 0.0565,-18.497 c 0,-0.905 14.192,-16.341 15.032,-16.341 z" /><path
     id="path5"
     d="M 46.964,45.736 H 1.639 l -3e-4,-45.325 45.325,-3.2e-4 v 45.325 z"
     fill="none" /><path
     id="path2327"
     fill="url(#linearGradient2335)"
     fill-rule="evenodd"
     clip-rule="evenodd"
     d="M 23,29 22.954,44.091 H 11.111 L 11,29 Z"
     style="fill:url(#linearGradient2335)" /><path
     id="path2357"
     opacity="0.3125"
     style="color:#000000"
     d="m 21.78,9.4056 h 5.56 c 0.783,0 13,14.399 13,15.244 l -0.347,18.212 c 0,0.459 -0.143,0.654 -0.512,0.654 l -31.387,0.014 c -0.3689,0 -0.5843,-0.08 -0.5843,-0.454 l 0.2154,-18.426 c 0,-0.845 13.272,-15.244 14.055,-15.244 z"
     stroke="#ffffff"
     fill="none" /><path
     id="path23"
     opacity="0.2"
     d="m 7.2075,27.943 -0.0542,2.595 18.368,-13.179 15.287,11.154 0.071,-0.311 -16.37,-15.904 -17.302,15.645 z"
     fill-rule="evenodd"
     clip-rule="evenodd"
     fill="url(#radialGradient2384)"
     style="fill:url(#radialGradient2384)" /><path
     id="path188"
     fill="url(#linearGradient2412)"
     fill-rule="evenodd"
     clip-rule="evenodd"
     d="M 22,30 V 44.091 H 12.189 L 12,30 Z"
     style="fill:url(#linearGradient2412)" /><path
     id="path2315"
     opacity="0.40909"
     d="m 19.577,36.448 c 0.673,0 1.216,0.474 1.216,1.058 0,0.59 -0.543,1.069 -1.216,1.069 -0.672,0 -1.219,-0.479 -1.219,-1.069 0.001,-0.584 0.547,-1.058 1.219,-1.058 z"
     fill-rule="evenodd"
     clip-rule="evenodd"
     fill="url(#radialGradient2325)"
     style="fill:url(#radialGradient2325)" /><path
     id="path217"
     fill="url(#radialGradient2313)"
     fill-rule="evenodd"
     clip-rule="evenodd"
     d="m 19.462,35.932 c 0.673,0 1.217,0.475 1.217,1.059 0,0.59 -0.544,1.068 -1.217,1.068 -0.672,0 -1.218,-0.478 -1.218,-1.068 0,-0.584 0.546,-1.059 1.218,-1.059 z"
     style="fill:url(#radialGradient2313)" /><path
     id="path342"
     d="m 24.448,11.559 18.927,17.17 0.494,0.392 L 44.273,28.95 43.9,28.188 43.623,27.965 24.448,12.392 5.058,28.136 4.8206,28.28 4.6039,28.987 5.0373,29.116 5.4219,28.807 24.4479,11.559 Z"
     fill="url(#XMLID_39_)"
     style="fill:url(#XMLID_39_)" /><path
     id="path362"
     stroke="#a40000"
     fill="#ef2929"
     d="m 24.33,2.2713 -21.882,18.102 -0.6243,7.166 1.9999,2.064 c 0,0 20.407,-17.157 20.624,-17.328 l 19.632,17.543 1.899,-2.324 -1.616,-7.111 -19.915,-18.216 -0.118,0.1043 z"
     style="fill:#580707;fill-opacity:1;stroke:#3a0000;stroke-opacity:1" /><path
     id="path1536"
     opacity="0.40909"
     style="color:#000000;fill:url(#radialGradient2305)"
     fill="url(#radialGradient2305)"
     d="M 2.8413,20.613 2.5498,27.236 24.3688,8.98 24.2988,3.0867 2.8408,20.6127 Z" /><path
     id="path2337"
     opacity="0.13636"
     style="color:#000000;fill:url(#radialGradient2339)"
     fill="url(#radialGradient2339)"
     d="m 24.484,8.751 0.099,-5.8411 19.329,17.652 1.492,6.501 -20.92,-18.312 z" /><path
     id="rect2361"
     opacity="0.31818"
     style="color:#000000"
     d="m 27.102,27.72 h 9.04 c 0.771,0 1.391,0.62 1.391,1.391 l -0.008,9.079 c 0,0.771 -0.596,1.266 -1.367,1.266 h -9.056 c -0.77,0 -1.391,-0.62 -1.391,-1.391 v -8.954 c 0,-0.771 0.621,-1.391 1.391,-1.391 z"
     stroke="#ffffff"
     fill="none" /><rect
     id="rect3263"
     style="color:#000000;fill:#0ba219;fill-opacity:1"
     rx="0.38128"
     ry="0.38128"
     height="9.9624996"
     width="10.001"
     stroke="#757575"
     y="28.514"
     x="26.507999"
     fill="#3465a4" /><path
     id="rect2363"
     opacity="0.39773"
     style="color:#000000;fill:url(#radialGradient2374)"
     fill="url(#radialGradient2374)"
     d="m 27.107,34.408 c 3.618,0.331 5.528,-1.445 8.868,-1.552 L 36,29.006 27.088,29 Z" /></g><metadata
   id="metadata63"><rdf:RDF><cc:Work><dc:format>image/svg+xml</dc:format><dc:type
         rdf:resource="http://purl.org/dc/dcmitype/StillImage" /><cc:license
         rdf:resource="http://creativecommons.org/publicdomain/zero/1.0/" /></cc:Work><cc:License
       rdf:about="http://creativecommons.org/publicdomain/zero/1.0/"><cc:permits
         rdf:resource="http://creativecommons.org/ns#Reproduction" /><cc:permits
         rdf:resource="http://creativecommons.org/ns#Distribution" /><cc:permits
         rdf:resource="http://creativecommons.org/ns#DerivativeWorks" /></cc:License></rdf:RDF></metadata></svg>
