<?xml version="1.0" encoding="UTF-8" standalone="no"?>
<svg
   version="1.1"
   id="Layer_1"
   x="0px"
   y="0px"
   viewBox="0 0 400 400"
   enable-background="new 0 0 720 720"
   xml:space="preserve"
   sodipodi:docname="camp.svg"
   inkscape:version="1.2 (dc2aedaf03, 2022-05-15)"
   width="400"
   height="400"
   inkscape:export-filename="camp.png"
   inkscape:export-xdpi="96"
   inkscape:export-ydpi="96"
   xmlns:inkscape="http://www.inkscape.org/namespaces/inkscape"
   xmlns:sodipodi="http://sodipodi.sourceforge.net/DTD/sodipodi-0.dtd"
   xmlns:xlink="http://www.w3.org/1999/xlink"
   xmlns="http://www.w3.org/2000/svg"
   xmlns:svg="http://www.w3.org/2000/svg"
   xmlns:rdf="http://www.w3.org/1999/02/22-rdf-syntax-ns#"
   xmlns:cc="http://creativecommons.org/ns#"><defs
   id="defs1907"><radialGradient
     id="radialGradient3182"
     gradientUnits="userSpaceOnUse"
     cy="468.34"
     cx="182.23"
     gradientTransform="matrix(0.98756,-2.3941,1.229,0.50696,-573.31,657.82)"
     r="120.47"
     inkscape:collect="always"><stop
       id="stop3178"
       style="stop-color:#000000"
       offset="0" /><stop
       id="stop3180"
       style="stop-color:#1b140f"
       offset="1" /></radialGradient><linearGradient
     id="linearGradient2459"
     y2="342.54999"
     gradientUnits="userSpaceOnUse"
     x2="353.51001"
     y1="342.70001"
     x1="383.59"
     inkscape:collect="always"><stop
       id="stop2455"
       style="stop-color:#1a1c1a"
       offset="0" /><stop
       id="stop2457"
       style="stop-color:#c3c6c6"
       offset="1" /></linearGradient><linearGradient
     id="linearGradient3301"
     y2="397.39001"
     gradientUnits="userSpaceOnUse"
     x2="178.64999"
     y1="225.52"
     x1="240.32001"
     inkscape:collect="always"
     gradientTransform="translate(-2.7827644e-6,1.1298701)"><stop
       id="stop3297"
       style="stop-color:#373737"
       offset="0" /><stop
       id="stop3299"
       style="stop-color:#000000;stop-opacity:0"
       offset="1" /></linearGradient><linearGradient
     id="linearGradient3273"
     y2="491.17999"
     xlink:href="#linearGradient3201"
     gradientUnits="userSpaceOnUse"
     x2="243.71001"
     gradientTransform="translate(0.14928,-0.038994)"
     y1="206.39999"
     x1="344.54999"
     inkscape:collect="always" /><linearGradient
     id="linearGradient3201"><stop
       id="stop3203"
       style="stop-color:#373737"
       offset="0" /><stop
       id="stop3205"
       style="stop-color:#000000;stop-opacity:0"
       offset="1" /></linearGradient><linearGradient
     id="linearGradient3219"
     y2="293.95001"
     gradientUnits="userSpaceOnUse"
     x2="149.7"
     y1="386.26999"
     x1="226.92"
     inkscape:collect="always"><stop
       id="stop3215"
       style="stop-color:#1a1a1a"
       offset="0" /><stop
       id="stop3217"
       style="stop-color:#1a1a1a;stop-opacity:0"
       offset="1" /></linearGradient><linearGradient
     id="linearGradient3230"
     y2="251.35001"
     xlink:href="#linearGradient3224"
     gradientUnits="userSpaceOnUse"
     x2="161.47"
     y1="259.73001"
     x1="163.39"
     inkscape:collect="always" /><linearGradient
     id="linearGradient3224"
     inkscape:collect="always"><stop
       id="stop3226"
       style="stop-color:#18181a"
       offset="0" /><stop
       id="stop3228"
       style="stop-color:#18181a;stop-opacity:0"
       offset="1" /></linearGradient><linearGradient
     id="linearGradient3234"
     y2="251.35001"
     xlink:href="#linearGradient3224"
     gradientUnits="userSpaceOnUse"
     x2="161.47"
     gradientTransform="matrix(0.65184,0,0,1.0048,44.168,15.502)"
     y1="259.73001"
     x1="163.39"
     inkscape:collect="always" /><linearGradient
     id="linearGradient3207"
     y2="581.96002"
     xlink:href="#linearGradient3201"
     gradientUnits="userSpaceOnUse"
     x2="61.155998"
     y1="368.45001"
     x1="199.72"
     inkscape:collect="always" /><linearGradient
     id="linearGradient3223"
     y2="569.56"
     xlink:href="#linearGradient3217"
     gradientUnits="userSpaceOnUse"
     x2="65.720001"
     y1="-37.019001"
     x1="552.72998"
     inkscape:collect="always" /><linearGradient
     id="linearGradient3217"
     inkscape:collect="always"><stop
       id="stop3219"
       style="stop-color:#000000"
       offset="0" /><stop
       id="stop3221"
       style="stop-color:#000000;stop-opacity:0"
       offset="1" /></linearGradient><linearGradient
     id="linearGradient3227"
     y2="581.96002"
     xlink:href="#linearGradient3201"
     gradientUnits="userSpaceOnUse"
     x2="61.155998"
     y1="85.929001"
     x1="543.65997"
     inkscape:collect="always" /><linearGradient
     id="linearGradient3237"
     y2="569.56"
     xlink:href="#linearGradient3217"
     gradientUnits="userSpaceOnUse"
     x2="65.720001"
     y1="283.32999"
     x1="386.53"
     inkscape:collect="always" /><linearGradient
     id="linearGradient3247"
     y2="413.79999"
     xlink:href="#linearGradient3217"
     gradientUnits="userSpaceOnUse"
     x2="224.03"
     y1="617.82001"
     x1="-14.35"
     inkscape:collect="always" /><linearGradient
     inkscape:collect="always"
     xlink:href="#linearGradient3201"
     id="linearGradient3294"
     gradientUnits="userSpaceOnUse"
     x1="199.72"
     y1="368.45001"
     x2="61.155998"
     y2="581.96002" /><linearGradient
     inkscape:collect="always"
     xlink:href="#linearGradient4102"
     id="linearGradient4108"
     x1="460"
     y1="120"
     x2="460"
     y2="360"
     gradientUnits="userSpaceOnUse"
     gradientTransform="matrix(2.7248173,0,0,2.7248173,-793.92053,-1009.9068)" /><linearGradient
     inkscape:collect="always"
     id="linearGradient4102"><stop
       style="stop-color:#fdff00;stop-opacity:1"
       offset="0"
       id="stop4104" /><stop
       style="stop-color:#fb9909;stop-opacity:1"
       offset="1"
       id="stop4106" /></linearGradient></defs><sodipodi:namedview
   id="namedview1905"
   pagecolor="#ffffff"
   bordercolor="#000000"
   borderopacity="0.25"
   inkscape:showpageshadow="2"
   inkscape:pageopacity="0.0"
   inkscape:pagecheckerboard="0"
   inkscape:deskcolor="#d1d1d1"
   showgrid="false"
   inkscape:zoom="1.6290957"
   inkscape:cx="261.49477"
   inkscape:cy="181.69589"
   inkscape:window-width="1920"
   inkscape:window-height="1017"
   inkscape:window-x="-8"
   inkscape:window-y="-8"
   inkscape:window-maximized="1"
   inkscape:current-layer="g1258" />
<linearGradient
   id="SVGID_1_"
   gradientUnits="userSpaceOnUse"
   x1="359.72189"
   y1="0.00050000002"
   x2="359.72189"
   y2="720">
	<stop
   offset="0.1364"
   style="stop-color:#8BD3E5"
   id="stop1603" />
	<stop
   offset="1"
   style="stop-color:#FFFFFF"
   id="stop1605" />
</linearGradient>

<linearGradient
   id="SVGID_2_"
   gradientUnits="userSpaceOnUse"
   x1="174.7012"
   y1="533.17767"
   x2="463.50201"
   y2="533.17767">
	<stop
   offset="0"
   style="stop-color:#EDB329"
   id="stop1610" />
	<stop
   offset="0.3333"
   style="stop-color:#EDB329"
   id="stop1612" />
</linearGradient>

<linearGradient
   id="SVGID_3_"
   gradientUnits="userSpaceOnUse"
   x1="319.1015"
   y1="427.66699"
   x2="319.1015"
   y2="638.68848">
	<stop
   offset="0.1364"
   style="stop-color:#FEDE58"
   id="stop1617" />
	<stop
   offset="1"
   style="stop-color:#EDB329"
   id="stop1619" />
</linearGradient>

<linearGradient
   id="SVGID_4_"
   gradientUnits="userSpaceOnUse"
   x1="361.3616"
   y1="500.22769"
   x2="361.3616"
   y2="699.98438"
   gradientTransform="translate(-4.5804959,-7.6341598)">
	<stop
   offset="0.1111"
   style="stop-color:#8AC819"
   id="stop1624" />
	<stop
   offset="0.3283"
   style="stop-color:#33A02C"
   id="stop1626" />
</linearGradient>












<linearGradient
   id="SVGID_33_"
   gradientUnits="userSpaceOnUse"
   x1="364.94379"
   y1="520.24329"
   x2="364.94379"
   y2="720"
   gradientTransform="matrix(-1,0,0,1,720.0855,-6.7739425)">
	<stop
   offset="0.1364"
   style="stop-color:#ABDA4D"
   id="stop1891" />
	<stop
   offset="1"
   style="stop-color:#33A02C"
   id="stop1893" />
</linearGradient>




<g
   id="g1258"
   transform="matrix(0.56339864,0,0,0.56339864,-1.2418485,-27.33403)"><circle
     style="fill:url(#linearGradient4108);fill-opacity:1;stroke:none;stroke-width:2.72482"
     id="path4100"
     inkscape:export-filename="./sun.png"
     inkscape:export-xdpi="90"
     inkscape:export-ydpi="90"
     cx="404.99915"
     cy="-355.95053"
     r="326.97809"
     transform="rotate(90)" /><ellipse
     style="fill:none;stroke:#ffe7a2;stroke-width:10.5442;stroke-opacity:1"
     id="path1578"
     ry="350.05688"
     rx="352.2359"
     cy="403.70184"
     cx="358.47925" /><path
     fill="#339933"
     d="M 488.9752,554.71444"
     id="path1631" /><path
     fill="#339933"
     d="M 297.0865,514.68324"
     id="path1633" /><path
     fill="#339933"
     d="M 297.0865,514.68324"
     id="path1635" /><g
     id="g1673"
     transform="translate(-4.5804959,-7.6341598)">
	<linearGradient
   id="SVGID_5_"
   gradientUnits="userSpaceOnUse"
   x1="669.27399"
   y1="560.9375"
   x2="669.27399"
   y2="538.72192">
		<stop
   offset="0"
   style="stop-color:#0FA02C"
   id="stop1639" />
		<stop
   offset="0.2308"
   style="stop-color:#146B2A"
   id="stop1641" />
		<stop
   offset="0.3081"
   style="stop-color:#165829"
   id="stop1643" />
	</linearGradient>
	<path
   fill="url(#SVGID_5_)"
   d="m 683.3184,559.5137 c 0.5087,0.7822 0.1709,1.4238 -0.7491,1.4238 h -26.5908 c -0.9199,0 -1.2578,-0.6416 -0.748,-1.4238 l 13.1181,-20.2051 c 0.5088,-0.7822 1.3418,-0.7822 1.8506,0 z"
   id="path1646"
   style="fill:url(#SVGID_5_)" />
	<linearGradient
   id="SVGID_6_"
   gradientUnits="userSpaceOnUse"
   x1="669.27417"
   y1="555.72559"
   x2="669.27417"
   y2="535.47443">
		<stop
   offset="0"
   style="stop-color:#0FA02C"
   id="stop1648" />
		<stop
   offset="0.2308"
   style="stop-color:#146B2A"
   id="stop1650" />
		<stop
   offset="0.3081"
   style="stop-color:#165829"
   id="stop1652" />
	</linearGradient>
	<path
   fill="url(#SVGID_6_)"
   d="m 682.0771,554.4268 c 0.4639,0.7148 0.1563,1.2988 -0.6835,1.2988 h -24.2393 c -0.8389,0 -1.1465,-0.584 -0.6836,-1.2988 l 11.96,-18.417 c 0.4638,-0.7139 1.2226,-0.7139 1.6865,0 z"
   id="path1655"
   style="fill:url(#SVGID_6_)" />
	<linearGradient
   id="SVGID_7_"
   gradientUnits="userSpaceOnUse"
   x1="669.27399"
   y1="549.66412"
   x2="669.27399"
   y2="532.5686">
		<stop
   offset="0"
   style="stop-color:#0FA02C"
   id="stop1657" />
		<stop
   offset="0.2308"
   style="stop-color:#146B2A"
   id="stop1659" />
		<stop
   offset="0.3081"
   style="stop-color:#165829"
   id="stop1661" />
	</linearGradient>
	<path
   fill="url(#SVGID_7_)"
   d="m 680.082,548.5674 c 0.3916,0.6035 0.1319,1.0967 -0.5771,1.0967 H 659.043 c -0.709,0 -0.9689,-0.4932 -0.5762,-1.0967 l 10.0957,-15.5469 c 0.3906,-0.6025 1.0322,-0.6025 1.4238,0 z"
   id="path1664"
   style="fill:url(#SVGID_7_)" />
	<linearGradient
   id="SVGID_8_"
   gradientUnits="userSpaceOnUse"
   x1="669.27393"
   y1="530.17548"
   x2="669.27393"
   y2="543.03418">
		<stop
   offset="0.0152"
   style="stop-color:#0FA02C"
   id="stop1666" />
		<stop
   offset="1"
   style="stop-color:#165829"
   id="stop1668" />
	</linearGradient>
	<path
   fill="url(#SVGID_8_)"
   d="m 677.4033,542.21 c 0.294,0.4531 0.0996,0.8242 -0.4336,0.8242 h -15.3916 c -0.5332,0 -0.7275,-0.3711 -0.4336,-0.8242 l 7.5938,-11.6954 c 0.2949,-0.4521 0.7763,-0.4521 1.0713,0 z"
   id="path1671"
   style="fill:url(#SVGID_8_)" />
</g><g
     id="g1709"
     transform="translate(-4.5804959,-7.6341598)">
	<linearGradient
   id="SVGID_9_"
   gradientUnits="userSpaceOnUse"
   x1="641.39423"
   y1="560.43158"
   x2="641.39423"
   y2="526.16608">
		<stop
   offset="0"
   style="stop-color:#0FA02C"
   id="stop1675" />
		<stop
   offset="0.2308"
   style="stop-color:#146B2A"
   id="stop1677" />
		<stop
   offset="0.3081"
   style="stop-color:#165829"
   id="stop1679" />
	</linearGradient>
	<path
   fill="url(#SVGID_9_)"
   d="m 663.0566,558.2354 c 0.7842,1.207 0.2637,2.1962 -1.1562,2.1962 h -41.0127 c -1.4199,0 -1.9404,-0.9892 -1.1553,-2.1962 l 20.2344,-31.1641 c 0.7852,-1.207 2.0693,-1.207 2.8545,0 z"
   id="path1682"
   style="fill:url(#SVGID_9_)" />
	<linearGradient
   id="SVGID_10_"
   gradientUnits="userSpaceOnUse"
   x1="641.3941"
   y1="552.39362"
   x2="641.3941"
   y2="521.15723">
		<stop
   offset="0"
   style="stop-color:#0FA02C"
   id="stop1684" />
		<stop
   offset="0.2308"
   style="stop-color:#146B2A"
   id="stop1686" />
		<stop
   offset="0.3081"
   style="stop-color:#165829"
   id="stop1688" />
	</linearGradient>
	<path
   fill="url(#SVGID_10_)"
   d="m 661.1416,550.3896 c 0.7148,1.1026 0.2412,2.004 -1.0537,2.004 h -37.3877 c -1.2939,0 -1.7686,-0.9014 -1.0537,-2.004 l 18.4473,-28.4062 c 0.7148,-1.1016 1.8857,-1.1016 2.6015,0 z"
   id="path1691"
   style="fill:url(#SVGID_10_)" />
	<linearGradient
   id="SVGID_11_"
   gradientUnits="userSpaceOnUse"
   x1="641.39423"
   y1="543.04388"
   x2="641.39423"
   y2="516.6748">
		<stop
   offset="0"
   style="stop-color:#0FA02C"
   id="stop1693" />
		<stop
   offset="0.2308"
   style="stop-color:#146B2A"
   id="stop1695" />
		<stop
   offset="0.3081"
   style="stop-color:#165829"
   id="stop1697" />
	</linearGradient>
	<path
   fill="url(#SVGID_11_)"
   d="m 658.0645,541.3525 c 0.6036,0.9307 0.2031,1.6914 -0.8896,1.6914 h -31.5615 c -1.0928,0 -1.4932,-0.7607 -0.8887,-1.6914 l 15.5713,-23.9804 c 0.6035,-0.9297 1.5928,-0.9297 2.1963,0 z"
   id="path1700"
   style="fill:url(#SVGID_11_)" />
	<linearGradient
   id="SVGID_12_"
   gradientUnits="userSpaceOnUse"
   x1="641.39423"
   y1="512.98407"
   x2="641.39423"
   y2="532.81738">
		<stop
   offset="0.0152"
   style="stop-color:#0FA02C"
   id="stop1702" />
		<stop
   offset="1"
   style="stop-color:#165829"
   id="stop1704" />
	</linearGradient>
	<path
   fill="url(#SVGID_12_)"
   d="m 653.9326,531.5459 c 0.4541,0.6992 0.1533,1.2715 -0.6689,1.2715 h -23.7393 c -0.8223,0 -1.1221,-0.5723 -0.6689,-1.2715 l 11.7129,-18.0381 c 0.4541,-0.6982 1.1972,-0.6982 1.6513,0 z"
   id="path1707"
   style="fill:url(#SVGID_12_)" />
</g><g
     id="g1745"
     transform="translate(-4.5804959,-7.6341598)">
	<linearGradient
   id="SVGID_13_"
   gradientUnits="userSpaceOnUse"
   x1="569.26141"
   y1="571.93262"
   x2="569.26141"
   y2="537.66699">
		<stop
   offset="0"
   style="stop-color:#0FA02C"
   id="stop1711" />
		<stop
   offset="0.2308"
   style="stop-color:#146B2A"
   id="stop1713" />
		<stop
   offset="0.3081"
   style="stop-color:#165829"
   id="stop1715" />
	</linearGradient>
	<path
   fill="url(#SVGID_13_)"
   d="m 590.9238,569.7363 c 0.7842,1.2071 0.2637,2.1963 -1.1562,2.1963 h -41.0127 c -1.4199,0 -1.9404,-0.9892 -1.1553,-2.1963 l 20.2344,-31.164 c 0.7851,-1.2072 2.0693,-1.2072 2.8545,0 z"
   id="path1718"
   style="fill:url(#SVGID_13_)" />
	<linearGradient
   id="SVGID_14_"
   gradientUnits="userSpaceOnUse"
   x1="569.26129"
   y1="563.89447"
   x2="569.26129"
   y2="532.6582">
		<stop
   offset="0"
   style="stop-color:#0FA02C"
   id="stop1720" />
		<stop
   offset="0.2308"
   style="stop-color:#146B2A"
   id="stop1722" />
		<stop
   offset="0.3081"
   style="stop-color:#165829"
   id="stop1724" />
	</linearGradient>
	<path
   fill="url(#SVGID_14_)"
   d="m 589.0088,561.8906 c 0.7148,1.1026 0.2412,2.0038 -1.0537,2.0038 h -37.3877 c -1.294,0 -1.7686,-0.9012 -1.0537,-2.0038 l 18.4472,-28.4063 c 0.7149,-1.1016 1.8858,-1.1016 2.6016,0 z"
   id="path1727"
   style="fill:url(#SVGID_14_)" />
	<linearGradient
   id="SVGID_15_"
   gradientUnits="userSpaceOnUse"
   x1="569.26141"
   y1="554.54492"
   x2="569.26141"
   y2="528.17578">
		<stop
   offset="0"
   style="stop-color:#0FA02C"
   id="stop1729" />
		<stop
   offset="0.2308"
   style="stop-color:#146B2A"
   id="stop1731" />
		<stop
   offset="0.3081"
   style="stop-color:#165829"
   id="stop1733" />
	</linearGradient>
	<path
   fill="url(#SVGID_15_)"
   d="m 585.9316,552.8535 c 0.6036,0.9307 0.2032,1.6914 -0.8896,1.6914 h -31.5615 c -1.0928,0 -1.4932,-0.7607 -0.8887,-1.6914 l 15.5713,-23.9805 c 0.6035,-0.9296 1.5928,-0.9296 2.1963,0 z"
   id="path1736"
   style="fill:url(#SVGID_15_)" />
	<linearGradient
   id="SVGID_16_"
   gradientUnits="userSpaceOnUse"
   x1="569.26141"
   y1="524.48499"
   x2="569.26141"
   y2="544.31842">
		<stop
   offset="0.0152"
   style="stop-color:#0FA02C"
   id="stop1738" />
		<stop
   offset="1"
   style="stop-color:#165829"
   id="stop1740" />
	</linearGradient>
	<path
   fill="url(#SVGID_16_)"
   d="m 581.7998,543.0469 c 0.4541,0.6992 0.1533,1.2715 -0.6689,1.2715 h -23.7393 c -0.8223,0 -1.1221,-0.5723 -0.6689,-1.2715 l 11.7128,-18.0381 c 0.4541,-0.6983 1.1973,-0.6983 1.6514,0 z"
   id="path1743"
   style="fill:url(#SVGID_16_)" />
</g><g
     id="g1817"
     transform="matrix(8.065622,0,0,9.6877196,-95.210191,-4692.2539)">
	<linearGradient
   id="SVGID_21_"
   gradientUnits="userSpaceOnUse"
   x1="52.568401"
   y1="539.13672"
   x2="52.568401"
   y2="528.2066">
		<stop
   offset="0"
   style="stop-color:#0FA02C"
   id="stop1783" />
		<stop
   offset="0.2308"
   style="stop-color:#146B2A"
   id="stop1785" />
		<stop
   offset="0.3081"
   style="stop-color:#165829"
   id="stop1787" />
	</linearGradient>
	<path
   fill="url(#SVGID_21_)"
   d="m 59.4775,538.4355 c 0.2505,0.3848 0.0845,0.7012 -0.3681,0.7012 H 46.0273 c -0.4526,0 -0.6186,-0.3164 -0.3681,-0.7012 l 6.4536,-9.9404 c 0.2505,-0.3847 0.6601,-0.3847 0.9106,0 z"
   id="path1790"
   style="fill:url(#SVGID_21_)" />
	<linearGradient
   id="SVGID_22_"
   gradientUnits="userSpaceOnUse"
   x1="52.568401"
   y1="536.57233"
   x2="52.568401"
   y2="526.60938">
		<stop
   offset="0"
   style="stop-color:#0FA02C"
   id="stop1792" />
		<stop
   offset="0.2308"
   style="stop-color:#146B2A"
   id="stop1794" />
		<stop
   offset="0.3081"
   style="stop-color:#165829"
   id="stop1796" />
	</linearGradient>
	<path
   fill="url(#SVGID_22_)"
   d="m 58.8672,535.9336 c 0.228,0.3516 0.0766,0.6387 -0.3364,0.6387 H 46.606 c -0.4131,0 -0.5645,-0.2871 -0.3365,-0.6387 l 5.8838,-9.0606 c 0.228,-0.3515 0.6016,-0.3515 0.8296,0 z"
   id="path1799"
   style="fill:url(#SVGID_22_)" />
	<linearGradient
   id="SVGID_23_"
   gradientUnits="userSpaceOnUse"
   x1="52.568298"
   y1="533.58978"
   x2="52.568298"
   y2="525.17969">
		<stop
   offset="0"
   style="stop-color:#0FA02C"
   id="stop1801" />
		<stop
   offset="0.2308"
   style="stop-color:#146B2A"
   id="stop1803" />
		<stop
   offset="0.3081"
   style="stop-color:#165829"
   id="stop1805" />
	</linearGradient>
	<path
   fill="url(#SVGID_23_)"
   d="m 57.8857,533.0508 c 0.1924,0.2969 0.0645,0.539 -0.2841,0.539 H 47.5347 c -0.3487,0 -0.4766,-0.2421 -0.2832,-0.539 l 4.9668,-7.6485 c 0.1923,-0.2968 0.5078,-0.2968 0.7006,0 z"
   id="path1808"
   style="fill:url(#SVGID_23_)" />
	<linearGradient
   id="SVGID_24_"
   gradientUnits="userSpaceOnUse"
   x1="52.568401"
   y1="524.00201"
   x2="52.568401"
   y2="530.32812">
		<stop
   offset="0.0152"
   style="stop-color:#0FA02C"
   id="stop1810" />
		<stop
   offset="1"
   style="stop-color:#165829"
   id="stop1812" />
	</linearGradient>
	<path
   fill="url(#SVGID_24_)"
   d="m 56.5679,529.9229 c 0.1445,0.2226 0.0488,0.4052 -0.2134,0.4052 h -7.5723 c -0.2622,0 -0.3579,-0.1826 -0.2134,-0.4052 l 3.7359,-5.754 c 0.145,-0.2226 0.3818,-0.2226 0.5268,0 z"
   id="path1815"
   style="fill:url(#SVGID_24_)" />
</g><path
     fill="url(#SVGID_4_)"
     d="m 23.90797,528.54777 c 0,0 77.46384,230.02557 334.85416,227.16846 257.39032,-2.85711 336.28447,-233.64978 336.28447,-233.64978 0,0 -131.0412,-34.08151 -219.9474,-28.73181 -88.9063,5.3496 -170.4585,46.6826 -275.1846,45.5712 C 95.188504,537.79454 23.90797,528.54777 23.90797,528.54777 Z"
     id="path1629"
     sodipodi:nodetypes="czcssc"
     style="fill:url(#SVGID_4_)" /><path
     fill="url(#SVGID_33_)"
     d="m 697.0515,518.9727 c 0,0 -81.18688,239.23507 -342.8266,236.74487 C 92.585185,753.22737 21.783556,524.42033 21.783556,524.42033 c 0,0 127.371094,-16.649 216.681094,-11.2994 89.3101,5.3496 169.05435,47.77213 274.25555,46.66093 105.2022,-1.1115 184.3313,-40.80916 184.3313,-40.80916 z"
     id="path1896"
     sodipodi:nodetypes="czcscc"
     style="fill:url(#SVGID_33_)" /><g
     transform="matrix(4.2726947,0,0,5.6139659,-47.115144,-687.03262)"
     id="g870"><path
       inkscape:connector-curvature="0"
       transform="matrix(1,0,-0.5,-0.8660254,0,0)"
       style="opacity:1;fill:#ba6137;fill-opacity:1;stroke:none;stroke-width:0.107457;stroke-miterlimit:4;stroke-dasharray:none;stroke-dashoffset:0;stroke-opacity:1"
       d="m -63.131153,-230.77861 h 34.395832 v 21.38602 h -34.395832 z"
       id="rect399" /><path
       inkscape:connector-curvature="0"
       style="opacity:1;fill:#fff5d9;fill-opacity:1;stroke:none;stroke-width:0.1;stroke-miterlimit:4;stroke-dasharray:none;stroke-dashoffset:0;stroke-opacity:1"
       d="m 29.805283,199.86012 h 34.450672 v 18.52083 H 29.805283 Z"
       id="rect392" /><path
       style="opacity:1;fill:#e2cb9c;fill-opacity:1;stroke:none;stroke-width:0.1;stroke-miterlimit:4;stroke-dasharray:none;stroke-dashoffset:0;stroke-opacity:1"
       d="m 64.255951,199.86012 10.638169,-18.52083 10.693008,18.52083 v 18.52083 H 64.255951 Z"
       id="rect396"
       inkscape:connector-curvature="0"
       sodipodi:nodetypes="cccccc" /><path
       inkscape:connector-curvature="0"
       transform="matrix(1,0,-0.51960741,0.85440514,0,0)"
       style="opacity:1;fill:#c1a368;fill-opacity:1;stroke:none;stroke-width:0.111034;stroke-miterlimit:4;stroke-dasharray:none;stroke-dashoffset:0;stroke-opacity:1"
       d="m 150.32745,213.10065 h 36.2308 v 21.67687 h -36.2308 z"
       id="rect833" /><path
       inkscape:connector-curvature="0"
       transform="matrix(1,0,-0.51960741,0.85440514,0,0)"
       style="opacity:1;fill:#ba6137;fill-opacity:1;stroke:none;stroke-width:0.111034;stroke-miterlimit:4;stroke-dasharray:none;stroke-dashoffset:0;stroke-opacity:1"
       d="m 149.88046,212.2404 h 36.2308 v 21.67688 h -36.2308 z"
       id="rect388" /><path
       inkscape:connector-curvature="0"
       style="opacity:1;fill:#e2cb9c;fill-opacity:1;stroke:none;stroke-width:0.1;stroke-miterlimit:4;stroke-dasharray:none;stroke-dashoffset:0;stroke-opacity:1"
       d="m 33.542328,203.1884 h 5.61266 v 7.75082 h -5.61266 z"
       id="rect401" /><path
       inkscape:connector-curvature="0"
       style="opacity:1;fill:#e2cb9c;fill-opacity:1;stroke:none;stroke-width:0.140197;stroke-miterlimit:4;stroke-dasharray:none;stroke-dashoffset:0;stroke-opacity:1"
       d="m 43.030396,203.1884 h 5.612659 v 15.23436 h -5.612659 z"
       id="rect403" /><path
       inkscape:connector-curvature="0"
       style="opacity:1;fill:#e2cb9c;fill-opacity:1;stroke:none;stroke-width:0.1;stroke-miterlimit:4;stroke-dasharray:none;stroke-dashoffset:0;stroke-opacity:1"
       d="m 53.587543,203.1884 h 5.61266 v 7.75082 h -5.61266 z"
       id="rect405" /><path
       inkscape:connector-curvature="0"
       style="opacity:1;fill:#d6b574;fill-opacity:1;stroke:none;stroke-width:0.10167;stroke-miterlimit:4;stroke-dasharray:none;stroke-dashoffset:0;stroke-opacity:1"
       d="m 67.619194,203.1884 h 5.801648 v 7.75082 h -5.801648 z"
       id="rect407" /><path
       inkscape:connector-curvature="0"
       style="opacity:1;fill:#d6b574;fill-opacity:1;stroke:none;stroke-width:0.1;stroke-miterlimit:4;stroke-dasharray:none;stroke-dashoffset:0;stroke-opacity:1"
       d="m 76.572723,203.1884 h 5.61266 v 7.75082 h -5.61266 z"
       id="rect601" /><path
       inkscape:connector-curvature="0"
       style="opacity:1;fill:#c1a368;fill-opacity:1;stroke:none;stroke-width:0.108742;stroke-miterlimit:4;stroke-dasharray:none;stroke-dashoffset:0;stroke-opacity:1"
       d="m 78.264119,191.96307 a 2.4493151,3.0735996 0 0 1 -2.449315,3.0736 2.4493151,3.0735996 0 0 1 -2.449315,-3.0736 2.4493151,3.0735996 0 0 1 2.449315,-3.0736 2.4493151,3.0735996 0 0 1 2.449315,3.0736 z"
       id="ellipse711" /><path
       inkscape:connector-curvature="0"
       style="opacity:1;fill:#d6b574;fill-opacity:1;stroke:none;stroke-width:0.1;stroke-miterlimit:4;stroke-dasharray:none;stroke-dashoffset:0;stroke-opacity:1"
       d="m 77.508168,191.96307 a 2.0713389,3.0735996 0 0 1 -2.071339,3.0736 2.0713389,3.0735996 0 0 1 -2.071339,-3.0736 2.0713389,3.0735996 0 0 1 2.071339,-3.0736 2.0713389,3.0735996 0 0 1 2.071339,3.0736 z"
       id="path603" /><path
       inkscape:connector-curvature="0"
       style="opacity:1;fill:#c1a368;fill-opacity:1;stroke:none;stroke-width:0.041838;stroke-miterlimit:4;stroke-dasharray:none;stroke-dashoffset:0;stroke-opacity:1"
       d="m 72.438393,203.1884 h 0.982451 v 7.75082 h -0.982451 z"
       id="rect605" /><path
       inkscape:connector-curvature="0"
       style="opacity:1;fill:#c1a368;fill-opacity:1;stroke:none;stroke-width:0.041838;stroke-miterlimit:4;stroke-dasharray:none;stroke-dashoffset:0;stroke-opacity:1"
       d="m 81.202934,203.1884 h 0.982452 v 7.75082 h -0.982452 z"
       id="rect709" /><path
       inkscape:connector-curvature="0"
       style="opacity:1;fill:#cbb78c;fill-opacity:1;stroke:none;stroke-width:0.041838;stroke-miterlimit:4;stroke-dasharray:none;stroke-dashoffset:0;stroke-opacity:1"
       d="m 33.542328,203.1884 h 0.982451 v 7.75082 h -0.982451 z"
       id="rect713" /><path
       inkscape:connector-curvature="0"
       style="opacity:1;fill:#cbb78c;fill-opacity:1;stroke:none;stroke-width:0.0586556;stroke-miterlimit:4;stroke-dasharray:none;stroke-dashoffset:0;stroke-opacity:1"
       d="m 43.030396,203.1884 h 0.982451 v 15.23436 h -0.982451 z"
       id="rect715" /><path
       inkscape:connector-curvature="0"
       style="opacity:1;fill:#cbb78c;fill-opacity:1;stroke:none;stroke-width:0.041838;stroke-miterlimit:4;stroke-dasharray:none;stroke-dashoffset:0;stroke-opacity:1"
       d="m 53.587543,203.1884 h 0.982452 v 7.75082 h -0.982452 z"
       id="rect717" /><path
       inkscape:connector-curvature="0"
       style="opacity:1;fill:#c1a368;fill-opacity:1;stroke:none;stroke-width:0.0588344;stroke-miterlimit:4;stroke-dasharray:none;stroke-dashoffset:0;stroke-opacity:1"
       d="m 28.335312,199.86012 h 36.217716 v 0.75595 H 28.335312 Z"
       id="rect831" /></g><path
     fill="#ffffff"
     d="m 568.15627,257.55508 c 0,-19.0234 -41.0406,-34.4453 -91.6665,-34.4453 -22.5142,0 -43.128,3.0518 -59.084,8.1119 -4.6948,-12.7759 -30.9253,-22.5562 -62.5825,-22.5562 -31.2759,0 -57.2388,9.5483 -62.3882,22.0972 -3.6392,-0.6397 -7.4995,-0.9864 -11.5005,-0.9864 -21.7847,0 -39.4448,10.1978 -39.4448,22.7779 0,12.5801 17.6601,22.7783 39.4448,22.7783 5.793,0 11.2886,-0.7275 16.2436,-2.0234 -0.0874,0.6699 -0.1328,1.3447 -0.1328,2.0234 0,22.0908 47.0103,40 105,40 43.4146,0 80.6734,-10.0391 96.6607,-24.3545 39.8901,-3.7314 69.4502,-17.2793 69.4502,-33.4229 z"
     id="path1900"
     style="fill:#f4f4f4;fill-opacity:0.97260267" /><g
     id="g2939"
     transform="matrix(-0.55144009,0.0754553,0.0754553,0.55144009,660.18634,227.27183)"><ellipse
       id="path2396"
       style="fill:#000000"
       inkscape:export-ydpi="90"
       inkscape:export-filename="C:\Documents and Settings\Yusdi\Desktop\Personal\blog\inkscape tutorial\result_tractor.png"
       transform="matrix(0.89597,0,0,0.91819,5.7619,24.852)"
       inkscape:export-xdpi="90"
       cx="472.85715"
       cy="505.21933"
       rx="90"
       ry="87.14286" /><path
       id="path3275"
       style="fill:#666666;fill-rule:evenodd"
       d="m 188.99,282.9 64.93,1.93 1.28,12.21 54.64,-0.64 2.57,119.56 h 12.86 l -4.5,-124.7 25.07,-16.72 v -20.57 l -158.78,1.93 z"
       inkscape:export-ydpi="90"
       sodipodi:nodetypes="ccccccccccc"
       inkscape:export-filename="C:\Documents and Settings\Yusdi\Desktop\Personal\blog\inkscape tutorial\result_tractor.png"
       inkscape:export-xdpi="90" /><path
       id="path2390"
       style="fill:#fd6300;fill-opacity:1;fill-rule:evenodd"
       d="m 221.51,490.58 76.33,29.59 160.5,0.74 47.35,-71.41 c 0,0 12.08,-41.54 -0.66,-66.8 -4.35,-8.63 -11.91,-11.35 -21.51,-12.5 -22.01,-2.66 -80.06,-6.94 -130.27,-6.69 1.09,17.41 4.33,51.38 4.41,77.87 -16.26,0.77 -43.05,1.23 -49.86,0.9 -11.71,-23.74 -36.17,-71.23 -51.3,-83.26 -22.55,-3.22 -67.78,-8.5 -89.95,-7.74 -20.3,0.7 -55.9,-4.57 -66.8,11.09 -5.976,8.58 -0.866,15.1 -5.136,24.65 -4.195,9.38 -22.826,25.54 -22.826,25.54 l 39.862,21.43 z"
       inkscape:export-ydpi="90"
       sodipodi:nodetypes="ccccssccccsscccc"
       inkscape:export-filename="C:\Documents and Settings\Yusdi\Desktop\Personal\blog\inkscape tutorial\result_tractor.png"
       inkscape:export-xdpi="90" /><path
       id="path3312"
       style="fill:#ffff00;fill-rule:evenodd;stroke:#000000;stroke-width:1px"
       d="m 357.21,384.99 149.73,3.56 c 0,0 1.13,1.98 1.76,6.94 -6.78,0 -151.09,-0.94 -151.09,-0.94 z"
       inkscape:export-ydpi="90"
       sodipodi:nodetypes="ccccc"
       inkscape:export-filename="C:\Documents and Settings\Yusdi\Desktop\Personal\blog\inkscape tutorial\result_tractor.png"
       inkscape:export-xdpi="90" /><path
       id="path2400"
       style="fill:#1a1a1a;fill-rule:evenodd"
       d="m 290.12,235.91 c -41.86,-0.08 -85.7,1.61 -98.4,5.21 -8.46,2.41 -11.68,17.17 -11.68,17.17 l -8.66,94.25 c 31.25,2.49 81.67,5.26 86.96,9.62 18.85,15.51 50.04,83.34 50.04,83.34 h 53.4 l -8.9,-173.44 9.87,-7.68 2.94,-10.8 c 0,0 -13.2,-13.07 -18.76,-13.5 -16.54,-1.27 -31.69,-4.13 -56.81,-4.17 z m -96.46,28 57.78,0.65 c 0,0 0.52,8.13 1.44,92.63 -5.79,-2.5 -34.52,-5.1 -62.82,-7.6 z m 149.72,0.43 10.71,175.91 -47.31,0.06 c 0,0 -22.5,-52.98 -47.19,-79.75 l -1.71,-95.62 z"
       inkscape:export-ydpi="90"
       sodipodi:nodetypes="csccscccccscccccccccccc"
       inkscape:export-filename="C:\Documents and Settings\Yusdi\Desktop\Personal\blog\inkscape tutorial\result_tractor.png"
       inkscape:export-xdpi="90" /><path
       id="path2404"
       style="fill:url(#radialGradient3182);fill-rule:evenodd"
       d="m 69.69,415.2 c 1.05,-4.82 8.424,-13.02 16.082,-21.45 7.659,-8.42 30.058,-32.46 52.838,-36.76 30.85,-5.82 80.5,1.04 105.69,3.83 4.04,0.45 9.91,1.2 13.02,3.83 14.77,12.5 39.04,56.82 50.54,83.48 6.96,16.13 -9.19,72.75 -9.19,72.75 L 222.09,491.69 98.03,428.21 81.938,416.74 c 0,0 -4.086,2.22 -5.97,2.04 -2.159,-0.21 -6.74,-1.47 -6.278,-3.58 z"
       inkscape:export-ydpi="90"
       sodipodi:nodetypes="csssssccccss"
       inkscape:export-filename="C:\Documents and Settings\Yusdi\Desktop\Personal\blog\inkscape tutorial\result_tractor.png"
       inkscape:export-xdpi="90" /><path
       id="path3314"
       style="fill:none;stroke:#000000;stroke-width:1px"
       d="M 358.01,397.15 H 509.3"
       inkscape:export-ydpi="90"
       sodipodi:nodetypes="cc"
       inkscape:export-filename="C:\Documents and Settings\Yusdi\Desktop\Personal\blog\inkscape tutorial\result_tractor.png"
       inkscape:export-xdpi="90" /><path
       id="path3316"
       style="fill:#fffd75;fill-opacity:1;fill-rule:evenodd"
       d="m 402.26,521.53 c 0,-7.17 -0.47,-32.85 2.21,-43.59 3.82,-15.31 16.94,-35.08 28.14,-47.46 5.06,-5.59 23.85,-17.18 30.8,-20.13 18.96,-8.03 47.07,-4.4 49.19,-3.87 0,0 1.17,-3.58 -5.5,-4.69 -10.4,-1.72 -34.66,-0.62 -49.11,2.21 -9.45,1.86 -31.15,12.78 -41.67,22.33 -14.42,13.09 -28.05,36.18 -32.03,50.55 -1.49,5.37 -4.18,24.18 -3.55,40.79 6.34,1.09 22.07,7.73 22.07,7.73"
       inkscape:export-ydpi="90"
       sodipodi:nodetypes="cssscsssscc"
       inkscape:export-filename="C:\Documents and Settings\Yusdi\Desktop\Personal\blog\inkscape tutorial\result_tractor.png"
       inkscape:export-xdpi="90" /><path
       id="path3318"
       style="fill:#fd6300;fill-opacity:1;fill-rule:evenodd"
       d="m 180.23,259.57 186.22,-4.9 c 0,0 -5.42,-8.52 -8.17,-10.89 -4.32,-3.72 -11.19,-8.46 -16.88,-8.71 -36.05,-1.6 -86.67,-2.76 -123.6,0.54 -9.42,0.84 -23.82,-0.66 -31.04,5.45 -4.49,3.8 -6.53,18.51 -6.53,18.51 z"
       inkscape:export-ydpi="90"
       sodipodi:nodetypes="ccssssc"
       inkscape:export-filename="C:\Documents and Settings\Yusdi\Desktop\Personal\blog\inkscape tutorial\result_tractor.png"
       inkscape:export-xdpi="90" /><path
       id="path2437"
       style="fill:#18181a;fill-rule:evenodd;stroke:#000000;stroke-width:1px"
       d="m 154.01,351.76 7.34,-76.36 20.7,-15.96 0.87,-12.94 -16.4,-0.87 -0.86,12.52 1.73,-1.3 -9.5,5.61 -4.74,0.22 -0.43,10.78 4.74,0.65"
       inkscape:export-ydpi="90"
       sodipodi:nodetypes="ccccccccccc"
       inkscape:export-filename="C:\Documents and Settings\Yusdi\Desktop\Personal\blog\inkscape tutorial\result_tractor.png"
       inkscape:export-xdpi="90" /><path
       id="path2451"
       style="fill:url(#linearGradient2459);fill-rule:evenodd"
       d="m 371.87,281.01 -2.16,4.75 -3.02,163.5 c 0,0 1.01,3.78 2.59,4.74 2.22,1.35 6.44,1.81 8.63,0.43 1.37,-0.86 2.59,-4.74 2.59,-4.74 l 2.59,-163.07 -1.73,-4.75 v -15.96 c 0,0 -2.5,-2.35 -3.88,-2.59 -1.58,-0.27 -5.18,1.3 -5.18,1.3 z"
       inkscape:export-ydpi="90"
       sodipodi:nodetypes="cccssccccscc"
       inkscape:export-filename="C:\Documents and Settings\Yusdi\Desktop\Personal\blog\inkscape tutorial\result_tractor.png"
       inkscape:export-xdpi="90" /><path
       id="path2392"
       style="fill:url(#linearGradient3301);fill-rule:evenodd"
       d="m 190.07,350.77987 3.61,-85.68 57.78,0.67 c 0,0 0.5,8.09 1.42,92.59 -5.78,-2.49 -34.51,-5.08 -62.81,-7.58 z"
       inkscape:export-ydpi="90"
       sodipodi:nodetypes="ccccc"
       inkscape:export-filename="C:\Documents and Settings\Yusdi\Desktop\Personal\blog\inkscape tutorial\result_tractor.png"
       inkscape:export-xdpi="90" /><path
       id="path2402"
       style="fill:url(#linearGradient3273);fill-rule:evenodd"
       d="m 259.72,360.59 -1.72,-95.61 85.49,-0.58 10.71,175.88 -47.32,0.06 c 0,0 -22.47,-52.98 -47.16,-79.75 z"
       inkscape:export-ydpi="90"
       sodipodi:nodetypes="cccccc"
       inkscape:export-filename="C:\Documents and Settings\Yusdi\Desktop\Personal\blog\inkscape tutorial\result_tractor.png"
       inkscape:export-xdpi="90" /><path
       id="path3210"
       style="fill:url(#linearGradient3219);fill-rule:evenodd;stroke:#000000;stroke-width:1px"
       d="m 161.78,275.4 -7.77,75.5 17.69,0.43 8.63,-89.73"
       inkscape:export-ydpi="90"
       inkscape:export-filename="C:\Documents and Settings\Yusdi\Desktop\Personal\blog\inkscape tutorial\result_tractor.png"
       inkscape:export-xdpi="90" /><path
       id="path3221"
       style="fill:url(#linearGradient3230);fill-rule:evenodd;stroke:#cccccc;stroke-width:0.3"
       d="m 165.23,257.28 c 0,0 -4.89,0.32 -4.53,-3.23 0.4,-3.97 -0.25,-3.95 0.21,-5.61 0.87,-3.11 5.18,-3.02 5.18,-3.02 z"
       inkscape:export-ydpi="90"
       sodipodi:nodetypes="csscc"
       inkscape:export-filename="C:\Documents and Settings\Yusdi\Desktop\Personal\blog\inkscape tutorial\result_tractor.png"
       inkscape:export-xdpi="90" /><path
       id="path3232"
       style="fill:url(#linearGradient3234);fill-rule:evenodd;stroke:#cccccc;stroke-width:0.24279"
       d="m 152.3,273.81 c 0,0 -3.62,0.54 -3.38,-3.04 0.26,-3.98 -0.16,-3.96 0.14,-5.63 0.56,-3.13 3.37,-3.04 3.37,-3.04 z"
       inkscape:export-ydpi="90"
       sodipodi:nodetypes="csscc"
       inkscape:export-filename="C:\Documents and Settings\Yusdi\Desktop\Personal\blog\inkscape tutorial\result_tractor.png"
       inkscape:export-xdpi="90" /><circle
       id="path2383"
       style="fill:#1a1a1a"
       inkscape:export-ydpi="90"
       inkscape:export-filename="C:\Documents and Settings\Yusdi\Desktop\Personal\blog\inkscape tutorial\result_tractor.png"
       transform="translate(31.429)"
       inkscape:export-xdpi="90"
       cx="150"
       cy="482.36218"
       r="112.85714" /><ellipse
       id="path2387"
       style="fill:#1a1a1a"
       inkscape:export-ydpi="90"
       inkscape:export-filename="C:\Documents and Settings\Yusdi\Desktop\Personal\blog\inkscape tutorial\result_tractor.png"
       transform="matrix(1,0,0,1.0328,27.714,-19.422)"
       inkscape:export-xdpi="90"
       cx="472.85715"
       cy="505.21933"
       rx="90"
       ry="87.14286" /><circle
       id="path3204"
       style="fill:#ffff00"
       inkscape:export-ydpi="90"
       inkscape:export-filename="C:\Documents and Settings\Yusdi\Desktop\Personal\blog\inkscape tutorial\result_tractor.png"
       transform="matrix(0.57615,0,0,0.57615,94.666,204.99)"
       inkscape:export-xdpi="90"
       cx="150"
       cy="482.36218"
       r="112.85714" /><ellipse
       id="path3206"
       style="fill:#ffff00"
       inkscape:export-ydpi="90"
       inkscape:export-filename="C:\Documents and Settings\Yusdi\Desktop\Personal\blog\inkscape tutorial\result_tractor.png"
       transform="matrix(0.55709,0,0,0.57535,238.56,212.45)"
       inkscape:export-xdpi="90"
       cx="472.85715"
       cy="505.21933"
       rx="90"
       ry="87.14286" /><circle
       id="path2403"
       style="fill:#000000"
       inkscape:export-ydpi="90"
       inkscape:export-filename="C:\Documents and Settings\Yusdi\Desktop\Personal\blog\inkscape tutorial\result_tractor.png"
       transform="matrix(0.47523,0,0,0.47523,109.8,252.53)"
       inkscape:export-xdpi="90"
       cx="150"
       cy="482.36218"
       r="112.85714" /><ellipse
       id="path2405"
       style="fill:#000000"
       inkscape:export-ydpi="90"
       inkscape:export-filename="C:\Documents and Settings\Yusdi\Desktop\Personal\blog\inkscape tutorial\result_tractor.png"
       transform="matrix(0.44952,0,0,0.48386,282.3,260.08)"
       inkscape:export-xdpi="90"
       cx="472.85715"
       cy="505.21933"
       rx="90"
       ry="87.14286" /><path
       id="path2407"
       style="fill:#ffff00;fill-rule:evenodd"
       d="m 152.62,430.51 c 0,0 -0.69,7.52 6.15,7.52 6.83,0 53.3,5.24 53.3,5.24 l 7.74,-5.46 11.39,21.17 -5.01,4.79 -5.93,48.06 4.11,6.38 -9.11,9.11 -9.12,-4.56 -58.53,-6.14 -8.66,2.73 -9.11,-11.39 7.06,-6.16 6.38,-49.65 -5.7,-9.8 z"
       inkscape:export-ydpi="90"
       sodipodi:nodetypes="csccccccccccccccc"
       inkscape:export-filename="C:\Documents and Settings\Yusdi\Desktop\Personal\blog\inkscape tutorial\result_tractor.png"
       inkscape:export-xdpi="90" /><circle
       id="path3199"
       style="fill:none;stroke:url(#linearGradient3294);stroke-width:2.1042"
       inkscape:export-ydpi="90"
       inkscape:export-filename="C:\Documents and Settings\Yusdi\Desktop\Personal\blog\inkscape tutorial\result_tractor.png"
       transform="matrix(0.51115,0,0,0.51115,104.69,235.35)"
       inkscape:export-xdpi="90"
       cx="150"
       cy="482.36218"
       r="112.85714" /><circle
       id="path3209"
       style="fill:none;stroke:url(#linearGradient3207);stroke-width:2.1042"
       inkscape:export-ydpi="90"
       inkscape:export-filename="C:\Documents and Settings\Yusdi\Desktop\Personal\blog\inkscape tutorial\result_tractor.png"
       transform="matrix(0.53509,0,0,0.53509,100.83,224.07)"
       inkscape:export-xdpi="90"
       cx="150"
       cy="482.36218"
       r="112.85714" /><circle
       id="path3213"
       style="fill:url(#linearGradient3223)"
       inkscape:export-ydpi="90"
       inkscape:export-filename="C:\Documents and Settings\Yusdi\Desktop\Personal\blog\inkscape tutorial\result_tractor.png"
       transform="matrix(0.2398,0,0,0.2398,145.85,363.06)"
       inkscape:export-xdpi="90"
       cx="150"
       cy="482.36218"
       r="112.85714" /><circle
       id="path3225"
       style="fill:none;stroke:url(#linearGradient3227);stroke-width:20.268"
       inkscape:export-ydpi="90"
       inkscape:export-filename="C:\Documents and Settings\Yusdi\Desktop\Personal\blog\inkscape tutorial\result_tractor.png"
       transform="matrix(0.14802,0,0,0.14802,159.16,407.25)"
       inkscape:export-xdpi="90"
       cx="150"
       cy="482.36218"
       r="112.85714" /><path
       id="path3233"
       style="fill:#ffff00;fill-rule:evenodd"
       d="m 481.92,470.75 32.43,5.3 9.27,-3.97 9.93,11.25 -8.61,7.28 -5.29,33.76 5.95,10.59 -7.28,8.61 -7.94,-3.98 -37.73,-5.29 -5.96,4.63 -9.27,-13.24 1.99,-6.62 7.28,-39.71 -3.97,-4.63 13.9,-9.93 z"
       inkscape:export-ydpi="90"
       inkscape:export-filename="C:\Documents and Settings\Yusdi\Desktop\Personal\blog\inkscape tutorial\result_tractor.png"
       inkscape:export-xdpi="90" /><ellipse
       id="path3231"
       style="fill:none;stroke:#000000;stroke-width:2.1442"
       inkscape:export-ydpi="90"
       inkscape:export-filename="C:\Documents and Settings\Yusdi\Desktop\Personal\blog\inkscape tutorial\result_tractor.png"
       transform="matrix(0.47785,0,0,0.49514,271.91,254.2)"
       inkscape:export-xdpi="90"
       cx="472.85715"
       cy="505.21933"
       rx="90"
       ry="87.14286" /><ellipse
       id="path3229"
       style="fill:none;stroke:#000000;stroke-width:2.1442"
       inkscape:export-ydpi="90"
       inkscape:export-filename="C:\Documents and Settings\Yusdi\Desktop\Personal\blog\inkscape tutorial\result_tractor.png"
       transform="matrix(0.4955,0,0,0.51337,264.86,244.63)"
       inkscape:export-xdpi="90"
       cx="472.85715"
       cy="505.21933"
       rx="90"
       ry="87.14286" /><circle
       id="path3235"
       style="fill:url(#linearGradient3237)"
       inkscape:export-ydpi="90"
       inkscape:export-filename="C:\Documents and Settings\Yusdi\Desktop\Personal\blog\inkscape tutorial\result_tractor.png"
       transform="matrix(0.2398,0,0,0.2398,456.11,388.36)"
       inkscape:export-xdpi="90"
       cx="150"
       cy="482.36218"
       r="112.85714" /><circle
       id="path3239"
       style="fill:#ffff00"
       inkscape:export-ydpi="90"
       inkscape:export-filename="C:\Documents and Settings\Yusdi\Desktop\Personal\blog\inkscape tutorial\result_tractor.png"
       transform="matrix(0.1985,0,0,0.1985,459.25,409.41)"
       inkscape:export-xdpi="90"
       cx="150"
       cy="482.36218"
       r="112.85714" /><circle
       id="path3245"
       style="fill:url(#linearGradient3247)"
       inkscape:export-ydpi="90"
       inkscape:export-filename="C:\Documents and Settings\Yusdi\Desktop\Personal\blog\inkscape tutorial\result_tractor.png"
       transform="matrix(0.12588,0,0,0.12588,469.67,444.6)"
       inkscape:export-xdpi="90"
       cx="150"
       cy="482.36218"
       r="112.85714" /><circle
       id="path3249"
       style="fill:#ffff00"
       inkscape:export-ydpi="90"
       inkscape:export-filename="C:\Documents and Settings\Yusdi\Desktop\Personal\blog\inkscape tutorial\result_tractor.png"
       transform="matrix(0.11876,0,0,0.11876,472.66,445.78)"
       inkscape:export-xdpi="90"
       cx="150"
       cy="482.36218"
       r="112.85714" /></g></g><metadata
   id="metadata1052"><rdf:RDF><cc:Work
       rdf:about=""><cc:license
         rdf:resource="http://creativecommons.org/publicdomain/zero/1.0/" /></cc:Work><cc:License
       rdf:about="http://creativecommons.org/publicdomain/zero/1.0/"><cc:permits
         rdf:resource="http://creativecommons.org/ns#Reproduction" /><cc:permits
         rdf:resource="http://creativecommons.org/ns#Distribution" /><cc:permits
         rdf:resource="http://creativecommons.org/ns#DerivativeWorks" /></cc:License></rdf:RDF></metadata></svg>
