<svg width="404.03" height="390.91" version="1.1" viewBox="0 0 404.03 390.91" xmlns="http://www.w3.org/2000/svg" xmlns:xlink="http://www.w3.org/1999/xlink">
 <defs>
  <radialGradient id="radialGradient6719" cx="605.71" cy="486.65" r="117.14" gradientTransform="matrix(-2.7744,0,0,1.9697,112.76,-872.89)" gradientUnits="userSpaceOnUse" xlink:href="#linearGradient5060"/>
  <linearGradient id="linearGradient5060">
   <stop offset="0"/>
   <stop stop-opacity="0" offset="1"/>
  </linearGradient>
  <radialGradient id="radialGradient6717" cx="605.71" cy="486.65" r="117.14" gradientTransform="matrix(2.7744,0,0,1.9697,-1891.6,-872.89)" gradientUnits="userSpaceOnUse" xlink:href="#linearGradient5060"/>
  <linearGradient id="linearGradient6715" x1="302.86" x2="302.86" y1="366.65" y2="609.51" gradientTransform="matrix(2.7744,0,0,1.9697,-1892.2,-872.89)" gradientUnits="userSpaceOnUse">
   <stop stop-opacity="0" offset="0"/>
   <stop offset=".5"/>
   <stop stop-opacity="0" offset="1"/>
  </linearGradient>
  <linearGradient id="linearGradient2861" x1="21.043" x2="14.284" y1="42.833" y2="6.8334" gradientTransform="matrix(6.2839 0 0 6.2676 117.47 95.465)" gradientUnits="userSpaceOnUse">
   <stop stop-color="#dfdfdf" offset="0"/>
   <stop stop-color="#fff" offset="1"/>
  </linearGradient>
  <linearGradient id="linearGradient2879" x1="26.612" x2="26.228" y1="28.083" y2="42.833" gradientTransform="matrix(5.5224 0 0 6.2676 132.16 95.465)" gradientUnits="userSpaceOnUse">
   <stop stop-color="#939393" offset="0"/>
   <stop stop-color="#424242" offset="1"/>
  </linearGradient>
  <linearGradient id="linearGradient2925" x1="6" x2="40.984" y1="7.5625" y2="7.5625" gradientTransform="matrix(5.5224 0 0 6.2676 132.16 95.465)" gradientUnits="userSpaceOnUse">
   <stop stop-color="#a3a4a0" offset="0"/>
   <stop stop-color="#888a85" offset="1"/>
  </linearGradient>
  <linearGradient id="linearGradient2972" x1="48.906" x2="50.988" y1="17.376" y2="22.251" gradientTransform="matrix(5.5224 0 0 6.2676 100.85 95.465)" gradientUnits="userSpaceOnUse">
   <stop stop-color="#ffd1d1" offset="0"/>
   <stop stop-color="#ff1d1d" offset=".5"/>
   <stop stop-color="#6f0000" offset="1"/>
  </linearGradient>
  <linearGradient id="linearGradient2980" x1="46" x2="47.688" y1="19.812" y2="22.625" gradientTransform="matrix(5.5224 0 0 6.2676 100.85 95.465)" gradientUnits="userSpaceOnUse">
   <stop stop-color="#c1c1c1" offset="0"/>
   <stop stop-color="#acacac" offset="1"/>
  </linearGradient>
  <radialGradient id="radialGradient2990" cx="29.053" cy="27.641" r="3.2409" gradientTransform="matrix(16.145 0 0 12.721 -207.77 -79.302)" gradientUnits="userSpaceOnUse">
   <stop stop-color="#e7e2b8" offset="0"/>
   <stop stop-color="#e7e2b8" stop-opacity="0" offset="1"/>
  </radialGradient>
  <linearGradient id="linearGradient3000" x1="25.719" x2="25.515" y1="31.047" y2="30.703" gradientTransform="matrix(5.5224 0 0 6.2676 99.99 96.248)" gradientUnits="userSpaceOnUse">
   <stop offset="0"/>
   <stop stop-color="#c9c9c9" offset="1"/>
  </linearGradient>
  <radialGradient id="radialGradient3010" cx="23.562" cy="40.438" r="19.562" gradientTransform="matrix(3.4052 0 0 .96117 190.78 255.6)" gradientUnits="userSpaceOnUse">
   <stop offset="0"/>
   <stop stop-opacity="0" offset="1"/>
  </radialGradient>
  <linearGradient id="linearGradient1647" x1="13.177" x2="68.044" y1="148.64" y2="142.72" gradientTransform="scale(1.2139 .82381)" gradientUnits="userSpaceOnUse">
   <stop stop-color="#cbcfd5" offset="0"/>
   <stop stop-color="#919ba8" offset=".44687"/>
   <stop stop-color="#57677b" offset="1"/>
  </linearGradient>
 </defs>
 <g transform="translate(6.92 -3)">
  <g transform="translate(-134,-105)">
   <g transform="matrix(.13351 0 0 .13079 381.38 347.14)">
    <rect x="-1559.3" y="-150.7" width="1339.6" height="478.36" color="#000000" fill="url(#linearGradient6715)" opacity=".40206"/>
    <path d="m-219.62-150.68v478.33c142.88 0.9 345.4-107.17 345.4-239.2 0-132.02-159.44-239.13-345.4-239.13z" color="#000000" fill="url(#radialGradient6717)" opacity=".40206"/>
    <path d="m-1559.3-150.68v478.33c-142.8 0.9-345.4-107.17-345.4-239.2 0-132.02 159.5-239.13 345.4-239.13z" color="#000000" fill="url(#radialGradient6719)" opacity=".40206"/>
   </g>
   <g fill-rule="evenodd">
    <path d="m171.72 123.71h180.3c4.2136 0 7.6044 3.3369 7.6044 7.4823l13.259 214.16 0.0663 14.716c0 4.1429-3.3908 7.4773-7.5988 7.4773h-206.96c-4.2108 0-7.601-3.3344-7.601-7.4773l-0.0618-13.582 13.392-215.29c0-4.1442 3.3902-7.4811 7.6016-7.4811z" color="#000000" fill="url(#linearGradient2861)" stroke="url(#linearGradient2879)" stroke-width="5.8832"/>
    <ellipse cx="271.01" cy="294.47" rx="66.614" ry="18.803" color="#000000" fill="url(#radialGradient3010)" opacity=".31579" stroke-width="3.0657"/>
    <g stroke-width="5.8832">
     <rect x="154.12" y="345.34" width="215.64" height="19.251" rx="3.7518" ry="4.2581" color="#000000" fill="#a4a4a4"/>
     <path d="m153.85 348.95s0.83278-3.3281 3.8878-3.6039h207.44c4.1694 0 4.4456 4.7133 4.4456 4.7133s0.13253-10.154-7.0908-10.154h-201.08c-5.5528 0.55156-7.6055 4.8888-7.6055 9.0442z" color="#000000" fill="#fff"/>
     <path d="m166.68 131.41-1.3806 27.519s1.7258-7.0511 5.5224-7.0511h182.93c3.8822-0.0978 4.0534 1.9586 4.7437 5.1902l-1.3806-24.287c-0.1712-3.4278-1.2039-5.9737-4.313-5.9737h-181.63c-2.505 0-4.2307 2.1542-4.4897 4.603z" color="#000000" fill="url(#linearGradient2925)"/>
    </g>
   </g>
   <path d="m175.31 130.19h171.92c3.9872 0 7.1957-0.95394 7.1957 2.9715 0 0 12.558 206.88 12.558 206.88l0.55224 16.979c0 3.9235-0.76762 4.0364-4.7548 4.0364h-203.77c-2.2785 0-2.3161-0.66439-2.3161-3.2028l-0.0585-16.741 12.68-207.76c0-3.926 2.0019-3.1683 5.989-3.1683z" color="#000000" fill="none" opacity=".4386" stroke="#fff" stroke-width="5.8832"/>
   <g transform="matrix(5.5224 0 0 6.2676 132.16 95.465)" fill-rule="evenodd">
    <g fill="#fce94f" stroke="#886f00">
     <rect x="8.5" y="2.5" width="2" height="5" rx="1" ry="1" color="#000000"/>
     <rect x="12.5" y="2.5" width="2" height="5" rx="1" ry="1" color="#000000"/>
     <rect x="16.5" y="2.5" width="2" height="5" rx="1" ry="1" color="#000000"/>
     <rect x="20.5" y="2.5" width="2" height="5" rx="1" ry="1" color="#000000"/>
     <rect x="24.5" y="2.5" width="2" height="5" rx="1" ry="1" color="#000000"/>
     <rect x="28.5" y="2.5" width="2" height="5" rx="1" ry="1" color="#000000"/>
     <rect x="32.5" y="2.5" width="2" height="5" rx="1" ry="1" color="#000000"/>
     <rect x="36.5" y="2.5" width="2" height="5" rx="1" ry="1" color="#000000"/>
    </g>
    <g>
     <rect x="9" y="12" width="29" height="1" color="#000000" opacity=".2807"/>
     <rect x="9" y="14.982" width="29" height="1" color="#000000" opacity=".2807"/>
     <rect x="9" y="18.004" width="13" height="1" color="#000000" opacity=".2807"/>
     <rect x="9" y="22.986" width="29" height="1" color="#000000" opacity=".2807"/>
     <rect x="9" y="26.008" width="29" height="1" color="#000000" opacity=".2807"/>
     <rect x="9" y="29.03" width="29" height="1" color="#000000" opacity=".2807"/>
     <rect x="9" y="32.052" width="8" height="1" color="#000000" opacity=".2807"/>
    </g>
   </g>
   <g fill-rule="evenodd" stroke-width="5.8832">
    <path d="m227.92 299.16 31.064-35.256 110.97-61.11c17.948-7.8346 28.645 21.153 12.768 31.338l-110.62 58.759z" color="#000000" fill="#cb9022" stroke="#5c410c"/>
    <path d="m343.84 220.82s7.9357 0.58915 11.045 8.4237c3.1975 8.0727 0 16.647 0 16.647l27.783-15.475s8.0185-5.5218 3.6227-17.819c-4.3351-12.134-14.839-7.2517-14.839-7.2517z" color="#000000" fill="url(#linearGradient2972)"/>
    <path d="m343.84 220.82s7.9357 0.58915 11.045 8.4237c3.1975 8.0727 0 16.647 0 16.647l11.045-6.2677s4.567-8.267 1.2039-16.847c-3.4515-8.8123-12.249-8.2232-12.249-8.2232z" color="#000000" fill="url(#linearGradient2980)"/>
    <path d="m235.81 294.66 24.851-28.204c8.2836 5.0956 12.597 13.519 10.355 23.309z" color="#000000" fill="url(#radialGradient2990)"/>
    <path d="m243.23 285.84-8.9739 9.9906 12.945-1.9618c1.2039-4.5002-1.0382-6.6562-3.9706-8.0289z" color="#000000" fill="url(#linearGradient3000)"/>
    <path d="m260.66 266.26 8.6315 7.8346 84.973-45.873c-2.452-5.3651-6.8588-6.7941-10.509-7.283z" color="#000000" fill="#fff" fill-opacity=".36364"/>
    <path d="m271.01 290.15 1.0382-4.7007 84.112-44.682s-0.60746 3.8483-1.1928 4.6945z" color="#000000" fill-opacity=".36364"/>
   </g>
  </g>
  <g transform="translate(46.898 158.05)">
   <path d="m22.03 147.96c-4.005 5.34-6.315 12.74-6.008 19.03 0.361 7.39 1.858 17.77 8.011 22.03 26.392 18.27 58.741 38.03 89.627 45.56 16.35 3.99 37.38-1.79 52.07-11.01 40.05-25.16 75.64-60.46 112.15-92.13 12.56-10.89 22.21-25.2 35.05-35.549 9.52-7.675 21.36-12.351 32.05-18.526 2.33-3.505 4.32-6.733 5-10.514 0.65-3.562 0-8.679-3-11.016-40.22-15.354-78.44-31.209-118.66-46.564-17.36-2.5034-22.7 16.523-52.08 13.519-16.35 15.02-32.71 30.041-49.06 45.062-35.053 26.703-70.101 53.408-105.15 80.108z" fill="url(#linearGradient1647)" fill-rule="evenodd"/>
   <path d="m347 55c-29.74-16.905-64.87-27.244-97-38.709-12.59-4.493-28.36-12.832-42-9.4637-31.5 7.7777-53.57 33.821-76 55.095-10.75 10.198-23.05 19.049-35 27.784-20.759 15.174-41.331 30.634-62 45.934-9.116 6.74-19.257 13.6-16.588 26.36 1.992 9.53 10.807 13.22 18.588 17.28 16.665 8.67 32.933 18.17 50 26.06 10.073 4.65 19.73 10.33 31 11.43 31.9 3.13 59.38-22.75 82-41.15 19.72-16.04 41.27-30.76 59.86-48.08 11.69-10.88 20.67-24.4 32.16-35.46 10.82-10.426 25.14-17.286 37.98-24.877 5.88-3.476 13.32-6.242 17-12.203z" fill="#9aafd1"/>
   <path d="m119 193c10.08 6.47 22.6 4.07 27.25 0.75 1.11-4.26-3.92-7.76-7.25-9.54-8.28-4.42-17.48-0.2-20 8.79z" fill="#79a063"/>
   <path d="m129 185c1.18 2.85 1.3 3.04-0.71 6.42 4.22-1.36 4.37-1.12 8.42-0.36-1.24-2.75-1.6-2.84 0-6.12-3.99 1.26-4.43 0.75-7.71 0.06z" fill="#a9bb91"/>
   <path d="m77 125c6.726 8.9 23.23 10.84 28-1l-14 4.71z" fill="#698759"/>
   <path d="m164.2 91.754c5.87 2.406 8.81 4.095 13.75 4.105 3.24 6e-3 12.04-3.423 8.06-9.339-5.89-8.505-20.04-3.41-21.81 5.234z" fill="#7aa067"/>
   <path d="m112.34 165.28c11.23 6.53 17.44 6.14 25.07-0.65 2.65-2.37-4.1-8.35-7.72-9.36-8.63-2.41-15.43 0.87-17.35 10.01z" fill="#79a063"/>
   <path d="m137 162c-7.47 12.09-14.61 5.51-25 3 5.6 11.87 25.13 9.63 28-3z" fill="#5d7257"/>
   <g fill="#79a063">
    <path d="m104.77 137.3c11.23 6.54 17.45 6.14 25.07-0.65 2.66-2.36-4.1-8.35-7.72-9.36-8.63-2.4-15.43 0.88-17.35 10.01z"/>
    <path d="m99.132 112.62c11.238 6.53 14.968 5.43 22.588-1.36 2.66-2.36-1.62-7.64-5.24-8.65-8.63-2.4-15.43 0.88-17.348 10.01z"/>
    <path d="m124.31 123.51c11.24 6.53 22.76 3.3 26.49-2.07 2.03-2.92-3.75-5.51-7.37-6.52-8.63-2.41-17.2-0.55-19.12 8.59z"/>
    <path d="m151.35 134.02c11.23 6.54 23.76 2.31 25.48-1.81 1.38-3.29-2.74-5.77-6.36-6.78-8.63-2.41-17.2-0.54-19.12 8.59z"/>
    <path d="m132.29 149.59c11.23 6.54 23.76 2.31 25.48-1.81 1.38-3.28-2.74-5.77-6.36-6.78-8.63-2.41-17.2-0.54-19.12 8.59z"/>
    <path d="m138.8 176.63c12.48 11.79 22.81 2.56 27.24-1.06 0.82-4.32-4.43-7.48-7.87-9.03-8.56-3.87-17.45 0.96-19.37 10.09z"/>
    <path d="m91.518 181.1c10.482 5.78 22.812 2.56 27.232-1.06 0.83-4.32-4.42-7.48-7.86-9.03-8.56-3.87-17.451 0.96-19.372 10.09z"/>
   </g>
   <path d="m174 59c3.85 9.431 12.3 0.708 17-3.439 5.31-4.687 13.68-16.101 21-16.998 5.36-0.658 13.04 3.901 18 5.751 13.65 5.094 27.26 10.34 41 15.167 6.63 2.328 12.85 5.768 20 4.519-2.36-5.222-11.85-7.829-17-9.963-15.11-6.261-30.85-11.241-46.04-17.435-4.92-2.005-13.62-6.94-18.96-5.537-11.91 3.126-24.92 20.596-35 27.935z" fill="#6b6b6b"/>
   <path d="m180 65v-1l-6-5c11.53-6.031 25.13-17.66 33-28-10.26 5.37-20.38 15.296-28.93 23.147-5.02 4.615-5.84 9.811 1.93 10.853z" fill="#7c8491"/>
   <path d="m181 65 55 23.915 20 6.947 11-8.844 21-21.018c-17.56-8.963-37.54-14.423-56-21.314-5.45-2.033-15.17-7.858-21-6.55-9.54 2.14-24.27 19.218-30 26.864z" fill="#d6d6d6"/>
   <path d="m137.25 81.249c4.86-1.35 9.06 1.842 14 1.851 3.24 6e-3 13.29-1.17 10.06-5.834-5.88-8.504-22.29-4.661-24.06 3.983z" fill="#7aa067"/>
   <path d="m146 75c1.31 5.52 4.13 5.133 9 4-2.38-3.485-4.9-3.861-9-4z" fill="#9eb587"/>
   <path d="m137 80c4.24 9.356 20.98 9.535 25 0-10.76 3.014-14.19 2.867-25 0z" fill="#61745f"/>
   <path d="m164.5 90.747 1.25 1.001c2.14-10.084 8.36-9.393 17.75-8-8.6-6.078-18.84-3.325-19 6.999z" fill="#9d9d9d" fill-opacity=".76471"/>
   <path d="m171 84v9c7.02-1.23 5.97-6.722 0-9z" fill="#b9c4a1"/>
   <path d="m117 98c10.79 4.86 16.92 5.8 27-3-7.14-7.866-23.76-9.878-27 3z" fill="#79a063"/>
   <path d="m128 91c-1.32 4.722-1.33 7.253 4 8l3-3z" fill="#b5c29d"/>
   <path d="m164 91c4.28 9.6 18.78 9.13 23 0-10.5 3.824-12.18 2.884-23 0z" fill="#5b6e53"/>
   <path d="m191.39 99.126c6.01-3.931 10.72-4.504 17.72-3.284-5.89-4.286-14.59-3.976-17.72 3.284z" fill="#a0a0a0" fill-opacity=".76471"/>
   <path d="m117 98c6.75 9.44 23.53 7.69 29-2l-1-1-15 6.33z" fill="#5d7354"/>
   <path d="m190 102c2.34 1.34 4.54 3.28 7.08 4.21 4.01 1.47 17.36 0.45 13.55-6.838-4.44-8.496-17.52-4.126-20.63 2.628z" fill="#7aa066"/>
   <path d="m195 101 10 1c-1.62-4.924-8.14-6.588-10-1z" fill="#b8c4a0"/>
   <path d="m98 114h1c1.16-4.68 5.74-14.031 11-8h1l4-4c-9.2-3.068-16.68 2.68-17 12z" fill="#85a58b"/>
   <path d="m145 105c-2.69 10.86 14.68 6.06 25 5 0.51-12.287-17.09-9.5-25-5z" fill="#79a063"/>
   <path d="m212 101c-6.28 9.69-13.93 4.16-22 1 2.63 10.73 22.63 9.46 25-1z" fill="#5e725a"/>
   <path d="m111 103c2.6 6.21-6.48 6.04-6 8l11-3z" fill="#b8c4a0"/>
   <path d="m152 105v2h8v-4z" fill="#c5cbad"/>
   <path d="m217.58 115.06c9.83 5.5 14.71 1.04 23.42-4.06v-1l-2.58-0.71c-7.01-7.5-17.14-2.52-20.84 5.77z" fill="#769a67"/>
   <path d="m144 108c3.95 9.4 21.26 7.78 26 0-10.84 2.14-14.98 3.37-26 0z" fill="#5d7158"/>
   <path d="m110 118c6.18-0.46 12.35-2.45 14-9z" fill="#596d4f"/>
   <path d="m224 110c1.6 6.23 6.18 3.77 8-1z" fill="#bac5a4"/>
   <path d="m238 111c-6.34 9.55-12.33 3.47-21 4v2c8.35 3.68 21.34 5.48 24-6z" fill="#5d7256"/>
   <path d="m99 112c1.26 4.31 5.94 4.71 10 5z" fill="#5c7151"/>
   <path d="m171 118v1l15 3.76 12-1.76c1.12-2.97-3.51-7.23-6.06-8.44-10.14-2.73-14.08 0.53-20.94 5.44z" fill="#79a064"/>
   <path d="m134.51 118.75c-3.63 0.08-3.23 2.78-1.75 3.8s3.54 1.36 6.24 1.45c0.83-0.67 1.42-2.08 1.25-3.25 1.08 0.33 2.92-0.08 3.75-0.75-0.98-3.72-3.1-4.86-5.66-4.88-2.57-0.01-6.08 2.1-3.83 3.63z" fill="#b8c4a0"/>
   <path d="m135.15 119.89-0.7 1.28 2.78 1.3 0.69-1.29z" fill="#91ad7a"/>
   <path d="m181 116v2c3.39 0.61 4.71 0.26 6-3z" fill="#a5b991"/>
   <path d="m78 125c11.736 6.65 15.48 5.48 27-1-8.76-8.22-21.328-10.84-27 1z" fill="#789f64"/>
   <path d="m137.41 116.46-0.64 1.41 2.58 1.42 0.64-1.42z" fill="#91ad7a"/>
   <path d="m171 119c4.57 10 22.59 10.2 27 0-11.16 3.29-15.73 1.94-27 0z" fill="#5e7356"/>
   <path d="m199 131 16 3.38 10-3.38c0.32-7.85-14.32-13.16-20.74-10.18-3.68 1.71-4.28 6.69-5.26 10.18z" fill="#7aa068"/>
   <path d="m124 123c3.25 11.17 25.38 9.1 28-2l-13 6.2z" fill="#5d7156"/>
   <path d="m87.75 118.75 4.004 4.5-2.01 3 8.006-5.5z" fill="#c4cbac"/>
   <path d="m93.288 121.14-2.245-0.93-0.252 0.22 1.79 1.91 1.304-0.57z" fill="#9fb588"/>
   <path d="m150 133h1c7.51-10.72 14.22-8.99 25-4-7.83-9.49-21.73-7.67-26 4z" fill="#a5a5a5" fill-opacity=".76471"/>
   <path d="m216 130-2-7c-8.15 1.13-4.05 6.42 2 7z" fill="#bdc7a5"/>
   <path d="m76 124v4c-6.518 0.03-12.41 0.15-15 7h1c6.901-7.73 17.475-4.72 22 4h1l-1-6 9 1v-1c-5.447-1.05-12.843-3.52-15-9z" fill="#b4b4b4" fill-opacity=".76536"/>
   <path d="m164.7 130.96c-1.12 1.59-2.93 2.3-5.44 2.13 2.71 2 3.76 1.44 5.29 0.62 13.51-6.82-3.73-13.07 0.15-2.75z" fill="#b8c4a0"/>
   <path d="m114 126 15 6c-4.12-4.41-9.08-5.74-15-6z" fill="#97b09a"/>
   <path d="m115.48 135.42-5.25-1c1.74 4.96 8.85 4 9.5 0.17 0.01-1.44-4.48-5.77 1.83-3.11 2.52 1.06-1.44-4.14-4.69-2.22-1.87 1.1-2.5 3.45-1.39 6.16z" fill="#b9c4a1"/>
   <path d="m198 131c6 9.44 23.01 8.88 27-2-11.11 4.81-15.11 4.54-27 2z" fill="#5c7055"/>
   <path d="m60 143c0-0.79-0.566-2.2 1-1.67 10.95 5.32 11.931 5.12 23-2.33-2.552-6.8-10.785-11.04-17.919-8.06-4.133 1.73-9.199 7.84-6.081 12.06z" fill="#79a064"/>
   <path d="m177 130c-9.76 10.46-15.49 5.13-27 3 6.44 10.84 25.9 10.52 29-3z" fill="#5d7155"/>
   <path d="m68 140 8-7c-4.278 1.14-6.441 2.83-8 7z" fill="#c0c8a8"/>
   <path d="m129 135c-7.38 8.95-15.58 4.96-25 2 4.7 10.9 24.86 9.23 28-2z" fill="#607659"/>
   <path d="m179 147.21c3.85 0.88 7.57 2.4 11.59 2.67 2.25 0.15 4.57 0.05 6.8-0.23 21.84-2.78-2.26-22.5-15.51-8.89-1.96 2.01-2.49 4-2.88 6.45z" fill="#79a063"/>
   <path d="m59 141c6.993 9.95 20.32 8.24 26-2l-13.019 5.49z" fill="#5e7357"/>
   <path d="m187 139v7h8c-1.54-4.08-3.74-6.04-8-7z" fill="#d0d2b8"/>
   <path d="m192 141v1l3 3h1v-5z" fill="#a3b792"/>
   <path d="m84.001 153.25 15.771 3.83 14.478-5.83c-9.71-12.73-23.715-13.04-30.249 2z" fill="#79a063"/>
   <path d="m144 150c2.17-1.5 1.59-3.75-1-6h5v-2c-7.24 0.11-15.03 7.2-4 8z" fill="#c8cdaf"/>
   <path d="m180.48 141.65-2.48 8.35c-10.05 0-18.84 1.45-21 13-8.19 0.11-16.06 3.3-18 12h1c7.41-13.5 17.68-7.02 28-1l-2-6c-6.78-4.37-6.35-13.54 2.23-16.29 6.12-1.96 14.48 2.34 17.77 7.29h1l-1-5h11v-1c-10.49 0-12.77-1.31-16.52-11.35z" fill="#b4b4b4" fill-opacity=".76471"/>
   <path d="m37 156 14.96 3.7 13.04-3.7c1.122-4.29-7.049-11.26-11.036-11.85-8.202-1.2-14.98 4.53-16.964 11.85z" fill="#79a063"/>
   <path d="m50.122 147.11c-5.324 2.15-2.535 8.13 2.602 5.8 4.51-2.05 2.002-7.66-2.602-5.8z" fill="#abbc93"/>
   <path d="m179 147c4.85 9.97 22.77 7.2 28-1-11.38 1.96-16.55 3.22-28 1z" fill="#5a6e53"/>
   <path d="m132 149c5.27 11.82 22.67 8.69 27-2l-12.98 6.16z" fill="#5e7356"/>
   <path d="m84 153c6.863 10.14 24.89 9.82 30-2l-15 5.68z" fill="#5d7156"/>
   <path d="m160 162 14 3.44 13-3.44c0.92-7.94-12.55-12.07-18.77-10.57-4.95 1.2-7.07 6.13-8.23 10.57z" fill="#79a065"/>
   <path d="m168 158 4 3h1l1-8z" fill="#d5d4bd"/>
   <path d="m37 156c6.669 10.73 21.951 7.62 28-2l-13.04 5.5z" fill="#5e7258"/>
   <path d="m126.5 156.25c2.42 2.59 4.09 6.59-0.75 4.75 3.34 6.18-5.33 0.84-7 0.5 1.83 4.11 4.72 4.74 9 5 1.17-2.67 1.08-3.33 4.25-5-0.58-2.67-1.66-4.08-5.5-5.25z" fill="#c2c9a9"/>
   <path d="m174 155-1 6h-1v-3h-1v4l6-4v-2z" fill="#b2c09c"/>
   <path d="m64 169.25c4.278 0.81 8.518 1.74 12.831 2.43 24.969 3.97 11.07-23.81-7.856-9.3-2.592 1.98-3.814 4.24-4.975 6.87z" fill="#79a063"/>
   <path d="m159 162c5.93 10 23.73 9.16 28-2-12.26 3.78-15.36 4.72-28 2z" fill="#5a6e50"/>
   <path d="m74 164 1 3h2l1-3z" fill="#c6ccad"/>
   <path d="m64 169c6.183 9.42 22.603 7.46 26.748-3l-11.481 5.74z" fill="#5d7057"/>
   <path d="m118 193c5.42 8.98 25.68 11.06 30 0-12.25 5.17-17.8 2.41-30 0z" fill="#60745c"/>
   <path d="m99 174 8 6 3-3v-3z" fill="#adbe96"/>
   <path d="m165 174c-4.32 5.29-9.31 7.3-16 8v2c8.05-0.01 16.9-0.79 19-10z" fill="#596d50"/>
   <path d="m138 176c1.91 4.6 5.26 5.6 10 6z" fill="#586c4f"/>
   <path d="m91 181c4.843 10.9 24.2 6.59 29-2l-14 5.75z" fill="#60735e"/>
   <path d="m207 31h6z" fill="#8793a7"/>
   <path d="m149 171c2.33 2.67 4.67 4.08 7 5-2.08-2.17-3.41-3.08-7-5z" fill="#cdcfb4"/>
   <path d="m100.81 146.46c1.1-1.37-2.135-2.19-2.822-3.28 6.622-0.61 6.722 5.94 1.636 6.52-3.459 0.09-8.4-1.35-1.884 5.04 1.555 1.52-7.23-2.06-5.378-5.07 1.867-3.03 7.315-1.79 8.448-3.21z" fill="#b9c4a1"/>
   <path d="m135.28 190.51c-0.91-2.2-1-2.35 0.4-5.02-3.05 1.13-3.16 0.95-6.11 0.41 0.95 2.13 1.21 2.2 0.11 4.79 2.87-1.05 3.2-0.66 5.6-0.18z" fill="#cbcfb4"/>
   <path d="m166.96 126.9-1.2 0.64 0.87 2.34 1.2-0.64z" fill="#91ad7a"/>
   <path d="m142.36 145.22-1.2 0.64 0.87 2.34 1.2-0.64z" fill="#91ad7a"/>
  </g>
 </g>
</svg>
