<svg width="400" height="400" version="1.1" viewBox="0 0 400 400" xmlns="http://www.w3.org/2000/svg" xmlns:xlink="http://www.w3.org/1999/xlink">
 <defs>
  <linearGradient id="linearGradient3932">
   <stop stop-color="#fff" offset="0"/>
   <stop stop-color="#fff" stop-opacity="0" offset="1"/>
  </linearGradient>
  <linearGradient id="linearGradient3920">
   <stop stop-color="#ff0" offset="0"/>
   <stop stop-color="#f7cc22" offset=".60876"/>
   <stop stop-color="#d4aa00" offset="1"/>
  </linearGradient>
  <filter id="filter3897" x="-.023723" y="-.074613" width="1.0474" height="1.1492" color-interpolation-filters="sRGB">
   <feGaussianBlur stdDeviation="2.9371152"/>
  </filter>
  <filter id="filter3944" x="-.029589" y="-.045956" width="1.0592" height="1.0919" color-interpolation-filters="sRGB">
   <feGaussianBlur stdDeviation="2.2336543"/>
  </filter>
  <filter id="filter4015" x="-.023065" y="-.025014" width="1.0461" height="1.05" color-interpolation-filters="sRGB">
   <feGaussianBlur stdDeviation="1.3764065"/>
  </filter>
  <filter id="filter4041" x="-.61489" y="-.084422" width="2.2298" height="1.1688" color-interpolation-filters="sRGB">
   <feGaussianBlur stdDeviation="1.0376854"/>
  </filter>
  <filter id="filter4045" x="-.05288" y="-.13364" width="1.1058" height="1.2673" color-interpolation-filters="sRGB">
   <feGaussianBlur stdDeviation="1.0376854"/>
  </filter>
  <filter id="filter4049" x="-.056541" y="-.11485" width="1.1131" height="1.2297" color-interpolation-filters="sRGB">
   <feGaussianBlur stdDeviation="1.0376854"/>
  </filter>
  <filter id="filter3894" x="-.22919" y="-.057108" width="1.4584" height="1.1142" color-interpolation-filters="sRGB">
   <feGaussianBlur stdDeviation="0.88339292"/>
  </filter>
  <filter id="filter3898" x="-.11345" y="-.081186" width="1.2269" height="1.1624" color-interpolation-filters="sRGB">
   <feGaussianBlur stdDeviation="0.88339292"/>
  </filter>
  <filter id="filter3902" x="-.2107" y="-.089389" width="1.4214" height="1.1788" color-interpolation-filters="sRGB">
   <feGaussianBlur stdDeviation="0.88339292"/>
  </filter>
  <radialGradient id="radialGradient3075" cx="282.71" cy="938.51" r="184.62" gradientTransform="matrix(-1.2889 -.88963 -.3377 .51029 1011.8 361.6)" gradientUnits="userSpaceOnUse" xlink:href="#linearGradient3920"/>
  <radialGradient id="radialGradient3077" cx="551.23" cy="852.58" r="10.953" gradientTransform="matrix(-.52996 4.3682 2.0427 .25848 -1375.7 -2109.1)" gradientUnits="userSpaceOnUse">
   <stop stop-opacity="0" offset="0"/>
   <stop stop-opacity="0" offset=".46497"/>
   <stop offset="1"/>
  </radialGradient>
  <radialGradient id="radialGradient3079" cx="412.96" cy="807.7" r="151.06" gradientTransform="matrix(-1.115 -1.5314e-7 -1.7061e-7 1.2212 656.93 -534.72)" gradientUnits="userSpaceOnUse" xlink:href="#linearGradient3920"/>
  <radialGradient id="radialGradient3081" cx="306.09" cy="1055.1" r="184.62" gradientTransform="matrix(-1.337 0 0 .52179 720.1 80.104)" gradientUnits="userSpaceOnUse">
   <stop stop-color="#a80" offset="0"/>
   <stop stop-color="#a28100" offset=".79034"/>
   <stop stop-color="#540" offset="1"/>
  </radialGradient>
  <radialGradient id="radialGradient3083" cx="-5153.7" cy="987.1" r="155.62" gradientTransform="matrix(1.121 -1.8784e-8 0 .37961 6174.9 535.82)" gradientUnits="userSpaceOnUse">
   <stop stop-opacity="0" offset="0"/>
   <stop stop-opacity="0" offset=".1"/>
   <stop offset="1"/>
  </radialGradient>
  <radialGradient id="radialGradient3085" cx="478.21" cy="713.68" r="76.41" gradientTransform="matrix(1.7367,2.9212,-1.8824,1.0554,988.92,-1416.8)" gradientUnits="userSpaceOnUse" xlink:href="#linearGradient3932"/>
  <radialGradient id="radialGradient3087" cx="478.21" cy="713.68" r="76.41" gradientTransform="matrix(-1.4738 2.607 1.5975 .94191 -301.47 -1532.4)" gradientUnits="userSpaceOnUse" xlink:href="#linearGradient3932"/>
  <radialGradient id="radialGradient3089" cx="302.33" cy="709.34" r="71.609" gradientTransform="matrix(.5 .86603 -2.0826 1.2024 1628.4 -403.43)" gradientUnits="userSpaceOnUse" xlink:href="#linearGradient3932"/>
 </defs>
 <g transform="translate(-43.552,-308.54)">
  <g transform="matrix(-1 0 0 1 483.23 25.75)">
   <path transform="matrix(-1.0061 0 0 1.0191 614.93 -349.12)" d="m413.61 652.18c-33.055-0.11472-63.757 11.435-88.322 30.855-32.4 20.102-56.454 51.761-65.504 88.785l0.0879-0.29883c-6.911 20.06-10.47 38.224-12.211 54.086-4.5579 3.0425-9.8608 6.8279-13.561 10.207-6.2518 5.7101-20.085 19.13-32.482 32.982-6.1985 6.926-12.027 13.942-16.385 20.225-4.3581 6.2831-7.5156 11.492-7.5156 16.695 0 5.7719 2.805 11.306 6.8418 16.67 4.0368 5.364 9.4315 10.624 15.301 15.672 11.739 10.096 25.449 19.358 33.619 25.621 11.007 8.4378 18.646 13.728 29.51 16.703 10.864 2.975 24.552 3.6523 48.234 3.6523 19.88 0 51.959-8.6575 82.844-18.701 30.866-10.037 60.189-21.496 73.621-27.482l0.0117-6e-3c24.045-10.385 55.168-26.521 73.756-40.729 17.528-12.538 28.336-28.104 28.336-45.275 0-13.999-7.2817-26.956-19.396-38.018 0.65507-5.0808 1.1059-10.218 1.2383-15.459 2.0288-80.333-59.789-145.91-138.02-146.19z"/>
   <g stroke-width="1.0167">
    <path d="m200.49 324.58c31.16-0.11044 60.092 11.022 83.255 29.766 30.644 19.351 53.362 49.863 61.89 85.494 6.7907 20.13 10.21 38.33 11.802 54.071 4.5276 3.0335 10.316 7.2361 13.933 10.61 11.832 11.036 53.292 52.803 53.292 66.37 0 18.2-36.398 41.839-52.474 54.426-21.117 16.532-27.438 19.362-72.973 19.362-36.37 0-124.08-33.611-149.57-45.21-23.005-10.146-53.039-26.064-70.5-39.704-16.411-11.974-25.991-26.393-25.991-41.918 0-13.112 6.8569-25.422 18.864-36.156-0.74778-5.4471-1.213-10.978-1.352-16.6-1.9129-77.354 56.201-140.25 129.82-140.51z" fill="url(#radialGradient3075)"/>
    <path d="m72.018 481.69c0 3.3508 0.24799 6.6576 0.72313 9.9218-6.0404 8.1684-9.3693 16.999-9.3693 26.233 0 10.567 4.3148 20.613 12.104 29.734-12.663-10.246-20.53-21.927-22.04-34.293 1.3939-11.406 7.976-22.116 18.582-31.596z" fill="url(#radialGradient3077)" opacity=".8"/>
    <path d="m200.49 324.58c31.16-0.11044 60.092 11.022 83.255 29.766 30.644 19.351 53.347 49.876 61.875 85.508 6.7907 20.13 10.229 38.331 11.822 54.072 0 74.283-96.716 93.639-141.2 94.53-65.246 0.4521-144.22-46.679-144.22-106.77-0.74778-5.4471-1.213-10.978-1.352-16.6-1.9129-77.354 56.201-140.25 129.82-140.51z" fill="url(#radialGradient3079)"/>
    <path d="m70.667 457.89c0.14103 5.468 0.60708 10.871 1.352 16.183-0.26575 0.22569-0.52533 0.447-0.78602 0.6743-0.28996-3.1908-0.48556-6.4146-0.56593-9.6649-0.05976-2.4173-0.05615-4.8049 0-7.1925z" fill="#ffff04" opacity=".55133"/>
    <path d="m53.438 513.29c1.8562 15.207 13.315 29.4 31.504 41.132 19.109 11.927 43.125 26.399 64.704 36.38 25.477 11.907 113.2 46.748 149.57 47.586 45.536 1.0497 51.856-1.5629 72.973-17.211 15.778-11.691 51.133-33.336 52.443-50.925 0.0199 0.22554 0.0314 0.43021 0.0314 0.6422 0 18.2-36.398 41.839-52.474 54.426-21.117 16.532-27.438 19.362-72.973 19.362-36.37 0-124.05-33.68-149.57-45.21-27.274-12.328-54.824-26.777-75.206-43.36-13.522-11.207-21.285-24.287-21.285-38.262 0-1.5311 0.0987-3.0516 0.28296-4.5595z" fill="url(#radialGradient3081)"/>
   </g>
   <path transform="matrix(-.98558 0 0 1.0275 602.12 -355.98)" d="m540.09 822.28c-13.71 52.35-75.46 92.1-148.53 92.1-71.503 0-130.23-38.063-143.12-88.75-1.5685 4.3149-2.4631 8.7548-2.625 13.281-1.5382 43.003 63.712 77.844 145.75 77.844s149.81-34.84 151.34-77.844c0.20388-5.6998-0.78598-11.274-2.8125-16.625z" fill="url(#radialGradient3083)" filter="url(#filter3897)" opacity=".2"/>
   <path d="m200.49 324.58c31.16-0.11044 60.092 11.022 83.255 29.766 4.6722 2.9505 9.1435 6.1848 13.425 9.6328 27.426 26.53 45.265 64.115 46.689 105.8 0.10856 3.1778 0.11399 6.3452 0.0314 9.4723-0.0343-0.36609-0.0891-0.72501-0.12576-1.0917-8.3588-83.361-76.644-150.95-152.51-150.95-10.532 0-20.642 1.3219-30.245 3.7889 12.419-4.1354 25.686-6.373 39.489-6.4219z" stroke-width="1.0167"/>
   <path d="m165.24 329.68c54.679 11.767 101.08 73.123 111.01 154.38 2.7014 22.104 2.4726 43.802-0.28296 64.315 0.85042-16.51 0.18223-33.583-2.1694-50.925-12.184-89.851-65.54-156.2-125.07-161.64 5.3138-2.4136 10.841-4.4665 16.506-6.133z" stroke-width="1.0167"/>
   <path transform="matrix(-.93885 0 0 1.0275 591.15 -355.98)" d="m426.65 695.52c-29.774 25.56-55.211 61.159-72.926 102.83 19.725-2.7637 40.294-4.2456 61.329-4.2456 44.571 0 85.495 6.5943 119.7 18.062 3.0418-65.109-42.9-114.86-108.11-116.65z" fill="url(#radialGradient3085)" filter="url(#filter3944)" opacity=".4"/>
   <path d="m175.69 352.76c25.267 22.812 46.855 54.58 61.888 91.768-16.74-2.4664-34.195-3.7889-52.047-3.7889-37.825 0-72.555 5.885-101.59 16.119-2.5815-58.106 36.407-102.5 91.743-104.1z" fill="url(#radialGradient3087)" opacity=".5" stroke-width="1.0167"/>
   <path d="m53.438 513.29c1.9418 15.91 14.393 30.709 34.066 42.741 23.288 13.937 42.71 26.093 62.143 34.771 25.477 11.907 113.2 46.748 149.57 47.586 45.536 1.0497 51.856-1.5629 72.973-17.211 15.74-11.663 50.976-33.23 52.443-50.798-1.106 17.662-36.618 39.859-52.443 51.792-21.117 15.924-27.438 18.621-72.973 18.11-36.381-0.411-124.09-34.267-149.58-45.888-20.867-10.337-44.701-23.263-64.304-35.439-19.251-12.099-31.078-27.026-32.12-43.136-0.0029-0.0429 0.0029-0.0856 0-0.12843 0.0029-0.0429-0.0029-0.0858 0-0.12844 0.04769-0.76 0.12796-1.5257 0.22008-2.2798z" fill="#fd5" opacity=".62357" stroke-width="1.0167"/>
   <path transform="matrix(-1.0061 0 0 1.0275 614.93 -355.98)" d="m279.59 782.35c20.04-62.92 75.6-114.1 143.22-114.1-72.97 16.449-105.26 83.284-106.75 132.06-14.175-3.1953-27.246-10.206-36.469-17.965z" fill="url(#radialGradient3089)" filter="url(#filter4015)"/>
   <path transform="matrix(-1.0061 0 0 1.0275 614.93 -355.98)" d="m341.3 903.96 44.047 5.4212v16.263l-44.047-5.4212z" fill="#d4aa00" filter="url(#filter4049)"/>
   <path transform="matrix(-1.0061 0 0 1.0275 614.93 -355.98)" d="m341.3 903.96 44.047 5.4212 3.0494-13.214-44.047-5.4212z" fill="#ffd42a" filter="url(#filter4045)"/>
   <path transform="matrix(-1.0061 0 0 1.0275 614.93 -355.98)" d="m389.41 918.2-4.0502 7.457v-16.281l3.0312-13.219z" fill="#ffd42a" filter="url(#filter4041)"/>
   <path transform="matrix(.86237 .2848 -.13182 1.0186 -65.983 -473.88)" d="m341.3 903.96 44.047 5.4212v16.263l-44.047-5.4212z" fill="#d4aa00" filter="url(#filter4049)"/>
   <path transform="matrix(.86237 .2848 -.13182 1.0186 -65.983 -473.88)" d="m341.3 903.96 44.047 5.4212 3.0494-13.214-44.047-5.4212z" fill="#ffd42a" filter="url(#filter4045)"/>
   <path transform="matrix(.86237 .2848 -.13182 1.0186 -65.983 -473.88)" d="m389.41 918.2-4.0502 7.457v-16.281l3.0312-13.219z" fill="#ffd42a" filter="url(#filter4041)"/>
   <path transform="matrix(-1.5348 0 0 1.1195 754.08 -435.28)" d="m262.47 862.89 10.062-7.1875-0.47917 15.812-9.5833 7.9062z" fill="#f5ca1f" filter="url(#filter3902)"/>
   <path transform="matrix(-1.5348 0 0 1.1195 754.08 -435.28)" d="m262.47 862.89 10.062-7.1875-9.5833-18.927-9.1042 5.5104z" fill="#e4ba10" filter="url(#filter3898)"/>
   <path transform="matrix(-1.5348 0 0 1.1195 754.08 -435.28)" d="m253.84 842.29 8.625 20.594v16.531l-9.2504-21.686z" fill="#dab20d" filter="url(#filter3894)"/>
  </g>
 </g>
</svg>
