<svg width="400" height="400" version="1.1" viewBox="0 0 400 400" xmlns="http://www.w3.org/2000/svg">
 <g transform="matrix(1.0628 0 0 .85482 -140.3 -402.06)" stroke-width="0">
  <path d="m360.49 493.72c-15.596 0-28.244 12.72-28.244 28.413 0 12.206 7.6509 22.611 18.389 26.634v5.6018c-25.606 1.9995-36.8 12.206-38.408 30.363l-5.9762 67.502c6.2348 9.9894 12.47 4.7536 18.705 0l5.9764-60.198c0.26887-2.7092 1.2166-5.2405 3.2897-7.311l-4.827 77.475c-0.16745 2.6874 1.0359 5.1964 2.8258 7.3132-0.31083 1.6687-0.38919 3.5008-0.48654 5.4202l-4.2787 84.249c-0.45731 9.0063 3.2809 16.283 7.3602 16.283h9.4674c4.0792 0 7.2345-7.2639 7.3602-16.283l1.1599-83.233h14.837c0 4e-3 -6e-5 7e-3 0 8e-3l1.0364 84.4c0.11069 9.0189 3.281 16.283 7.3602 16.283h9.4674c4.0792 0 7.8037-7.2759 7.3602-16.283l-4.1552-84.4c-0.12544-2.544-0.30066-4.928-0.82811-6.9902 1.5196-1.9968 2.5429-4.308 2.3903-6.7684l-4.827-77.778c-0.0408-0.65589-0.0748-1.2999-0.21543-1.9269 3.7629 2.3388 5.7233 5.7649 6.1272 9.5409l6.436 60.198c7.8924 7.4533 13.369 5.761 17.771 0l-6.4359-67.502c-1.7677-18.539-13.371-28.79-40.103-30.472v-5.0347c11.425-3.6402 19.703-14.393 19.703-27.092 0-15.693-12.64-28.413-28.237-28.413z" fill="#9ade00"/>
  <path d="m256.84 479.12c-16.645 0-30.143 13.576-30.143 30.324 0 13.026 8.1654 24.131 19.625 28.425v5.9784c-27.327 2.134-39.274 13.027-40.99 32.405l-6.378 72.04c6.654 10.661 13.308 5.0731 19.962 0l6.3782-64.246c0.28704-2.8913 1.2985-5.5928 3.511-7.8026l-5.1516 82.683c-0.1787 2.8681 1.1055 5.5458 3.0157 7.8049-0.33164 1.7809-0.41528 3.7362-0.5193 5.7846l-4.5662 89.913c-0.48808 9.6118 3.5016 17.378 7.8551 17.378h10.104c4.3535 0 7.721-7.7523 7.8551-17.378l1.2377-88.829h15.835c0 4e-3 -4e-5 7e-3 0 0.01l1.1062 90.075c0.1182 9.6252 3.5016 17.377 7.8551 17.377h10.104c4.3535 0 8.3283-7.7651 7.855-17.377l-4.4346-90.074c-0.1338-2.715-0.3208-5.2593-0.88377-7.4601 1.6217-2.1311 2.7139-4.5977 2.551-7.2235l-5.1516-83.007c-0.0434-0.70001-0.0799-1.3873-0.22993-2.0564 4.016 2.496 6.1081 6.1524 6.5391 10.182l6.8688 64.246c8.4229 7.9544 14.268 6.1483 18.966 0l-6.8686-72.04c-1.8865-19.785-14.27-30.726-42.799-32.521v-5.3732c12.193-3.8849 21.028-15.36 21.028-28.914 0-16.748-13.49-30.324-30.135-30.324z" fill="#f90"/>
  <path d="m198.99 558.47c-16.874 0-30.558 13.763-30.558 30.741 0 13.206 8.2778 24.464 19.895 28.816v6.0608c-27.704 2.1634-39.816 13.206-41.555 32.851l-6.466 73.033c6.7457 10.808 13.492 5.143 20.237 0l6.4661-65.131c0.29095-2.931 1.3163-5.6699 3.5593-7.9101l-5.2225 83.823c-0.18117 2.9076 1.1207 5.6224 3.0572 7.9125-0.3362 1.8055-0.42098 3.7876-0.52638 5.8645l-4.6292 91.151c-0.49482 9.7452 3.5498 17.617 7.9633 17.617h10.243c4.4135 0 7.8273-7.8584 7.9633-17.617l1.2549-90.052h16.053c0 4e-3 -6e-5 7e-3 0 0.01l1.1214 91.316c0.1198 9.7579 3.5498 17.617 7.9633 17.617h10.243c4.4135 0 8.4431-7.8725 7.9633-17.617l-4.4957-91.316c-0.13558-2.7524-0.32518-5.3317-0.89596-7.5628 1.6441-2.1606 2.7513-4.6612 2.5862-7.3231l-5.2225-84.151c-0.0441-0.70965-0.081-1.4064-0.23311-2.0847 4.0713 2.5304 6.1924 6.2372 6.6292 10.323l6.9634 65.131c8.539 8.0638 14.464 6.2329 19.227 0l-6.9634-73.033c-1.9124-20.058-14.467-31.149-43.389-32.969v-5.4472c12.361-3.9384 21.318-15.572 21.318-29.312 0-16.979-13.676-30.741-30.55-30.741z" fill="#0084c8"/>
  <path d="m252.82 599.36c-18.644 0-33.762 15.206-33.762 33.965 0 14.59 9.146 27.029 21.982 31.838v6.6964c-30.609 2.3902-43.991 14.591-45.912 36.296l-7.144 80.691c7.4532 11.941 14.906 5.6823 22.359 0l7.144-71.961c0.32152-3.2385 1.4544-6.2645 3.9327-8.7397l-5.7702 92.613c-0.20016 3.2126 1.2382 6.2119 3.3778 8.7422-0.37146 1.9948-0.46515 4.1849-0.58168 6.4794l-5.1145 100.71c-0.54674 10.766 3.9221 19.464 8.7984 19.464h11.317c4.8763 0 8.6481-8.6834 8.7984-19.464l1.3864-99.496h17.736c0 5e-3 -4e-5 7e-3 0 0.0107l1.2391 100.89c0.1324 10.781 3.9221 19.464 8.7984 19.464h11.317c4.8763 0 9.3284-8.6974 8.7984-19.464l-4.9673-100.89c-0.14972-3.041-0.35918-5.8909-0.98988-8.3559 1.8165-2.3871 3.0399-5.15 2.8574-8.091l-5.7702-92.975c-0.0487-0.78412-0.0895-1.5539-0.2576-2.3033 4.4984 2.7957 6.8417 6.8912 7.3244 11.405l7.6936 71.961c9.4345 8.9094 15.981 6.8865 21.243 0l-7.6936-80.691c-2.113-22.161-15.984-34.416-47.939-36.426v-6.0184c13.657-4.3515 23.553-17.205 23.553-32.386 0-18.759-15.11-33.965-33.754-33.965z" fill="#ff4141"/>
  <path d="m436.03 539.19c-18.382 0-33.288 14.992-33.288 33.487 0 14.385 9.0173 26.649 21.673 31.39v6.6022c-30.178 2.3566-43.372 14.386-45.267 35.786l-7.0436 79.557c7.3483 11.773 14.697 5.6023 22.045 0l7.0436-70.949c0.31699-3.193 1.4339-6.1765 3.8774-8.6168l-5.689 91.31c-0.19736 3.1674 1.2208 6.1246 3.3303 8.6193-0.36623 1.9668-0.4586 4.126-0.57348 6.3883l-5.0426 99.294c-0.53904 10.615 3.867 19.191 8.6746 19.191h11.158c4.8077 0 8.5265-8.5612 8.6746-19.191l1.3669-98.097h17.487c0 4e-3 -5e-5 7e-3 0 0.0107l1.2216 99.473c0.13054 10.63 3.8669 19.191 8.6747 19.191h11.158c4.8077 0 9.1973-8.5752 8.6746-19.191l-4.8974-99.473c-0.14763-2.9983-0.35415-5.808-0.97595-8.2384 1.791-2.3535 2.9971-5.0775 2.8172-7.9772l-5.6891-91.668c-0.0479-0.77308-0.0882-1.5321-0.25397-2.271 4.4351 2.7564 6.7456 6.7943 7.2214 11.245l7.5854 70.949c9.3018 8.7842 15.756 6.7897 20.944 0l-7.5854-79.556c-2.06-21.84-15.74-33.92-47.24-35.9v-5.9338c13.465-4.2903 23.222-16.963 23.222-31.931 0-18.495-14.898-33.487-33.279-33.487z" fill="#666"/>
  <path d="m367.29 599.11c-18.382 0-33.288 14.992-33.288 33.487 0 14.385 9.0173 26.649 21.673 31.39v6.6022c-30.178 2.3566-43.372 14.386-45.267 35.786l-7.0436 79.557c7.3483 11.773 14.697 5.6024 22.045 0l7.0436-70.949c0.31698-3.193 1.4339-6.1765 3.8773-8.6168l-5.689 91.31c-0.19734 3.1674 1.2208 6.1246 3.3303 8.6193-0.36623 1.9668-0.4586 4.126-0.57348 6.3883l-5.0426 99.294c-0.53906 10.615 3.8669 19.191 8.6746 19.191h11.158c4.8077 0 8.5265-8.5612 8.6746-19.191l1.3669-98.097h17.487c0 4e-3 -5e-5 7e-3 0 0.0107l1.2216 99.473c0.13054 10.63 3.8669 19.191 8.6746 19.191h11.158c4.8077 0 9.1973-8.5752 8.6746-19.191l-4.8974-99.473c-0.14763-2.9983-0.35415-5.808-0.97596-8.2384 1.791-2.3535 2.9972-5.0775 2.8172-7.9772l-5.6891-91.668c-0.048-0.77309-0.0881-1.5321-0.25396-2.271 4.4351 2.7564 6.7456 6.7943 7.2214 11.245l7.5854 70.949c9.3018 8.7842 15.756 6.7897 20.944 0l-7.5854-79.556c-2.0832-21.849-15.759-33.932-47.265-35.914v-5.9338c13.465-4.2903 23.222-16.963 23.222-31.931 0-18.495-14.898-33.487-33.279-33.487z" fill="#d76cff"/>
 </g>
</svg>
