<?xml version="1.0" encoding="UTF-8" standalone="no"?><svg version="1.1" viewBox="0 0 150 100" id="svg15" width="150" height="100" xmlns="http://www.w3.org/2000/svg" xmlns:svg="http://www.w3.org/2000/svg"><defs id="defs15" /><g transform="matrix(0.48372413,0,0,0.49132313,-106.40306,-211.56369)" id="g15"><g transform="matrix(2.8449,0,0,2.9076,-1304.9,-535.77)" id="g14"><rect x="585" y="332.35999" width="11" height="70" color="#000000" fill="#f10002" id="rect1" /><rect x="536" y="361.35999" width="109" height="12" color="#000000" fill="#f10002" id="rect2" /><g transform="translate(61,-105)" id="g4"><path d="m 487,437.36 35,25 v -25 h -35" fill="#092c70" id="path2" /><path d="m 475,443.36 v 21 h 31 l -31,-21" fill="#092c70" id="path3" /><path d="m 475,437.36 v 3 l 36,24 h 5 l -41,-27" fill="#f10002" id="path4" /></g><g transform="matrix(-1,0,0,1,1120,-105)" id="g7"><path d="m 487,437.36 35,25 v -25 h -35" fill="#092c70" id="path5" /><path d="m 475,443.36 v 21 h 31 l -31,-21" fill="#092c70" id="path6" /><path d="m 475,437.36 v 3 l 36,24 h 5 l -41,-27" fill="#f10002" id="path7" /></g><g transform="rotate(180,560,419.86)" id="g10"><path d="m 487,437.36 35,25 v -25 h -35" fill="#092c70" id="path8" /><path d="m 475,443.36 v 21 h 31 l -31,-21" fill="#092c70" id="path9" /><path d="m 475,437.36 v 3 l 36,24 h 5 l -41,-27" fill="#f10002" id="path10" /></g><g transform="matrix(-1,0,0,1,1058,-62)" id="g13"><path d="m 487,437.36 35,25 v -25 h -35" fill="#092c70" id="path11" /><path d="m 475,443.36 v 21 h 31 l -31,-21" fill="#092c70" id="path12" /><path d="m 475,437.36 v 3 l 36,24 h 5 l -41,-27" fill="#f10002" id="path13" /></g></g></g></svg>
