<svg width="400" height="400" version="1.1" viewBox="0 0 400 400" xmlns="http://www.w3.org/2000/svg">
 <g transform="translate(0,-642.36)">
  <ellipse cx="200.63" cy="842.14" rx="146.08" ry="146.93" fill="#fff"/>
  <g fill="#4f3f11" stroke-width=".98773">
   <path d="m244.23 803.86 15.149-15.605 14.374-4.6986 6.3271-9.205c3.4799-5.0628 6.42-9.484 6.5337-9.8251 0.11371-0.34104-2.7922-3.4072-6.4577-6.8136l-6.6643-6.1936-18.709 13.409-2.3282 6.6686-2.3283 6.6686-31.795 31.793 4.6762 4.7037c2.5719 2.5871 4.9908 4.7038 5.3753 4.7038s7.5159-7.0223 15.847-15.605z"/>
   <path d="m218.92 819.47-20.9-20.511-2.8875 2.8183-2.8873 2.8183 41.506 41.52 6.0685-6.1338z"/>
   <path d="m148.65 923.6c3.5455-1.6405 6.14-4.0193 26.047-23.88l22.109-22.058-7.2064-7.2823-9.1957 9.0765c-8.372 8.2632-9.3884 9.0765-11.344 9.0765-1.5994 0-2.4693-0.40789-3.404-1.5962-2.6341-3.3486-1.9928-4.485 8.5075-15.076l8.421-8.4939-7.5825-7.4668-9.5188 9.0468c-10.263 9.7544-11.404 10.375-14.22 7.7295-0.94812-0.89067-1.4022-2.0044-1.4022-3.4393 0-1.9243 0.84659-2.975 9.0844-11.275l9.0842-9.1528-7.28-7.2041-21.825 21.798c-23.84 23.81-24.785 25.006-26.143 33.067-0.94941 5.638 0.076 9.8513 3.5064 14.415 2.9295 3.8971 8.8421 9.6154 12.306 11.902 5.5679 3.6749 13.201 3.9846 20.055 0.81354z"/>
  </g>
  <path d="m261.66 930.91c1.1082-1.2246 1.0087-1.3505-8.9932-11.366-8.5476-8.5587-10.114-10.407-10.114-11.93 0-1.5081 1.3615-3.1672 8.3217-10.141 11.169-11.19 9.5914-11.307 22.601 1.6849 10.003 9.9899 10.039 10.019 11.169 8.7702 1.1125-1.2293 1.0799-1.455-1.7794-12.294l-2.9126-11.042-11.562-11.744-21.9-5.1143-69.117-68.904-1.9918-8.309c-3.6532-15.24-2.9663-13.818-9.6639-19.999l-5.9765-5.5148-10.845-3.0298c-10.748-3.003-10.855-3.0194-12.036-1.8513-1.183 1.17-1.1182 1.2524 8.9355 11.37 8.4617 8.5148 10.127 10.482 10.127 11.96 0 1.468-1.4695 3.2416-8.6249 10.41-6.5049 6.5165-8.9974 8.6402-10.141 8.6402-1.1521 0-3.9382-2.4191-11.612-10.083-10.106-10.094-11.423-10.981-12.423-8.3751-0.2016 0.52546 0.93004 5.9558 2.5148 12.067l2.8816 11.112 11.657 11.518 22.034 5.1741 68.92 69.155 5.132 22.04 6.0651 5.5919 6.0649 5.5919 10.41 2.884c5.7255 1.5862 10.708 2.9025 11.073 2.9253 0.36476 0.0227 1.1676-0.51596 1.784-1.197z" fill="#58265f" stroke-width=".98773"/>
  <path d="m165.88 1023.8 9.6601-15.488 2.7589 0.4045c6.6279 0.9715 14.2 1.5126 21.236 1.518 6.8606 0 9.6069-0.184 21.506-1.4805l3.6347-0.3959 8.9076 14.431c4.899 7.937 9.2764 14.934 9.7275 15.55 0.78989 1.0775 1.0863 1.0472 8.047-0.8232 9.8327-2.6418 21.392-6.7128 30.999-10.917 10.553-4.6187 26.228-13.213 26.219-14.375 0-0.2457-1.8667-8.2813-4.1442-17.857l-4.1408-17.411 6.1129-4.9792c7.6247-6.2104 18.032-16.625 23.952-23.968 2.4814-3.078 4.8997-5.5964 5.374-5.5964 0.47441 0 8.4708 1.772 17.77 3.9377 9.299 2.1658 17.018 3.9378 17.151 3.9378 0.64814 0 6.9427-11.301 11.206-20.117 5.7508-11.894 9.9849-23.117 13.311-35.287 1.9084-6.9814 2.3014-9.1656 1.7129-9.5224-0.41997-0.2546-7.4425-4.6373-15.606-9.7392-11.843-7.4019-14.814-9.5173-14.703-10.469 1.8569-16 1.7755-36.743-0.18205-46.4-0.3056-1.5077 0.452-2.0721 14.637-10.905 8.2278-5.1229 15.248-9.5003 15.6-9.7276 1.34-0.8642-4.3206-20.184-9.8674-33.679-3.9951-9.719-12.83-27.035-16.057-31.472-0.0544-0.0751-8.1254 1.7734-17.935 4.108l-17.835 4.2446-1.8174-2.2806c-8.8458-11.101-17.944-20.282-28.624-28.886-2.4156-1.946-4.392-3.6366-4.392-3.7569 0-0.12037 1.772-7.8456 3.9377-17.167 2.1658-9.3215 3.9378-17.345 3.9378-17.831 0-1.7059-17.86-11.363-31.022-16.773-13.401-5.5088-32.813-11.209-33.689-9.8921-0.22717 0.34156-4.6056 7.363-9.7299 15.603-6.0569 9.7399-9.5931 14.876-10.106 14.68-0.43419-0.16665-5.8713-0.6433-12.083-1.0592-9.0681-0.60725-13.463-0.60506-22.304 0.0115-6.056 0.42206-11.704 0.90573-12.55 1.0748-1.4408 0.28776-2.1335-0.6533-10.848-14.737-5.1202-8.2742-9.5032-15.267-9.7402-15.54-0.97064-1.1173-20.547 4.6303-32.923 9.6662-13.171 5.3594-31.861 15.458-31.875 17.223-0.01034 0.52214 1.7646 8.3888 3.9304 17.482 2.1657 9.0926 3.9377 16.867 3.9377 17.278 0 0.41043-2.2489 2.4831-4.9979 4.606-6.4295 4.9653-20.298 18.834-25.263 25.263-2.1229 2.7488-4.2928 4.9936-4.8219 4.9885-0.52912-6e-3 -8.5953-1.7616-17.924-3.9033l-16.962-3.8938-1.029 1.3286c-1.8281 2.3606-8.8318 15.084-11.903 21.623-4.1821 8.905-8.6628 21.229-11.56 31.797-1.3562 4.9465-2.4659 9.1754-2.4659 9.3976 0 0.22222 6.9702 4.7431 15.49 10.046l15.49 9.6423-0.36358 3.6348c-1.6226 16.222-1.5613 29.741 0.19152 42.226l0.48497 3.4552-12.465 7.7212c-6.8558 4.2466-13.878 8.6174-15.604 9.7129l-3.1387 1.9918 2.0406 7.7321c2.7478 10.412 7.0011 22.472 11.191 31.732 3.5433 7.8319 10.872 21.234 13.038 23.842l1.2116 1.4591 35.137-8.3593 1.5146 1.9257c8.2254 10.458 18.866 21.286 28.323 28.819 3.2629 2.5994 4.9084 4.3084 4.737 4.9198-0.81783 2.918-7.6163 33.439-7.6163 34.191 0 1.7958 19.985 12.485 32.714 17.498 9.8738 3.8881 27.644 9.3737 30.593 9.4443 0.93894 0.023 3.3854-3.4561 10.872-15.459zm16.409-45.986c-46.177-6.2841-85.221-34.151-105.19-75.082-10.245-20.992-14.134-37.761-14.124-60.883 0.01092-23.189 3.7009-39.206 13.938-60.501 6.5848-13.698 13.769-23.856 25.049-35.42 22.034-22.588 51.617-37.006 82.913-40.409 8.6901-0.945 29.17-0.44229 37.071 0.90993 38.123 6.5241 72.019 28.65 92.841 60.604 7.5842 11.638 15.361 29.953 18.521 43.618 7.1769 31.037 3.2539 64.26-10.942 92.665-20.653 41.324-60.701 69.156-107.66 74.826-7.05 0.85118-25.087 0.66931-32.406-0.32676z" fill="#59b2ef" stroke-width=".98773"/>
 </g>
</svg>
