<?xml version="1.0" encoding="UTF-8" standalone="no"?>
<!-- Created with Inkscape (http://www.inkscape.org/) -->

<svg
   id="svg27183"
   sodipodi:docname="suppor.svg"
   viewBox="0 0 400 400"
   version="1.1"
   inkscape:version="1.2 (dc2aedaf03, 2022-05-15)"
   width="400"
   height="400"
   inkscape:export-filename="suppor.png"
   inkscape:export-xdpi="96"
   inkscape:export-ydpi="96"
   xmlns:inkscape="http://www.inkscape.org/namespaces/inkscape"
   xmlns:sodipodi="http://sodipodi.sourceforge.net/DTD/sodipodi-0.dtd"
   xmlns="http://www.w3.org/2000/svg"
   xmlns:svg="http://www.w3.org/2000/svg"
   xmlns:rdf="http://www.w3.org/1999/02/22-rdf-syntax-ns#"
   xmlns:cc="http://creativecommons.org/ns#"
   xmlns:dc="http://purl.org/dc/elements/1.1/">
  <defs
     id="defs8" />
  <sodipodi:namedview
     id="base"
     bordercolor="#666666"
     inkscape:pageshadow="2"
     inkscape:window-y="-8"
     pagecolor="#ffffff"
     inkscape:window-height="1017"
     inkscape:window-maximized="1"
     inkscape:zoom="2.035"
     inkscape:window-x="-8"
     showgrid="false"
     borderopacity="1.0"
     inkscape:current-layer="layer1"
     inkscape:cx="200"
     inkscape:cy="200"
     inkscape:window-width="1920"
     inkscape:pageopacity="0.0"
     inkscape:document-units="px"
     inkscape:showpageshadow="2"
     inkscape:pagecheckerboard="0"
     inkscape:deskcolor="#d1d1d1" />
  <g
     id="layer1"
     inkscape:label="Layer 1"
     inkscape:groupmode="layer"
     transform="translate(0,-642.36)">
    <ellipse
       style="fill:#ffffff;fill-opacity:1;stroke:none;stroke-width:8.56707"
       id="path947"
       cx="200.62518"
       cy="842.14081"
       rx="146.08255"
       ry="146.92915" />
    <path
       style="fill:#4f3f11;fill-opacity:1;stroke-width:0.987726"
       d="m 244.22697,803.85919 15.14876,-15.60509 7.18719,-2.3493 7.18729,-2.34931 6.32709,-9.20502 c 3.47994,-5.06279 6.42001,-9.48405 6.5337,-9.82511 0.11371,-0.34104 -2.7922,-3.40717 -6.45766,-6.81364 l -6.66428,-6.19355 -9.35437,6.7047 -9.35436,6.70468 -2.32817,6.66864 -2.32828,6.66864 -15.89746,15.89647 -15.89745,15.89648 4.67619,4.70374 c 2.57194,2.58706 4.99079,4.70385 5.37531,4.70385 0.38452,0 7.5159,-7.02233 15.84708,-15.60508 z"
       id="path1157" />
    <path
       style="fill:#4f3f11;fill-opacity:1;stroke-width:0.987726"
       d="m 218.92437,819.47121 -20.90031,-20.51113 -2.88751,2.81827 -2.88732,2.81828 20.75313,20.76005 20.75312,20.76004 3.03429,-3.0669 3.03419,-3.06689 z"
       id="path1155" />
    <path
       style="fill:#4f3f11;fill-opacity:1;stroke-width:0.987726"
       d="m 148.65157,923.59735 c 3.54554,-1.64052 6.14,-4.01926 26.04734,-23.88027 l 22.10928,-22.05791 -3.60314,-3.64115 -3.60323,-3.64115 -9.19573,9.07651 c -8.37198,8.26322 -9.38844,9.07651 -11.34404,9.07651 -1.59942,0 -2.46931,-0.40789 -3.404,-1.59617 -2.63407,-3.34859 -1.99284,-4.48497 8.50749,-15.07566 l 8.42095,-8.49387 -3.79119,-3.7334 -3.79129,-3.73341 -9.51882,9.04679 c -10.26347,9.75438 -11.40428,10.37508 -14.2203,7.72954 -0.94812,-0.89067 -1.40217,-2.00438 -1.40217,-3.43926 0,-1.92429 0.84659,-2.97502 9.08442,-11.2749 l 9.08422,-9.15277 -3.63997,-3.60204 -3.64008,-3.60204 -21.82479,21.79814 c -23.83978,23.81014 -24.78504,25.00628 -26.14315,33.06711 -0.94941,5.63805 0.076,9.85129 3.50642,14.41489 2.9295,3.89707 8.84213,9.61541 12.30608,11.90209 5.56792,3.67494 13.20097,3.9846 20.05481,0.81354 z"
       id="path1153" />
    <path
       style="fill:#58265f;fill-opacity:1;stroke-width:0.987726"
       d="m 261.65737,930.90899 c 1.10823,-1.22458 1.00866,-1.35051 -8.99315,-11.36576 -8.54759,-8.55866 -10.11432,-10.40669 -10.11432,-11.92977 0,-1.50806 1.36148,-3.16715 8.32169,-10.141 11.16921,-11.18994 9.59143,-11.30749 22.60116,1.68488 10.00271,9.98987 10.03926,10.01851 11.16921,8.77022 1.11248,-1.22933 1.07989,-1.45502 -1.77938,-12.29423 l -2.91261,-11.04181 -5.78087,-5.87222 -5.78096,-5.87223 -10.94994,-2.55714 -10.94993,-2.55712 -34.55859,-34.45191 -34.55859,-34.4519 -1.99183,-8.30905 c -3.65321,-15.23964 -2.96634,-13.81831 -9.66393,-19.99851 l -5.97653,-5.51477 -10.84524,-3.02975 c -10.74844,-3.00299 -10.85512,-3.01938 -12.03644,-1.85129 -1.18299,1.16996 -1.11821,1.25243 8.93548,11.36971 8.46174,8.51479 10.12715,10.48176 10.12715,11.96038 0,1.46797 -1.46954,3.24164 -8.62493,10.40966 -6.50487,6.51653 -8.9974,8.64023 -10.14098,8.64023 -1.15209,0 -3.93817,-2.41914 -11.61171,-10.0827 -10.10643,-10.09358 -11.42307,-10.98057 -12.42264,-8.37514 -0.2016,0.52546 0.93004,5.9558 2.51475,12.06705 l 2.88159,11.11194 5.82858,5.75903 5.82877,5.75904 11.01711,2.58705 11.01709,2.58706 34.4598,34.57735 34.45982,34.57733 2.56601,11.02008 2.56602,11.02006 6.06513,5.59192 6.06494,5.59192 10.40964,2.88396 c 5.72546,1.58619 10.70796,2.90253 11.07342,2.92526 0.36476,0.0227 1.16758,-0.51596 1.78402,-1.19704 z"
       id="path1151" />
    <path
       style="fill:#59b2ef;fill-opacity:1;stroke-width:0.987726"
       d="m 165.88345,1023.8342 9.66006,-15.4875 2.75892,0.4045 c 6.62794,0.9715 14.19956,1.5126 21.23613,1.518 6.86055,0 9.60692,-0.184 21.50576,-1.4805 l 3.63474,-0.3959 8.90761,14.4307 c 4.89903,7.937 9.27644,14.9344 9.72753,15.5498 0.78989,1.0775 1.08631,1.0472 8.047,-0.8232 9.83273,-2.6418 21.3922,-6.7128 30.99883,-10.9173 10.55286,-4.6187 26.22808,-13.2127 26.21919,-14.3754 0,-0.2457 -1.8667,-8.2813 -4.14419,-17.85704 l -4.14076,-17.41066 6.11294,-4.97922 c 7.62467,-6.21044 18.03195,-16.62542 23.95238,-23.96818 2.48137,-3.07795 4.89972,-5.59637 5.37402,-5.59637 0.47441,0 8.47085,1.77199 17.77018,3.93768 9.29905,2.16579 17.01755,3.93777 17.15089,3.93777 0.64814,0 6.94274,-11.30059 11.20576,-20.11703 5.75084,-11.89421 9.98493,-23.11675 13.3106,-35.28653 1.90839,-6.98145 2.30141,-9.16561 1.71292,-9.52239 -0.41997,-0.2546 -7.44252,-4.63727 -15.60608,-9.73918 -11.84284,-7.40192 -14.81392,-9.51733 -14.70329,-10.4689 1.85692,-16.00019 1.77553,-36.74344 -0.18205,-46.40044 -0.3056,-1.50766 0.452,-2.07206 14.63713,-10.90451 8.22776,-5.12294 15.24753,-9.50034 15.60014,-9.72762 1.33995,-0.8642 -4.32061,-20.1842 -9.86737,-33.67852 -3.99506,-9.71902 -12.8296,-27.03506 -16.05747,-31.47193 -0.0544,-0.0751 -8.12544,1.77336 -17.93515,4.10796 l -17.83538,4.24465 -1.81742,-2.28065 c -8.84579,-11.10108 -17.94403,-20.28198 -28.62431,-28.88607 -2.4156,-1.94603 -4.39203,-3.63662 -4.39203,-3.75692 0,-0.12037 1.77198,-7.84561 3.93767,-17.16669 2.16578,-9.32147 3.93777,-17.34546 3.93777,-17.83142 0,-1.7059 -17.86008,-11.36281 -31.02153,-16.77259 -13.40148,-5.50876 -32.81327,-11.20873 -33.68939,-9.89209 -0.22717,0.34156 -4.60565,7.36301 -9.72989,15.60312 -6.05694,9.73988 -9.59309,14.87615 -10.10642,14.67959 -0.43419,-0.16665 -5.87133,-0.6433 -12.08286,-1.05924 -9.06812,-0.60725 -13.46271,-0.60506 -22.30386,0.0115 -6.05604,0.42206 -11.70357,0.90573 -12.55005,1.07475 -1.4408,0.28776 -2.13349,-0.6533 -10.8482,-14.73689 -5.12017,-8.27418 -9.50321,-15.26728 -9.74017,-15.53991 -0.97064,-1.11732 -20.54668,4.63028 -32.9229,9.66619 -13.17134,5.35941 -31.861101,15.45793 -31.87493,17.223 -0.01034,0.52214 1.764573,8.38876 3.930358,17.48177 2.165692,9.09261 3.937667,16.86741 3.937667,17.2783 0,0.41043 -2.248948,2.48314 -4.997892,4.60597 -6.429508,4.96531 -20.297782,18.83397 -25.263084,25.26308 -2.122921,2.74885 -4.29276,4.99365 -4.821884,4.98852 -0.529125,-0.006 -8.595296,-1.76161 -17.924276,-3.9033 l -16.962229,-3.89381 -1.029013,1.32859 c -1.828084,2.36056 -8.831758,15.08356 -11.903094,21.6233 -4.182134,8.90495 -8.6627575,21.22921 -11.5603529,31.7969 -1.3562474,4.94654 -2.4658591,9.17538 -2.4658591,9.39763 0,0.22222 6.9701887,4.74306 15.489529,10.04617 l 15.48953,9.64228 -0.363583,3.63483 c -1.622638,16.22243 -1.5613,29.74144 0.19152,42.22631 l 0.484974,3.45517 -12.46511,7.72115 c -6.855811,4.24663 -13.8775591,8.61742 -15.6041059,9.71291 l -3.1386984,1.99175 2.0406425,7.73212 c 2.7477578,10.41163 7.0011058,22.47176 11.1909438,31.73171 3.543272,7.83188 10.871907,21.23414 13.037991,23.84174 l 1.211645,1.45907 17.568693,-4.17967 17.568694,-4.17965 1.51458,1.92567 c 8.225392,10.45804 18.865577,21.28551 28.323065,28.81889 3.262949,2.59941 4.908401,4.30837 4.737027,4.91977 -0.817834,2.91804 -7.616256,33.43851 -7.616256,34.19121 0,1.7958 19.984678,12.4848 32.713518,17.4975 9.8738,3.8881 27.6435,9.3737 30.59284,9.4443 0.93894,0.023 3.38544,-3.4561 10.87192,-15.4589 z m 16.40909,-45.98646 C 136.11534,971.56361 97.07149,943.69709 77.099657,902.7657 66.854956,881.77354 62.965288,865.00491 62.976155,841.88222 c 0.01092,-23.18885 3.700912,-39.20582 13.937809,-60.50121 6.584782,-13.69779 13.768909,-23.85557 25.048736,-35.41987 22.03422,-22.58832 51.61663,-37.00618 82.91275,-40.40889 8.69012,-0.945 29.16955,-0.44229 37.07136,0.90993 38.12329,6.52412 72.0191,28.65 92.84137,60.60393 7.58425,11.63839 15.36111,29.95282 18.52086,43.61802 7.17692,31.03733 3.25387,64.26049 -10.94205,92.66456 -20.65335,41.32351 -60.70073,69.15568 -107.66219,74.82621 -7.04999,0.85118 -25.08726,0.66931 -32.40633,-0.32676 z"
       id="path3919" />
  </g>
  <metadata
     id="metadata5">
    <rdf:RDF>
      <cc:Work>
        <dc:format>image/svg+xml</dc:format>
        <dc:type
           rdf:resource="http://purl.org/dc/dcmitype/StillImage" />
        <cc:license
           rdf:resource="http://creativecommons.org/publicdomain/zero/1.0/" />
      </cc:Work>
      <cc:License
         rdf:about="http://creativecommons.org/publicdomain/zero/1.0/">
        <cc:permits
           rdf:resource="http://creativecommons.org/ns#Reproduction" />
        <cc:permits
           rdf:resource="http://creativecommons.org/ns#Distribution" />
        <cc:permits
           rdf:resource="http://creativecommons.org/ns#DerivativeWorks" />
      </cc:License>
    </rdf:RDF>
  </metadata>
</svg>
