<svg width="72.401mm" height="72.401mm" version="1.1" viewBox="0 0 256.54 256.54" xmlns="http://www.w3.org/2000/svg" xmlns:xlink="http://www.w3.org/1999/xlink">
 <title>LIMS</title>
 <defs>
  <linearGradient id="linearGradient3413-2" x1="16223" x2="16223" y1="1308.9" y2="1279.1" gradientUnits="userSpaceOnUse" xlink:href="#linearGradient3144"/>
  <linearGradient id="linearGradient3144">
   <stop stop-color="#6b6f7a" offset="0"/>
   <stop stop-color="#c7c7cd" offset="1"/>
  </linearGradient>
  <linearGradient id="linearGradient3415" x1="16233" x2="16233" y1="1309.1" y2="1278.5" gradientUnits="userSpaceOnUse" xlink:href="#linearGradient3144"/>
  <linearGradient id="linearGradient14147" x1="16233" x2="16233" y1="1278.9" y2="1271" gradientUnits="userSpaceOnUse">
   <stop stop-color="#6b6f7a" stop-opacity="0" offset="0"/>
   <stop stop-color="#fff" offset="1"/>
  </linearGradient>
  <linearGradient id="linearGradient18421" x1="16223" x2="16223" y1="1300" y2="1267.9" gradientUnits="userSpaceOnUse">
   <stop stop-color="#32353c" offset="0"/>
   <stop stop-color="#2e313a" offset="1"/>
  </linearGradient>
  <linearGradient id="linearGradient18423" x1="16236" x2="16235" y1="1267.9" y2="1297.7" gradientUnits="userSpaceOnUse">
   <stop stop-color="#262931" offset="0"/>
   <stop stop-color="#31313c" offset="1"/>
  </linearGradient>
  <radialGradient id="radialGradient1033" cx="572.38" cy="306.61" r="2.0625" gradientTransform="matrix(-.089602 -.089602 -.14784 .14784 904.18 213.92)" gradientUnits="userSpaceOnUse">
   <stop stop-color="#ccc" offset="0"/>
   <stop stop-color="#96989c" stop-opacity="0" offset="1"/>
  </radialGradient>
  <linearGradient id="linearGradient3394" x1="570.24" x2="621.39" y1="485.72" y2="795.63" gradientTransform="matrix(.90092 .43399 -.43399 .90092 535.39 -188.67)" gradientUnits="userSpaceOnUse">
   <stop stop-color="#dcff2a" offset="0"/>
   <stop stop-color="#80b3ff" offset="1"/>
  </linearGradient>
 </defs>
 <g transform="translate(-341.54 -127.43)">
  <g transform="translate(136.92 205.94)">
   <use transform="matrix(.042136 0 0 .042136 200.81 172.4)" width="2400" height="1812" fill="url(#linearGradient3413-2)" stroke="url(#linearGradient3415)" stroke-width="2" xlink:href="#text3138"/>
   <use transform="matrix(.042136 0 0 .042136 200.81 172.4)" width="2400" height="1812" fill="none" stroke="url(#linearGradient14147)" stroke-linecap="round" stroke-linejoin="round" stroke-width=".6" xlink:href="#text3138"/>
   <use transform="matrix(.032115 0 0 .032115 405.14 176.93)" width="2400" height="1812" fill="url(#linearGradient18421)" stroke="url(#linearGradient18423)" stroke-width="1.5261" xlink:href="#text3138"/>
   <g transform="matrix(4.3259 0 0 4.3259 -3286.7 -742.67)">
    <path d="m807.38 207.78c-0.0503 0.0503-0.0889 0.10326-0.11778 0.1572 7e-3 0.1935 0.0666 0.29722 0.38574 0.29704 0.0349-0.0242 0.0696-0.0517 0.1021-0.0842 0.25626-0.33511-0.25841-0.0337-0.18884-0.49931-0.062 0.0297-0.12504 0.0731-0.18122 0.12926z" fill="url(#radialGradient1033)" stroke-dashoffset=".5" stroke-linecap="round" stroke-linejoin="round" stroke-width="1.25"/>
    <path d="m816.6 196.54 0.47803-8.6045 0.47803-23.041 0.47802 32.123 0.47803 2.9638 0.47802 0.19121h0.47803l0.47803-0.66924 0.47802-1.1473 0.47803 0.86045 0.47803 0.19121 0.47802 0.38242h0.47803l0.38242 0.28682h0.95605l0.47803 0.0956 0.47803-0.0956h1.9121l0.47803 0.0956 0.47802-0.38242 0.47803-0.57363h0.47803l0.47802-0.28682 0.47803 0.19121 0.47802 0.28682 0.47803 0.0956h0.47803l0.47802 0.0956 0.47803 0.19121h0.47803l0.47802 0.28682 0.47803-0.19121 0.47802 0.28681 0.47803-0.0956 0.38242 0.0956h0.47803l0.47802-0.28681 0.47803 0.19121 0.47803 0.0956h0.47802l0.47803 0.19121 0.47803 0.0956 0.47802-0.19121 0.47803-0.19121h0.47803l0.47802 0.0956 0.47803-0.0956h0.95605l0.47803-0.0956 0.47802 0.38242 0.47803-0.28681 0.47803-0.19121 0.47802 0.19121 0.47803-0.28682h0.95605l0.47803 0.38242 0.47802 0.0956 0.38242 0.66923 0.47803 1.0517 0.47803 0.28682 0.47802 0.19121 0.47803 0.28681h0.95605l0.47803 0.38242h1.9121l0.47803 0.28682 0.47803-0.28682 0.47802 0.19121 0.47803 0.0956h0.95605l0.47803-0.28682 0.47802-0.66923 0.47803-0.57363 0.47803-1.7209 0.47802-2.3901 0.47803-3.0594 0.47803-4.3978 0.38242-4.9715 0.47802-2.7726 0.47803-0.38242 0.47803 2.0077 0.47802 3.633 0.47803 4.9715 0.47802 4.4934 0.47803 3.0594 0.47803 1.9121 0.47802 0.86044 0.47803 0.57364" color="#ff0000" fill="none" stroke="currentColor" stroke-width="1.0851"/>
    <path d="m814.43 203.71h0.86045" color="#000000" fill="none" stroke="currentColor" stroke-width=".35852"/>
    <g transform="translate(-38.617 .72182)" color="#000000" fill="#000094">
     <path d="m851.44 202.88q0-0.26142-0.0495-0.36786-0.0486-0.10737-0.16432-0.10737-0.11577 0-0.16525 0.10737-0.0495 0.10644-0.0495 0.36786 0 0.26422 0.0495 0.37252t0.16525 0.1083q0.11484 0 0.16432-0.1083 0.0495-0.1083 0.0495-0.37252zm0.35945 3e-3q0 0.34638-0.14938 0.53498-0.14939 0.18766-0.42388 0.18766-0.27542 0-0.42481-0.18766-0.14938-0.1886-0.14938-0.53498 0-0.34732 0.14938-0.53498 0.14939-0.1886 0.42481-0.1886 0.27449 0 0.42388 0.1886 0.14938 0.18766 0.14938 0.53498z" color="#000000" fill="#000094"/>
    </g>
    <path d="m814.43 197.4h0.86045" color="#000000" fill="none" stroke="currentColor" stroke-width=".35852"/>
    <g transform="translate(-38.617 .72182)" color="#000000" fill="#000094">
     <path d="m847.33 197.02h0.31744v-0.90097l-0.32584 0.0672v-0.24462l0.32398-0.0672h0.34171v1.1456h0.31744v0.24835h-0.97473v-0.24835z" color="#000000"/>
     <path d="m849.32 196.57q0-0.26142-0.0495-0.36785-0.0486-0.10737-0.16432-0.10737-0.11577 0-0.16526 0.10737-0.0495 0.10643-0.0495 0.36785 0 0.26423 0.0495 0.37253t0.16526 0.1083q0.11484 0 0.16432-0.1083 0.0495-0.1083 0.0495-0.37253zm0.35946 3e-3q0 0.34638-0.14939 0.53497-0.14938 0.18767-0.42387 0.18767-0.27543 0-0.42481-0.18767-0.14938-0.18859-0.14938-0.53497 0-0.34732 0.14938-0.53498 0.14938-0.1886 0.42481-0.1886 0.27449 0 0.42387 0.1886 0.14939 0.18766 0.14939 0.53498z" color="#000000"/>
     <path d="m850.65 196.57q0-0.26142-0.0495-0.36785-0.0485-0.10737-0.16432-0.10737-0.11577 0-0.16526 0.10737-0.0495 0.10643-0.0495 0.36785 0 0.26423 0.0495 0.37253t0.16526 0.1083q0.11484 0 0.16432-0.1083 0.0495-0.1083 0.0495-0.37253zm0.35946 3e-3q0 0.34638-0.14939 0.53497-0.14938 0.18767-0.42387 0.18767-0.27543 0-0.42481-0.18767-0.14938-0.18859-0.14938-0.53497 0-0.34732 0.14938-0.53498 0.14938-0.1886 0.42481-0.1886 0.27449 0 0.42387 0.1886 0.14939 0.18766 0.14939 0.53498z" color="#000000"/>
     <path d="m851.98 196.57q0-0.26142-0.0495-0.36785-0.0485-0.10737-0.16432-0.10737-0.11577 0-0.16526 0.10737-0.0495 0.10643-0.0495 0.36785 0 0.26423 0.0495 0.37253t0.16526 0.1083q0.11484 0 0.16432-0.1083 0.0495-0.1083 0.0495-0.37253zm0.35946 3e-3q0 0.34638-0.14939 0.53497-0.14938 0.18767-0.42387 0.18767-0.27543 0-0.42481-0.18767-0.14938-0.18859-0.14938-0.53497 0-0.34732 0.14938-0.53498 0.14938-0.1886 0.42481-0.1886 0.27449 0 0.42387 0.1886 0.14939 0.18766 0.14939 0.53498z" color="#000000"/>
    </g>
    <path d="m814.43 191.09h0.86045" color="#000000" fill="none" stroke="currentColor" stroke-width=".35852"/>
    <g transform="translate(-38.617 .72182)" color="#000000" fill="#000094">
     <path d="m847.67 190.7h0.6134v0.26422h-1.013v-0.26422l0.50883-0.44908q0.0682-0.0616 0.10084-0.12044 0.0327-0.0588 0.0327-0.12231 0-0.098-0.0663-0.15778-0.0654-0.0598-0.1746-0.0598-0.084 0-0.18392 0.0364-0.0999 0.0355-0.21381 0.10643v-0.30623q0.12138-0.0402 0.23995-0.0607 0.11857-0.0215 0.23248-0.0215 0.25021 0 0.38839 0.11017 0.13912 0.11017 0.13912 0.30717 0 0.11391-0.0588 0.21287-0.0588 0.098-0.24742 0.26329l-0.29783 0.26142z" color="#000000"/>
     <path d="m849.33 190.26q0-0.26142-0.0495-0.36786-0.0485-0.10737-0.16432-0.10737-0.11578 0-0.16526 0.10737-0.0495 0.10644-0.0495 0.36786 0 0.26422 0.0495 0.37252 0.0495 0.10831 0.16526 0.10831 0.11483 0 0.16432-0.10831 0.0495-0.1083 0.0495-0.37252zm0.35945 3e-3q0 0.34638-0.14938 0.53498-0.14938 0.18766-0.42387 0.18766-0.27543 0-0.42481-0.18766-0.14939-0.1886-0.14939-0.53498 0-0.34732 0.14939-0.53498 0.14938-0.1886 0.42481-0.1886 0.27449 0 0.42387 0.1886 0.14938 0.18766 0.14938 0.53498z" color="#000000"/>
     <path d="m850.66 190.26q0-0.26142-0.0495-0.36786-0.0485-0.10737-0.16432-0.10737-0.11578 0-0.16526 0.10737-0.0495 0.10644-0.0495 0.36786 0 0.26422 0.0495 0.37252 0.0495 0.10831 0.16526 0.10831 0.11483 0 0.16432-0.10831 0.0495-0.1083 0.0495-0.37252zm0.35945 3e-3q0 0.34638-0.14938 0.53498-0.14938 0.18766-0.42387 0.18766-0.27543 0-0.42481-0.18766-0.14939-0.1886-0.14939-0.53498 0-0.34732 0.14939-0.53498 0.14938-0.1886 0.42481-0.1886 0.27449 0 0.42387 0.1886 0.14938 0.18766 0.14938 0.53498z" color="#000000"/>
     <path d="m851.99 190.26q0-0.26142-0.0495-0.36786-0.0485-0.10737-0.16432-0.10737-0.11578 0-0.16526 0.10737-0.0495 0.10644-0.0495 0.36786 0 0.26422 0.0495 0.37252 0.0495 0.10831 0.16526 0.10831 0.11484 0 0.16432-0.10831 0.0495-0.1083 0.0495-0.37252zm0.35945 3e-3q0 0.34638-0.14938 0.53498-0.14938 0.18766-0.42387 0.18766-0.27543 0-0.42481-0.18766-0.14938-0.1886-0.14938-0.53498 0-0.34732 0.14938-0.53498 0.14938-0.1886 0.42481-0.1886 0.27449 0 0.42387 0.1886 0.14938 0.18766 0.14938 0.53498z" color="#000000"/>
    </g>
    <path d="m814.43 184.78h0.86045" color="#000000" fill="none" stroke="currentColor" stroke-width=".35852"/>
    <g transform="translate(-38.617 .72182)" color="#000000" fill="#000094">
     <path d="m848.01 183.9q0.14098 0.0364 0.2138 0.12697 0.0738 0.0896 0.0738 0.22875 0 0.20727-0.15872 0.31557-0.15872 0.10737-0.46309 0.10737-0.10736 0-0.21567-0.0177-0.10737-0.0168-0.21287-0.0514v-0.27729q0.10084 0.0504 0.1998 0.0766 0.0999 0.0252 0.19607 0.0252 0.14284 0 0.21847-0.0495 0.0766-0.0495 0.0766-0.14191 0-0.0952-0.0784-0.14378-0.0775-0.0495-0.22967-0.0495h-0.14379v-0.23154h0.15126q0.13537 0 0.20166-0.042 0.0663-0.0429 0.0663-0.12977 0-0.0803-0.0644-0.12418-0.0644-0.0439-0.18206-0.0439-0.0868 0-0.17553 0.0196-0.0887 0.0196-0.17646 0.0579v-0.26328q0.10644-0.0299 0.21101-0.0448t0.2054-0.0149q0.27169 0 0.40614 0.0896 0.13537 0.0887 0.13537 0.26796 0 0.12231-0.0644 0.20073-0.0644 0.0775-0.19046 0.10924z" color="#000000"/>
     <path d="m849.33 183.95q0-0.26142-0.0495-0.36786-0.0486-0.10737-0.16432-0.10737-0.11577 0-0.16525 0.10737-0.0495 0.10644-0.0495 0.36786 0 0.26422 0.0495 0.37252t0.16525 0.1083q0.11484 0 0.16432-0.1083 0.0495-0.1083 0.0495-0.37252zm0.35945 3e-3q0 0.34638-0.14938 0.53498-0.14939 0.18766-0.42388 0.18766-0.27542 0-0.42481-0.18766-0.14938-0.1886-0.14938-0.53498 0-0.34732 0.14938-0.53498 0.14939-0.1886 0.42481-0.1886 0.27449 0 0.42388 0.1886 0.14938 0.18766 0.14938 0.53498z" color="#000000"/>
     <path d="m850.66 183.95q0-0.26142-0.0495-0.36786-0.0485-0.10737-0.16432-0.10737-0.11577 0-0.16525 0.10737-0.0495 0.10644-0.0495 0.36786 0 0.26422 0.0495 0.37252t0.16525 0.1083q0.11484 0 0.16432-0.1083 0.0495-0.1083 0.0495-0.37252zm0.35945 3e-3q0 0.34638-0.14938 0.53498-0.14939 0.18766-0.42388 0.18766-0.27542 0-0.42481-0.18766-0.14938-0.1886-0.14938-0.53498 0-0.34732 0.14938-0.53498 0.14939-0.1886 0.42481-0.1886 0.27449 0 0.42388 0.1886 0.14938 0.18766 0.14938 0.53498z" color="#000000"/>
     <path d="m851.99 183.95q0-0.26142-0.0495-0.36786-0.0485-0.10737-0.16432-0.10737-0.11577 0-0.16525 0.10737-0.0495 0.10644-0.0495 0.36786 0 0.26422 0.0495 0.37252t0.16525 0.1083q0.11484 0 0.16432-0.1083 0.0495-0.1083 0.0495-0.37252zm0.35945 3e-3q0 0.34638-0.14938 0.53498-0.14939 0.18766-0.42388 0.18766-0.27542 0-0.42481-0.18766-0.14938-0.1886-0.14938-0.53498 0-0.34732 0.14938-0.53498 0.14939-0.1886 0.42481-0.1886 0.27449 0 0.42388 0.1886 0.14938 0.18766 0.14938 0.53498z" color="#000000"/>
    </g>
    <path d="m814.43 178.57h0.86045" color="#000000" fill="none" stroke="currentColor" stroke-width=".35852"/>
    <g transform="translate(-38.617 .72182)" color="#000000" fill="#000094">
     <path d="m847.83 177.34-0.39399 0.58352h0.39399zm-0.0598-0.29597h0.3996v0.87949h0.19887v0.26049h-0.19887v0.25395h-0.33985v-0.25395h-0.61807v-0.3081z" color="#000000"/>
     <path d="m849.33 177.74q0-0.26142-0.0495-0.36786-0.0486-0.10737-0.16432-0.10737-0.11578 0-0.16526 0.10737-0.0495 0.10644-0.0495 0.36786 0 0.26422 0.0495 0.37252t0.16526 0.1083q0.11483 0 0.16432-0.1083 0.0495-0.1083 0.0495-0.37252zm0.35945 3e-3q0 0.34638-0.14938 0.53498-0.14938 0.18766-0.42387 0.18766-0.27543 0-0.42481-0.18766-0.14939-0.1886-0.14939-0.53498 0-0.34732 0.14939-0.53498 0.14938-0.1886 0.42481-0.1886 0.27449 0 0.42387 0.1886 0.14938 0.18766 0.14938 0.53498z" color="#000000"/>
     <path d="m850.66 177.74q0-0.26142-0.0495-0.36786-0.0485-0.10737-0.16432-0.10737-0.11578 0-0.16526 0.10737-0.0495 0.10644-0.0495 0.36786 0 0.26422 0.0495 0.37252t0.16526 0.1083q0.11483 0 0.16432-0.1083 0.0495-0.1083 0.0495-0.37252zm0.35945 3e-3q0 0.34638-0.14938 0.53498-0.14938 0.18766-0.42387 0.18766-0.27543 0-0.42481-0.18766-0.14939-0.1886-0.14939-0.53498 0-0.34732 0.14939-0.53498 0.14938-0.1886 0.42481-0.1886 0.27449 0 0.42387 0.1886 0.14938 0.18766 0.14938 0.53498z" color="#000000"/>
     <path d="m851.99 177.74q0-0.26142-0.0495-0.36786-0.0485-0.10737-0.16432-0.10737-0.11578 0-0.16526 0.10737-0.0495 0.10644-0.0495 0.36786 0 0.26422 0.0495 0.37252t0.16526 0.1083q0.11483 0 0.16432-0.1083 0.0495-0.1083 0.0495-0.37252zm0.35945 3e-3q0 0.34638-0.14938 0.53498-0.14938 0.18766-0.42387 0.18766-0.27543 0-0.42481-0.18766-0.14939-0.1886-0.14939-0.53498 0-0.34732 0.14939-0.53498 0.14938-0.1886 0.42481-0.1886 0.27449 0 0.42387 0.1886 0.14938 0.18766 0.14938 0.53498z" color="#000000"/>
    </g>
    <path d="m814.43 172.26h0.86045" color="#000000" fill="none" stroke="currentColor" stroke-width=".35852"/>
    <g transform="translate(-38.617 .72182)" color="#000000" fill="#000094">
     <path d="m847.32 170.73h0.8935v0.26422h-0.60687v0.21567q0.0411-0.0112 0.0822-0.0168 0.042-7e-3 0.0868-7e-3 0.25488 0 0.3968 0.12791 0.14191 0.12698 0.14191 0.35479 0 0.22594-0.15498 0.35385-0.15406 0.12791-0.42855 0.12791-0.11857 0-0.23528-0.0233-0.11577-0.0224-0.23061-0.0691v-0.2829q0.11391 0.0654 0.21568 0.098 0.1027 0.0327 0.19326 0.0327 0.13071 0 0.2054-0.0635 0.0756-0.0644 0.0756-0.17365 0-0.11017-0.0756-0.17366-0.0747-0.0635-0.2054-0.0635-0.0775 0-0.16525 0.0205-0.0878 0.0196-0.1886 0.0616v-0.78426z" color="#000000"/>
     <path d="m849.33 171.43q0-0.26142-0.0495-0.36785-0.0485-0.10737-0.16432-0.10737-0.11577 0-0.16526 0.10737-0.0495 0.10643-0.0495 0.36785 0 0.26423 0.0495 0.37253t0.16526 0.1083q0.11484 0 0.16432-0.1083 0.0495-0.1083 0.0495-0.37253zm0.35946 3e-3q0 0.34638-0.14939 0.53497-0.14938 0.18767-0.42387 0.18767-0.27543 0-0.42481-0.18767-0.14938-0.18859-0.14938-0.53497 0-0.34732 0.14938-0.53498 0.14938-0.1886 0.42481-0.1886 0.27449 0 0.42387 0.1886 0.14939 0.18766 0.14939 0.53498z" color="#000000"/>
     <path d="m850.66 171.43q0-0.26142-0.0495-0.36785-0.0485-0.10737-0.16432-0.10737-0.11577 0-0.16526 0.10737-0.0495 0.10643-0.0495 0.36785 0 0.26423 0.0495 0.37253t0.16526 0.1083q0.11484 0 0.16432-0.1083 0.0495-0.1083 0.0495-0.37253zm0.35946 3e-3q0 0.34638-0.14939 0.53497-0.14938 0.18767-0.42387 0.18767-0.27543 0-0.42481-0.18767-0.14938-0.18859-0.14938-0.53497 0-0.34732 0.14938-0.53498 0.14938-0.1886 0.42481-0.1886 0.27449 0 0.42387 0.1886 0.14939 0.18766 0.14939 0.53498z" color="#000000"/>
     <path d="m851.99 171.43q0-0.26142-0.0495-0.36785-0.0485-0.10737-0.16432-0.10737-0.11577 0-0.16526 0.10737-0.0495 0.10643-0.0495 0.36785 0 0.26423 0.0495 0.37253t0.16526 0.1083q0.11484 0 0.16432-0.1083 0.0495-0.1083 0.0495-0.37253zm0.35946 3e-3q0 0.34638-0.14939 0.53497-0.14938 0.18767-0.42387 0.18767-0.27543 0-0.42481-0.18767-0.14938-0.18859-0.14938-0.53497 0-0.34732 0.14938-0.53498 0.14938-0.1886 0.42481-0.1886 0.27449 0 0.42387 0.1886 0.14939 0.18766 0.14939 0.53498z" color="#000000"/>
    </g>
    <path d="m814.43 165.95h0.86045" color="#000000" fill="none" stroke="currentColor" stroke-width=".35852"/>
    <g transform="translate(-38.617 .72182)" color="#000000" fill="#000094">
     <path d="m847.81 165.13q-0.0943 0-0.14191 0.0616-0.0467 0.0607-0.0467 0.183 0 0.12231 0.0467 0.18393 0.0476 0.0607 0.14191 0.0607 0.0952 0 0.14192-0.0607 0.0476-0.0616 0.0476-0.18393 0-0.12231-0.0476-0.183-0.0467-0.0616-0.14192-0.0616zm0.44442-0.66942v0.25769q-0.0887-0.042-0.16712-0.0616-0.0784-0.0205-0.15312-0.0205-0.16059 0-0.25022 0.0896-0.0896 0.0887-0.10457 0.26423 0.0616-0.0458 0.13352-0.0682 0.0719-0.0233 0.15685-0.0233 0.2138 0 0.34451 0.12511 0.13165 0.12511 0.13165 0.32771 0 0.22407-0.14659 0.35945-0.14658 0.13444-0.39306 0.13444-0.27169 0-0.42107-0.18299-0.14845-0.18393-0.14845-0.52097 0-0.34545 0.17365-0.54245 0.1746-0.19793 0.47803-0.19793 0.0962 0 0.18673 0.0149 0.0906 0.0149 0.17926 0.0448z" color="#000000"/>
     <path d="m849.33 165.12q0-0.26142-0.0495-0.36785-0.0485-0.10737-0.16432-0.10737-0.11577 0-0.16525 0.10737-0.0495 0.10643-0.0495 0.36785 0 0.26422 0.0495 0.37253 0.0495 0.1083 0.16525 0.1083 0.11484 0 0.16432-0.1083 0.0495-0.10831 0.0495-0.37253zm0.35945 3e-3q0 0.34639-0.14938 0.53498-0.14939 0.18766-0.42388 0.18766-0.27542 0-0.42481-0.18766-0.14938-0.18859-0.14938-0.53498 0-0.34731 0.14938-0.53497 0.14939-0.1886 0.42481-0.1886 0.27449 0 0.42388 0.1886 0.14938 0.18766 0.14938 0.53497z" color="#000000"/>
     <path d="m850.66 165.12q0-0.26142-0.0495-0.36785-0.0485-0.10737-0.16432-0.10737-0.11577 0-0.16525 0.10737-0.0495 0.10643-0.0495 0.36785 0 0.26422 0.0495 0.37253 0.0495 0.1083 0.16525 0.1083 0.11484 0 0.16432-0.1083 0.0495-0.10831 0.0495-0.37253zm0.35945 3e-3q0 0.34639-0.14938 0.53498-0.14939 0.18766-0.42388 0.18766-0.27542 0-0.42481-0.18766-0.14938-0.18859-0.14938-0.53498 0-0.34731 0.14938-0.53497 0.14939-0.1886 0.42481-0.1886 0.27449 0 0.42388 0.1886 0.14938 0.18766 0.14938 0.53497z" color="#000000"/>
     <path d="m851.99 165.12q0-0.26142-0.0495-0.36785-0.0485-0.10737-0.16433-0.10737-0.11577 0-0.16525 0.10737-0.0495 0.10643-0.0495 0.36785 0 0.26422 0.0495 0.37253 0.0495 0.1083 0.16525 0.1083 0.11484 0 0.16433-0.1083 0.0495-0.10831 0.0495-0.37253zm0.35945 3e-3q0 0.34639-0.14938 0.53498-0.14938 0.18766-0.42388 0.18766-0.27542 0-0.4248-0.18766-0.14939-0.18859-0.14939-0.53498 0-0.34731 0.14939-0.53497 0.14938-0.1886 0.4248-0.1886 0.2745 0 0.42388 0.1886 0.14938 0.18766 0.14938 0.53497z" color="#000000"/>
    </g>
    <path d="m814.43 203.71v-0.86045" color="#000000" fill="none" stroke="currentColor" stroke-width=".35852"/>
    <g transform="translate(-38.617 .72182)" color="#000000" fill="#000094">
     <path d="m853.26 204.79q0-0.26142-0.0495-0.36786-0.0485-0.10736-0.16432-0.10736-0.11577 0-0.16526 0.10736-0.0495 0.10644-0.0495 0.36786 0 0.26422 0.0495 0.37253 0.0495 0.1083 0.16526 0.1083 0.11484 0 0.16432-0.1083 0.0495-0.10831 0.0495-0.37253zm0.35946 3e-3q0 0.34638-0.14939 0.53498-0.14938 0.18766-0.42387 0.18766-0.27543 0-0.42481-0.18766-0.14938-0.1886-0.14938-0.53498 0-0.34731 0.14938-0.53498 0.14938-0.18859 0.42481-0.18859 0.27449 0 0.42387 0.18859 0.14939 0.18767 0.14939 0.53498z" color="#000000" fill="#000094"/>
    </g>
    <path d="m820.55 203.71v-0.86045" color="#000000" fill="none" stroke="currentColor" stroke-width=".35852"/>
    <g transform="translate(-38.617 .72182)" color="#000000" fill="#000094">
     <path d="m857.38 205.24h0.31743v-0.90097l-0.32584 0.0672v-0.24461l0.32398-0.0672h0.34171v1.1456h0.31744v0.24835h-0.97472z" color="#000000"/>
     <path d="m859.37 204.79q0-0.26142-0.0495-0.36786-0.0485-0.10736-0.16432-0.10736-0.11577 0-0.16526 0.10736-0.0495 0.10644-0.0495 0.36786 0 0.26422 0.0495 0.37253 0.0495 0.1083 0.16526 0.1083 0.11484 0 0.16432-0.1083 0.0495-0.10831 0.0495-0.37253zm0.35946 3e-3q0 0.34638-0.14939 0.53498-0.14938 0.18766-0.42387 0.18766-0.27543 0-0.42481-0.18766-0.14938-0.1886-0.14938-0.53498 0-0.34731 0.14938-0.53498 0.14938-0.18859 0.42481-0.18859 0.27449 0 0.42387 0.18859 0.14939 0.18767 0.14939 0.53498z" color="#000000"/>
     <path d="m860.7 204.79q0-0.26142-0.0495-0.36786-0.0485-0.10736-0.16432-0.10736-0.11577 0-0.16525 0.10736-0.0495 0.10644-0.0495 0.36786 0 0.26422 0.0495 0.37253 0.0495 0.1083 0.16525 0.1083 0.11484 0 0.16432-0.1083 0.0495-0.10831 0.0495-0.37253zm0.35946 3e-3q0 0.34638-0.14938 0.53498-0.14939 0.18766-0.42388 0.18766-0.27543 0-0.42481-0.18766-0.14938-0.1886-0.14938-0.53498 0-0.34731 0.14938-0.53498 0.14938-0.18859 0.42481-0.18859 0.27449 0 0.42388 0.18859 0.14938 0.18767 0.14938 0.53498z" color="#000000"/>
    </g>
    <path d="m826.57 203.71v-0.86045" color="#000000" fill="none" stroke="currentColor" stroke-width=".35852"/>
    <g transform="translate(-38.617 .72182)" color="#000000" fill="#000094">
     <path d="m863.74 205.23h0.61341v0.26422h-1.013v-0.26422l0.50884-0.44909q0.0681-0.0616 0.10083-0.12044 0.0327-0.0588 0.0327-0.12231 0-0.098-0.0663-0.15778-0.0653-0.0598-0.17459-0.0598-0.084 0-0.18393 0.0364-0.0999 0.0355-0.2138 0.10643v-0.30623q0.12137-0.0402 0.23994-0.0607 0.11858-0.0215 0.23248-0.0215 0.25022 0 0.3884 0.11017 0.13911 0.11017 0.13911 0.30717 0 0.1139-0.0588 0.21287-0.0588 0.098-0.24742 0.26329l-0.29783 0.26142z" color="#000000"/>
     <path d="m865.4 204.79q0-0.26142-0.0495-0.36786-0.0485-0.10736-0.16432-0.10736-0.11577 0-0.16526 0.10736-0.0495 0.10644-0.0495 0.36786 0 0.26422 0.0495 0.37253 0.0495 0.1083 0.16526 0.1083 0.11484 0 0.16432-0.1083 0.0495-0.10831 0.0495-0.37253zm0.35946 3e-3q0 0.34638-0.14939 0.53498-0.14938 0.18766-0.42387 0.18766-0.27543 0-0.42481-0.18766-0.14938-0.1886-0.14938-0.53498 0-0.34731 0.14938-0.53498 0.14938-0.18859 0.42481-0.18859 0.27449 0 0.42387 0.18859 0.14939 0.18767 0.14939 0.53498z" color="#000000"/>
     <path d="m866.73 204.79q0-0.26142-0.0495-0.36786-0.0485-0.10736-0.16432-0.10736-0.11577 0-0.16525 0.10736-0.0495 0.10644-0.0495 0.36786 0 0.26422 0.0495 0.37253 0.0495 0.1083 0.16525 0.1083 0.11484 0 0.16432-0.1083 0.0495-0.10831 0.0495-0.37253zm0.35945 3e-3q0 0.34638-0.14938 0.53498-0.14939 0.18766-0.42388 0.18766-0.27542 0-0.42481-0.18766-0.14938-0.1886-0.14938-0.53498 0-0.34731 0.14938-0.53498 0.14939-0.18859 0.42481-0.18859 0.27449 0 0.42388 0.18859 0.14938 0.18767 0.14938 0.53498z" color="#000000"/>
    </g>
    <path d="m832.69 203.71v-0.86045" color="#000000" fill="none" stroke="currentColor" stroke-width=".35852"/>
    <g transform="translate(-38.617 .72182)" color="#000000" fill="#000094">
     <path d="m870.2 204.74q0.14098 0.0364 0.2138 0.12698 0.0738 0.0896 0.0738 0.22874 0 0.20727-0.15872 0.31557-0.15872 0.10737-0.46309 0.10737-0.10737 0-0.21567-0.0177-0.10737-0.0168-0.21287-0.0513v-0.27729q0.10083 0.0504 0.1998 0.0766 0.0999 0.0252 0.19606 0.0252 0.14285 0 0.21848-0.0495 0.0766-0.0495 0.0766-0.14191 0-0.0952-0.0784-0.14378-0.0775-0.0495-0.22968-0.0495h-0.14378v-0.23155h0.15125q0.13538 0 0.20167-0.042 0.0663-0.043 0.0663-0.12978 0-0.0803-0.0644-0.12417-0.0644-0.0439-0.18206-0.0439-0.0868 0-0.17553 0.0196-0.0887 0.0196-0.17646 0.0579v-0.26329q0.10644-0.0299 0.21101-0.0448 0.10456-0.0149 0.2054-0.0149 0.27169 0 0.40613 0.0896 0.13538 0.0887 0.13538 0.26795 0 0.12231-0.0644 0.20074-0.0644 0.0775-0.19046 0.10923z" color="#000000"/>
     <path d="m871.52 204.79q0-0.26142-0.0495-0.36786-0.0485-0.10736-0.16432-0.10736-0.11577 0-0.16526 0.10736-0.0495 0.10644-0.0495 0.36786 0 0.26422 0.0495 0.37253 0.0495 0.1083 0.16526 0.1083 0.11484 0 0.16432-0.1083 0.0495-0.10831 0.0495-0.37253zm0.35946 3e-3q0 0.34638-0.14939 0.53498-0.14938 0.18766-0.42387 0.18766-0.27543 0-0.42481-0.18766-0.14938-0.1886-0.14938-0.53498 0-0.34731 0.14938-0.53498 0.14938-0.18859 0.42481-0.18859 0.27449 0 0.42387 0.18859 0.14939 0.18767 0.14939 0.53498z" color="#000000"/>
     <path d="m872.85 204.79q0-0.26142-0.0495-0.36786-0.0486-0.10736-0.16432-0.10736-0.11577 0-0.16526 0.10736-0.0495 0.10644-0.0495 0.36786 0 0.26422 0.0495 0.37253 0.0495 0.1083 0.16526 0.1083 0.11484 0 0.16432-0.1083 0.0495-0.10831 0.0495-0.37253zm0.35946 3e-3q0 0.34638-0.14939 0.53498-0.14938 0.18766-0.42387 0.18766-0.27543 0-0.42481-0.18766-0.14938-0.1886-0.14938-0.53498 0-0.34731 0.14938-0.53498 0.14938-0.18859 0.42481-0.18859 0.27449 0 0.42387 0.18859 0.14939 0.18767 0.14939 0.53498z" color="#000000"/>
    </g>
    <path d="m838.81 203.71v-0.86045" color="#000000" fill="none" stroke="currentColor" stroke-width=".35852"/>
    <g transform="translate(-38.617 .72182)" color="#000000" fill="#000094">
     <path d="m876.14 204.39-0.39399 0.58353h0.39399zm-0.0598-0.29596h0.3996v0.87949h0.19887v0.26049h-0.19887v0.25395h-0.33985v-0.25395h-0.61807v-0.30811z" color="#000000"/>
     <path d="m877.65 204.79q0-0.26142-0.0495-0.36786-0.0485-0.10736-0.16432-0.10736-0.11578 0-0.16526 0.10736-0.0495 0.10644-0.0495 0.36786 0 0.26422 0.0495 0.37253 0.0495 0.1083 0.16526 0.1083 0.11483 0 0.16432-0.1083 0.0495-0.10831 0.0495-0.37253zm0.35945 3e-3q0 0.34638-0.14938 0.53498-0.14938 0.18766-0.42387 0.18766-0.27543 0-0.42481-0.18766-0.14939-0.1886-0.14939-0.53498 0-0.34731 0.14939-0.53498 0.14938-0.18859 0.42481-0.18859 0.27449 0 0.42387 0.18859 0.14938 0.18767 0.14938 0.53498z" color="#000000"/>
     <path d="m878.98 204.79q0-0.26142-0.0495-0.36786-0.0485-0.10736-0.16432-0.10736-0.11578 0-0.16526 0.10736-0.0495 0.10644-0.0495 0.36786 0 0.26422 0.0495 0.37253 0.0495 0.1083 0.16526 0.1083 0.11483 0 0.16432-0.1083 0.0495-0.10831 0.0495-0.37253zm0.35945 3e-3q0 0.34638-0.14938 0.53498-0.14938 0.18766-0.42387 0.18766-0.27543 0-0.42481-0.18766-0.14939-0.1886-0.14939-0.53498 0-0.34731 0.14939-0.53498 0.14938-0.18859 0.42481-0.18859 0.27449 0 0.42387 0.18859 0.14938 0.18767 0.14938 0.53498z" color="#000000"/>
    </g>
    <path d="m844.93 203.71v-0.86045" color="#000000" fill="none" stroke="currentColor" stroke-width=".35852"/>
    <g transform="translate(-38.617 .72182)" color="#000000" fill="#000094">
     <path d="m881.75 204.1h0.8935v0.26422h-0.60687v0.21567q0.0411-0.0112 0.0822-0.0168 0.042-7e-3 0.0868-7e-3 0.25489 0 0.3968 0.12791 0.14192 0.12697 0.14192 0.35478 0 0.22594-0.15499 0.35385-0.15405 0.12791-0.42854 0.12791-0.11858 0-0.23528-0.0233-0.11577-0.0224-0.23061-0.0691v-0.28289q0.1139 0.0653 0.21567 0.098 0.1027 0.0327 0.19326 0.0327 0.13072 0 0.20541-0.0635 0.0756-0.0644 0.0756-0.17366 0-0.11017-0.0756-0.17366-0.0747-0.0635-0.20541-0.0635-0.0775 0-0.16525 0.0205-0.0878 0.0196-0.1886 0.0616v-0.78426z" color="#000000"/>
     <path d="m883.76 204.79q0-0.26142-0.0495-0.36786-0.0485-0.10736-0.16432-0.10736-0.11577 0-0.16525 0.10736-0.0495 0.10644-0.0495 0.36786 0 0.26422 0.0495 0.37253 0.0495 0.1083 0.16525 0.1083 0.11484 0 0.16432-0.1083 0.0495-0.10831 0.0495-0.37253zm0.35945 3e-3q0 0.34638-0.14938 0.53498-0.14939 0.18766-0.42388 0.18766-0.27542 0-0.42481-0.18766-0.14938-0.1886-0.14938-0.53498 0-0.34731 0.14938-0.53498 0.14939-0.18859 0.42481-0.18859 0.27449 0 0.42388 0.18859 0.14938 0.18767 0.14938 0.53498z" color="#000000"/>
     <path d="m885.09 204.79q0-0.26142-0.0495-0.36786-0.0485-0.10736-0.16432-0.10736-0.11577 0-0.16525 0.10736-0.0495 0.10644-0.0495 0.36786 0 0.26422 0.0495 0.37253 0.0495 0.1083 0.16525 0.1083 0.11484 0 0.16432-0.1083 0.0495-0.10831 0.0495-0.37253zm0.35945 3e-3q0 0.34638-0.14938 0.53498-0.14939 0.18766-0.42388 0.18766-0.27542 0-0.42481-0.18766-0.14938-0.1886-0.14938-0.53498 0-0.34731 0.14938-0.53498 0.14939-0.18859 0.42481-0.18859 0.27449 0 0.42388 0.18859 0.14938 0.18767 0.14938 0.53498z" color="#000000"/>
    </g>
    <path d="m850.95 203.71v-0.86045" color="#000000" fill="none" stroke="currentColor" stroke-width=".35852"/>
    <g transform="translate(-38.617 .72182)" color="#000000" fill="#000094">
     <path d="m888.26 204.8q-0.0943 0-0.14191 0.0616-0.0467 0.0607-0.0467 0.183t0.0467 0.18392q0.0476 0.0607 0.14191 0.0607 0.0952 0 0.14192-0.0607 0.0476-0.0616 0.0476-0.18392 0-0.12231-0.0476-0.183-0.0467-0.0616-0.14192-0.0616zm0.44442-0.66942v0.25768q-0.0887-0.042-0.16713-0.0616-0.0784-0.0205-0.15311-0.0205-0.16059 0-0.25022 0.0896-0.0896 0.0887-0.10457 0.26422 0.0616-0.0457 0.13351-0.0682 0.0719-0.0233 0.15686-0.0233 0.2138 0 0.34451 0.12511 0.13164 0.1251 0.13164 0.3277 0 0.22408-0.14658 0.35946-0.14658 0.13444-0.39306 0.13444-0.27169 0-0.42108-0.18299-0.14845-0.18393-0.14845-0.52098 0-0.34544 0.17366-0.54244 0.17459-0.19794 0.47803-0.19794 0.0962 0 0.18673 0.0149 0.0906 0.0149 0.17926 0.0448z" color="#000000"/>
     <path d="m889.78 204.79q0-0.26142-0.0495-0.36786-0.0485-0.10736-0.16432-0.10736-0.11577 0-0.16525 0.10736-0.0495 0.10644-0.0495 0.36786 0 0.26422 0.0495 0.37253 0.0495 0.1083 0.16525 0.1083 0.11484 0 0.16432-0.1083 0.0495-0.10831 0.0495-0.37253zm0.35946 3e-3q0 0.34638-0.14938 0.53498-0.14939 0.18766-0.42388 0.18766-0.27543 0-0.42481-0.18766-0.14938-0.1886-0.14938-0.53498 0-0.34731 0.14938-0.53498 0.14938-0.18859 0.42481-0.18859 0.27449 0 0.42388 0.18859 0.14938 0.18767 0.14938 0.53498z" color="#000000"/>
     <path d="m891.11 204.79q0-0.26142-0.0495-0.36786-0.0485-0.10736-0.16432-0.10736-0.11577 0-0.16525 0.10736-0.0495 0.10644-0.0495 0.36786 0 0.26422 0.0495 0.37253 0.0495 0.1083 0.16525 0.1083 0.11484 0 0.16432-0.1083 0.0495-0.10831 0.0495-0.37253zm0.35945 3e-3q0 0.34638-0.14938 0.53498-0.14939 0.18766-0.42388 0.18766-0.27542 0-0.42481-0.18766-0.14938-0.1886-0.14938-0.53498 0-0.34731 0.14938-0.53498 0.14939-0.18859 0.42481-0.18859 0.27449 0 0.42388 0.18859 0.14938 0.18767 0.14938 0.53498z" color="#000000"/>
    </g>
    <path d="m857.07 203.71v-0.86045" color="#000000" fill="none" stroke="currentColor" stroke-width=".35852"/>
    <g transform="translate(-38.617 .72182)" color="#000000" fill="#000094">
     <path d="m893.82 204.1h1.0504v0.2026l-0.54339 1.1913h-0.35011l0.51444-1.1297h-0.6713z" color="#000000"/>
     <path d="m895.9 204.79q0-0.26142-0.0495-0.36786-0.0486-0.10736-0.16433-0.10736-0.11577 0-0.16525 0.10736-0.0495 0.10644-0.0495 0.36786 0 0.26422 0.0495 0.37253 0.0495 0.1083 0.16525 0.1083 0.11484 0 0.16433-0.1083 0.0495-0.10831 0.0495-0.37253zm0.35945 3e-3q0 0.34638-0.14938 0.53498-0.14938 0.18766-0.42388 0.18766-0.27542 0-0.4248-0.18766-0.14939-0.1886-0.14939-0.53498 0-0.34731 0.14939-0.53498 0.14938-0.18859 0.4248-0.18859 0.2745 0 0.42388 0.18859 0.14938 0.18767 0.14938 0.53498z" color="#000000"/>
     <path d="m897.23 204.79q0-0.26142-0.0495-0.36786-0.0485-0.10736-0.16432-0.10736-0.11578 0-0.16526 0.10736-0.0495 0.10644-0.0495 0.36786 0 0.26422 0.0495 0.37253 0.0495 0.1083 0.16526 0.1083 0.11483 0 0.16432-0.1083 0.0495-0.10831 0.0495-0.37253zm0.35945 3e-3q0 0.34638-0.14938 0.53498-0.14938 0.18766-0.42387 0.18766-0.27543 0-0.42481-0.18766-0.14939-0.1886-0.14939-0.53498 0-0.34731 0.14939-0.53498 0.14938-0.18859 0.42481-0.18859 0.27449 0 0.42387 0.18859 0.14938 0.18767 0.14938 0.53498z" color="#000000"/>
    </g>
    <path d="m863.19 203.71v-0.86045" color="#000000" fill="none" stroke="currentColor" stroke-width=".35852"/>
    <g transform="translate(-38.617 .72182)" color="#000000" fill="#000094">
     <path d="m900.48 204.87q-0.10084 0-0.15499 0.0551-0.0542 0.0551-0.0542 0.15778 0 0.1027 0.0542 0.15779 0.0541 0.0541 0.15499 0.0541 0.0999 0 0.15311-0.0541 0.0532-0.0551 0.0532-0.15779 0-0.10363-0.0532-0.15778-0.0532-0.0551-0.15311-0.0551zm-0.26236-0.11857q-0.12697-0.0383-0.19139-0.11764-0.0644-0.0794-0.0644-0.19793 0-0.17646 0.13165-0.26889 0.13164-0.0924 0.38653-0.0924 0.25301 0 0.38466 0.0924 0.13164 0.0915 0.13164 0.26889 0 0.11857-0.0654 0.19793-0.0644 0.0794-0.1914 0.11764 0.14191 0.0392 0.2138 0.12791 0.0728 0.0878 0.0728 0.22221 0 0.20727-0.13818 0.3137-0.13725 0.1055-0.408 0.1055-0.27169 0-0.41081-0.1055-0.13818-0.10643-0.13818-0.3137 0-0.13445 0.0719-0.22221 0.0728-0.0887 0.21474-0.12791zm0.084-0.27916q0 0.0831 0.0457 0.12791 0.0467 0.0448 0.13258 0.0448 0.084 0 0.12977-0.0448 0.0457-0.0448 0.0457-0.12791 0-0.0831-0.0457-0.12698-0.0457-0.0448-0.12977-0.0448-0.0859 0-0.13258 0.0448-0.0457 0.0448-0.0457 0.12698z" color="#000000"/>
     <path d="m902.02 204.79q0-0.26142-0.0495-0.36786-0.0486-0.10736-0.16432-0.10736-0.11577 0-0.16526 0.10736-0.0495 0.10644-0.0495 0.36786 0 0.26422 0.0495 0.37253 0.0495 0.1083 0.16526 0.1083 0.11484 0 0.16432-0.1083 0.0495-0.10831 0.0495-0.37253zm0.35946 3e-3q0 0.34638-0.14939 0.53498-0.14938 0.18766-0.42387 0.18766-0.27543 0-0.42481-0.18766-0.14938-0.1886-0.14938-0.53498 0-0.34731 0.14938-0.53498 0.14938-0.18859 0.42481-0.18859 0.27449 0 0.42387 0.18859 0.14939 0.18767 0.14939 0.53498z" color="#000000"/>
     <path d="m903.35 204.79q0-0.26142-0.0495-0.36786-0.0485-0.10736-0.16432-0.10736-0.11577 0-0.16526 0.10736-0.0495 0.10644-0.0495 0.36786 0 0.26422 0.0495 0.37253 0.0495 0.1083 0.16526 0.1083 0.11484 0 0.16432-0.1083 0.0495-0.10831 0.0495-0.37253zm0.35946 3e-3q0 0.34638-0.14939 0.53498-0.14938 0.18766-0.42387 0.18766-0.27543 0-0.42481-0.18766-0.14938-0.1886-0.14938-0.53498 0-0.34731 0.14938-0.53498 0.14938-0.18859 0.42481-0.18859 0.27449 0 0.42387 0.18859 0.14939 0.18767 0.14939 0.53498z" color="#000000"/>
    </g>
    <path d="m814.43 203.71h48.759m-48.759-40.919v40.919" color="#000000" fill="none" stroke="#000094" stroke-width=".35852"/>
    <g transform="matrix(.76703 -.64328 .65152 .75733 .18045 4.1504)" stroke-width=".26906" aria-label="LIMS">
     <path d="m501.01 681.34v-14.344h3.0335v11.833h5.826v2.5112z" fill="#df9200"/>
     <path d="m526.25 681.34-3.4554-11.25h-0.0803q0.0201 0.40179 0.0603 1.2054t0.0804 1.7277q0.0402 0.92412 0.0402 1.6473v6.6697h-2.7121v-14.344h4.1384l3.3951 10.969h0.0603l3.596-10.969h4.1384v14.344h-2.8326v-6.7903q0-0.68304 0.0201-1.567 0.0402-0.88393 0.0603-1.6674 0.0402-0.80358 0.0603-1.2054h-0.0803l-3.6965 11.23z" fill="#00a900"/>
     <path d="m547.58 677.36q0 1.9085-1.3862 3.0536-1.3661 1.125-3.8974 1.125-2.2701 0-4.0581-0.86385v-2.8326q1.0246 0.44197 2.1094 0.82367 1.1049 0.36161 2.1898 0.36161 1.125 0 1.5871-0.42188 0.48214-0.44196 0.48214-1.1049 0-0.54241-0.3817-0.92412-0.36161-0.3817-0.98438-0.70313-0.62278-0.34152-1.4264-0.72322-0.50223-0.24107-1.0848-0.56251-0.58259-0.34152-1.125-0.82367-0.52233-0.50223-0.86385-1.2054-0.34152-0.70313-0.34152-1.6875 0-1.9286 1.3058-2.9933 1.3058-1.0848 3.5558-1.0848 1.125 0 2.1295 0.26116 1.0045 0.26116 2.1295 0.74331l-0.98438 2.3706q-0.98439-0.40179-1.7679-0.62277-0.78349-0.22099-1.6072-0.22099-0.86385 0-1.3259 0.40179-0.46205 0.40179-0.46205 1.0447 0 0.7634 0.68304 1.2054t2.029 1.0848q1.1049 0.52233 1.8683 1.0848 0.78349 0.56251 1.2054 1.3259t0.42188 1.8884z" fill="#0b00a9"/>
    </g>
    <g transform="matrix(-.049237 .012199 .012199 .049237 865.15 143.24)">
     <path d="m927.64 225.32c-85.729 177.98-171.49 355.95-257.19 533.95-4.6242 10.073-6.4997 21.664-3.9081 32.527 2.9368 12.658 11.775 23.604 23.115 29.831 11.251 6.2725 25.075 8.1179 37.374 4.1334 10.928-3.4784 20.094-11.49 25.937-21.278 3.6284-6.0653 6.308-12.627 9.4843-18.928l249.23-517.37c0.6569-1.3635 4.1708-2.9949 1.9705-4.0905-28.323-13.643-56.645-27.287-84.968-40.93-1.9533-0.79921-0.69231 1.4373-1.0385 2.156z" fill="#045"/>
     <path d="m929.03 224.18 83.605 40.274-257.2 533.93c-28.378 58.911-111.72 18.089-83.605-40.274l257.23-533.93z" fill="#f7feff"/>
     <path d="m818.8 465.02 91.56-0.29358-159.63 331.39c-25.43 52.791-98.324 14.336-74.2-35.743l142.27-295.36z" fill="url(#linearGradient3394)"/>
     <path d="m929.05 224.17-257.21 533.94c-28.114 58.362 55.209 99.177 83.588 40.265l257.17-533.95-4.7-2.26-257.18 533.94c-25.43 52.791-98.306 14.344-74.183-35.735l257.21-533.95-4.7026-2.2653z" fill="#d5f6ff"/>
     <g>
      <path d="m929.05 224.17c-0.87525-0.45809-0.83066 0.20013-0.52332 1.0864l-256.69 532.85c-28.114 58.362 55.209 99.177 83.588 40.265l256.27-531.68c1.4091-0.3345 2.1066-1.6904 0.9007-2.2626l-4.7025-2.2653-257.21 533.95c-25.43 52.791-98.306 14.344-74.183-35.735l257.21-533.95-4.7026-2.2653z" fill="#ffd5ea"/>
      <path d="m939.89 234.55 23.115 11.135-242.74 503.92c-26.783 55.6-49.648 43.947-23.115-11.135z" fill="#aad6ff"/>
      <path d="m940.91 237.28 14.014 6.7508-237.48 492.99c-26.202 54.394-39.972 47.136-14.014-6.7508z" fill="#f5f5ff"/>
     </g>
     <path d="m757.39 618.24c3.9635-7.8014 19.412-4.881 14.014 6.7508l-67.92 141.02c-7.4951 15.559-21.439 8.6634-14.014-6.7508l67.931-141.02z" fill="#fff"/>
    </g>
   </g>
  </g>
 </g>
</svg>
