<?xml version="1.0" encoding="UTF-8" standalone="no"?>
<svg
   id="Layer_1"
   data-name="Layer 1"
   viewBox="0 0 15 15.000001"
   version="1.1"
   sodipodi:docname="bee15.svg"
   width="15"
   height="15"
   inkscape:version="1.1.1 (3bf5ae0d25, 2021-09-20)"
   xmlns:inkscape="http://www.inkscape.org/namespaces/inkscape"
   xmlns:sodipodi="http://sodipodi.sourceforge.net/DTD/sodipodi-0.dtd"
   xmlns="http://www.w3.org/2000/svg"
   xmlns:svg="http://www.w3.org/2000/svg"
   xmlns:rdf="http://www.w3.org/1999/02/22-rdf-syntax-ns#"
   xmlns:cc="http://creativecommons.org/ns#"
   xmlns:dc="http://purl.org/dc/elements/1.1/">
  <sodipodi:namedview
     id="namedview396"
     pagecolor="#ffffff"
     bordercolor="#666666"
     borderopacity="1.0"
     inkscape:pageshadow="2"
     inkscape:pageopacity="0.0"
     inkscape:pagecheckerboard="0"
     showgrid="false"
     inkscape:zoom="14.104539"
     inkscape:cx="27.296178"
     inkscape:cy="22.545934"
     inkscape:window-width="1920"
     inkscape:window-height="1046"
     inkscape:window-x="-11"
     inkscape:window-y="-11"
     inkscape:window-maximized="1"
     inkscape:current-layer="Layer_1" />
  <defs
     id="defs387">
    <style
       id="style385">.cls-1,.cls-2{fill-rule:evenodd;}.cls-2{fill:#ffcb1e;}</style>
  </defs>
  <title
     id="title389">bee</title>
  <path
     class="cls-1"
     d="m 9.2631036,6.0192229 c 0.7556294,0.099146 1.6157474,0.2154284 2.4325394,0.4039277 5.23461,1.2081112 3.248057,5.4824014 0.55175,4.9915684 a 3.0034021,2.8850235 0 0 1 -1.609376,-0.864161 c 0,0.150555 -0.01529,0.299886 -0.03058,0.446769 a 0.18731443,0.17993146 0 0 1 -0.0089,0.08813 6.2705736,6.0234197 0 0 1 -0.8639404,2.531281 c -0.5721365,0.875177 -1.3698162,1.42354 -2.2579663,1.42354 -0.8881506,0 -1.6909268,-0.533675 -2.2643382,-1.397835 A 5.3403725,5.1298829 0 0 1 4.7025714,12.63507 l -0.00765,-0.02203 A 6.9701359,6.6954087 0 0 1 4.3126515,10.505269 3.1537634,3.0294583 0 0 1 2.6561293,11.414719 C 0.08724577,11.932481 -1.973213,7.6422783 3.2142499,6.4231506 A 23.44616,22.522033 0 0 1 5.6582572,6.0167749 L 5.6467907,6.0057604 A 1.1697595,1.1236536 0 0 1 5.4046819,5.6703763 3.5678938,3.4272659 0 0 1 5.1167016,4.3472066 2.1853349,2.0992004 0 0 1 5.8060703,2.8232972 2.3662782,2.2730117 0 0 1 6.7974352,2.2822788 2.4478301,2.3513493 0 0 0 6.5183741,1.4168942 1.0257695,0.98533895 0 0 0 6.0405317,0.99460607 0.60781617,0.58385922 0 1 1 6.2163774,0.58333417 c 0,0.0269286 0,0.052633 0,0.0783375 A 1.4016726,1.3464259 0 0 1 6.8535015,1.2296186 2.7804087,2.6708194 0 0 1 7.1797087,2.2088374 2.5701578,2.4688555 0 0 1 7.4613171,2.1929254 c 0.071359,0 0.1414417,0 0.2102519,0.00857 A 2.7587465,2.650011 0 0 1 8.0105186,1.2051386 1.3812847,1.3268415 0 0 1 8.7049834,0.63229553 c 0,-0.0171364 0,-0.0342728 0,-0.0514089 A 0.60781617,0.58385922 0 1 1 8.8553448,0.9786943 0.99391332,0.9547384 0 0 0 8.3367258,1.4046545 2.3866662,2.2925961 0 0 0 8.0487454,2.2688151 2.3662782,2.2730117 0 0 1 9.1076457,2.8269699 2.180238,2.0943043 0 0 1 9.7970139,4.3508792 3.5232952,3.3844251 0 0 1 9.4657097,5.7438184 1.2742479,1.2240235 0 0 1 9.2631036,6.0228958 Z"
     id="path391"
     style="stroke-width:0.999999" />
  <path
     class="cls-2"
     d="m 4.7867336,12.901171 a 5.4113882,4.7769937 0 0 0 0.4755671,0.83836 c 0.5678,0.7862 1.3445629,1.272169 2.1933789,1.272169 0.8488171,0 1.6169312,-0.501235 2.1847312,-1.298884 A 5.5555004,4.904211 0 0 0 10.097244,12.904988 Q 8.7296265,12.184939 7.4023587,12.184939 a 4.886823,4.3139248 0 0 0 -2.618507,0.716232 z M 9.2541919,8.0860126 C 9.160519,7.8939137 9.0682882,7.7043631 8.9774984,7.5237128 8.7123329,6.9906759 8.4918414,6.5301497 8.2309995,5.9971097 A 3.0609295,2.7020865 0 0 0 7.4009177,5.8826171 3.1704542,2.7987714 0 0 0 6.6472136,5.9513126 C 6.3791654,6.5085227 6.1543538,6.9754095 5.880541,7.5262566 L 5.6081702,8.0809245 A 6.0094522,5.3049452 0 0 1 7.4210924,7.815041 5.4185945,4.7833547 0 0 1 9.2570735,8.0860126 Z M 9.0005552,2.979527 A 2.2625516,1.9973052 0 0 0 7.4340619,2.437583 2.2899328,2.0214762 0 0 0 7.0017278,2.473204 0.17437497,0.15393243 0 0 1 6.9541748,2.482114 v 0 a 2.2423757,1.9794947 0 0 0 -1.0765157,0.499962 2.0362963,1.7975746 0 0 0 -0.6427372,1.3052452 3.555232,3.1384404 0 0 0 0.2882224,1.2098315 0.8949327,0.79001674 0 0 0 0.1786979,0.2328099 0.20607953,0.18192015 0 0 0 0.1441117,0.05979 0.21760845,0.19209748 0 0 0 0.092232,-0.020355 3.4586773,3.0532053 0 0 1 2.9686984,0.047081 0.2233729,0.19718617 0 0 0 0.1052012,0.025443 0.22625516,0.19973052 0 0 0 0.1441112,-0.05852 A 0.92375514,0.81546033 0 0 0 9.3435411,5.5569495 3.4990284,3.0888259 0 0 0 9.6677912,4.2847745 2.0420607,1.8026631 0 0 0 9.0250541,2.9795294 Z M 10.352321,9.976455 C 10.084275,9.6164299 9.6908496,8.6457676 9.3276885,8.5198218 A 5.1015486,4.5034779 0 0 0 7.4239745,8.1966905 5.7644619,5.0886765 0 0 0 5.4856748,8.5210927 C 5.2262739,8.6050581 4.7218834,9.6889451 4.5085985,9.976455 4.2708144,10.29577 4.3169301,10.120211 4.3126067,10.424259 c 0,0.01526 0,0.05725 0,0.127217 0,0.06997 0,0.167926 0,0.254434 0.041793,-0.03562 0.085026,-0.06997 0.1282596,-0.103046 0.837288,-0.632268 1.9858563,-0.8676191 3.1056031,-0.8256392 1.1197463,0.041977 2.2077895,0.3587532 2.9384346,0.8421772 l 0.105201,0.07379 c 0,-0.104318 0.0086,-0.45162 0.0086,-0.55721 0,-0.04961 -0.122496,-0.09414 -0.246432,-0.2544333 z m -5.9921571,1.353588 a 7.3021328,6.4460785 0 0 0 0.2795762,1.198382 5.265836,4.648505 0 0 1 2.7655007,-0.72768 q 1.4094107,0 2.8433212,0.735314 A 7.4938002,6.6152796 0 0 0 10.548314,11.2817 2.5392455,2.2415613 0 0 0 10.222621,11.027267 C 9.5597079,10.58837 8.5581328,10.299585 7.5291758,10.263965 6.5002193,10.228345 5.4712632,10.434435 4.7305302,10.994191 a 2.8044109,2.4756405 0 0 0 -0.3703663,0.335852 z"
     id="path393"
     style="stroke-width:0.999999" />
  <metadata
     id="metadata478">
    <rdf:RDF>
      <cc:Work
         rdf:about="">
        <dc:title>bee</dc:title>
      </cc:Work>
    </rdf:RDF>
  </metadata>
</svg>
