<?xml version="1.0" encoding="UTF-8" standalone="no"?>
<svg
   id="Layer_1"
   data-name="Layer 1"
   viewBox="0 0 30 30.000001"
   version="1.1"
   sodipodi:docname="bee30.svg"
   width="30"
   height="30"
   inkscape:version="1.1.1 (3bf5ae0d25, 2021-09-20)"
   xmlns:inkscape="http://www.inkscape.org/namespaces/inkscape"
   xmlns:sodipodi="http://sodipodi.sourceforge.net/DTD/sodipodi-0.dtd"
   xmlns="http://www.w3.org/2000/svg"
   xmlns:svg="http://www.w3.org/2000/svg"
   xmlns:rdf="http://www.w3.org/1999/02/22-rdf-syntax-ns#"
   xmlns:cc="http://creativecommons.org/ns#"
   xmlns:dc="http://purl.org/dc/elements/1.1/">
  <sodipodi:namedview
     id="namedview396"
     pagecolor="#ffffff"
     bordercolor="#666666"
     borderopacity="1.0"
     inkscape:pageshadow="2"
     inkscape:pageopacity="0.0"
     inkscape:pagecheckerboard="0"
     showgrid="false"
     inkscape:zoom="14.104539"
     inkscape:cx="27.296178"
     inkscape:cy="22.545934"
     inkscape:window-width="1920"
     inkscape:window-height="1046"
     inkscape:window-x="-11"
     inkscape:window-y="-11"
     inkscape:window-maximized="1"
     inkscape:current-layer="Layer_1" />
  <defs
     id="defs387">
    <style
       id="style385">.cls-1,.cls-2{fill-rule:evenodd;}.cls-2{fill:#ffcb1e;}</style>
  </defs>
  <title
     id="title389">bee</title>
  <path
     class="cls-1"
     d="m 18.564107,12.006208 c 1.51435,0.197761 3.238105,0.429703 4.875031,0.805692 10.490638,2.409752 6.509404,10.93544 1.105758,9.956403 A 6.0190926,5.7545953 0 0 1 21.31956,21.044609 c 0,0.300303 -0.03064,0.598166 -0.06129,0.891145 a 0.37539525,0.35889924 0 0 1 -0.01787,0.175787 12.566803,12.014579 0 0 1 -1.731416,5.049004 C 18.36237,28.906211 16.763747,30 14.983813,30 13.203878,30 11.595041,28.93551 10.445872,27.211817 A 10.702595,10.232291 0 0 1 9.4243832,25.202469 l -0.015322,-0.04394 A 13.96879,13.354958 0 0 1 8.6429481,20.954274 6.3204303,6.0426913 0 0 1 5.3231261,22.768303 C 0.1748485,23.801053 -3.9544993,15.243626 6.4416509,12.8119 a 46.988249,44.923443 0 0 1 4.8980141,-0.810575 l -0.02298,-0.02197 A 2.3443051,2.2412891 0 0 1 10.831477,11.310383 7.1503856,6.836176 0 0 1 10.254338,8.6711303 4.3796111,4.1871578 0 0 1 11.635896,5.6314734 4.7422379,4.5338496 0 0 1 13.622682,4.5523342 4.9056754,4.6901051 0 0 0 13.063418,2.8261997 2.0557359,1.9654006 0 0 0 12.105778,1.9838852 1.2181192,1.1645914 0 1 1 12.458189,1.1635441 c 0,0.053713 0,0.1049841 0,0.1562555 a 2.8090801,2.6856406 0 0 1 1.276855,1.1328519 5.5721934,5.3273343 0 0 1 0.653749,1.9531932 5.1508314,4.9244882 0 0 1 0.564369,-0.031739 c 0.143009,0 0.283462,0 0.421364,0.017091 a 5.5287804,5.285829 0 0 1 0.679286,-1.987374 2.7682209,2.6465767 0 0 1 1.391771,-1.1426181 c 0,-0.034181 0,-0.068362 0,-0.1025424 a 1.2181192,1.1645914 0 1 1 0.301338,0.7934847 1.9918932,1.9043634 0 0 0 -1.03936,0.8496391 4.7830973,4.5729135 0 0 0 -0.577139,1.7236929 4.7422379,4.5338496 0 0 1 2.122133,1.1133201 4.3693964,4.1773919 0 0 1 1.381557,3.0396568 7.0610058,6.7507238 0 0 1 -0.663964,2.7784182 2.5537093,2.4414914 0 0 1 -0.406041,0.55666 z"
     id="path391"
     style="stroke-width:1" />
  <path
     class="cls-2"
     d="m 9.5930519,25.733246 a 10.844917,9.5284027 0 0 0 0.9530801,1.67223 c 1.137923,1.568189 2.694627,2.537524 4.395732,2.537524 1.701107,0 3.240478,-0.999785 4.378401,-2.590811 A 11.133731,9.7821559 0 0 0 20.2358,25.740859 Q 17.49497,24.304618 14.835004,24.304618 A 9.7936403,8.6047449 0 0 0 9.5872764,25.733246 Z M 18.546247,16.128718 C 18.358518,15.745549 18.173679,15.367463 17.991728,15.00713 17.460312,13.943911 17.018427,13.025325 16.495676,11.9621 a 6.1343827,5.3897011 0 0 0 -1.66356,-0.228372 6.3538803,5.582553 0 0 0 -1.510492,0.137023 c -0.537193,1.111436 -0.987736,2.042709 -1.536482,3.141453 l -0.545856,1.106365 a 12.043492,10.581478 0 0 1 3.633262,-0.530343 10.859359,9.5410906 0 0 1 3.679474,0.540492 z M 18.037936,5.9430962 a 4.5343604,3.9839131 0 0 0 -3.139396,-1.0809855 4.5892347,4.0321258 0 0 0 -0.866437,0.071051 0.3494634,0.30704042 0 0 1 -0.0953,0.017763 v 0 a 4.4939261,3.9483875 0 0 0 -2.157436,0.9972463 4.080924,3.5855217 0 0 0 -1.288104,2.6034998 7.1250102,6.2600719 0 0 0 0.577624,2.4131832 1.793527,1.5758023 0 0 0 0.358127,0.464373 0.41300223,0.36286597 0 0 0 0.288813,0.119259 0.43610724,0.38316613 0 0 0 0.184841,-0.0406 6.9315057,6.0900581 0 0 1 5.949543,0.09391 0.44765972,0.39331624 0 0 0 0.210833,0.05075 0.45343604,0.39839131 0 0 0 0.288812,-0.116726 1.8512898,1.6265532 0 0 0 0.375455,-0.451683 7.012373,6.1611086 0 0 0 0.649827,-2.5375364 4.0924764,3.5956715 0 0 0 -1.288104,-2.6034997 z m 2.709063,13.9563818 c -0.53719,-0.718122 -1.32565,-2.654248 -2.053458,-2.905465 a 10.22397,8.9828359 0 0 0 -3.815217,-0.644532 11.552509,10.150099 0 0 0 -3.88453,0.647067 c -0.519863,0.167481 -1.5307077,2.32945 -1.9581501,2.90293 -0.4765411,0.63692 -0.384121,0.286741 -0.3927855,0.89321 0,0.03044 0,0.114188 0,0.253753 0,0.139563 0,0.334952 0,0.507504 0.083758,-0.07104 0.1703996,-0.139563 0.2570439,-0.20554 1.6780017,-1.26115 3.9798377,-1.730591 6.2239127,-1.646856 2.244074,0.08373 4.424612,0.715584 5.888892,1.679844 l 0.210833,0.147176 c 0,-0.208077 0.01733,-0.900821 0.01733,-1.111436 0,-0.09896 -0.245493,-0.187776 -0.493871,-0.507503 z M 8.7381673,22.599405 a 14.634142,12.857633 0 0 0 0.5602963,2.390346 10.553217,9.2721135 0 0 1 5.5423164,-1.451464 q 2.824588,0 5.698275,1.46669 a 15.018261,13.195129 0 0 0 0.600731,-2.502 5.0888803,4.4711172 0 0 0 -0.652718,-0.507503 c -1.328539,-0.875444 -3.335787,-1.451466 -5.397911,-1.522515 -2.062123,-0.07105 -4.124245,0.340027 -5.6087417,1.45654 a 5.6202959,4.9380219 0 0 0 -0.742248,0.669906 z"
     id="path393"
     style="stroke-width:1" />
  <metadata
     id="metadata478">
    <rdf:RDF>
      <cc:Work
         rdf:about="">
        <dc:title>bee</dc:title>
      </cc:Work>
    </rdf:RDF>
  </metadata>
</svg>
