<?xml version="1.0" encoding="UTF-8" standalone="no"?>
<svg
   version="1.1"
   id="Layer_1"
   x="0px"
   y="0px"
   viewBox="0 0 15.000001 15"
   xml:space="preserve"
   sodipodi:docname="fertilizer15.svg"
   width="15"
   height="15"
   inkscape:version="1.1.1 (3bf5ae0d25, 2021-09-20)"
   xmlns:inkscape="http://www.inkscape.org/namespaces/inkscape"
   xmlns:sodipodi="http://sodipodi.sourceforge.net/DTD/sodipodi-0.dtd"
   xmlns="http://www.w3.org/2000/svg"
   xmlns:svg="http://www.w3.org/2000/svg"><defs
     id="defs135" /><sodipodi:namedview
     id="namedview133"
     pagecolor="#ffffff"
     bordercolor="#666666"
     borderopacity="1.0"
     inkscape:pageshadow="2"
     inkscape:pageopacity="0.0"
     inkscape:pagecheckerboard="0"
     showgrid="false"
     inkscape:zoom="6.613735"
     inkscape:cx="61.538601"
     inkscape:cy="61.085"
     inkscape:window-width="1920"
     inkscape:window-height="1046"
     inkscape:window-x="-11"
     inkscape:window-y="-11"
     inkscape:window-maximized="1"
     inkscape:current-layer="Layer_1" /><g
     id="g130"
     style="display:inline;stroke-width:8.16874"
     transform="matrix(0.1220593,0,0,0.12277782,0.00224251,-0.00155488)"><path
       d="m 34.77,20.04 c -0.2,0.69 -0.78,1.22 -1.53,1.33 -2.46,2.16 -4.85,4.38 -7.13,6.75 10.45,2.77 20.87,4.56 31.25,5.28 8.02,0.56 16.03,0.48 24.02,-0.26 3.68,-0.43 7.52,-0.99 11.6,-1.71 0.28,-0.05 0.54,-0.1 0.79,-0.15 0.07,-0.14 0.09,-0.34 0.05,-0.63 -0.29,-1.95 -1.78,-3.37 -3.32,-4.8 l -0.11,-0.09 -0.48,-0.45 v 0 0 C 89.26,24.7 88.59,24.08 87.9,23.46 L 87.66,23.42 C 86.83,23.3 86.21,22.64 86.1,21.85 L 85.4,21.24 C 83.87,19.91 82.28,18.58 80.63,17.26 L 79.8,16.59 C 75.06,12.78 64.31,4.1 60.19,3.75 54.84,3.29 49.43,7.81 44.26,12.14 c -0.36,0.3 -0.65,0.54 -1.73,1.43 l -1.2,0.99 c -2.22,1.83 -4.42,3.64 -6.56,5.48 z m 65.42,68.44 c -0.11,-1.02 0.62,-1.93 1.64,-2.05 1.02,-0.11 1.93,0.62 2.05,1.64 0.25,2.2 0.53,5.58 0.51,8.6 -0.01,2.24 -0.2,4.31 -0.69,5.64 -0.35,0.96 -1.42,1.46 -2.38,1.1 -0.96,-0.35 -1.46,-1.42 -1.1,-2.38 0.34,-0.91 0.46,-2.54 0.48,-4.38 0,-2.8 -0.28,-6.04 -0.51,-8.17 z M 17.23,91.8 c 0.11,-1.02 1.03,-1.75 2.05,-1.64 1.02,0.11 1.75,1.03 1.64,2.05 -0.19,1.72 -0.24,3.34 -0.12,4.85 0.11,1.45 0.38,2.79 0.83,3.99 0.35,0.96 -0.14,2.03 -1.1,2.38 -0.96,0.35 -2.03,-0.14 -2.38,-1.1 -0.56,-1.53 -0.9,-3.2 -1.04,-4.98 -0.15,-1.74 -0.1,-3.6 0.12,-5.55 z m 87.84,-34.39 c -5.07,1.18 -9.9,2.22 -14.54,3.1 -3.34,0.88 -6.73,1.59 -10.16,2.16 -3.74,0.61 -7.51,1.03 -11.29,1.26 -4.29,0.26 -8.7,0.27 -13.14,0.04 -13.62,-0.24 -26.16,-2.8 -39.36,-8.18 -1.75,5.31 -3.17,11.17 -4.11,17.68 -1.06,7.31 -1.52,15.43 -1.21,24.5 0.04,1.17 0.15,2.06 0.24,2.73 0.46,3.63 0.5,3.93 -4.1,5.17 -1.67,0.45 -2.9,1.09 -3.4,2.18 -0.5,1.1 -0.45,2.76 0.36,5.25 1.68,0.12 3.57,0 5.49,-0.13 2.6,-0.17 5.25,-0.34 7.81,0.02 3.53,0.5 7.34,1.13 11.29,1.78 4.9,0.81 10.03,1.66 15.1,2.34 10.34,1.38 19.76,1.44 29.4,0.6 9.72,-0.85 19.63,-2.62 30.91,-4.92 0.13,-0.03 0.26,-0.04 0.38,-0.04 l 14.05,0.19 c 0.42,-1.9 0.49,-3.34 0.16,-4.43 -0.35,-1.15 -1.27,-2 -2.84,-2.71 l -0.22,-0.1 c -2.82,-1.29 -3.95,-1.8 -4.55,-3.23 -0.39,-0.92 -0.33,-1.74 -0.23,-3.1 0.07,-0.97 0.18,-2.3 0.13,-4.1 -0.19,-7.46 -0.97,-15.85 -2.28,-23.31 l -0.01,-0.06 c -0.98,-5.82 -2.3,-11.02 -3.88,-14.69 z m -48.05,2.87 c 9.99,0.09 20.64,-1.11 32.65,-3.38 0.29,-0.08 0.58,-0.15 0.87,-0.23 l 0.19,-0.04 15.56,-3.81 c 1.59,-0.47 2.69,-1.38 3.4,-2.62 0.79,-1.39 1.16,-3.25 1.2,-5.45 0.04,-2.44 -0.67,-6.27 -1.87,-9.85 -1,-2.96 -2.3,-5.68 -3.75,-7.13 -0.11,-0.11 -0.23,-0.22 -0.35,-0.32 -1.77,0.99 -2.52,2.02 -3.22,2.97 -1.16,1.59 -2.21,3.02 -5.33,4.01 -0.69,0.48 -1.65,0.7 -2.75,0.86 l -0.72,0.1 c -0.37,0.05 -0.76,0.1 -0.98,0.13 -3.31,0.54 -6.62,0.97 -9.93,1.28 -1.93,0.23 -3.83,0.42 -5.68,0.57 -5.38,0.44 -10.51,0.56 -15.65,0.37 -5.93,-0.21 -14.15,-1 -21.92,-2.37 -6.21,-1.1 -12.19,-2.58 -16.62,-4.48 -2.01,-0.86 -3.57,-1.79 -4.66,-2.78 -0.3,-0.28 -0.58,-0.56 -0.81,-0.85 -1.95,3.02 -4.58,7.81 -5.93,12.35 -0.9,3.01 -1.23,5.84 -0.38,7.78 0.67,1.53 3.06,2.98 5.96,4.26 0.55,0.23 1.1,0.46 1.64,0.68 3.7,1.46 7.83,2.63 10.22,3.3 l 0.47,0.13 c 6.4,1.81 13.22,3.13 20.1,3.9 2.52,0.28 5.05,0.48 7.57,0.61 z m 51.45,-4.32 c 1.7,3.97 3.1,9.45 4.16,15.5 l 0.01,0.07 c 1.33,7.6 2.13,16.19 2.32,23.87 0.05,2.07 -0.05,3.45 -0.13,4.46 -0.06,0.8 -0.1,1.29 -0.06,1.37 0.05,0.11 0.8,0.45 2.68,1.31 l 0.22,0.1 c 2.59,1.18 4.15,2.75 4.84,5.01 0.63,2.07 0.42,4.59 -0.48,7.87 -0.22,0.79 -0.95,1.37 -1.81,1.36 l -15.32,-0.21 c -11.39,2.31 -21.38,4.1 -31.12,4.95 -9.87,0.87 -19.54,0.79 -30.2,-0.63 -5.21,-0.69 -10.33,-1.54 -15.22,-2.35 -3.9,-0.65 -7.66,-1.27 -11.21,-1.77 -2.18,-0.31 -4.65,-0.15 -7.07,0.01 -2.55,0.17 -5.05,0.33 -7.35,-0.02 v 0 c -0.65,-0.1 -1.22,-0.53 -1.47,-1.19 -1.54,-4.11 -1.61,-7.02 -0.63,-9.15 1.04,-2.29 3.12,-3.51 5.8,-4.23 1.48,-0.4 1.47,-0.45 1.38,-1.12 C 7.71,100.41 7.59,99.42 7.54,98.09 7.22,88.77 7.7,80.44 8.78,72.95 9.78,66.04 11.3,59.83 13.18,54.2 10.23,52.7 7.8,50.92 6.9,48.89 5.64,46.03 5.99,42.32 7.12,38.55 8.63,33.48 11.56,28.2 13.66,25 c 1.09,-1.67 2.39,-3.17 4.06,-4.32 1.69,-1.16 3.7,-1.92 6.17,-2.05 1.39,-0.18 2.91,-0.35 4.42,-0.5 1.07,-0.11 2.23,-0.22 3.37,-0.32 2.37,-2.05 4.8,-4.06 7.27,-6.09 l 1.2,-0.99 1.7,-1.42 C 47.6,4.5 53.61,-0.53 60.48,0.06 65.72,0.51 77.09,9.68 82.09,13.72 l 0.83,0.67 c 1.65,1.33 3.28,2.69 4.87,4.07 0.57,0.49 1.14,1 1.71,1.51 2.96,0.46 6.24,0.96 9.21,1.54 v 0 l 1.04,0.2 c 2.17,0.42 4.09,0.8 5.84,1.75 0.38,0.09 0.73,0.31 0.99,0.62 0.44,0.31 0.87,0.68 1.29,1.1 1.87,1.88 3.47,5.12 4.63,8.56 1.32,3.95 2.11,8.26 2.06,11.08 -0.05,2.81 -0.56,5.26 -1.67,7.22 -0.98,1.74 -2.43,3.08 -4.42,3.92 z M 19.12,24.27 c 0.12,0.34 0.4,0.71 0.82,1.1 0.55,0.5 1.31,1 2.26,1.49 1.58,-1.7 3.2,-3.32 4.86,-4.88 -0.96,0.1 -1.89,0.21 -2.75,0.33 l -0.14,0.01 c -1.77,0.09 -3.17,0.61 -4.33,1.41 -0.25,0.16 -0.49,0.34 -0.72,0.54 z m 78.3,5.46 c 0.54,-0.46 0.91,-0.96 1.29,-1.49 0.59,-0.81 1.22,-1.67 2.21,-2.53 -0.59,-0.13 -1.2,-0.25 -1.84,-0.38 l -1.03,-0.21 v 0 c -1.15,-0.22 -2.38,-0.44 -3.63,-0.65 1.38,1.43 2.57,3 3,5.26 z M 77.39,29.11 c 0.51,0 0.92,0.41 0.92,0.92 0,0.51 -0.41,0.92 -0.92,0.92 -0.51,0 -0.92,-0.41 -0.92,-0.92 0,-0.51 0.41,-0.92 0.92,-0.92 z M 55,11.13 c 0.48,0 0.87,0.39 0.87,0.87 0,0.48 -0.39,0.87 -0.87,0.87 -0.48,0 -0.87,-0.39 -0.87,-0.87 0,-0.48 0.39,-0.87 0.87,-0.87 z m 10.75,9.02 c 0.48,0 0.87,0.39 0.87,0.87 0,0.48 -0.39,0.87 -0.87,0.87 -0.48,0 -0.87,-0.39 -0.87,-0.87 0,-0.48 0.39,-0.87 0.87,-0.87 z m -8.99,5.09 c 0.7,0 1.27,0.57 1.27,1.27 0,0.7 -0.57,1.27 -1.27,1.27 -0.7,0 -1.26,-0.58 -1.26,-1.28 0,-0.7 0.56,-1.26 1.26,-1.26 z M 56.3,17.03 c 0.48,0 0.87,0.39 0.87,0.87 0,0.48 -0.39,0.87 -0.87,0.87 -0.48,0 -0.87,-0.39 -0.87,-0.87 0,-0.48 0.39,-0.87 0.87,-0.87 z m -6.67,3.04 c 0.7,0 1.27,0.57 1.27,1.27 0,0.7 -0.57,1.27 -1.27,1.27 -0.7,0 -1.27,-0.57 -1.27,-1.27 0,-0.7 0.57,-1.27 1.27,-1.27 z M 34.4,26.33 c 0.37,0 0.68,0.3 0.68,0.68 0,0.37 -0.3,0.68 -0.68,0.68 -0.37,0 -0.68,-0.3 -0.68,-0.68 0,-0.37 0.31,-0.68 0.68,-0.68 z m 5.43,-0.84 c 0.7,0 1.27,0.57 1.27,1.27 0,0.7 -0.57,1.27 -1.27,1.27 -0.7,0 -1.27,-0.57 -1.27,-1.27 0.01,-0.7 0.57,-1.27 1.27,-1.27 z m 6.87,2.52 c 0.48,0 0.87,0.39 0.87,0.87 0,0.48 -0.39,0.87 -0.87,0.87 -0.48,0 -0.87,-0.39 -0.87,-0.87 0,-0.48 0.39,-0.87 0.87,-0.87 z m -4.15,-8.77 c 0.54,0 0.98,0.44 0.98,0.98 0,0.54 -0.44,0.98 -0.98,0.98 -0.54,0 -0.98,-0.44 -0.98,-0.98 -0.01,-0.54 0.43,-0.98 0.98,-0.98 z m 21.28,-8.46 c 0.42,0 0.76,0.34 0.76,0.76 0,0.42 -0.34,0.76 -0.76,0.76 -0.42,0 -0.76,-0.34 -0.76,-0.76 0,-0.42 0.34,-0.76 0.76,-0.76 z m 1.82,17.85 c 0.37,0 0.68,0.3 0.68,0.68 0,0.37 -0.3,0.68 -0.68,0.68 -0.37,0 -0.68,-0.3 -0.68,-0.68 0,-0.38 0.3,-0.68 0.68,-0.68 z M 77.59,18.09 c 0.37,0 0.68,0.3 0.68,0.68 0,0.38 -0.3,0.68 -0.68,0.68 -0.38,0 -0.68,-0.3 -0.68,-0.68 0,-0.38 0.31,-0.68 0.68,-0.68 z m -6.76,6.37 c 0.58,0 1.04,0.47 1.04,1.04 0,0.58 -0.47,1.04 -1.04,1.04 -0.58,0 -1.04,-0.47 -1.04,-1.04 -0.01,-0.58 0.46,-1.04 1.04,-1.04 z m 5.33,-1.13 c 0.61,0 1.11,0.49 1.11,1.11 0,0.61 -0.49,1.11 -1.11,1.11 -0.61,0 -1.11,-0.49 -1.11,-1.11 0.01,-0.61 0.5,-1.11 1.11,-1.11 z m 6.73,3.29 c 0.46,0 0.83,0.37 0.83,0.83 0,0.46 -0.37,0.83 -0.83,0.83 -0.46,0 -0.83,-0.37 -0.83,-0.83 0,-0.45 0.37,-0.83 0.83,-0.83 z m -1.22,-4.94 c 0.51,0 0.92,0.41 0.92,0.92 0,0.51 -0.41,0.92 -0.92,0.92 -0.51,0 -0.92,-0.41 -0.92,-0.92 0,-0.51 0.41,-0.92 0.92,-0.92 z"
       id="path128"
       style="stroke-width:8.16874" /></g><path
     style="fill:#d4aa00;fill-rule:evenodd;stroke-width:0.999997"
     d="m 6.8399784,14.523065 c -0.953228,-0.05223 -1.392492,-0.107777 -3.2850663,-0.415387 -1.6163006,-0.262706 -1.4970184,-0.24912 -2.0300969,-0.231219 -0.2486869,0.0084 -0.57257957,0.01563 -0.71976162,0.01619 l -0.26760369,10e-4 -0.033491,-0.129948 c -0.0432471,-0.167805 -0.0473197,-0.386598 -0.008848,-0.475365 0.0619313,-0.142898 0.16706915,-0.207583 0.49676719,-0.305632 0.40508452,-0.12047 0.43143252,-0.144032 0.43143252,-0.385811 0,-0.09339 -0.011549,-0.294527 -0.025665,-0.446964 -0.028988,-0.31305 -0.019122,-1.550977 0.015917,-1.99694 0.075094,-0.955787 0.201448,-1.75747 0.39646,-2.515431 0.073763,-0.2866965 0.2084333,-0.7533485 0.2210786,-0.7660685 0.00283,-0.00285 0.1163732,0.03789 0.252334,0.090508 1.1648391,0.4508065 2.3532281,0.7348655 3.5230401,0.8421085 0.7370535,0.067569 2.1236109,0.092785 2.6944924,0.049 0.844531,-0.064777 1.6421103,-0.187044 2.3010273,-0.352748 0.119976,-0.03017 0.446524,-0.101585 0.725663,-0.1586965 0.279138,-0.057111 0.683678,-0.143843 0.898977,-0.1927365 l 0.391455,-0.088897 0.0358,0.084557 c 0.417563,0.986323 0.762738,3.50769 0.704112,5.143267 -0.0084,0.234608 -0.0062,0.256249 0.03395,0.338817 0.06038,0.124025 0.138764,0.182272 0.45487,0.337994 0.327027,0.161101 0.418568,0.239724 0.464616,0.399053 0.02888,0.09993 0.02697,0.306193 -0.0043,0.458068 l -0.01194,0.05809 -0.879386,-0.0094 -0.879386,-0.0094 -0.378336,0.07616 c -1.506051,0.303157 -2.6055297,0.46814 -3.6726302,0.551099 -0.3512281,0.02731 -1.564336,0.05012 -1.8455425,0.03472 z M 2.5750252,12.667052 c 0.095084,-0.08048 0.1064709,-0.160018 0.050585,-0.353355 -0.070521,-0.243969 -0.090927,-0.454608 -0.076457,-0.789248 0.014041,-0.324742 0.00104,-0.380604 -0.1009623,-0.43366 -0.1161186,-0.0604 -0.2529169,-0.02603 -0.3179936,0.07988 -0.03574,0.05817 -0.040477,0.09769 -0.048024,0.400643 -0.014832,0.595411 0.079073,1.039502 0.2367796,1.119773 0.079057,0.04024 0.1927456,0.02957 0.2560726,-0.02403 z m 10.0064758,0.0056 c 0.132295,-0.08904 0.173458,-0.360078 0.15852,-1.043792 -0.0109,-0.499065 -0.03751,-0.820363 -0.07449,-0.899665 -0.02891,-0.06199 -0.13464,-0.130641 -0.201201,-0.130641 -0.08322,0 -0.171579,0.05082 -0.208603,0.119973 -0.03157,0.05896 -0.03195,0.0812 -0.007,0.412073 0.03719,0.493301 0.03405,1.057574 -0.0067,1.209835 -0.04121,0.153845 -0.03979,0.18946 0.0106,0.264664 0.07771,0.116 0.215031,0.144202 0.328914,0.06755 z"
     id="path408" /><path
     style="fill:#d4aa00;fill-rule:evenodd;stroke-width:0.999997"
     d="M 6.5908299,7.3739265 C 5.4727614,7.297291 4.2424363,7.0640515 3.0473879,6.702176 2.0077722,6.3873675 1.4209735,6.095869 1.2842682,5.826327 1.2223824,5.7043065 1.2019603,5.5319075 1.2255095,5.3303 1.268959,4.9583216 1.3858378,4.60549 1.6357668,4.0918217 1.7907075,3.7733788 2.0120016,3.3771052 2.0348917,3.3771052 c 0.0059,0 0.056237,0.041838 0.1118591,0.092972 0.534639,0.4915062 2.3096525,0.9370627 4.4717621,1.1224833 1.3404579,0.1149563 2.7707799,0.050022 4.4784041,-0.203314 0.46534,-0.069036 0.521984,-0.08235 0.737106,-0.1732519 0.280245,-0.1184205 0.381029,-0.1976922 0.569338,-0.4478113 0.132482,-0.1759676 0.237368,-0.2808454 0.357181,-0.3571525 l 0.05411,-0.034462 0.06793,0.083381 c 0.220625,0.2708296 0.43307,0.7814738 0.552503,1.3280245 0.07508,0.3435597 0.09161,0.5026822 0.08082,0.7775792 -0.0099,0.2522 -0.04603,0.423878 -0.119374,0.5672385 -0.05267,0.1029525 -0.205013,0.2453545 -0.314511,0.2939875 -0.09081,0.040335 -1.967429,0.515001 -2.255666,0.5705425 -0.9293587,0.1790825 -2.0429497,0.3203425 -2.9226182,0.3707375 -0.302848,0.01735 -1.0938069,0.020885 -1.3129019,0.00587 z"
     id="path447" /></svg>
