<?xml version="1.0" encoding="UTF-8" standalone="no"?>
<svg
   version="1.1"
   id="Layer_1"
   x="0px"
   y="0px"
   viewBox="0 0 30.000001 30"
   xml:space="preserve"
   sodipodi:docname="fertilizer30.svg"
   width="30"
   height="30"
   inkscape:version="1.1.1 (3bf5ae0d25, 2021-09-20)"
   xmlns:inkscape="http://www.inkscape.org/namespaces/inkscape"
   xmlns:sodipodi="http://sodipodi.sourceforge.net/DTD/sodipodi-0.dtd"
   xmlns="http://www.w3.org/2000/svg"
   xmlns:svg="http://www.w3.org/2000/svg"><defs
     id="defs135" /><sodipodi:namedview
     id="namedview133"
     pagecolor="#ffffff"
     bordercolor="#666666"
     borderopacity="1.0"
     inkscape:pageshadow="2"
     inkscape:pageopacity="0.0"
     inkscape:pagecheckerboard="0"
     showgrid="false"
     inkscape:zoom="6.613735"
     inkscape:cx="61.538601"
     inkscape:cy="61.085"
     inkscape:window-width="1920"
     inkscape:window-height="1046"
     inkscape:window-x="-11"
     inkscape:window-y="-11"
     inkscape:window-maximized="1"
     inkscape:current-layer="Layer_1" /><g
     id="g130"
     style="display:inline;stroke-width:4.08437"
     transform="matrix(0.24411861,0,0,0.24555563,0.00448502,-0.00310976)"><path
       d="m 34.77,20.04 c -0.2,0.69 -0.78,1.22 -1.53,1.33 -2.46,2.16 -4.85,4.38 -7.13,6.75 10.45,2.77 20.87,4.56 31.25,5.28 8.02,0.56 16.03,0.48 24.02,-0.26 3.68,-0.43 7.52,-0.99 11.6,-1.71 0.28,-0.05 0.54,-0.1 0.79,-0.15 0.07,-0.14 0.09,-0.34 0.05,-0.63 -0.29,-1.95 -1.78,-3.37 -3.32,-4.8 l -0.11,-0.09 -0.48,-0.45 v 0 0 C 89.26,24.7 88.59,24.08 87.9,23.46 L 87.66,23.42 C 86.83,23.3 86.21,22.64 86.1,21.85 L 85.4,21.24 C 83.87,19.91 82.28,18.58 80.63,17.26 L 79.8,16.59 C 75.06,12.78 64.31,4.1 60.19,3.75 54.84,3.29 49.43,7.81 44.26,12.14 c -0.36,0.3 -0.65,0.54 -1.73,1.43 l -1.2,0.99 c -2.22,1.83 -4.42,3.64 -6.56,5.48 z m 65.42,68.44 c -0.11,-1.02 0.62,-1.93 1.64,-2.05 1.02,-0.11 1.93,0.62 2.05,1.64 0.25,2.2 0.53,5.58 0.51,8.6 -0.01,2.24 -0.2,4.31 -0.69,5.64 -0.35,0.96 -1.42,1.46 -2.38,1.1 -0.96,-0.35 -1.46,-1.42 -1.1,-2.38 0.34,-0.91 0.46,-2.54 0.48,-4.38 0,-2.8 -0.28,-6.04 -0.51,-8.17 z M 17.23,91.8 c 0.11,-1.02 1.03,-1.75 2.05,-1.64 1.02,0.11 1.75,1.03 1.64,2.05 -0.19,1.72 -0.24,3.34 -0.12,4.85 0.11,1.45 0.38,2.79 0.83,3.99 0.35,0.96 -0.14,2.03 -1.1,2.38 -0.96,0.35 -2.03,-0.14 -2.38,-1.1 -0.56,-1.53 -0.9,-3.2 -1.04,-4.98 -0.15,-1.74 -0.1,-3.6 0.12,-5.55 z m 87.84,-34.39 c -5.07,1.18 -9.9,2.22 -14.54,3.1 -3.34,0.88 -6.73,1.59 -10.16,2.16 -3.74,0.61 -7.51,1.03 -11.29,1.26 -4.29,0.26 -8.7,0.27 -13.14,0.04 -13.62,-0.24 -26.16,-2.8 -39.36,-8.18 -1.75,5.31 -3.17,11.17 -4.11,17.68 -1.06,7.31 -1.52,15.43 -1.21,24.5 0.04,1.17 0.15,2.06 0.24,2.73 0.46,3.63 0.5,3.93 -4.1,5.17 -1.67,0.45 -2.9,1.09 -3.4,2.18 -0.5,1.1 -0.45,2.76 0.36,5.25 1.68,0.12 3.57,0 5.49,-0.13 2.6,-0.17 5.25,-0.34 7.81,0.02 3.53,0.5 7.34,1.13 11.29,1.78 4.9,0.81 10.03,1.66 15.1,2.34 10.34,1.38 19.76,1.44 29.4,0.6 9.72,-0.85 19.63,-2.62 30.91,-4.92 0.13,-0.03 0.26,-0.04 0.38,-0.04 l 14.05,0.19 c 0.42,-1.9 0.49,-3.34 0.16,-4.43 -0.35,-1.15 -1.27,-2 -2.84,-2.71 l -0.22,-0.1 c -2.82,-1.29 -3.95,-1.8 -4.55,-3.23 -0.39,-0.92 -0.33,-1.74 -0.23,-3.1 0.07,-0.97 0.18,-2.3 0.13,-4.1 -0.19,-7.46 -0.97,-15.85 -2.28,-23.31 l -0.01,-0.06 c -0.98,-5.82 -2.3,-11.02 -3.88,-14.69 z m -48.05,2.87 c 9.99,0.09 20.64,-1.11 32.65,-3.38 0.29,-0.08 0.58,-0.15 0.87,-0.23 l 0.19,-0.04 15.56,-3.81 c 1.59,-0.47 2.69,-1.38 3.4,-2.62 0.79,-1.39 1.16,-3.25 1.2,-5.45 0.04,-2.44 -0.67,-6.27 -1.87,-9.85 -1,-2.96 -2.3,-5.68 -3.75,-7.13 -0.11,-0.11 -0.23,-0.22 -0.35,-0.32 -1.77,0.99 -2.52,2.02 -3.22,2.97 -1.16,1.59 -2.21,3.02 -5.33,4.01 -0.69,0.48 -1.65,0.7 -2.75,0.86 l -0.72,0.1 c -0.37,0.05 -0.76,0.1 -0.98,0.13 -3.31,0.54 -6.62,0.97 -9.93,1.28 -1.93,0.23 -3.83,0.42 -5.68,0.57 -5.38,0.44 -10.51,0.56 -15.65,0.37 -5.93,-0.21 -14.15,-1 -21.92,-2.37 -6.21,-1.1 -12.19,-2.58 -16.62,-4.48 -2.01,-0.86 -3.57,-1.79 -4.66,-2.78 -0.3,-0.28 -0.58,-0.56 -0.81,-0.85 -1.95,3.02 -4.58,7.81 -5.93,12.35 -0.9,3.01 -1.23,5.84 -0.38,7.78 0.67,1.53 3.06,2.98 5.96,4.26 0.55,0.23 1.1,0.46 1.64,0.68 3.7,1.46 7.83,2.63 10.22,3.3 l 0.47,0.13 c 6.4,1.81 13.22,3.13 20.1,3.9 2.52,0.28 5.05,0.48 7.57,0.61 z m 51.45,-4.32 c 1.7,3.97 3.1,9.45 4.16,15.5 l 0.01,0.07 c 1.33,7.6 2.13,16.19 2.32,23.87 0.05,2.07 -0.05,3.45 -0.13,4.46 -0.06,0.8 -0.1,1.29 -0.06,1.37 0.05,0.11 0.8,0.45 2.68,1.31 l 0.22,0.1 c 2.59,1.18 4.15,2.75 4.84,5.01 0.63,2.07 0.42,4.59 -0.48,7.87 -0.22,0.79 -0.95,1.37 -1.81,1.36 l -15.32,-0.21 c -11.39,2.31 -21.38,4.1 -31.12,4.95 -9.87,0.87 -19.54,0.79 -30.2,-0.63 -5.21,-0.69 -10.33,-1.54 -15.22,-2.35 -3.9,-0.65 -7.66,-1.27 -11.21,-1.77 -2.18,-0.31 -4.65,-0.15 -7.07,0.01 -2.55,0.17 -5.05,0.33 -7.35,-0.02 v 0 c -0.65,-0.1 -1.22,-0.53 -1.47,-1.19 -1.54,-4.11 -1.61,-7.02 -0.63,-9.15 1.04,-2.29 3.12,-3.51 5.8,-4.23 1.48,-0.4 1.47,-0.45 1.38,-1.12 C 7.71,100.41 7.59,99.42 7.54,98.09 7.22,88.77 7.7,80.44 8.78,72.95 9.78,66.04 11.3,59.83 13.18,54.2 10.23,52.7 7.8,50.92 6.9,48.89 5.64,46.03 5.99,42.32 7.12,38.55 8.63,33.48 11.56,28.2 13.66,25 c 1.09,-1.67 2.39,-3.17 4.06,-4.32 1.69,-1.16 3.7,-1.92 6.17,-2.05 1.39,-0.18 2.91,-0.35 4.42,-0.5 1.07,-0.11 2.23,-0.22 3.37,-0.32 2.37,-2.05 4.8,-4.06 7.27,-6.09 l 1.2,-0.99 1.7,-1.42 C 47.6,4.5 53.61,-0.53 60.48,0.06 65.72,0.51 77.09,9.68 82.09,13.72 l 0.83,0.67 c 1.65,1.33 3.28,2.69 4.87,4.07 0.57,0.49 1.14,1 1.71,1.51 2.96,0.46 6.24,0.96 9.21,1.54 v 0 l 1.04,0.2 c 2.17,0.42 4.09,0.8 5.84,1.75 0.38,0.09 0.73,0.31 0.99,0.62 0.44,0.31 0.87,0.68 1.29,1.1 1.87,1.88 3.47,5.12 4.63,8.56 1.32,3.95 2.11,8.26 2.06,11.08 -0.05,2.81 -0.56,5.26 -1.67,7.22 -0.98,1.74 -2.43,3.08 -4.42,3.92 z M 19.12,24.27 c 0.12,0.34 0.4,0.71 0.82,1.1 0.55,0.5 1.31,1 2.26,1.49 1.58,-1.7 3.2,-3.32 4.86,-4.88 -0.96,0.1 -1.89,0.21 -2.75,0.33 l -0.14,0.01 c -1.77,0.09 -3.17,0.61 -4.33,1.41 -0.25,0.16 -0.49,0.34 -0.72,0.54 z m 78.3,5.46 c 0.54,-0.46 0.91,-0.96 1.29,-1.49 0.59,-0.81 1.22,-1.67 2.21,-2.53 -0.59,-0.13 -1.2,-0.25 -1.84,-0.38 l -1.03,-0.21 v 0 c -1.15,-0.22 -2.38,-0.44 -3.63,-0.65 1.38,1.43 2.57,3 3,5.26 z M 77.39,29.11 c 0.51,0 0.92,0.41 0.92,0.92 0,0.51 -0.41,0.92 -0.92,0.92 -0.51,0 -0.92,-0.41 -0.92,-0.92 0,-0.51 0.41,-0.92 0.92,-0.92 z M 55,11.13 c 0.48,0 0.87,0.39 0.87,0.87 0,0.48 -0.39,0.87 -0.87,0.87 -0.48,0 -0.87,-0.39 -0.87,-0.87 0,-0.48 0.39,-0.87 0.87,-0.87 z m 10.75,9.02 c 0.48,0 0.87,0.39 0.87,0.87 0,0.48 -0.39,0.87 -0.87,0.87 -0.48,0 -0.87,-0.39 -0.87,-0.87 0,-0.48 0.39,-0.87 0.87,-0.87 z m -8.99,5.09 c 0.7,0 1.27,0.57 1.27,1.27 0,0.7 -0.57,1.27 -1.27,1.27 -0.7,0 -1.26,-0.58 -1.26,-1.28 0,-0.7 0.56,-1.26 1.26,-1.26 z M 56.3,17.03 c 0.48,0 0.87,0.39 0.87,0.87 0,0.48 -0.39,0.87 -0.87,0.87 -0.48,0 -0.87,-0.39 -0.87,-0.87 0,-0.48 0.39,-0.87 0.87,-0.87 z m -6.67,3.04 c 0.7,0 1.27,0.57 1.27,1.27 0,0.7 -0.57,1.27 -1.27,1.27 -0.7,0 -1.27,-0.57 -1.27,-1.27 0,-0.7 0.57,-1.27 1.27,-1.27 z M 34.4,26.33 c 0.37,0 0.68,0.3 0.68,0.68 0,0.37 -0.3,0.68 -0.68,0.68 -0.37,0 -0.68,-0.3 -0.68,-0.68 0,-0.37 0.31,-0.68 0.68,-0.68 z m 5.43,-0.84 c 0.7,0 1.27,0.57 1.27,1.27 0,0.7 -0.57,1.27 -1.27,1.27 -0.7,0 -1.27,-0.57 -1.27,-1.27 0.01,-0.7 0.57,-1.27 1.27,-1.27 z m 6.87,2.52 c 0.48,0 0.87,0.39 0.87,0.87 0,0.48 -0.39,0.87 -0.87,0.87 -0.48,0 -0.87,-0.39 -0.87,-0.87 0,-0.48 0.39,-0.87 0.87,-0.87 z m -4.15,-8.77 c 0.54,0 0.98,0.44 0.98,0.98 0,0.54 -0.44,0.98 -0.98,0.98 -0.54,0 -0.98,-0.44 -0.98,-0.98 -0.01,-0.54 0.43,-0.98 0.98,-0.98 z m 21.28,-8.46 c 0.42,0 0.76,0.34 0.76,0.76 0,0.42 -0.34,0.76 -0.76,0.76 -0.42,0 -0.76,-0.34 -0.76,-0.76 0,-0.42 0.34,-0.76 0.76,-0.76 z m 1.82,17.85 c 0.37,0 0.68,0.3 0.68,0.68 0,0.37 -0.3,0.68 -0.68,0.68 -0.37,0 -0.68,-0.3 -0.68,-0.68 0,-0.38 0.3,-0.68 0.68,-0.68 z M 77.59,18.09 c 0.37,0 0.68,0.3 0.68,0.68 0,0.38 -0.3,0.68 -0.68,0.68 -0.38,0 -0.68,-0.3 -0.68,-0.68 0,-0.38 0.31,-0.68 0.68,-0.68 z m -6.76,6.37 c 0.58,0 1.04,0.47 1.04,1.04 0,0.58 -0.47,1.04 -1.04,1.04 -0.58,0 -1.04,-0.47 -1.04,-1.04 -0.01,-0.58 0.46,-1.04 1.04,-1.04 z m 5.33,-1.13 c 0.61,0 1.11,0.49 1.11,1.11 0,0.61 -0.49,1.11 -1.11,1.11 -0.61,0 -1.11,-0.49 -1.11,-1.11 0.01,-0.61 0.5,-1.11 1.11,-1.11 z m 6.73,3.29 c 0.46,0 0.83,0.37 0.83,0.83 0,0.46 -0.37,0.83 -0.83,0.83 -0.46,0 -0.83,-0.37 -0.83,-0.83 0,-0.45 0.37,-0.83 0.83,-0.83 z m -1.22,-4.94 c 0.51,0 0.92,0.41 0.92,0.92 0,0.51 -0.41,0.92 -0.92,0.92 -0.51,0 -0.92,-0.41 -0.92,-0.92 0,-0.51 0.41,-0.92 0.92,-0.92 z"
       id="path128"
       style="stroke-width:4.08437" /></g><path
     style="fill:#d4aa00;fill-rule:evenodd;stroke-width:1"
     d="M 13.679957,29.04613 C 11.773501,28.941663 10.894973,28.830576 7.1098244,28.215356 3.8772231,27.689943 4.1157875,27.717116 3.0496305,27.752918 c -0.4973739,0.0167 -1.1451592,0.03127 -1.4395233,0.03237 l -0.5352074,0.002 -0.066982,-0.259896 c -0.0864941,-0.335609 -0.0946394,-0.773196 -0.0176969,-0.95073 0.1238625,-0.285795 0.3341383,-0.415166 0.9935344,-0.611264 0.8101692,-0.24094 0.8628651,-0.288064 0.8628651,-0.771622 0,-0.186787 -0.023098,-0.589054 -0.05133,-0.893928 -0.057977,-0.6261 -0.038243,-3.101954 0.031833,-3.99388 0.1501876,-1.911574 0.402896,-3.51494 0.79292,-5.030862 0.1475255,-0.573393 0.4168664,-1.506697 0.4421573,-1.532137 0.00565,-0.0057 0.2327461,0.07578 0.5046679,0.181015 2.3296783,0.901613 4.7064564,1.469731 7.0460804,1.684217 1.474107,0.135138 4.247222,0.18557 5.388985,0.098 1.689062,-0.129542 3.28422,-0.374077 4.602055,-0.705485 0.239952,-0.06034 0.893048,-0.20317 1.451325,-0.317393 0.558276,-0.114223 1.367357,-0.287686 1.797955,-0.385473 l 0.78291,-0.177795 0.0716,0.169114 c 0.835125,1.972646 1.525476,7.015379 1.408223,10.286533 -0.01682,0.469215 -0.01247,0.512497 0.06791,0.677633 0.120753,0.24805 0.277529,0.364544 0.90974,0.675988 0.654054,0.322203 0.837136,0.479449 0.929232,0.798107 0.05776,0.199853 0.05394,0.612386 -0.0085,0.916136 l -0.02388,0.11618 -1.758772,-0.01879 -1.758772,-0.01878 -0.756672,0.152313 c -3.012102,0.606314 -5.211059,0.936281 -7.34526,1.102199 -0.702456,0.05461 -3.128672,0.100248 -3.691085,0.06943 z M 5.1500505,25.334104 C 5.3402191,25.173148 5.3629924,25.014067 5.2512208,24.627393 5.1101781,24.139456 5.0693673,23.718177 5.0983059,23.048898 c 0.028083,-0.649485 0.00208,-0.761208 -0.2019247,-0.86732 -0.2322371,-0.120801 -0.5058338,-0.05207 -0.6359871,0.159756 -0.07148,0.116338 -0.080955,0.195385 -0.096048,0.801285 -0.029664,1.190823 0.158145,2.079004 0.4735591,2.239546 0.1581144,0.08048 0.3854914,0.05914 0.5121453,-0.04806 z m 20.0129515,0.01115 c 0.26459,-0.178085 0.346917,-0.720156 0.317041,-2.087585 -0.0218,-0.998129 -0.07501,-1.640726 -0.14898,-1.799329 -0.05782,-0.123981 -0.26928,-0.261282 -0.402403,-0.261282 -0.166442,0 -0.343157,0.101633 -0.417206,0.239946 -0.06313,0.117922 -0.06389,0.162404 -0.01399,0.824145 0.07439,0.986603 0.0681,2.115148 -0.01347,2.41967 -0.08243,0.307691 -0.07958,0.37892 0.02119,0.529328 0.155431,0.232001 0.430062,0.288405 0.657829,0.135107 z"
     id="path408" /><path
     style="fill:#d4aa00;fill-rule:evenodd;stroke-width:1"
     d="M 13.18166,14.747853 C 10.945523,14.594582 8.4848728,14.128103 6.094776,13.404352 4.0155444,12.774735 2.8419471,12.191738 2.5685364,11.652654 2.4447649,11.408613 2.4039206,11.063815 2.451019,10.6606 2.537918,9.9166433 2.7716756,9.21098 3.2715336,8.1836435 3.5814151,7.5467577 4.0240033,6.7542104 4.0697834,6.7542104 c 0.011801,0 0.112474,0.083675 0.2237183,0.1859448 1.0692781,0.9830125 4.6193051,1.8741255 8.9435243,2.2449666 2.680916,0.2299127 5.54156,0.100043 8.956809,-0.4066279 0.930679,-0.1380715 1.043968,-0.1646993 1.474212,-0.3465038 0.560489,-0.2368411 0.762057,-0.3953845 1.138676,-0.8956226 0.264964,-0.3519353 0.474735,-0.5616908 0.714362,-0.7143051 l 0.108222,-0.068924 0.13585,0.1667613 c 0.441249,0.5416591 0.86614,1.5629476 1.105005,2.656049 0.15015,0.6871193 0.183228,1.0053643 0.161641,1.5551583 -0.0198,0.5044 -0.09206,0.847756 -0.238748,1.134477 -0.10534,0.205905 -0.410027,0.490709 -0.629023,0.587975 -0.181627,0.08067 -3.934858,1.030002 -4.511331,1.141085 -1.858718,0.358165 -4.0859,0.640685 -5.845237,0.741475 -0.605696,0.0347 -2.187614,0.04177 -2.625804,0.01173 z"
     id="path447" /></svg>
