<svg width="30" height="30" xmlns="http://www.w3.org/2000/svg">

 <g>
  <title>background</title>
  <rect fill="none" id="canvas_background" height="32" width="32" y="-1" x="-1"/>
 </g>
 <g>
  <title>Layer 1</title>
  <g id="svg_1">
   <path stroke="#00bf00" fill="#000" id="svg_2" d="m22.772703,29.296646l-2.529985,-11.782309l0.656271,0l3.821135,11.778994l-1.94742,0l0,0.003315zm1.961689,-11.77236l0,-4.663207l-2.755877,0c-0.461296,0.059656 -0.554029,-0.450748 -0.356674,-0.871662l1.759577,-2.876802l-0.049931,-0.0696l-0.941612,0c-0.342403,0.0696 -0.468428,-0.444116 -0.261557,-0.808688l1.895109,-3.105492l-0.554029,0c-0.347158,0.013257 -0.43276,-0.430856 -0.209248,-0.851769l1.726288,-2.860235c0.118891,-0.195544 0.244915,-0.480574 0.449404,-0.473946c0.175959,0.006631 0.282961,0.23863 0.387581,0.410973l1.838045,2.986177c0.199738,0.397714 0.028536,0.818627 -0.318623,0.818627l-0.496964,0l1.883223,3.075664c0.225891,0.311543 0.109379,0.808688 -0.149799,0.878288l-1.093794,0l1.640688,2.684572l0.180712,0.294977c0.137913,0.218741 0.068956,0.719199 -0.22827,0.768915l-2.957993,0l0,4.666514l3.338442,0l0,2.386292l-6.374895,0l-0.713345,-2.386292l2.363541,0l0,-0.003307zm-20.54179,-1.587546l0,1.179887l-0.347155,0l0,-0.374519l0.078466,0l0,-0.805367l0.268688,0l0,0l0,0zm-2.011608,-1.401946c-0.118889,0.046398 -0.235399,0.076227 -0.349534,0.082858c-0.268691,0.019888 -0.520735,-0.062971 -0.734736,-0.23863c-0.214001,-0.175658 -0.387579,-0.4408 -0.501714,-0.785487c-0.1712,-0.517028 -0.202112,-1.209716 -0.023777,-2.028347c-0.273446,-0.560112 -0.363801,-1.123545 -0.318623,-1.633943c0.040422,-0.430861 0.178333,-0.81863 0.392334,-1.136804c0.211624,-0.311543 0.49458,-0.553486 0.827469,-0.692685c0.530247,-0.222058 1.186517,-0.182286 1.868941,0.241943c0.071335,-0.079544 0.142667,-0.149142 0.211622,-0.21543c0.408981,-0.371202 0.82985,-0.54023 1.253093,-0.44743c0.418493,0.089488 0.829851,0.434173 1.217429,1.083774c0.080846,0.13257 0.156934,0.278401 0.233024,0.434173c0.461291,-0.016571 0.846491,0.149143 1.117558,0.424231c0.183091,0.185598 0.313869,0.424229 0.382824,0.68937c0.068955,0.268458 0.076089,0.566745 0.004755,0.871655c-0.092734,0.404349 -0.320999,0.818631 -0.708578,1.193151c-0.03329,0.493826 -0.123648,0.921371 -0.261558,1.2528c-0.128399,0.311544 -0.297225,0.543541 -0.496958,0.672801c-0.202112,0.129251 -0.432756,0.152455 -0.67529,0.043084c-0.068956,-0.029828 -0.14029,-0.072912 -0.211624,-0.125944c-0.05231,0.172343 -0.097487,0.32149 -0.14029,0.46069c-0.349535,1.130172 -0.475557,1.537828 -0.515981,2.84697l3.162458,0l-0.715713,2.386292l-6.289248,0l0,-2.386292l2.109097,0c-0.011889,-1.246168 -0.090356,-1.408571 -0.513602,-2.296798c-0.090354,-0.19223 -0.194979,-0.414289 -0.323379,-0.696002l0,0l0,0zm0.256801,-0.132576c0.109379,0.235322 0.206868,0.440802 0.290091,0.61646c0.466047,0.977719 0.546891,1.146747 0.558779,2.505609l1.193648,0c0.042802,-1.388691 0.171201,-1.809605 0.53738,-2.992808c0.052311,-0.172343 0.106999,-0.344687 0.159314,-0.51703c-0.030911,-0.033144 -0.061823,-0.066286 -0.090358,-0.102739c-0.059443,0.086167 -0.116511,0.162396 -0.175955,0.228683c-0.273446,0.314857 -0.551645,0.460688 -0.832225,0.447432c-0.2782,-0.013264 -0.551646,-0.185606 -0.815582,-0.507088c-0.066578,-0.08286 -0.133157,-0.172343 -0.199733,-0.271774c-0.199734,0.261827 -0.413735,0.46069 -0.625359,0.593256l0,0l0,0zm0.808449,0.079545l0.546889,1.259431l-0.230644,0.192231l-0.54689,-1.259432l0.230646,-0.19223l0,0zm6.491359,14.814883l1.588357,-11.778992l-0.78229,0l-2.527587,11.778992l1.721519,0l0,0zm-2.556123,0l2.529965,-11.778992l-0.656271,0l-3.823479,11.778992l1.949785,0l0,0zm8.198619,0l0,-11.778992l0.794191,0l0.791809,11.778992l-1.586,0l0,0zm2.456278,0l-0.879789,-11.778992l0.794186,0l1.671598,11.778992l-1.585995,0l0,0zm2.38018,0l-1.588373,-11.778992l0.782299,0l2.527609,11.778992l-1.721535,0l0,0zm-5.642532,0l0,-11.778992l-0.794188,0l-0.79418,11.778992l1.588367,0l0,0zm-2.458637,0l0.879781,-11.778992l-0.794181,0l-1.671583,11.778992l1.585983,0l0,0zm-11.20651,-3.58938l4.403662,0l-1.167494,3.58938l-3.236168,0l0,-3.58938l0,0zm24.051401,0l4.498812,0l0,3.58938l-3.336061,0l-1.16275,-3.58938l0,0zm-24.051401,-4.119661l5.742356,0l-0.794181,2.439314l-4.948174,0l0,-2.439314l0,0zm22.719835,0l5.830378,0l0,2.439314l-5.040949,0l-0.789429,-2.439314l0,0z"/>
  </g>
 </g>
</svg>