<svg width="15" height="15" xmlns="http://www.w3.org/2000/svg">

 <g>
  <title>background</title>
  <rect fill="none" id="canvas_background" height="17" width="17" y="-1" x="-1"/>
 </g>
 <g>
  <title>Layer 1</title>
  <g id="svg_1">
   <path stroke="#00bf00" fill="#000" id="svg_2" d="m11.194626,14.759274l-1.229904,-5.840409l0.319034,0l1.857572,5.838767l-0.946701,0l0,0.001642zm0.953637,-5.835477l0,-2.31152l-1.339716,0c-0.224251,0.029571 -0.269331,-0.223433 -0.17339,-0.432077l0.855385,-1.426011l-0.024273,-0.034501l-0.457747,0c-0.166452,0.034501 -0.227716,-0.220145 -0.127151,-0.400861l0.921271,-1.539371l-0.269331,0c-0.168764,0.006571 -0.210378,-0.213572 -0.101722,-0.422216l0.839202,-1.417799c0.057796,-0.09693 0.119061,-0.238217 0.218469,-0.234932c0.085539,0.003287 0.137556,0.118288 0.188416,0.203717l0.89353,1.480228c0.097098,0.197144 0.013872,0.405788 -0.154892,0.405788l-0.24159,0l0.915493,1.524585c0.109812,0.154429 0.053172,0.400861 -0.072823,0.435361l-0.531727,0l0.797589,1.330724l0.08785,0.146218c0.067043,0.108429 0.033522,0.356502 -0.11097,0.381146l-1.437971,0l0,2.313159l1.622919,0l0,1.182868l-3.099032,0l-0.346779,-1.182868l1.14899,0l0,-0.001639zm-9.985996,-0.786937l0,0.584863l-0.168763,0l0,-0.185647l0.038145,0l0,-0.399216l0.130618,0l0,0l0,0zm-0.977905,-0.694935c-0.057795,0.022999 -0.114435,0.037786 -0.169919,0.041072c-0.130619,0.009859 -0.253145,-0.031214 -0.357178,-0.118287c-0.104032,-0.087072 -0.188414,-0.218502 -0.243898,-0.38936c-0.083226,-0.256288 -0.098253,-0.599648 -0.011559,-1.005438c-0.132931,-0.277644 -0.176855,-0.556933 -0.154893,-0.809934c0.019651,-0.213575 0.086693,-0.405789 0.190726,-0.563506c0.102877,-0.15443 0.24043,-0.274359 0.402258,-0.343359c0.257769,-0.110073 0.576803,-0.090358 0.90855,0.11993c0.034678,-0.039429 0.069355,-0.073929 0.102876,-0.106788c0.198819,-0.184002 0.403416,-0.267788 0.609167,-0.221787c0.203443,0.044359 0.403416,0.215217 0.59183,0.537219c0.039302,0.065714 0.076291,0.138001 0.11328,0.215216c0.224248,-0.008214 0.411505,0.073929 0.543279,0.210289c0.089006,0.092 0.152581,0.210287 0.186102,0.341716c0.033521,0.133073 0.036989,0.280931 0.002312,0.432074c-0.045081,0.200433 -0.156048,0.40579 -0.344461,0.591436c-0.016184,0.244787 -0.060109,0.456718 -0.127151,0.621005c-0.062419,0.154431 -0.14449,0.26943 -0.241586,0.333503c-0.098253,0.064069 -0.210376,0.075571 -0.328279,0.021356c-0.033522,-0.014785 -0.068199,-0.036142 -0.102877,-0.062429c-0.02543,0.085429 -0.047391,0.15936 -0.068199,0.22836c-0.169919,0.560219 -0.231183,0.762292 -0.250834,1.411224l1.537368,0l-0.34793,1.182868l-3.057397,0l0,-1.182868l1.025297,0c-0.00578,-0.617718 -0.043925,-0.69822 -0.249678,-1.138508c-0.043924,-0.095287 -0.094785,-0.20536 -0.157205,-0.345003l0,0l0,0zm0.124839,-0.065717c0.053172,0.116648 0.100565,0.218503 0.141022,0.305575c0.22656,0.48465 0.26586,0.568435 0.27164,1.242014l0.580269,0c0.020808,-0.688366 0.083226,-0.897009 0.261237,-1.483516c0.02543,-0.085429 0.052016,-0.170859 0.077447,-0.256288c-0.015027,-0.016429 -0.030054,-0.032858 -0.043926,-0.050927c-0.028897,0.042713 -0.05664,0.080499 -0.085537,0.113357c-0.13293,0.156073 -0.268172,0.22836 -0.40457,0.221789c-0.135242,-0.006575 -0.268172,-0.092004 -0.396479,-0.25136c-0.032366,-0.041073 -0.064732,-0.08543 -0.097096,-0.134717c-0.097097,0.129786 -0.20113,0.228361 -0.304006,0.294073l0,0l0,0zm0.393012,0.03943l0.265859,0.62429l-0.112123,0.095289l-0.26586,-0.624292l0.112124,-0.095287l0,0zm3.15565,7.343636l0.77215,-5.838765l-0.380295,0l-1.228738,5.838765l0.836884,0l0,0zm-1.24261,0l1.229894,-5.838765l-0.319034,0l-1.858711,5.838765l0.94785,0l0,0zm3.985601,0l0,-5.838765l0.386081,0l0.384923,5.838765l-0.771004,0l0,0zm1.194073,0l-0.427693,-5.838765l0.386078,0l0.812616,5.838765l-0.771001,0l0,0zm1.157079,0l-0.772158,-5.838765l0.3803,0l1.228749,5.838765l-0.836891,0l0,0zm-2.743009,0l0,-5.838765l-0.386079,0l-0.386075,5.838765l0.772154,0l0,0zm-1.195219,0l0.427689,-5.838765l-0.386076,0l-0.812608,5.838765l0.770996,0l0,0zm-5.44783,-1.779231l2.140756,0l-0.567555,1.779231l-1.573201,0l0,-1.779231l0,0zm11.692127,0l2.187011,0l0,1.779231l-1.621761,0l-0.565249,-1.779231l0,0zm-11.692127,-2.042088l2.791536,0l-0.386076,1.209151l-2.40546,0l0,-1.209151l0,0zm11.044812,0l2.834326,0l0,1.209151l-2.45056,0l-0.383766,-1.209151l0,0z"/>
  </g>
 </g>
</svg>