<?xml version="1.0" encoding="UTF-8" standalone="no"?>
<svg
   viewBox="0 0 15.000001 14.999999"
   version="1.1"
   id="svg6"
   sodipodi:docname="gardener15.svg"
   width="15"
   height="15"
   inkscape:version="1.1.1 (3bf5ae0d25, 2021-09-20)"
   xmlns:inkscape="http://www.inkscape.org/namespaces/inkscape"
   xmlns:sodipodi="http://sodipodi.sourceforge.net/DTD/sodipodi-0.dtd"
   xmlns="http://www.w3.org/2000/svg"
   xmlns:svg="http://www.w3.org/2000/svg"
   xmlns:rdf="http://www.w3.org/1999/02/22-rdf-syntax-ns#"
   xmlns:cc="http://creativecommons.org/ns#"
   xmlns:dc="http://purl.org/dc/elements/1.1/">
  <defs
     id="defs10" />
  <sodipodi:namedview
     id="namedview8"
     pagecolor="#ffffff"
     bordercolor="#666666"
     borderopacity="1.0"
     inkscape:pageshadow="2"
     inkscape:pageopacity="0.0"
     inkscape:pagecheckerboard="0"
     showgrid="false"
     inkscape:zoom="8.67594"
     inkscape:cx="38.843053"
     inkscape:cy="38.49727"
     inkscape:window-width="1920"
     inkscape:window-height="1046"
     inkscape:window-x="-11"
     inkscape:window-y="-11"
     inkscape:window-maximized="1"
     inkscape:current-layer="svg6" />
  <title
     id="title2">gardener</title>
  <path
     d="m 10.895982,9.381762 h 1.500243 V 3.2642968 C 11.596665,2.7619784 11.809067,1.072643 12.781967,1.072643 c 0.9729,0 1.185303,1.6862442 0.384522,2.1931994 v 6.1174651 h 1.52832 a 0.30639644,0.38794436 0 0 1 0.305176,0.386399 V 12.191654 A 2.2241208,2.8160742 0 0 1 12.781967,15 v 0 A 2.2253415,2.8176198 0 0 1 10.56395,12.191654 V 9.8037095 A 0.33325191,0.42194745 0 0 1 10.895982,9.381762 Z m -7.8124996,-6.0664606 0.019532,0.015456 c 0.279541,0.2071097 0.8862304,0.3493045 1.5380857,0.3987635 0.6518556,0.049459 1.3513186,0 1.7968751,-0.1715611 A 0.72021472,0.9119011 0 0 0 6.8041857,3.3106646 V 1.885626 A 1.1608885,1.4698609 0 0 0 5.6481792,0.42194745 H 4.3444686 A 1.2670896,1.6043276 0 0 0 3.0822617,2.0200928 V 3.3153014 Z M 7.1313332,2.9119011 a 3.6059565,4.5656878 0 0 1 0.8764649,0.3693972 c 0.2734375,0.1823802 0.427246,0.4064915 0.427246,0.6661515 0,0.4111282 -0.423584,0.7542503 -1.1096189,0.976816 l -0.095215,0.029367 v 0.3925811 a 2.5744625,3.25966 0 0 1 -0.2270505,1.4034 3.139648,3.9752705 0 0 1 -0.5334475,0.978362 c 0.255127,1.236476 0.6323245,1.3183925 1.1242675,1.4327665 a 2.6245113,3.3230294 0 0 1 1.3427734,0.720247 c 0.9069825,0.9412676 0.90332,2.2751156 0.900879,3.5749616 v 0.74034 a 0.1672363,0.21174652 0 0 1 -0.166016,0.211746 H 0.16722307 A 0.1672363,0.21174652 0 0 1 -1.323676e-5,14.202473 v -0.72643 c 0,-1.301391 -0.0073242132,-2.646059 0.90209946676,-3.5842345 C 1.4135608,9.3601235 1.8786486,9.25966 2.2973497,9.1700155 2.8149277,9.057187 3.2324082,8.9675425 3.4875351,7.812983 A 2.2241208,2.8160742 0 0 1 2.95775,6.74034 3.9062494,4.9459041 0 0 1 2.8076035,5.163833 V 5.0092735 C 2.7038438,4.9829984 2.6061876,4.9536321 2.5121935,4.9242658 1.8273791,4.7017001 1.4037952,4.358578 1.4037952,3.9474498 c 0,-0.25966 0.1538085,-0.4853169 0.427246,-0.6676971 A 3.7011714,4.6862442 0 0 1 2.7465684,2.9010819 V 2.0200928 A 1.6003416,2.0262751 0 0 1 4.3444686,0 H 5.6408552 A 1.4965818,1.8948996 0 0 1 7.1301127,1.885626 V 2.9119011 Z M 3.5912949,5.1591965 c -0.15625,-0.02164 -0.3063965,-0.04637 -0.4504395,-0.075735 v 0.080371 A 3.6254878,4.5904173 0 0 0 3.2714707,6.604327 1.9628903,2.4853168 0 0 0 3.7841659,7.596599 l 0.072021,0.09119 C 4.2101907,8.1128275 4.5690774,8.34003 4.9230813,8.3570315 h 0.00732 A 1.5332029,1.9412674 0 0 0 5.4809387,8.202473 2.0092771,2.5440495 0 0 0 6.0387997,7.693972 L 6.1047177,7.608965 A 3.0517574,3.8639877 0 0 0 6.6943172,6.5672335 2.2412106,2.8377125 0 0 0 6.8908502,5.340031 V 5.064915 A 9.8046861,12.41422 0 0 1 5.0598003,5.2921175 10.050048,12.724884 0 0 1 3.594957,5.1591965 Z M 5.6371932,8.584235 A 1.5527341,1.9659969 0 0 1 4.9523786,8.77898 H 4.9230818 A 1.7236326,2.1823802 0 0 1 3.7451034,8.1808345 1.7687986,2.2395673 0 0 1 3.3288437,9.0973725 L 4.9389509,10.200928 6.6064312,9.060278 A 1.9531247,2.4729521 0 0 1 6.2231302,8.132921 2.6367184,3.3384853 0 0 1 5.6371932,8.57187 Z m 1.220703,0.7805255 a 0.13427732,0.17001546 0 0 1 -0.03418,0.03091 L 5.0170758,10.632146 a 0.1660156,0.21020093 0 0 1 -0.1586913,0 L 3.0212266,9.361667 A 1.6052244,2.0324575 0 0 1 2.7953965,9.465222 v 2.210203 H 6.8591167 V 9.3570325 Z M 1.7785509,11.683153 H 1.9628771 V 9.678516 a 2.075195,2.6275116 0 0 0 -0.854492,0.53323 c -0.78247065,0.81762 -0.77880854,2.060278 -0.77636713,3.264297 v 0.514683 H 1.4306506 v -1.87017 a 0.35278315,0.44667697 0 0 1 0.3515625,-0.445131 z m 5.9106438,0 h 0.3662109 a 0.35400386,0.44822257 0 0 1 0.352783,0.445131 v 1.87017 h 1.098633 v -0.536321 c 0,-1.200928 0,-2.434312 -0.7800295,-3.24575 A 2.1972653,2.7820711 0 0 0 7.6904152,9.6166925 v 2.0587325 z"
     id="path4"
     style="stroke-width:0.999997" />
  <metadata
     id="metadata12">
    <rdf:RDF>
      <cc:Work
         rdf:about="">
        <dc:title>gardener</dc:title>
      </cc:Work>
    </rdf:RDF>
  </metadata>
  <path
     style="display:inline;fill:#008000;fill-rule:evenodd;stroke-width:0.999997"
     d="m 2.8103578,10.57172 0.00362,-1.096927 0.1031694,-0.050822 0.1031693,-0.050822 0.9309741,0.644264 c 0.7877008,0.545115 0.9396354,0.644231 0.987254,0.644044 0.047061,-1.85e-4 0.2014707,-0.09969 0.9426886,-0.607515 0.4875245,-0.334013 0.906986,-0.620616 0.932136,-0.636896 l 0.045725,-0.0296 v 1.1406 1.1406 H 4.8329172 2.8067329 Z"
     id="path295" />
  <path
     style="fill:#008000;fill-rule:evenodd;stroke-width:0.999997"
     d="m 8.4180161,13.000298 -0.0042,-0.984264 -0.04221,-0.09735 C 8.3195801,11.798699 8.2340941,11.713823 8.1393636,11.6881 8.0999586,11.6774 7.9857186,11.66864 7.8854991,11.66864 H 7.7032822 V 10.651184 9.633722 l 0.066832,0.01263 c 0.1175884,0.02222 0.3913084,0.1462895 0.5511864,0.2498345 0.5840805,0.3782815 0.9457795,0.9899335 1.0850095,1.8348115 0.065742,0.398938 0.09739,0.985849 0.097741,1.812649 l 1.835e-4,0.440914 h -0.54103 -0.5410305 z"
     id="path334" />
  <path
     style="fill:#008000;fill-rule:evenodd;stroke-width:0.999997"
     d="m 0.34882597,13.151723 c 0.007392,-0.871369 0.0176003,-1.048962 0.082079,-1.427971 C 0.57746652,10.862254 0.93369105,10.262741 1.5195446,9.8916095 1.6229008,9.8261345 1.8303904,9.728721 1.9240564,9.7016965 l 0.038693,-0.011165 v 0.9890575 0.989056 l -0.1301472,1.86e-4 c -0.1074156,1.42e-4 -0.1424348,0.0075 -0.2004973,0.04228 -0.084552,0.05061 -0.1362479,0.117106 -0.1747363,0.224763 -0.027711,0.07751 -0.028671,0.112767 -0.02897,1.06443 l -3.051e-4,0.984259 H 0.88492508 0.34176048 Z"
     id="path373" />
  <path
     style="fill:#ff2a2a;fill-rule:evenodd;stroke-width:0.999997"
     d="M 4.6641848,3.722983 C 4.042664,3.6719821 3.5176127,3.5509945 3.2220121,3.3906634 L 3.0953822,3.3219805 V 2.5561802 c 0,-0.7384413 0.00114,-0.7711898 0.031757,-0.916664 0.1078521,-0.51235 0.4203642,-0.9468392 0.8018452,-1.1148145 0.211584,-0.0931656 0.2901851,-0.0996393 1.1257649,-0.0927201 0.8618334,0.007137 0.8394194,0.00419 1.0726859,0.14103504 0.3116495,0.18282845 0.543224,0.53546036 0.6356615,0.96795726 0.02863,0.1339531 0.03081,0.1908941 0.03631,0.9475068 l 0.00585,0.8049887 -0.046945,0.0539 c -0.141507,0.162467 -0.4720785,0.2827156 -0.961495,0.349753 -0.2392355,0.032769 -0.8722983,0.047223 -1.1326332,0.025861 z"
     id="path675" />
  <path
     id="path825"
     style="fill:#666666;fill-rule:evenodd;stroke-width:0.999997"
     d="m 13.162359,6.235208 c -0.01374,0.00125 -0.02748,0.0025 -0.04124,0.0036 -0.0037,0.01459 -0.0074,0.02921 -0.01121,0.04377 0.0012,0.02585 0.0026,0.05173 0.0038,0.077581 0.01598,-0.00245 0.03188,-0.0025 0.04768,0.00485 2.44e-4,-6.5e-4 6e-4,-0.0012 10e-4,-0.0018 v -0.03894 z m -0.157118,3.1026615 c 0.0068,0.00295 0.01481,0.00355 0.02504,3.09e-4 -0.0083,3.4e-4 -0.01669,7.75e-5 -0.02504,-3.09e-4 z m 0.157118,0.029585 c -0.0028,6e-4 -0.0027,2.165e-4 -0.0086,0.0018 -3.66e-4,9.2e-5 7.5e-4,2.01e-4 7.5e-4,3.09e-4 0.0026,-6.5e-4 0.0053,-0.0014 0.0079,-0.0021 z m -0.0026,0.00485 c -0.07048,0.049325 -0.110924,0.065905 -0.105143,0.069129 -0.01279,4.945e-4 -0.02553,0.00205 -0.03838,0.0015 -0.0056,-2.475e-4 -0.01112,-9e-4 -0.01669,-0.0012 -0.03754,0.0177 -0.06499,0.02087 -0.0999,0.015695 -1.22e-4,6.25e-5 -3.66e-4,-6.35e-5 -4.89e-4,0 -4.88e-4,2.16e-4 -8.5e-4,7e-4 -0.0015,9e-4 -0.03447,0.02245 -0.06092,0.03551 -0.09584,0.036525 -0.01131,0.0035 -0.01318,0.0032 -0.01025,6e-4 -0.01824,-1.855e-4 -0.02663,1.465e-4 -0.02551,-6e-4 -0.03601,0.00574 -0.0646,0.00145 -0.09489,-0.012075 -0.01469,-1.1e-4 -0.03015,-0.00165 -0.0577,-0.00574 -0.01715,-0.00255 -0.03844,0.0035 -0.05102,-0.01147 -0.01043,-0.012405 -0.01703,-0.018975 -0.0248,-0.02747 -0.04075,-0.010705 -0.04295,-0.01261 -0.01955,-0.021735 -3.66e-4,-3.4e-4 -6e-4,-8.5e-4 -10e-4,-0.0012 -0.0057,8.8e-5 -0.01137,-1.855e-4 -0.01693,-6e-4 -0.03996,0.03821 -0.07964,0.047055 -0.109672,-0.00544 -0.02138,-10e-4 -0.04397,-0.0029 -0.05126,-0.0036 -0.0419,-9e-4 -0.06311,-8.25e-5 -0.0987,-0.017205 l -0.637531,0.0039 -0.799655,0.00513 -0.0689,0.053733 c -0.04268,0.033415 -0.08495,0.087217 -0.111342,0.141277 l -0.04268,0.087242 v 1.4354105 c 0,1.422786 3.54e-4,1.437051 0.03171,1.616234 0.196838,1.124986 0.859731,1.967547 1.730442,2.199454 0.07552,0.02012 0.203895,0.04208 0.285149,0.0486 0.401747,0.03225 0.782989,-0.06319 1.127242,-0.282253 0.6247,-0.397518 1.038222,-1.078156 1.196146,-1.96852 0.03104,-0.175063 0.03172,-0.202618 0.03671,-1.603857 l 0.005,-1.4260525 -0.04006,-0.096902 c -0.02933,-0.071078 -0.05819,-0.111262 -0.10848,-0.15064 l -0.06866,-0.053733 -0.806569,-0.00513 -0.806809,-0.00485 v -0.015095 c -8.5e-4,-2.5e-6 -0.0018,-4.5e-6 -0.0026,0 z m -0.769138,0.03683 c 0.02805,0.0013 0.05435,5.5e-4 0.06246,-0.00513 -0.0086,-0.0033 -0.01674,-0.00713 -0.02455,-0.011775 -0.0092,-0.00195 -0.01597,-0.0027 -0.02575,-0.00485 -2.44e-4,-5.8e-5 -4.88e-4,5.9e-5 -7.5e-4,0 h -0.02241 c 0.0036,0.00812 0.0072,0.01507 0.01096,0.021735 z m 0.553369,0.029885 c 0.0063,-0.00145 -0.0268,0.010705 -0.03743,0.015395 0.0015,-3.71e-4 0.0028,-1.1e-4 0.0043,-6e-4 0.01129,-0.00395 0.02162,-0.01213 0.03314,-0.01479 z m -0.103474,0.00634 c 0.01747,0.0049 0.036,0.01193 0.05436,0.01117 -0.01597,-0.0026 -0.03311,-0.00625 -0.05436,-0.01117 z m 0.06843,0.00573 c -0.0022,0.00145 -0.0046,0.00285 -0.0067,0.00425 3.66e-4,-6.85e-5 7.5e-4,-2.165e-4 0.0012,-3.09e-4 0.0045,-0.00125 0.0063,-0.00185 0.0055,-0.0039 z" />
</svg>
