<?xml version="1.0" encoding="UTF-8" standalone="no"?>
<svg
   viewBox="0 0 30.000001 29.999999"
   version="1.1"
   id="svg6"
   sodipodi:docname="gardener30.svg"
   width="30"
   height="30"
   inkscape:version="1.1.1 (3bf5ae0d25, 2021-09-20)"
   xmlns:inkscape="http://www.inkscape.org/namespaces/inkscape"
   xmlns:sodipodi="http://sodipodi.sourceforge.net/DTD/sodipodi-0.dtd"
   xmlns="http://www.w3.org/2000/svg"
   xmlns:svg="http://www.w3.org/2000/svg"
   xmlns:rdf="http://www.w3.org/1999/02/22-rdf-syntax-ns#"
   xmlns:cc="http://creativecommons.org/ns#"
   xmlns:dc="http://purl.org/dc/elements/1.1/">
  <defs
     id="defs10" />
  <sodipodi:namedview
     id="namedview8"
     pagecolor="#ffffff"
     bordercolor="#666666"
     borderopacity="1.0"
     inkscape:pageshadow="2"
     inkscape:pageopacity="0.0"
     inkscape:pagecheckerboard="0"
     showgrid="false"
     inkscape:zoom="8.67594"
     inkscape:cx="38.843053"
     inkscape:cy="38.49727"
     inkscape:window-width="1920"
     inkscape:window-height="1046"
     inkscape:window-x="-11"
     inkscape:window-y="-11"
     inkscape:window-maximized="1"
     inkscape:current-layer="svg6" />
  <title
     id="title2">gardener</title>
  <path
     d="m 21.791979,18.763524 h 3.000488 V 6.5285935 C 23.193346,5.5239567 23.61815,2.1452859 25.563951,2.1452859 c 1.9458,0 2.370605,3.3724884 0.769043,4.3863988 V 18.766615 h 3.05664 a 0.61279291,0.77588872 0 0 1 0.610352,0.772798 v 4.843895 A 4.4482417,5.6321484 0 0 1 25.563951,30 v 0 a 4.4506831,5.6352396 0 0 1 -4.436035,-5.616692 v -4.775889 a 0.66650384,0.8438949 0 0 1 0.664063,-0.843895 z M 6.1669802,6.6306028 l 0.039063,0.030912 c 0.5590819,0.4142194 1.7724607,0.6986089 3.0761715,0.797527 1.3037113,0.098918 2.7026373,0 3.5937503,-0.3431221 A 1.4404295,1.8238022 0 0 0 13.608387,6.6213292 V 3.7712519 A 2.3217771,2.9397218 0 0 0 11.296374,0.8438949 H 8.6889526 A 2.5341794,3.2086553 0 0 0 6.1645388,4.0401855 V 6.6306028 Z M 14.262682,5.8238021 a 7.2119133,9.1313756 0 0 1 1.75293,0.7387945 c 0.546875,0.3647604 0.854492,0.812983 0.854492,1.3323029 0,0.8222566 -0.847168,1.5085008 -2.219238,1.9536322 l -0.19043,0.058733 v 0.7851623 a 5.1489253,6.5193199 0 0 1 -0.454101,2.8068 6.2792962,7.9505409 0 0 1 -1.066895,1.956724 c 0.510254,2.472952 1.264649,2.636785 2.248535,2.865533 a 5.2490229,6.6460587 0 0 1 2.685547,1.440494 c 1.813965,1.882535 1.80664,4.550232 1.801758,7.149923 v 1.48068 a 0.33447262,0.42349304 0 0 1 -0.332032,0.423493 H 0.33446123 A 0.33447262,0.42349304 0 0 1 -1.1396277e-5,28.404946 v -1.45286 c 0,-2.602782 -0.01464843372,-5.292117 1.804198996277,-7.168469 1.0229492,-1.06337 1.9531248,-1.264297 2.7905271,-1.443586 1.0351561,-0.225657 1.870117,-0.404946 2.3803708,-2.714065 A 4.4482417,5.6321484 0 0 1 5.9155153,13.48068 7.8124992,9.8918083 0 0 1 5.6152224,10.327666 V 10.018547 C 5.4077029,9.9659969 5.2123904,9.9072643 5.0244022,9.8485317 3.6547734,9.4034003 2.8076055,8.7171561 2.8076055,7.8948995 c 0,-0.5193199 0.3076172,-0.9706337 0.8544921,-1.3353941 A 7.402343,9.3724884 0 0 1 5.4931521,5.8021638 V 4.0401855 A 3.2006833,4.0525502 0 0 1 8.6889526,0 h 2.5927734 a 2.9931638,3.7897991 0 0 1 2.978515,3.7712519 V 5.8238021 Z M 7.1826051,10.318393 c -0.3125,-0.04328 -0.612793,-0.09274 -0.9008789,-0.151469 v 0.160742 a 7.2509758,9.1808346 0 0 0 0.2612305,2.880989 3.9257808,4.9706337 0 0 0 1.0253905,1.984544 l 0.144043,0.182381 c 0.7080077,0.850077 1.4257811,1.304482 2.1337888,1.338485 h 0.014648 a 3.0664059,3.8825348 0 0 0 1.101075,-0.309119 4.0185543,5.0880989 0 0 0 1.115722,-1.017002 l 0.131836,-0.170015 a 6.103515,7.7279753 0 0 0 1.179199,-2.083462 4.4824214,5.675425 0 0 0 0.393066,-2.454405 V 10.12983 A 19.609373,24.828439 0 0 1 10.119616,10.584235 20.100096,25.449768 0 0 1 7.1899293,10.318393 Z M 11.274402,17.16847 A 3.1054684,3.9319938 0 0 1 9.9047727,17.55796 H 9.846179 A 3.4472653,4.3647604 0 0 1 7.4902222,16.361669 3.5375973,4.4791345 0 0 1 6.6577028,18.194745 l 3.2202145,2.20711 3.3349607,-2.281299 a 3.9062496,4.9459042 0 0 1 -0.766602,-1.854714 5.273437,6.6769706 0 0 1 -1.171874,0.877898 z m 2.441406,1.561051 a 0.26855466,0.34003091 0 0 1 -0.06836,0.06182 l -3.613281,2.472952 a 0.33203122,0.42040185 0 0 1 -0.3173825,0 l -3.674316,-2.540959 a 3.2104489,4.064915 0 0 1 -0.4516602,0.20711 V 23.35085 H 13.718249 V 18.714065 Z M 3.5571171,23.366306 h 0.3686524 v -4.009274 a 4.1503902,5.2550232 0 0 0 -1.7089842,1.066461 c -1.56494129,1.63524 -1.55761708,4.120556 -1.55273426,6.528593 v 1.029367 H 2.8613164 v -3.74034 a 0.70556633,0.89335394 0 0 1 0.703125,-0.890263 z m 11.8212879,0 h 0.732422 a 0.70800774,0.89644513 0 0 1 0.705566,0.890263 v 3.74034 h 2.197266 v -1.072643 c 0,-2.401855 0,-4.868625 -1.560059,-6.491499 a 4.3945308,5.5641422 0 0 0 -2.072754,-1.199382 v 4.117465 z"
     id="path4"
     style="stroke-width:1" />
  <metadata
     id="metadata12">
    <rdf:RDF>
      <cc:Work
         rdf:about="">
        <dc:title>gardener</dc:title>
      </cc:Work>
    </rdf:RDF>
  </metadata>
  <path
     style="display:inline;fill:#008000;fill-rule:evenodd;stroke-width:1"
     d="m 5.6207309,21.143439 0.00725,-2.193853 0.2063388,-0.101644 0.2063386,-0.101644 1.8619483,1.288528 c 1.5754017,1.090229 1.8792708,1.288461 1.9745081,1.288089 0.094123,-3.71e-4 0.4029413,-0.199386 1.8853773,-1.215031 0.975049,-0.668026 1.813972,-1.241232 1.864272,-1.273792 l 0.09145,-0.0592 v 2.2812 2.2812 H 9.6658499 5.6134812 Z"
     id="path295" />
  <path
     style="fill:#008000;fill-rule:evenodd;stroke-width:1"
     d="m 16.836048,26.000595 -0.0084,-1.968528 -0.08442,-0.194695 c -0.104052,-0.239971 -0.275024,-0.409723 -0.464485,-0.461169 -0.07881,-0.0214 -0.30729,-0.03891 -0.507729,-0.03891 H 15.40658 v -2.034925 -2.034924 l 0.133664,0.02526 c 0.235177,0.04444 0.782617,0.292579 1.102373,0.499669 1.168161,0.756563 1.891559,1.979868 2.170019,3.669624 0.131485,0.797876 0.19478,1.971698 0.195483,3.625297 l 3.67e-4,0.881829 h -1.08206 -1.082061 z"
     id="path334" />
  <path
     style="fill:#008000;fill-rule:evenodd;stroke-width:1"
     d="m 0.69766705,26.303445 c 0.0147847,-1.742738 0.0352005,-2.097923 0.16415794,-2.855942 0.29312311,-1.722996 1.00557221,-2.922022 2.17727931,-3.664284 0.2067126,-0.13095 0.6216918,-0.325777 0.8090238,-0.379826 l 0.077385,-0.02233 v 1.978114 1.978113 l -0.2602944,3.71e-4 c -0.2148313,2.85e-4 -0.2848696,0.01506 -0.4009946,0.08457 -0.1691043,0.101221 -0.2724959,0.234213 -0.3494727,0.449526 -0.055422,0.155022 -0.057341,0.225534 -0.057939,2.12886 l -6.103e-4,1.968519 H 1.7698653 0.68353607 Z"
     id="path373" />
  <path
     style="fill:#ff2a2a;fill-rule:evenodd;stroke-width:1"
     d="M 9.3283851,7.445966 C 8.0853435,7.3439641 7.0352408,7.1019889 6.4440395,6.7813267 L 6.1907797,6.643961 V 5.1123604 c 0,-1.4768825 0.00227,-1.5423796 0.063515,-1.833328 C 6.469998,2.2543325 7.0950221,1.385354 7.8579841,1.0494034 8.2811523,0.86307224 8.4383544,0.85012479 10.109514,0.86396312 c 1.723667,0.0142733 1.678839,0.008379 2.145372,0.28207008 0.623299,0.3656569 1.086448,1.0709208 1.271323,1.9359146 0.05726,0.2679063 0.06162,0.3817882 0.07262,1.8950135 l 0.0117,1.6099775 -0.09389,0.1077997 c -0.283014,0.3249341 -0.944157,0.5654312 -1.92299,0.699506 -0.478471,0.065538 -1.7445968,0.094447 -2.2652666,0.051722 z"
     id="path675" />
  <path
     id="path825"
     style="fill:#666666;fill-rule:evenodd;stroke-width:1"
     d="m 26.324734,12.470416 c -0.02748,0.0025 -0.05496,0.005 -0.08249,0.0072 -0.0073,0.02918 -0.01479,0.05842 -0.02241,0.08754 0.0024,0.0517 0.0053,0.10346 0.0076,0.155163 0.03196,-0.0049 0.06376,-0.005 0.09537,0.0097 4.89e-4,-0.0013 0.0012,-0.0024 0.002,-0.0036 v -0.07788 z m -0.314235,6.205323 c 0.01362,0.0059 0.02962,0.0071 0.05007,6.18e-4 -0.01667,6.8e-4 -0.03337,1.55e-4 -0.05007,-6.18e-4 z m 0.314235,0.05917 c -0.0055,0.0012 -0.0053,4.33e-4 -0.01716,0.0036 -7.32e-4,1.84e-4 0.0015,4.02e-4 0.0015,6.18e-4 0.0053,-0.0013 0.0105,-0.0028 0.01575,-0.0042 z m -0.0052,0.0097 c -0.140959,0.09865 -0.221848,0.131809 -0.210285,0.138259 -0.02559,9.89e-4 -0.05107,0.0041 -0.07677,0.003 -0.01113,-4.95e-4 -0.02224,-0.0018 -0.03338,-0.0024 -0.07508,0.0354 -0.129973,0.04174 -0.199795,0.03139 -2.44e-4,1.25e-4 -7.32e-4,-1.27e-4 -9.77e-4,0 -9.76e-4,4.32e-4 -0.0017,0.0014 -0.0029,0.0018 -0.06894,0.0449 -0.121838,0.07102 -0.191687,0.07305 -0.02261,0.007 -0.02636,0.0064 -0.02051,0.0012 -0.03648,-3.71e-4 -0.05326,2.93e-4 -0.05102,-0.0012 -0.07202,0.01149 -0.129202,0.0029 -0.189783,-0.02415 -0.02938,-2.2e-4 -0.0603,-0.0033 -0.115393,-0.01147 -0.0343,-0.0051 -0.07688,0.007 -0.102044,-0.02294 -0.02085,-0.02481 -0.03405,-0.03795 -0.04959,-0.05494 -0.0815,-0.02141 -0.0859,-0.02522 -0.0391,-0.04347 -7.32e-4,-6.8e-4 -0.0012,-0.0017 -0.002,-0.0024 -0.0115,1.76e-4 -0.02275,-3.71e-4 -0.03386,-0.0012 -0.07993,0.07642 -0.159278,0.09411 -0.219344,-0.01087 -0.04276,-0.002 -0.08795,-0.0058 -0.102522,-0.0072 -0.08379,-0.0018 -0.12623,-1.65e-4 -0.197409,-0.03441 l -1.275063,0.0078 -1.599311,0.01026 -0.137806,0.107467 c -0.08536,0.06683 -0.169899,0.174434 -0.222683,0.282554 l -0.08535,0.174484 v 2.870821 c 0,2.845572 7.08e-4,2.874102 0.06342,3.232468 0.393675,2.249972 1.719462,3.935095 3.460885,4.398908 0.151032,0.04023 0.40779,0.08416 0.570297,0.0972 0.803494,0.06451 1.565979,-0.126385 2.254485,-0.564505 1.249399,-0.795036 2.076443,-2.156313 2.392292,-3.937041 0.06209,-0.350126 0.06345,-0.405235 0.07343,-3.207714 l 0.01001,-2.852105 -0.08011,-0.193803 c -0.05865,-0.142157 -0.116377,-0.222524 -0.216961,-0.30128 l -0.137329,-0.107467 -1.613139,-0.01026 -1.613618,-0.0097 v -0.03019 c -0.0017,-5e-6 -0.0035,-9e-6 -0.0052,0 z m -1.538276,0.07366 c 0.05609,0.0026 0.108699,0.0011 0.124929,-0.01026 -0.01716,-0.0066 -0.03348,-0.01427 -0.04911,-0.02355 -0.01838,-0.0039 -0.03194,-0.0054 -0.0515,-0.0097 -4.88e-4,-1.16e-4 -9.77e-4,1.18e-4 -0.0015,0 h -0.04482 c 0.0071,0.01625 0.01433,0.03014 0.02192,0.04347 z m 1.106738,0.05977 c 0.01265,-0.0029 -0.05361,0.02141 -0.07486,0.03079 0.0029,-7.42e-4 0.0057,-2.2e-4 0.0086,-0.0012 0.02258,-0.0079 0.04324,-0.02426 0.06628,-0.02958 z m -0.206948,0.01268 c 0.03493,0.0098 0.072,0.02386 0.108721,0.02234 -0.03194,-0.0052 -0.06621,-0.01251 -0.108721,-0.02234 z m 0.136853,0.01147 c -0.0044,0.0029 -0.0092,0.0057 -0.01335,0.0085 7.32e-4,-1.37e-4 0.0015,-4.33e-4 0.0024,-6.18e-4 0.009,-0.0025 0.01267,-0.0037 0.01096,-0.0078 z" />
</svg>
