<svg width="15" height="15" xmlns="http://www.w3.org/2000/svg">
 <style type="text/css">.st0{fill-rule:evenodd;clip-rule:evenodd;fill:#F09418;}
	.st1{fill-rule:evenodd;clip-rule:evenodd;fill:#FFD203;}</style>

 <g>
  <title>background</title>
  <rect fill="none" id="canvas_background" height="17" width="17" y="-1" x="-1"/>
 </g>
 <g>
  <title>Layer 1</title>
  <g id="svg_1">
   <path id="svg_2" d="m7.474346,2.635724c0.728078,-0.517848 0.831254,-1.240141 0.004691,-2.258698c-0.358763,0.377062 -1.118497,1.472745 -0.004691,2.258698l0,0l0,0z" class="st0"/>
   <path id="svg_3" d="m10.655145,12.112463c0.046901,-0.119974 0.177041,-0.177513 0.291938,-0.128543s0.17,0.184855 0.123102,0.304832c-0.091449,0.236278 -0.198138,0.471327 -0.304832,0.707603c-0.201656,0.44562 -0.404486,0.894911 -0.510005,1.371134c-0.028137,0.126096 -0.147727,0.204446 -0.268487,0.17629c-0.120759,-0.029381 -0.195795,-0.15425 -0.16883,-0.280348c0.116072,-0.526418 0.329454,-0.998968 0.541662,-1.466623c0.103173,-0.227707 0.205175,-0.452963 0.295451,-0.684343l0,0l0,0z" class="st0"/>
   <path id="svg_4" d="m3.804644,12.287529c-0.046898,-0.119976 0.009377,-0.255865 0.123103,-0.304833c0.1149,-0.048968 0.24504,0.009793 0.291934,0.128545c0.090279,0.232603 0.192279,0.457859 0.294281,0.683117c0.204003,0.451739 0.410351,0.907151 0.529938,1.413983c0.02931,0.12487 -0.044549,0.252191 -0.165312,0.28157c-0.119586,0.030604 -0.241519,-0.046519 -0.269657,-0.172615c-0.107862,-0.457861 -0.304834,-0.89246 -0.499455,-1.324613c-0.106693,-0.233829 -0.212212,-0.468879 -0.304831,-0.705154l0,0l0,0z" class="st0"/>
   <path id="svg_5" d="m7.218756,11.331407c0,-0.129768 0.10083,-0.233826 0.223936,-0.233826c0.124277,0 0.223936,0.10528 0.223936,0.233826l0,2.862241c0,0.12977 -0.100829,0.233828 -0.223936,0.233828c-0.124277,0 -0.223936,-0.105283 -0.223936,-0.233828l0,-2.862241l0,0l0,0z" class="st0"/>
   <path id="svg_6" d="m13.450217,5.320453c0.708148,-0.181185 0.988358,-0.708827 0.630767,-1.749419c-0.383384,0.183633 -1.275601,0.803092 -0.630767,1.749419l0,0l0,0z" class="st0"/>
   <path id="svg_7" d="m13.264973,6.302283c0.580355,0.281572 0.907464,0.257087 1.394019,-0.658635c-0.602629,-0.06121 -1.18767,-0.259535 -1.394019,0.658635l0,0l0,0zm-0.350555,-0.13589c-0.614354,-0.184858 -0.846495,-0.428479 -0.637801,-1.453157c0.493592,0.367268 1.058702,0.618235 0.637801,1.453157l0,0l0,0zm-1.920438,5.347422c-0.835943,-0.25219 -1.151324,-0.582732 -0.867598,-1.975903c0.6718,0.498261 1.440916,0.839821 0.867598,1.975903l0,0l0,0zm0.528767,-1.475194c-0.835944,-0.25219 -1.151327,-0.58273 -0.867601,-1.975901c0.671803,0.49826 1.439747,0.83982 0.867601,1.975901l0,0l0,0zm0.519383,-1.445811c-0.74332,-0.224033 -1.023529,-0.517847 -0.77146,-1.756765c0.597941,0.44317 1.281469,0.746778 0.77146,1.756765l0,0l0,0zm0.463111,-1.285438c-0.660075,-0.198325 -0.908632,-0.460309 -0.6847,-1.559665c0.529941,0.392977 1.136085,0.663532 0.6847,1.559665l0,0l0,0zm-1.151325,4.346005c0.789043,0.383182 1.234568,0.348904 1.896992,-0.897358c-0.820704,-0.083247 -1.615611,-0.351353 -1.896992,0.897358l0,0l0,0zm0.528763,-1.475193c0.789047,0.383183 1.234571,0.348906 1.896994,-0.897359c-0.820703,-0.083247 -1.61561,-0.351352 -1.896994,0.897359l0,0l0,0zm0.51587,-1.447036c0.702286,0.340335 1.097394,0.310953 1.685955,-0.796973c-0.729253,-0.074677 -1.436228,-0.313402 -1.685955,0.796973l0,0l0,0zm0.458421,-1.286664c0.622561,0.302385 0.97429,0.275452 1.497191,-0.707602c-0.647182,-0.066109 -1.275603,-0.2779 -1.497191,0.707602l0,0l0,0z" class="st1"/>
   <path id="svg_8" d="m1.460957,5.282502c-0.708145,-0.181185 -0.988355,-0.708827 -0.630766,-1.74942c0.383383,0.184859 1.275602,0.803093 0.630766,1.74942l0,0l0,0z" class="st0"/>
   <path id="svg_9" d="m1.646201,6.265556c-0.580351,0.281573 -0.907459,0.255863 -1.394018,-0.659859c0.602628,-0.061211 1.187672,-0.258311 1.394018,0.659859l0,0l0,0zm2.270997,5.21031c0.835941,-0.252192 1.151325,-0.582733 0.867598,-1.975904c-0.671803,0.49826 -1.440916,0.841043 -0.867598,1.975904l0,0l0,0zm-0.528767,-1.475194c0.835944,-0.252191 1.151326,-0.582732 0.867599,-1.975903c-0.671803,0.498261 -1.439743,0.83982 -0.867599,1.975903l0,0l0,0zm-0.519386,-1.445812c0.743322,-0.224033 1.023532,-0.517848 0.771459,-1.756765c-0.597938,0.44317 -1.281465,0.746778 -0.771459,1.756765l0,0l0,0zm-0.463108,-1.285438c0.660077,-0.198325 0.90863,-0.46031 0.684697,-1.559665c-0.529937,0.394201 -1.136082,0.66353 -0.684697,1.559665l0,0l0,0zm-0.409177,-1.140981c0.614349,-0.184857 0.846492,-0.428479 0.6378,-1.453156c-0.493593,0.367268 -1.058703,0.618235 -0.6378,1.453156l0,0l0,0zm1.560502,5.488209c-0.789046,0.383185 -1.234567,0.348907 -1.896991,-0.897358c0.8207,-0.083247 1.615607,-0.352576 1.896991,0.897358l0,0l0,0zm-0.528766,-1.475191c-0.789046,0.38318 -1.234567,0.348904 -1.896991,-0.89736c0.8207,-0.083246 1.615607,-0.352577 1.896991,0.89736l0,0l0,0zm-0.515869,-1.448261c-0.702284,0.340336 -1.097394,0.310953 -1.685952,-0.796972c0.729249,-0.074677 1.436226,-0.313402 1.685952,0.796972l0,0l0,0zm-0.458421,-1.285438c-0.622559,0.302382 -0.974288,0.275451 -1.497191,-0.707603c0.64718,-0.067333 1.275602,-0.279124 1.497191,0.707603l0,0l0,0z" class="st1"/>
   <path id="svg_10" d="m7.66428,5.303314c0.827734,0.067333 1.214636,-0.11875 1.408085,-1.462951c-0.759733,0.211791 -1.555812,0.248518 -1.408085,1.462951l0,0l0,0zm-0.001173,-1.472745c0.771459,0.062436 1.131394,-0.11018 1.310775,-1.362564c-0.706974,0.195876 -1.447949,0.231379 -1.310775,1.362564l0,0l0,0zm-0.457248,6.903415c-1.049323,0.084471 -1.539398,-0.150578 -1.783265,-1.853478c0.962565,0.266879 1.970853,0.314625 1.783265,1.853478l0,0l0,0zm0,-1.904898c-1.049323,0.084473 -1.539398,-0.150579 -1.783265,-1.853478c0.962565,0.268105 1.970853,0.31585 1.783265,1.853478l0,0l0,0zm0.002347,-1.865721c-0.933256,0.075902 -1.369398,-0.13344 -1.586296,-1.64781c0.855872,0.237501 1.752781,0.279125 1.586296,1.64781l0,0l0,0zm0.002344,-1.660051c-0.827734,0.067333 -1.214633,-0.11875 -1.408088,-1.462951c0.759735,0.211791 1.555815,0.248518 1.408088,1.462951l0,0l0,0zm0.001173,-1.472745c-0.771459,0.062436 -1.131394,-0.11018 -1.310775,-1.362564c0.706974,0.195876 1.449122,0.231379 1.310775,1.362564l0,0l0,0zm0.458421,6.903415c1.049324,0.084471 1.539399,-0.150578 1.783266,-1.853478c-0.962567,0.266879 -1.97203,0.314625 -1.783266,1.853478l0,0l0,0zm0,-1.904898c1.049324,0.084473 1.539399,-0.150579 1.783266,-1.853478c-0.962567,0.268105 -1.97203,0.31585 -1.783266,1.853478l0,0l0,0zm-0.003516,-1.865721c0.93325,0.075902 1.369393,-0.13344 1.586297,-1.64781c-0.855875,0.237501 -1.752785,0.279125 -1.586297,1.64781l0,0l0,0z" class="st1"/>
  </g>
 </g>
</svg>