<svg width="30" height="30" xmlns="http://www.w3.org/2000/svg">
 <style type="text/css">.st0{fill-rule:evenodd;clip-rule:evenodd;fill:#F09418;}
	.st1{fill-rule:evenodd;clip-rule:evenodd;fill:#FFD203;}</style>

 <g>
  <title>background</title>
  <rect fill="none" id="canvas_background" height="32" width="32" y="-1" x="-1"/>
 </g>
 <g>
  <title>Layer 1</title>
  <g id="svg_1">
   <path id="svg_2" d="m15.109668,5.083015c1.497809,-1.078934 1.710061,-2.58383 0.00965,-4.70599c-0.73805,0.785607 -2.300982,3.068458 -0.00965,4.70599l0,0l0,0z" class="st0"/>
   <path id="svg_3" d="m21.653231,24.827766c0.096485,-0.249966 0.36421,-0.369846 0.600576,-0.267818s0.349726,0.385147 0.253246,0.635117c-0.188128,0.492283 -0.40761,0.982008 -0.6271,1.474287c-0.41485,0.928446 -0.832111,1.864542 -1.049187,2.856752c-0.057884,0.26272 -0.303905,0.425962 -0.552334,0.367298c-0.248426,-0.061214 -0.40279,-0.321381 -0.347319,-0.584105c0.238785,-1.096788 0.677757,-2.081347 1.114313,-3.055704c0.212248,-0.474426 0.422087,-0.943747 0.607803,-1.425827l0,0l0,0z" class="st0"/>
   <path id="svg_4" d="m7.560332,25.192516c-0.096478,-0.249969 0.019291,-0.533094 0.253249,-0.635118c0.236372,-0.102026 0.504097,0.020403 0.600568,0.267822c0.185722,0.484627 0.395557,0.953947 0.605396,1.423271c0.419676,0.941196 0.844176,1.890047 1.090191,2.94603c0.060298,0.260166 -0.091646,0.525438 -0.34008,0.586651c-0.246014,0.063765 -0.496855,-0.096924 -0.55474,-0.359642c-0.221895,-0.953953 -0.627107,-1.859438 -1.027483,-2.759827c-0.21949,-0.487181 -0.436564,-0.976908 -0.627101,-1.469187l0,0l0,0z" class="st0"/>
   <path id="svg_5" d="m14.583867,23.200439c0,-0.270372 0.207428,-0.487175 0.460682,-0.487175c0.255663,0 0.460682,0.219351 0.460682,0.487175l0,5.963469c0,0.270374 -0.207426,0.487179 -0.460682,0.487179c-0.255663,0 -0.460682,-0.219357 -0.460682,-0.487179l0,-5.963469l0,0l0,0z" class="st0"/>
   <path id="svg_6" d="m27.403275,10.676639c1.456806,-0.377499 2.033258,-1.476839 1.297617,-3.644909c-0.788698,0.382599 -2.624176,1.67324 -1.297617,3.644909l0,0l0,0z" class="st0"/>
   <path id="svg_7" d="m27.022188,12.722279c1.193909,0.586656 1.86684,0.53564 2.867786,-1.372264c-1.239733,-0.127531 -2.443283,-0.540741 -2.867786,1.372264l0,0l0,0zm-0.721165,-0.283125c-1.263855,-0.385151 -1.741415,-0.892735 -1.31209,-3.027649c1.015421,0.765202 2.177969,1.288091 1.31209,3.027649l0,0l0,0zm-3.950739,11.141335c-1.719709,-0.525436 -2.368513,-1.214121 -1.784828,-4.116785c1.38203,1.038126 2.964262,1.749763 1.784828,4.116785l0,0l0,0zm1.087782,-3.073561c-1.719709,-0.525436 -2.368519,-1.214117 -1.784836,-4.116783c1.38204,1.038124 2.961857,1.749762 1.784836,4.116783l0,0l0,0zm1.06848,-3.012342c-1.529161,-0.466774 -2.105612,-1.078934 -1.587051,-3.660214c1.230089,0.923344 2.636248,1.55591 1.587051,3.660214l0,0l0,0zm0.952715,-2.678205c-1.357912,-0.413209 -1.869246,-0.959051 -1.408569,-3.249557c1.090197,0.818766 2.337162,1.382466 1.408569,3.249557l0,0l0,0zm-2.368515,9.054886c1.623226,0.798359 2.539762,0.72694 3.902506,-1.86964c-1.688358,-0.173447 -3.323647,-0.732042 -3.902506,1.86964l0,0l0,0zm1.087776,-3.073559c1.623232,0.798361 2.539766,0.726944 3.902508,-1.869644c-1.688354,-0.173445 -3.323645,-0.73204 -3.902508,1.869644l0,0l0,0zm1.061251,-3.014894c1.444748,0.709087 2.257566,0.647871 3.468359,-1.66049c-1.500225,-0.155589 -2.954618,-0.652971 -3.468359,1.66049l0,0l0,0zm0.943068,-2.680758c1.280735,0.630017 2.004314,0.573902 3.080032,-1.474287c-1.331388,-0.137736 -2.62418,-0.579003 -3.080032,1.474287l0,0l0,0z" class="st1"/>
   <path id="svg_8" d="m2.738881,10.597568c-1.456801,-0.377498 -2.033251,-1.476839 -1.297616,-3.64491c0.788699,0.385152 2.624177,1.673241 1.297616,3.64491l0,0l0,0z" class="st0"/>
   <path id="svg_9" d="m3.119967,12.645759c-1.193902,0.586656 -1.866832,0.53309 -2.867784,-1.374815c1.239731,-0.127532 2.443288,-0.53819 2.867784,1.374815l0,0l0,0zm4.671911,10.855662c1.719704,-0.525442 2.368515,-1.214123 1.784829,-4.116789c-1.382039,1.038124 -2.964262,1.752312 -1.784829,4.116789l0,0l0,0zm-1.087783,-3.073563c1.71971,-0.525438 2.368515,-1.214119 1.78483,-4.116785c-1.382038,1.038126 -2.961849,1.749762 -1.78483,4.116785l0,0l0,0zm-1.068485,-3.012344c1.529167,-0.466772 2.105618,-1.078934 1.587051,-3.660213c-1.230083,0.923342 -2.636239,1.555909 -1.587051,3.660213l0,0l0,0zm-0.952709,-2.678205c1.357914,-0.413208 1.86924,-0.959054 1.408564,-3.249557c-1.09019,0.821316 -2.337156,1.382463 -1.408564,3.249557l0,0l0,0zm-0.841762,-2.377229c1.263843,-0.38515 1.741409,-0.892735 1.312086,-3.027646c-1.015422,0.765202 -2.177972,1.28809 -1.312086,3.027646l0,0l0,0zm3.210277,11.434664c-1.623231,0.798365 -2.539761,0.726944 -3.902503,-1.869642c1.68835,-0.173445 3.323638,-0.734592 3.902503,1.869642l0,0l0,0zm-1.087782,-3.073557c-1.623231,0.798355 -2.539761,0.72694 -3.902503,-1.869644c1.688351,-0.173445 3.323638,-0.734594 3.902503,1.869644l0,0l0,0zm-1.06125,-3.017447c-1.444744,0.709089 -2.257567,0.647871 -3.468353,-1.660488c1.500215,-0.155591 2.954614,-0.652972 3.468353,1.660488l0,0l0,0zm-0.943067,-2.678205c-1.280733,0.630013 -2.004312,0.573901 -3.080032,-1.474289c1.331383,-0.140287 2.624178,-0.581554 3.080032,1.474289l0,0l0,0z" class="st1"/>
   <path id="svg_10" d="m15.500403,10.64093c1.702819,0.140287 2.498759,-0.247415 2.896724,-3.048053c-1.562929,0.441266 -3.200629,0.517787 -2.896724,3.048053l0,0l0,0zm-0.002414,-3.06846c1.587051,0.130085 2.327513,-0.229559 2.696537,-2.838897c-1.454391,0.408107 -2.978731,0.482076 -2.696537,2.838897l0,0l0,0zm-0.940654,14.383241c-2.158674,0.175995 -3.166862,-0.31373 -3.668545,-3.861715c1.980195,0.556042 4.054453,0.655519 3.668545,3.861715l0,0l0,0zm0,-3.968847c-2.158674,0.175999 -3.166862,-0.313732 -3.668545,-3.861716c1.980195,0.558597 4.054453,0.658072 3.668545,3.861716l0,0l0,0zm0.004827,-3.887224c-1.919902,0.158142 -2.817135,-0.278022 -3.26334,-3.433205c1.760706,0.494833 3.605833,0.581555 3.26334,3.433205l0,0l0,0zm0.004821,-3.45871c-1.702821,0.140287 -2.498753,-0.247415 -2.896729,-3.048053c1.562932,0.441266 3.200634,0.517787 2.896729,3.048053l0,0l0,0zm0.002414,-3.06846c-1.58705,0.130085 -2.327513,-0.229559 -2.696537,-2.838897c1.454392,0.408107 2.981145,0.482076 2.696537,2.838897l0,0l0,0zm0.943067,14.383241c2.158676,0.175995 3.166862,-0.31373 3.668547,-3.861715c-1.9802,0.556042 -4.056873,0.655519 -3.668547,3.861715l0,0l0,0zm0,-3.968847c2.158676,0.175999 3.166862,-0.313732 3.668547,-3.861716c-1.9802,0.558597 -4.056873,0.658072 -3.668547,3.861716l0,0l0,0zm-0.007234,-3.887224c1.919888,0.158142 2.817126,-0.278022 3.263341,-3.433205c-1.760712,0.494833 -3.605841,0.581555 -3.263341,3.433205l0,0l0,0z" class="st1"/>
  </g>
 </g>
</svg>