<?xml version="1.0" encoding="UTF-8" standalone="no"?>
<svg
   version="1.1"
   id="Layer_1"
   x="0px"
   y="0px"
   viewBox="0 0 30 30.000001"
   xml:space="preserve"
   sodipodi:docname="pest30.svg"
   width="30"
   height="30"
   inkscape:version="1.1.1 (3bf5ae0d25, 2021-09-20)"
   xmlns:inkscape="http://www.inkscape.org/namespaces/inkscape"
   xmlns:sodipodi="http://sodipodi.sourceforge.net/DTD/sodipodi-0.dtd"
   xmlns="http://www.w3.org/2000/svg"
   xmlns:svg="http://www.w3.org/2000/svg"><defs
     id="defs11" /><sodipodi:namedview
     id="namedview9"
     pagecolor="#ffffff"
     bordercolor="#666666"
     borderopacity="1.0"
     inkscape:pageshadow="2"
     inkscape:pageopacity="0.0"
     inkscape:pagecheckerboard="0"
     showgrid="false"
     inkscape:zoom="6.8522137"
     inkscape:cx="59.542802"
     inkscape:cy="38.08988"
     inkscape:window-width="1920"
     inkscape:window-height="1046"
     inkscape:window-x="-11"
     inkscape:window-y="-11"
     inkscape:window-maximized="1"
     inkscape:current-layer="Layer_1" /><style
     type="text/css"
     id="style2">.st0{fill-rule:evenodd;clip-rule:evenodd;}</style><g
     id="g6"
     transform="matrix(0.25180493,0,0,0.24413977,5.2394954e-4,-3.2576049e-4)"
     style="stroke-width:4.03319"><path
       class="st0"
       d="m 70.04,38.1 c -1.69,0 -3.06,1.37 -3.06,3.06 0,1.69 1.37,3.06 3.06,3.06 1.69,0 3.06,-1.37 3.06,-3.06 0.01,-1.68 -1.37,-3.06 -3.06,-3.06 z M 59.75,22.53 c 3.34,0 6.53,1 9.49,2.82 0.08,-0.07 0.16,-0.13 0.25,-0.19 3.94,-2.69 7.28,-5.63 9.59,-9.16 2.25,-3.43 3.61,-7.51 3.7,-12.57 0.03,-1.92 1.62,-3.46 3.55,-3.43 1.93,0.03 3.47,1.62 3.44,3.55 -0.12,6.5 -1.89,11.8 -4.85,16.3 -2.62,3.98 -6.1,7.26 -10.16,10.18 4.3,4.73 7.75,11.44 9.89,19.35 -0.07,0.02 -0.14,0.05 -0.21,0.08 -4.8,2.01 -14.38,3.24 -24.4,3.33 -9.22,0.09 -18.68,-0.8 -24.98,-2.92 -0.1,-0.03 -0.21,-0.06 -0.31,-0.09 2.1,-8 5.54,-14.8 9.86,-19.6 C 40.47,27.23 36.9,23.9 34.24,19.85 31.28,15.35 29.51,10.05 29.39,3.55 29.35,1.62 30.9,0.03 32.83,0 c 1.93,-0.03 3.52,1.51 3.55,3.44 0.09,5.06 1.44,9.14 3.7,12.57 2.32,3.52 5.65,6.47 9.59,9.16 0.14,0.1 0.27,0.2 0.4,0.31 3,-1.9 6.27,-2.95 9.68,-2.95 z m 26.21,32.78 0.01,0.08 0.44,-0.25 c 0.11,-0.05 0.23,-0.09 0.33,-0.14 0.33,-0.14 0.63,-0.33 0.88,-0.56 l 14.96,-8.58 c 1.62,-0.93 3.66,-0.42 4.67,1.12 l 11.21,15.26 c 1.14,1.56 0.81,3.75 -0.75,4.9 -1.56,1.14 -3.75,0.81 -4.89,-0.75 l -9.46,-12.88 -16.49,9.45 c 0.11,1.63 0.16,3.28 0.16,4.96 0,0.81 -0.01,1.61 -0.04,2.41 h 17.14 c 1.26,0 2.37,0.67 2.99,1.67 l 10.99,14.48 c 1.17,1.54 0.87,3.73 -0.67,4.9 -1.54,1.17 -3.73,0.87 -4.9,-0.67 L 102.4,77.35 H 86.83 c -0.13,0 -0.26,-0.01 -0.39,-0.02 -0.28,2.17 -0.64,4.29 -1.1,6.34 h 11.72 c 1.94,0 3.51,1.57 3.51,3.51 v 32.19 c 0,1.94 -1.57,3.51 -3.51,3.51 -1.94,0 -3.51,-1.57 -3.51,-3.51 V 90.69 H 83.35 C 79.06,103 71.38,111.63 62.45,113.1 V 58.74 c 9.4,-0.26 18.31,-1.49 23.51,-3.43 z m -29.53,57.67 c -8.67,-1.75 -16.09,-10.28 -20.29,-22.3 -0.09,0.01 -0.18,0.01 -0.26,0.01 H 25.59 v 28.68 c 0,1.94 -1.57,3.51 -3.51,3.51 -1.94,0 -3.51,-1.57 -3.51,-3.51 V 87.18 c 0,-1.94 1.57,-3.51 3.51,-3.51 h 12.08 c -0.46,-2.07 -0.83,-4.2 -1.11,-6.4 -0.24,0.05 -0.49,0.08 -0.75,0.08 H 16.74 L 6.6,90.7 C 5.43,92.24 3.24,92.54 1.71,91.37 0.17,90.2 -0.13,88.01 1.04,86.47 L 12.03,72 c 0.62,-1 1.73,-1.67 2.99,-1.67 h 17.29 c 0.07,0 0.14,0 0.21,0.01 -0.03,-0.8 -0.04,-1.6 -0.04,-2.41 0,-1.58 0.05,-3.15 0.14,-4.69 -0.2,-0.07 -0.39,-0.16 -0.57,-0.26 L 15.8,53.73 6.33,66.63 c -1.14,1.56 -3.34,1.9 -4.9,0.75 -1.56,-1.15 -1.9,-3.33 -0.75,-4.89 L 12,47.08 v 0 c 1.03,-1.42 2.99,-1.86 4.55,-0.97 l 15.59,8.87 c 0.29,0.25 0.63,0.45 1.02,0.58 h 0.01 l 0.31,0.18 0.01,-0.07 c 6.07,1.98 14.48,2.95 22.95,3.1 v 54.21 z M 49.46,38.1 c -1.69,0 -3.06,1.37 -3.06,3.06 0,1.69 1.37,3.06 3.06,3.06 1.69,0 3.06,-1.37 3.06,-3.06 0.01,-1.68 -1.37,-3.06 -3.06,-3.06 z"
       id="path4"
       style="stroke-width:4.03319" /></g><path
     style="fill:#ff0000;fill-rule:evenodd;stroke-width:0.999999"
     d="M 5.1360999,29.856022 C 4.918964,29.735288 4.7828128,29.559283 4.7234692,29.322611 4.6952482,29.21006 4.6863962,27.957108 4.6937652,25.118351 l 0.010498,-4.043929 0.079463,-0.142518 c 0.043705,-0.07838 0.134656,-0.193812 0.2021137,-0.256507 0.2430454,-0.225881 0.2305516,-0.224488 2.0139913,-0.224488 0.8899501,0 1.6180909,-0.0088 1.6180909,-0.01966 0,-0.01081 -0.033859,-0.183171 -0.075243,-0.383016 -0.041383,-0.199844 -0.1040037,-0.547735 -0.1391557,-0.77309 -0.063594,-0.407692 -0.064411,-0.409726 -0.1636193,-0.407511 -0.054838,0.0012 -0.9889518,0.0052 -2.0758073,0.0089 L 4.1879956,18.883215 2.88391,20.547486 C 1.9798762,21.701214 1.5315606,22.244648 1.4224932,22.31897 1.2934837,22.406881 1.2202675,22.42864 1.0157728,22.439843 0.80255806,22.451524 0.73877416,22.43995 0.57603654,22.359986 0.34396402,22.245965 0.18550496,22.045116 0.12673156,21.790483 0.04188492,21.422889 0.0449013,21.418106 1.6568518,19.364214 2.4565897,18.345215 3.1469596,17.473236 3.191007,17.426483 c 0.044047,-0.04675 0.1545007,-0.118902 0.2454519,-0.160332 0.1620425,-0.07381 0.2117088,-0.07553 2.471301,-0.0855 l 2.3059349,-0.01018 v -0.889464 c 0,-0.551688 -0.013555,-0.889464 -0.035692,-0.889464 -0.019631,0 -0.9642356,-0.513062 -2.0991212,-1.140138 -1.1348855,-0.627077 -2.0768603,-1.140139 -2.0932763,-1.140139 -0.016418,0 -0.5709911,0.714401 -1.2323882,1.587557 C 2.0918198,15.571979 1.4849942,16.34089 1.4047156,16.407514 1.2070876,16.571526 0.94488327,16.628836 0.67709301,16.56655 0.52115329,16.530281 0.44229679,16.483429 0.29447446,16.33922 0.03328861,16.084419 -0.04272622,15.799064 0.06948889,15.49464 0.14200199,15.297921 3.1208192,11.384201 3.2626287,11.299332 c 0.1974402,-0.118163 0.4418781,-0.162469 0.6355219,-0.115194 0.094528,0.02308 1.0446092,0.525143 2.1773172,1.150592 1.1052851,0.610306 2.0757554,1.145594 2.1566012,1.189529 0.2930009,0.159231 1.4891131,0.435699 2.519909,0.582449 0.882907,0.125696 2.471429,0.251585 3.174606,0.251585 h 0.27703 v 6.591426 c 0,6.503338 -9.57e-4,6.591426 -0.07141,6.591426 -0.12242,0 -0.741589,-0.215346 -1.049408,-0.364984 C 12.31428,26.802571 11.569103,26.192627 10.926206,25.41094 10.30199,24.651961 9.6418782,23.495915 9.2587232,22.490688 L 9.1195227,22.125487 H 7.7662835 6.4130445 l -8.058e-4,3.607469 c -7.554e-4,3.438254 -0.00401,3.614155 -0.069009,3.749987 -0.2122409,0.443509 -0.7702859,0.615979 -1.2071298,0.373079 z"
     id="path87" /><path
     style="fill:#ff0000;fill-rule:evenodd;stroke-width:0.999999"
     d="m 24.272557,29.957243 c -0.297822,-0.05067 -0.576958,-0.301901 -0.660874,-0.59481 -0.0236,-0.08236 -0.037,-1.411961 -0.03713,-3.682919 l -2.06e-4,-3.554027 h -1.29894 -1.29894 l -0.157254,0.40083 c -0.758357,1.93301 -1.953153,3.513549 -3.299466,4.364703 -0.492336,0.311262 -1.18227,0.595743 -1.616538,0.666553 l -0.156179,0.02546 v -6.612371 -6.612373 l 0.119431,-3.41e-4 c 0.619907,-0.0018 2.305667,-0.142809 3.216827,-0.2691 1.166073,-0.161622 2.451517,-0.466231 2.802343,-0.664065 0.07991,-0.04506 1.034129,-0.578535 2.120496,-1.1855 l 1.975211,-1.103573 0.257236,-0.01147 c 0.475597,-0.02121 0.41392,-0.08402 2.096485,2.13507 0.807438,1.064907 1.505275,2.00707 1.550751,2.093696 0.05611,0.106888 0.08268,0.220644 0.08268,0.35399 0,0.736508 -0.942529,1.105764 -1.456777,0.570723 -0.06351,-0.06608 -0.623787,-0.79354 -1.245052,-1.616578 -0.621266,-0.823037 -1.156352,-1.523865 -1.189076,-1.557396 -0.05571,-0.05708 -0.191669,0.01253 -2.135761,1.093636 -1.904157,1.058894 -2.07607,1.162147 -2.073963,1.24564 0.0013,0.05007 0.0054,0.459115 0.0092,0.908987 l 0.0069,0.817948 2.269187,0.01043 2.269185,0.01043 0.190156,0.10218 c 0.172761,0.09283 0.325286,0.274842 1.667399,1.989712 0.812487,1.038143 1.502719,1.93704 1.533852,1.997549 0.07646,0.148599 0.09769,0.404409 0.04831,0.582188 -0.05363,0.193091 -0.294098,0.453213 -0.490095,0.530141 -0.310081,0.121707 -0.7362,0.04453 -0.935561,-0.169443 -0.04092,-0.04392 -0.624582,-0.785312 -1.29703,-1.647541 -0.672445,-0.86223 -1.249431,-1.595247 -1.282191,-1.628927 -0.05467,-0.05621 -0.225763,-0.06206 -2.085932,-0.07126 l -2.026374,-0.01002 -0.04456,0.320664 c -0.02451,0.176365 -0.08407,0.521079 -0.132368,0.76603 -0.04829,0.244952 -0.0879,0.456907 -0.08801,0.471011 -1.11e-4,0.0141 0.724595,0.03014 1.610457,0.03563 l 1.610658,0.01 0.179834,0.10783 c 0.111408,0.0668 0.222151,0.174189 0.291049,0.282231 l 0.111216,0.174402 0.0109,4.100175 c 0.008,2.998925 -5.04e-4,4.138454 -0.03114,4.242695 -0.118975,0.403365 -0.549713,0.656152 -0.990319,0.581187 z"
     id="path126" /><path
     style="fill:#ff0000;fill-rule:evenodd;stroke-width:0.999999"
     d="m 15.72827,20.967534 c 0,-3.64488 0.0043,-5.141249 0.0096,-3.325264 0.0053,1.815985 0.0053,4.79816 1e-6,6.627055 -0.0053,1.828896 -0.0096,0.34309 -0.0096,-3.301791 z"
     id="path165" /></svg>
