<?xml version="1.0" encoding="UTF-8" standalone="no"?>
<svg
   version="1.1"
   id="Layer_1"
   x="0px"
   y="0px"
   viewBox="0 0 15 15.000001"
   xml:space="preserve"
   sodipodi:docname="pest15.svg"
   width="15"
   height="15"
   inkscape:version="1.1.1 (3bf5ae0d25, 2021-09-20)"
   xmlns:inkscape="http://www.inkscape.org/namespaces/inkscape"
   xmlns:sodipodi="http://sodipodi.sourceforge.net/DTD/sodipodi-0.dtd"
   xmlns="http://www.w3.org/2000/svg"
   xmlns:svg="http://www.w3.org/2000/svg"><defs
     id="defs11" /><sodipodi:namedview
     id="namedview9"
     pagecolor="#ffffff"
     bordercolor="#666666"
     borderopacity="1.0"
     inkscape:pageshadow="2"
     inkscape:pageopacity="0.0"
     inkscape:pagecheckerboard="0"
     showgrid="false"
     inkscape:zoom="26.933333"
     inkscape:cx="15"
     inkscape:cy="15"
     inkscape:window-width="1920"
     inkscape:window-height="1046"
     inkscape:window-x="-11"
     inkscape:window-y="-11"
     inkscape:window-maximized="1"
     inkscape:current-layer="Layer_1" /><style
     type="text/css"
     id="style2">.st0{fill-rule:evenodd;clip-rule:evenodd;}</style><g
     id="g6"
     transform="matrix(0.12590246,0,0,0.12206988,2.6197402e-4,-3.7837015e-4)"
     style="stroke-width:8.06638"><path
       class="st0"
       d="m 70.04,38.1 c -1.69,0 -3.06,1.37 -3.06,3.06 0,1.69 1.37,3.06 3.06,3.06 1.69,0 3.06,-1.37 3.06,-3.06 0.01,-1.68 -1.37,-3.06 -3.06,-3.06 z M 59.75,22.53 c 3.34,0 6.53,1 9.49,2.82 0.08,-0.07 0.16,-0.13 0.25,-0.19 3.94,-2.69 7.28,-5.63 9.59,-9.16 2.25,-3.43 3.61,-7.51 3.7,-12.57 0.03,-1.92 1.62,-3.46 3.55,-3.43 1.93,0.03 3.47,1.62 3.44,3.55 -0.12,6.5 -1.89,11.8 -4.85,16.3 -2.62,3.98 -6.1,7.26 -10.16,10.18 4.3,4.73 7.75,11.44 9.89,19.35 -0.07,0.02 -0.14,0.05 -0.21,0.08 -4.8,2.01 -14.38,3.24 -24.4,3.33 -9.22,0.09 -18.68,-0.8 -24.98,-2.92 -0.1,-0.03 -0.21,-0.06 -0.31,-0.09 2.1,-8 5.54,-14.8 9.86,-19.6 C 40.47,27.23 36.9,23.9 34.24,19.85 31.28,15.35 29.51,10.05 29.39,3.55 29.35,1.62 30.9,0.03 32.83,0 c 1.93,-0.03 3.52,1.51 3.55,3.44 0.09,5.06 1.44,9.14 3.7,12.57 2.32,3.52 5.65,6.47 9.59,9.16 0.14,0.1 0.27,0.2 0.4,0.31 3,-1.9 6.27,-2.95 9.68,-2.95 z m 26.21,32.78 0.01,0.08 0.44,-0.25 c 0.11,-0.05 0.23,-0.09 0.33,-0.14 0.33,-0.14 0.63,-0.33 0.88,-0.56 l 14.96,-8.58 c 1.62,-0.93 3.66,-0.42 4.67,1.12 l 11.21,15.26 c 1.14,1.56 0.81,3.75 -0.75,4.9 -1.56,1.14 -3.75,0.81 -4.89,-0.75 l -9.46,-12.88 -16.49,9.45 c 0.11,1.63 0.16,3.28 0.16,4.96 0,0.81 -0.01,1.61 -0.04,2.41 h 17.14 c 1.26,0 2.37,0.67 2.99,1.67 l 10.99,14.48 c 1.17,1.54 0.87,3.73 -0.67,4.9 -1.54,1.17 -3.73,0.87 -4.9,-0.67 L 102.4,77.35 H 86.83 c -0.13,0 -0.26,-0.01 -0.39,-0.02 -0.28,2.17 -0.64,4.29 -1.1,6.34 h 11.72 c 1.94,0 3.51,1.57 3.51,3.51 v 32.19 c 0,1.94 -1.57,3.51 -3.51,3.51 -1.94,0 -3.51,-1.57 -3.51,-3.51 V 90.69 H 83.35 C 79.06,103 71.38,111.63 62.45,113.1 V 58.74 c 9.4,-0.26 18.31,-1.49 23.51,-3.43 z m -29.53,57.67 c -8.67,-1.75 -16.09,-10.28 -20.29,-22.3 -0.09,0.01 -0.18,0.01 -0.26,0.01 H 25.59 v 28.68 c 0,1.94 -1.57,3.51 -3.51,3.51 -1.94,0 -3.51,-1.57 -3.51,-3.51 V 87.18 c 0,-1.94 1.57,-3.51 3.51,-3.51 h 12.08 c -0.46,-2.07 -0.83,-4.2 -1.11,-6.4 -0.24,0.05 -0.49,0.08 -0.75,0.08 H 16.74 L 6.6,90.7 C 5.43,92.24 3.24,92.54 1.71,91.37 0.17,90.2 -0.13,88.01 1.04,86.47 L 12.03,72 c 0.62,-1 1.73,-1.67 2.99,-1.67 h 17.29 c 0.07,0 0.14,0 0.21,0.01 -0.03,-0.8 -0.04,-1.6 -0.04,-2.41 0,-1.58 0.05,-3.15 0.14,-4.69 -0.2,-0.07 -0.39,-0.16 -0.57,-0.26 L 15.8,53.73 6.33,66.63 c -1.14,1.56 -3.34,1.9 -4.9,0.75 -1.56,-1.15 -1.9,-3.33 -0.75,-4.89 L 12,47.08 v 0 c 1.03,-1.42 2.99,-1.86 4.55,-0.97 l 15.59,8.87 c 0.29,0.25 0.63,0.45 1.02,0.58 h 0.01 l 0.31,0.18 0.01,-0.07 c 6.07,1.98 14.48,2.95 22.95,3.1 v 54.21 z M 49.46,38.1 c -1.69,0 -3.06,1.37 -3.06,3.06 0,1.69 1.37,3.06 3.06,3.06 1.69,0 3.06,-1.37 3.06,-3.06 0.01,-1.68 -1.37,-3.06 -3.06,-3.06 z"
       id="path4"
       style="stroke-width:8.06638" /></g><path
     style="fill:#ff0000;fill-rule:evenodd;stroke-width:0.999997"
     d="M 2.5680499,14.927796 C 2.459482,14.867429 2.3914064,14.779426 2.3617346,14.66109 2.3476241,14.604815 2.3431981,13.978339 2.3468826,12.55896 l 0.00525,-2.021964 0.039732,-0.07126 c 0.021853,-0.03919 0.067328,-0.09691 0.1010568,-0.128254 0.1215227,-0.11294 0.1152758,-0.112244 1.0069957,-0.112244 0.444975,0 0.8090454,-0.0044 0.8090454,-0.0098 0,-0.0054 -0.016929,-0.09158 -0.037622,-0.191508 C 4.2506495,9.923979 4.2193385,9.7500335 4.2017625,9.637356 4.1699655,9.43351 4.1695575,9.432493 4.1199525,9.4336005 c -0.027419,6e-4 -0.4944759,0.0026 -1.0379036,0.00445 L 2.0939983,9.4414005 1.4419555,10.273536 C 0.9899381,10.850392 0.7657803,11.122109 0.7112466,11.15927 0.6467418,11.20323 0.61013375,11.21411 0.5078864,11.21971 0.40127903,11.22551 0.36938708,11.219764 0.28801827,11.17978 0.17198201,11.122767 0.09275248,11.022343 0.06336578,10.895026 0.02094246,10.711229 0.02245065,10.708838 0.8284259,9.6818915 1.2282948,9.172392 1.5734798,8.7364025 1.5955035,8.713026 1.6175265,8.689651 1.6727535,8.653575 1.7182294,8.63286 1.7992504,8.595955 1.8240838,8.595095 2.95388,8.59011 L 4.1068474,8.58502 V 8.140288 c 0,-0.275844 -0.00678,-0.444732 -0.017846,-0.444732 -0.00982,0 -0.4821178,-0.256531 -1.0495606,-0.570069 C 2.4719981,6.8119485 2.0010107,6.5554175 1.9928027,6.5554175 c -0.00821,0 -0.2854956,0.3572005 -0.6161941,0.7937785 C 1.0459099,7.785774 0.7424971,8.1702295 0.7023578,8.2035415 0.6035438,8.2855475 0.47244164,8.3142025 0.33854651,8.2830595 0.26057665,8.264925 0.2211484,8.241499 0.14723723,8.1693945 0.0166443,8.041994 -0.02136311,7.8993165 0.03474444,7.7471045 0.07100099,7.648745 1.5604096,5.691885 1.6313143,5.6494505 c 0.09872,-0.059082 0.2209391,-0.081235 0.317761,-0.057597 0.047264,0.01154 0.5223046,0.2625715 1.0886586,0.575296 0.5526426,0.305153 1.0378777,0.572797 1.0783006,0.5947645 C 4.2625349,6.84153 4.860591,6.9797635 5.375989,7.0531385 5.8174425,7.1159865 6.6117035,7.178931 6.963292,7.178931 h 0.138515 v 3.295713 c 0,3.251669 -4.785e-4,3.295713 -0.035705,3.295713 -0.06121,0 -0.3707945,-0.107673 -0.524704,-0.182492 C 6.15714,13.40107 5.7845515,13.096098 5.463103,12.705255 5.150995,12.325765 4.8209391,11.747742 4.6293616,11.245129 l -0.0696,-0.182601 H 3.8831418 3.2065223 l -4.03e-4,1.803735 c -3.777e-4,1.719127 -0.00201,1.807077 -0.034505,1.874993 -0.1061204,0.221755 -0.3851429,0.30799 -0.6035644,0.18654 z"
     id="path87" /><path
     style="fill:#ff0000;fill-rule:evenodd;stroke-width:0.999997"
     d="m 12.136279,14.978406 c -0.148911,-0.02534 -0.28848,-0.15095 -0.330437,-0.297405 -0.0118,-0.04118 -0.0185,-0.70598 -0.01857,-1.841459 L 11.78717,11.062528 H 11.1377 10.48823 l -0.07863,0.200415 c -0.379178,0.966505 -0.976576,1.756775 -1.6497325,2.182352 -0.246168,0.155631 -0.591135,0.297871 -0.808269,0.333276 l -0.078089,0.01273 V 10.485116 7.178929 l 0.059715,-1.705e-4 c 0.3099535,-9e-4 1.1528335,-0.071404 1.6084135,-0.13455 0.583037,-0.080811 1.225758,-0.2331155 1.401172,-0.3320325 0.03995,-0.02253 0.517064,-0.2892675 1.060248,-0.59275 l 0.987605,-0.5517865 0.128618,-0.00574 c 0.237799,-0.010605 0.20696,-0.04201 1.048243,1.067535 0.403719,0.5324535 0.752637,1.003535 0.775375,1.046848 0.02806,0.053444 0.04134,0.110322 0.04134,0.176995 0,0.368254 -0.471265,0.552882 -0.728388,0.2853615 -0.03176,-0.03304 -0.311894,-0.39677 -0.622526,-0.808289 -0.310633,-0.4115185 -0.578176,-0.7619325 -0.594538,-0.778698 -0.02786,-0.02854 -0.09583,0.00626 -1.067881,0.546818 -0.952078,0.529447 -1.038035,0.5810735 -1.036981,0.62282 6.5e-4,0.025035 0.0027,0.2295575 0.0046,0.4544935 l 0.0035,0.408974 1.134593,0.00521 1.134593,0.00521 0.09508,0.05109 c 0.08638,0.046415 0.162643,0.137421 0.833699,0.994856 0.406244,0.5190715 0.75136,0.9685205 0.766926,0.9987745 0.03823,0.0743 0.04885,0.202205 0.02416,0.291094 -0.02681,0.09655 -0.147049,0.226607 -0.245047,0.265071 -0.155041,0.06085 -0.3681,0.02227 -0.467781,-0.08472 -0.02046,-0.02196 -0.312291,-0.392656 -0.648515,-0.82377 C 13.233511,9.8564705 12.945018,9.489962 12.928638,9.473122 12.901298,9.445017 12.815756,9.442092 11.885672,9.437492 l -1.013187,-0.00501 -0.02228,0.160332 c -0.01225,0.088182 -0.04204,0.2605395 -0.06618,0.383015 -0.02415,0.122476 -0.04395,0.228454 -0.04401,0.235506 -5.6e-5,0.007 0.362297,0.01507 0.805228,0.01782 l 0.805329,0.005 0.08992,0.05391 c 0.0557,0.0334 0.111076,0.08709 0.145525,0.141115 l 0.05561,0.0872 0.0054,2.050088 c 0.004,1.499462 -2.52e-4,2.069227 -0.01557,2.121347 -0.05949,0.201683 -0.274857,0.328076 -0.49516,0.290594 z"
     id="path126" /><path
     style="fill:#ff0000;fill-rule:evenodd;stroke-width:0.999997"
     d="m 7.864135,10.483552 c 0,-1.8224405 0.00215,-2.570625 0.0048,-1.6626325 0.00265,0.9079925 0.00265,2.3990805 5e-7,3.3135275 -0.00265,0.914448 -0.0048,0.171545 -0.0048,-1.650895 z"
     id="path165" /></svg>
