<?xml version="1.0" encoding="UTF-8" standalone="no"?>
<svg
   version="1.1"
   id="Layer_1"
   x="0px"
   y="0px"
   viewBox="0 0 15.000001 15.000001"
   xml:space="preserve"
   sodipodi:docname="pig15.svg"
   width="15"
   height="15"
   inkscape:version="1.1.1 (3bf5ae0d25, 2021-09-20)"
   xmlns:inkscape="http://www.inkscape.org/namespaces/inkscape"
   xmlns:sodipodi="http://sodipodi.sourceforge.net/DTD/sodipodi-0.dtd"
   xmlns="http://www.w3.org/2000/svg"
   xmlns:svg="http://www.w3.org/2000/svg"><defs
     id="defs11" /><sodipodi:namedview
     id="namedview9"
     pagecolor="#ffffff"
     bordercolor="#666666"
     borderopacity="1.0"
     inkscape:pageshadow="2"
     inkscape:pageopacity="0.0"
     inkscape:pagecheckerboard="0"
     showgrid="false"
     inkscape:zoom="26.933333"
     inkscape:cx="15"
     inkscape:cy="15"
     inkscape:window-width="1920"
     inkscape:window-height="1046"
     inkscape:window-x="-11"
     inkscape:window-y="-11"
     inkscape:window-maximized="1"
     inkscape:current-layer="Layer_1" /><style
     type="text/css"
     id="style2">.st0{fill-rule:evenodd;clip-rule:evenodd;}</style><g
     id="g6"
     transform="matrix(0.12400794,0,0,0.12207342,0,8.3946127e-4)"
     style="stroke-width:8.12763"><path
       class="st0"
       d="m 49.4,78.2 c 3.76,0 6.81,3.05 6.81,6.81 0,3.76 -3.05,6.81 -6.81,6.81 -3.76,0 -6.81,-3.05 -6.81,-6.81 0.01,-3.76 3.05,-6.81 6.81,-6.81 z m 21.92,0 c 3.76,0 6.81,3.05 6.81,6.81 0,3.76 -3.05,6.81 -6.81,6.81 -3.76,0 -6.81,-3.05 -6.81,-6.81 0,-3.76 3.05,-6.81 6.81,-6.81 z M 90.15,18.92 c 3.52,-2.42 6.83,-5.03 9.95,-7.81 3.6,-3.2 6.9,-6.6 9.96,-10.16 0.98,-1.15 2.71,-1.28 3.86,-0.3 0.11,0.1 0.22,0.2 0.31,0.31 v 0 c 3.52,4.16 5.32,12.17 5.19,20.45 -0.12,7.38 -1.76,15.13 -5.06,20.66 4.22,7.58 6.6,16.16 6.6,25.25 0,15.37 -6.8,29.28 -17.8,39.34 -10.94,10.01 -26.03,16.21 -42.68,16.21 -16.64,0 -31.73,-6.19 -42.68,-16.21 C 6.8,96.61 0,82.7 0,67.33 0,58.49 2.25,50.13 6.25,42.71 2.68,37.15 0.92,29.08 0.79,21.41 0.66,13.14 2.46,5.13 5.98,0.97 v 0 c 0.09,-0.11 0.2,-0.21 0.31,-0.31 1.15,-0.98 2.88,-0.85 3.86,0.3 3.06,3.56 6.36,6.96 9.96,10.16 3.22,2.87 6.63,5.55 10.27,8.03 8.87,-4.69 19.14,-7.37 30.09,-7.37 10.78,0 20.91,2.6 29.68,7.14 z M 60.48,61.38 c 8.58,0 16.39,2.56 22.08,6.69 5.94,4.32 9.62,10.36 9.62,17.09 0,6.74 -3.67,12.78 -9.62,17.09 -5.69,4.13 -13.49,6.69 -22.08,6.69 -8.58,0 -16.39,-2.56 -22.08,-6.69 -5.94,-4.32 -9.62,-10.36 -9.62,-17.09 0,-6.74 3.67,-12.78 9.62,-17.09 5.68,-4.13 13.49,-6.69 22.08,-6.69 z m 18.85,11.13 c -4.79,-3.48 -11.46,-5.63 -18.86,-5.63 -7.4,0 -14.07,2.15 -18.86,5.63 -4.54,3.3 -7.34,7.77 -7.34,12.65 0,4.88 2.81,9.36 7.34,12.65 4.79,3.48 11.46,5.63 18.86,5.63 7.4,0 14.07,-2.15 18.86,-5.63 4.54,-3.3 7.34,-7.77 7.34,-12.65 0.01,-4.88 -2.8,-9.35 -7.34,-12.65 z M 34.46,45.94 c 3.76,0 6.81,3.05 6.81,6.81 0,3.76 -3.05,6.81 -6.81,6.81 -3.76,0 -6.81,-3.05 -6.81,-6.81 0,-3.76 3.05,-6.81 6.81,-6.81 z m 51.07,0 c 3.76,0 6.81,3.05 6.81,6.81 0,3.76 -3.05,6.81 -6.81,6.81 -3.76,0 -6.81,-3.05 -6.81,-6.81 0,-3.76 3.05,-6.81 6.81,-6.81 z m 25.41,-9.21 c 1.93,-4.4 2.91,-9.98 2.99,-15.4 0.09,-5.37 -0.67,-10.48 -2.21,-14 -2.52,2.75 -5.17,5.38 -7.98,7.89 -2.63,2.35 -5.43,4.6 -8.39,6.74 2.78,1.81 5.39,3.83 7.8,6.03 2.91,2.66 5.52,5.59 7.79,8.74 z M 9.55,37.37 c 2.38,-3.4 5.14,-6.54 8.25,-9.38 2.3,-2.1 4.78,-4.03 7.41,-5.78 -3.1,-2.22 -6.01,-4.55 -8.75,-6.99 -2.81,-2.5 -5.47,-5.14 -7.98,-7.89 -1.54,3.52 -2.3,8.63 -2.21,14 0.09,5.68 1.16,11.54 3.28,16.04 z M 99.42,31.98 C 89.47,22.88 75.71,17.25 60.48,17.25 c -15.23,0 -29,5.63 -38.94,14.73 -9.9,9.05 -16.02,21.55 -16.02,35.35 0,13.8 6.12,26.3 16.01,35.35 9.95,9.1 23.71,14.73 38.94,14.73 15.23,0 29,-5.63 38.94,-14.73 9.89,-9.05 16.01,-21.55 16.01,-35.35 0.01,-13.8 -6.11,-26.3 -16,-35.35 z"
       id="path4"
       style="stroke-width:8.12763" /></g><path
     style="fill:#ffd5d5;fill-rule:evenodd;stroke-width:0.999997"
     d="M 7.0489761,14.313593 C 6.3066846,14.251205 5.7889966,14.153617 5.2116746,13.967246 2.8580738,13.207461 1.1596331,11.368401 0.77823847,9.166749 0.65758296,8.4702495 0.67388226,7.711987 0.82419222,7.0289275 1.1336063,5.6228455 2.020154,4.3264129 3.2846962,3.4308381 4.2579053,2.7415914 5.3556176,2.3268064 6.6417826,2.1623193 c 0.395591,-0.050592 1.3757221,-0.045977 1.7826036,0.0084 2.0109878,0.2687257 3.7007568,1.2356544 4.7938058,2.7431367 0.944919,1.303189 1.294312,2.9317785 0.959498,4.4724125 -0.456658,2.1012935 -2.122826,3.8458235 -4.3681818,4.5736245 -0.477288,0.154706 -0.970823,0.261034 -1.484658,0.319856 -0.2385865,0.02731 -1.0861121,0.04979 -1.2758741,0.03385 z m 0.8812676,-1.024005 c 1.4846015,-0.122942 2.7388553,-0.840172 3.2532123,-1.860311 0.177879,-0.352792 0.24763,-0.637354 0.248907,-1.015465 C 11.433963,9.9211365 11.30512,9.5039775 11.022536,9.0875765 10.112544,7.746656 7.9752352,7.143385 6.0590176,7.6865875 5.0553701,7.9710975 4.2274398,8.579642 3.8392223,9.318178 3.6380292,9.7009235 3.5686035,9.9774315 3.5686035,10.395997 c 0,0.23167 0.00766,0.31833 0.040904,0.462819 0.1933174,0.840176 0.7933404,1.519783 1.7473516,1.979108 0.5324305,0.256348 1.104372,0.40286 1.7916525,0.458957 0.1726895,0.01409 0.5679971,0.01041 0.7817311,-0.0073 z M 4.5059744,7.2480815 C 4.8031034,7.1743405 5.0557156,6.894583 5.1137306,6.575016 5.1769816,6.226603 4.9850734,5.8552575 4.6587004,5.694527 4.0881481,5.413544 3.4290258,5.8085305 3.4278649,6.432119 3.4267949,7.0017465 3.938395,7.3889415 4.5059744,7.2480815 Z m 6.3341246,0 C 11.138937,7.1739165 11.392283,6.8920465 11.44697,6.572884 11.54119,6.023013 11.044125,5.527058 10.483722,5.611783 9.7901862,5.7166365 9.5119127,6.543673 10.006388,7.030434 c 0.220754,0.2173105 0.520142,0.295468 0.833711,0.2176475 z"
     id="path144" /><path
     style="fill:#ffd5d5;fill-rule:evenodd;stroke-width:0.999997"
     d="M 6.6960751,14.272396 C 5.7417381,14.155961 5.0145756,13.943853 4.2167175,13.549189 2.2361672,12.569498 0.93628467,10.785456 0.73340831,8.768474 0.70950981,8.5308755 0.70950981,7.896399 0.73340831,7.6588 0.84576877,6.541721 1.2996596,5.4885545 2.0673841,4.5635659 2.2684013,4.3213714 2.6967534,3.8996195 2.9408438,3.7035647 3.7650764,3.0415362 4.6737439,2.5965869 5.7188101,2.3432714 6.3784021,2.1833916 6.7659086,2.1386611 7.4913756,2.1386611 c 0.5324156,0 0.8419871,0.021127 1.2044731,0.082202 1.9604973,0.3303226 3.5932223,1.3385717 4.6270213,2.8573019 0.516278,0.758453 0.851857,1.6923045 0.946555,2.6340805 0.02409,0.2395835 0.02376,0.7808045 -6e-4,1.0282985 -0.114601,1.163068 -0.585589,2.251096 -1.375955,3.178593 -0.209845,0.246252 -0.646722,0.668682 -0.890891,0.86143 -1.036188,0.817966 -2.3065783,1.332979 -3.6771058,1.490691 -0.089583,0.01031 -0.431625,0.02224 -0.760095,0.0265 -0.5064121,0.0066 -0.6384926,0.0027 -0.8686796,-0.02536 z m 1.2965781,-0.981963 c 1.4320125,-0.140171 2.6344888,-0.821195 3.1569068,-1.78792 0.207713,-0.384368 0.283182,-0.673668 0.284009,-1.088701 8.5e-4,-0.41813 -0.06462,-0.7031415 -0.24139,-1.051096 C 10.922029,8.8309465 10.438219,8.363788 9.8066882,8.0249105 8.8797097,7.527497 7.6041507,7.357569 6.4759136,7.58119 4.8597637,7.9015175 3.7013815,8.9254625 3.5734667,10.146791 c -0.114993,1.097953 0.5277743,2.079566 1.7562469,2.682084 0.524242,0.257119 0.9796525,0.380492 1.7283115,0.468205 0.1261605,0.01478 0.7619131,0.01027 0.9346281,-0.0067 z M 4.4775635,7.2597895 C 4.6313002,7.2241145 4.7520764,7.157209 4.8670681,7.0440115 5.2157091,6.700809 5.2161876,6.1714315 4.8681581,5.834999 4.7194071,5.6912025 4.4797523,5.594806 4.2710085,5.594806 c -0.3766617,0 -0.7248813,0.263236 -0.823072,0.6222 -0.027605,0.1009185 -0.027283,0.3243805 6.3e-4,0.437803 0.1085053,0.4408865 0.5691092,0.711691 1.0289943,0.6049805 z m 6.3341245,0 C 11.108431,7.190934 11.342049,6.961635 11.435894,6.6471215 11.554772,6.248711 11.304909,5.7906775 10.888684,5.644012 10.488908,5.503143 10.034459,5.686112 9.8445347,6.064402 9.6743662,6.4033435 9.7412532,6.7864095 10.01558,7.043991 c 0.219718,0.206306 0.504424,0.2834805 0.796108,0.2157985 z"
     id="path183" /></svg>
