<?xml version="1.0" encoding="UTF-8" standalone="no"?>
<svg
   version="1.1"
   id="Layer_1"
   x="0px"
   y="0px"
   viewBox="0 0 30.000001 30.000001"
   xml:space="preserve"
   sodipodi:docname="pig30.svg"
   width="30"
   height="30"
   inkscape:version="1.1.1 (3bf5ae0d25, 2021-09-20)"
   xmlns:inkscape="http://www.inkscape.org/namespaces/inkscape"
   xmlns:sodipodi="http://sodipodi.sourceforge.net/DTD/sodipodi-0.dtd"
   xmlns="http://www.w3.org/2000/svg"
   xmlns:svg="http://www.w3.org/2000/svg"><defs
     id="defs11" /><sodipodi:namedview
     id="namedview9"
     pagecolor="#ffffff"
     bordercolor="#666666"
     borderopacity="1.0"
     inkscape:pageshadow="2"
     inkscape:pageopacity="0.0"
     inkscape:pagecheckerboard="0"
     showgrid="false"
     inkscape:zoom="6.8522137"
     inkscape:cx="60.418431"
     inkscape:cy="61.439999"
     inkscape:window-width="1920"
     inkscape:window-height="1046"
     inkscape:window-x="-11"
     inkscape:window-y="-11"
     inkscape:window-maximized="1"
     inkscape:current-layer="Layer_1" /><style
     type="text/css"
     id="style2">.st0{fill-rule:evenodd;clip-rule:evenodd;}</style><g
     id="g6"
     transform="matrix(0.24801587,0,0,0.24414683,0,0.00167892)"
     style="stroke-width:4.06381"><path
       class="st0"
       d="m 49.4,78.2 c 3.76,0 6.81,3.05 6.81,6.81 0,3.76 -3.05,6.81 -6.81,6.81 -3.76,0 -6.81,-3.05 -6.81,-6.81 0.01,-3.76 3.05,-6.81 6.81,-6.81 z m 21.92,0 c 3.76,0 6.81,3.05 6.81,6.81 0,3.76 -3.05,6.81 -6.81,6.81 -3.76,0 -6.81,-3.05 -6.81,-6.81 0,-3.76 3.05,-6.81 6.81,-6.81 z M 90.15,18.92 c 3.52,-2.42 6.83,-5.03 9.95,-7.81 3.6,-3.2 6.9,-6.6 9.96,-10.16 0.98,-1.15 2.71,-1.28 3.86,-0.3 0.11,0.1 0.22,0.2 0.31,0.31 v 0 c 3.52,4.16 5.32,12.17 5.19,20.45 -0.12,7.38 -1.76,15.13 -5.06,20.66 4.22,7.58 6.6,16.16 6.6,25.25 0,15.37 -6.8,29.28 -17.8,39.34 -10.94,10.01 -26.03,16.21 -42.68,16.21 -16.64,0 -31.73,-6.19 -42.68,-16.21 C 6.8,96.61 0,82.7 0,67.33 0,58.49 2.25,50.13 6.25,42.71 2.68,37.15 0.92,29.08 0.79,21.41 0.66,13.14 2.46,5.13 5.98,0.97 v 0 c 0.09,-0.11 0.2,-0.21 0.31,-0.31 1.15,-0.98 2.88,-0.85 3.86,0.3 3.06,3.56 6.36,6.96 9.96,10.16 3.22,2.87 6.63,5.55 10.27,8.03 8.87,-4.69 19.14,-7.37 30.09,-7.37 10.78,0 20.91,2.6 29.68,7.14 z M 60.48,61.38 c 8.58,0 16.39,2.56 22.08,6.69 5.94,4.32 9.62,10.36 9.62,17.09 0,6.74 -3.67,12.78 -9.62,17.09 -5.69,4.13 -13.49,6.69 -22.08,6.69 -8.58,0 -16.39,-2.56 -22.08,-6.69 -5.94,-4.32 -9.62,-10.36 -9.62,-17.09 0,-6.74 3.67,-12.78 9.62,-17.09 5.68,-4.13 13.49,-6.69 22.08,-6.69 z m 18.85,11.13 c -4.79,-3.48 -11.46,-5.63 -18.86,-5.63 -7.4,0 -14.07,2.15 -18.86,5.63 -4.54,3.3 -7.34,7.77 -7.34,12.65 0,4.88 2.81,9.36 7.34,12.65 4.79,3.48 11.46,5.63 18.86,5.63 7.4,0 14.07,-2.15 18.86,-5.63 4.54,-3.3 7.34,-7.77 7.34,-12.65 0.01,-4.88 -2.8,-9.35 -7.34,-12.65 z M 34.46,45.94 c 3.76,0 6.81,3.05 6.81,6.81 0,3.76 -3.05,6.81 -6.81,6.81 -3.76,0 -6.81,-3.05 -6.81,-6.81 0,-3.76 3.05,-6.81 6.81,-6.81 z m 51.07,0 c 3.76,0 6.81,3.05 6.81,6.81 0,3.76 -3.05,6.81 -6.81,6.81 -3.76,0 -6.81,-3.05 -6.81,-6.81 0,-3.76 3.05,-6.81 6.81,-6.81 z m 25.41,-9.21 c 1.93,-4.4 2.91,-9.98 2.99,-15.4 0.09,-5.37 -0.67,-10.48 -2.21,-14 -2.52,2.75 -5.17,5.38 -7.98,7.89 -2.63,2.35 -5.43,4.6 -8.39,6.74 2.78,1.81 5.39,3.83 7.8,6.03 2.91,2.66 5.52,5.59 7.79,8.74 z M 9.55,37.37 c 2.38,-3.4 5.14,-6.54 8.25,-9.38 2.3,-2.1 4.78,-4.03 7.41,-5.78 -3.1,-2.22 -6.01,-4.55 -8.75,-6.99 -2.81,-2.5 -5.47,-5.14 -7.98,-7.89 -1.54,3.52 -2.3,8.63 -2.21,14 0.09,5.68 1.16,11.54 3.28,16.04 z M 99.42,31.98 C 89.47,22.88 75.71,17.25 60.48,17.25 c -15.23,0 -29,5.63 -38.94,14.73 -9.9,9.05 -16.02,21.55 -16.02,35.35 0,13.8 6.12,26.3 16.01,35.35 9.95,9.1 23.71,14.73 38.94,14.73 15.23,0 29,-5.63 38.94,-14.73 9.89,-9.05 16.01,-21.55 16.01,-35.35 0.01,-13.8 -6.11,-26.3 -16,-35.35 z"
       id="path4"
       style="stroke-width:4.06381" /></g><path
     style="fill:#ffd5d5;fill-rule:evenodd;stroke-width:0.999999"
     d="M 14.097952,28.627185 C 12.613369,28.502409 11.577993,28.307233 10.423349,27.934492 5.7161475,26.414922 2.3192662,22.736801 1.5564769,18.333498 1.3151659,16.940499 1.3477645,15.423974 1.6483844,14.057855 2.2672126,11.245691 4.040308,8.6528259 6.5693923,6.8616761 8.5158104,5.4831828 10.711235,4.6536129 13.283565,4.3246385 c 0.791182,-0.101184 2.751444,-0.091953 3.565207,0.01679 4.021975,0.5374514 7.401513,2.4713089 9.587612,5.4862734 1.889838,2.6063781 2.588623,5.8635571 1.918995,8.9448251 -0.913316,4.202587 -4.245651,7.691647 -8.736363,9.147248 -0.954576,0.309412 -1.941646,0.522068 -2.969316,0.639713 -0.477173,0.05462 -2.172224,0.09959 -2.551748,0.0677 z m 1.762535,-2.048009 c 2.969203,-0.245885 5.477711,-1.680345 6.506424,-3.720622 0.355758,-0.705584 0.49526,-1.274709 0.497815,-2.03093 0.0033,-0.985351 -0.254487,-1.819669 -0.819654,-2.652471 -1.819985,-2.681841 -6.094602,-3.888383 -9.927037,-2.801978 -2.007295,0.56902 -3.6631556,1.786109 -4.4395906,3.263181 -0.4023862,0.765491 -0.5412376,1.318507 -0.5412376,2.155637 0,0.46334 0.015317,0.636661 0.081809,0.925638 0.3866349,1.680353 1.5866808,3.039566 3.4947032,3.958217 1.064861,0.512696 2.208744,0.805719 3.583305,0.917914 0.345379,0.02819 1.135994,0.02083 1.563462,-0.01458 z M 9.0119486,14.496163 C 9.6062067,14.348681 10.111431,13.789166 10.227461,13.150032 10.353964,12.453206 9.9701467,11.710515 9.3174007,11.389054 8.176296,10.827088 6.8580515,11.617061 6.8557296,12.864238 c -0.00213,1.139255 1.0210602,1.913645 2.156219,1.631925 z m 12.6682494,0 c 0.597675,-0.14833 1.104367,-0.71207 1.213741,-1.350395 0.188435,-1.099742 -0.80569,-2.091652 -1.926496,-1.922202 -1.387071,0.209707 -1.943618,1.86378 -0.954668,2.837302 0.441508,0.434621 1.040285,0.590936 1.667423,0.435295 z"
     id="path144" /><path
     style="fill:#ffd5d5;fill-rule:evenodd;stroke-width:0.999999"
     d="M 13.39215,28.544793 C 11.483476,28.311921 10.029151,27.887706 8.4334349,27.098377 4.4723343,25.138996 1.8725693,21.570912 1.4668166,17.536948 c -0.047797,-0.475197 -0.047797,-1.74415 0,-2.219348 C 1.6915375,13.083442 2.5993192,10.977109 4.1347681,9.1271319 4.5368025,8.6427428 5.3935066,7.799239 5.8816874,7.4071294 7.5301527,6.0830723 9.3474877,5.1931737 11.43762,4.6865427 c 1.319184,-0.3197596 2.094197,-0.4092206 3.545131,-0.4092206 1.064831,0 1.683974,0.042255 2.408946,0.164405 3.920994,0.6606453 7.186445,2.6771435 9.254042,5.7146039 1.032557,1.516906 1.703715,3.384609 1.89311,5.268161 0.04818,0.479167 0.04753,1.561609 -0.0012,2.056597 -0.229202,2.326136 -1.171178,4.502192 -2.75191,6.357184 -0.41969,0.492505 -1.293443,1.337364 -1.781782,1.72286 -2.072376,1.635933 -4.613156,2.665959 -7.354211,2.981382 -0.179165,0.02061 -0.86325,0.04447 -1.52019,0.053 -1.012824,0.01316 -1.276985,0.0054 -1.737359,-0.05072 z m 2.593156,-1.963927 c 2.864025,-0.280342 5.268977,-1.64239 6.313814,-3.575841 0.415425,-0.768736 0.566363,-1.347335 0.568017,-2.177401 0.0017,-0.83626 -0.129242,-1.406283 -0.482779,-2.102192 -0.5403,-1.063539 -1.507921,-1.997856 -2.770982,-2.675611 -1.853957,-0.994827 -4.405075,-1.334683 -6.661549,-0.887441 -3.2322998,0.640655 -5.5490642,2.688545 -5.8048938,5.131202 -0.2299859,2.195905 1.0555486,4.159132 3.5124938,5.364167 1.048484,0.514239 1.959305,0.760984 3.456623,0.936411 0.252321,0.02956 1.523826,0.02053 1.869256,-0.01331 z M 8.9551269,14.519579 c 0.3074734,-0.07135 0.5490258,-0.205161 0.7790091,-0.431556 0.697282,-0.686405 0.698239,-1.74516 0.00218,-2.418025 -0.297502,-0.287593 -0.7768115,-0.480386 -1.1942991,-0.480386 -0.7533234,0 -1.4497626,0.526472 -1.6461441,1.2444 -0.055211,0.201837 -0.054566,0.648761 0.00126,0.875606 0.2170107,0.881773 1.1382185,1.423382 2.0579886,1.209961 z m 12.6682491,0 c 0.593486,-0.137711 1.060721,-0.596309 1.248411,-1.225336 0.237757,-0.796821 -0.26197,-1.712888 -1.094419,-2.006219 -0.799552,-0.281738 -1.708451,0.0842 -2.088299,0.84078 -0.340337,0.677883 -0.206563,1.444015 0.342091,1.959178 0.439436,0.412612 1.008847,0.566961 1.592216,0.431597 z"
     id="path183" /></svg>
