<?xml version="1.0" encoding="UTF-8" standalone="no"?>
<svg
   id="Layer_1"
   data-name="Layer 1"
   viewBox="0 0 30.000001 30"
   version="1.1"
   sodipodi:docname="scissors30.svg"
   width="30"
   height="30"
   inkscape:version="1.1.1 (3bf5ae0d25, 2021-09-20)"
   xmlns:inkscape="http://www.inkscape.org/namespaces/inkscape"
   xmlns:sodipodi="http://sodipodi.sourceforge.net/DTD/sodipodi-0.dtd"
   xmlns:xlink="http://www.w3.org/1999/xlink"
   xmlns="http://www.w3.org/2000/svg"
   xmlns:svg="http://www.w3.org/2000/svg"
   xmlns:rdf="http://www.w3.org/1999/02/22-rdf-syntax-ns#"
   xmlns:cc="http://creativecommons.org/ns#"
   xmlns:dc="http://purl.org/dc/elements/1.1/">
  <sodipodi:namedview
     id="namedview11"
     pagecolor="#ffffff"
     bordercolor="#666666"
     borderopacity="1.0"
     inkscape:pageshadow="2"
     inkscape:pageopacity="0.0"
     inkscape:pagecheckerboard="0"
     showgrid="false"
     inkscape:zoom="7.9599169"
     inkscape:cx="61.432802"
     inkscape:cy="42.839643"
     inkscape:window-width="1920"
     inkscape:window-height="1046"
     inkscape:window-x="-11"
     inkscape:window-y="-11"
     inkscape:window-maximized="1"
     inkscape:current-layer="Layer_1" />
  <defs
     id="defs4">
    <linearGradient
       id="linearGradient3324"
       inkscape:swatch="solid">
      <stop
         style="stop-color:#000000;stop-opacity:1;"
         offset="0"
         id="stop3322" />
    </linearGradient>
    <linearGradient
       id="linearGradient3259"
       inkscape:swatch="solid">
      <stop
         style="stop-color:#000000;stop-opacity:1;"
         offset="0"
         id="stop3257" />
    </linearGradient>
    <linearGradient
       id="linearGradient1191"
       inkscape:swatch="solid">
      <stop
         style="stop-color:#000000;stop-opacity:1;"
         offset="0"
         id="stop1189" />
    </linearGradient>
    <linearGradient
       id="linearGradient1107"
       inkscape:swatch="solid">
      <stop
         style="stop-color:#000000;stop-opacity:1;"
         offset="0"
         id="stop1105" />
    </linearGradient>
    <style
       id="style2">.cls-1{fill-rule:evenodd;}</style>
    <linearGradient
       inkscape:collect="always"
       xlink:href="#linearGradient1107"
       id="linearGradient1109"
       x1="0.064585522"
       y1="60.958096"
       x2="122.67264"
       y2="60.958096"
       gradientUnits="userSpaceOnUse" />
    <linearGradient
       inkscape:collect="always"
       xlink:href="#linearGradient3324"
       id="linearGradient3326"
       x1="0.081226751"
       y1="25.613632"
       x2="43.867069"
       y2="25.613632"
       gradientUnits="userSpaceOnUse" />
  </defs>
  <title
     id="title6">scissors</title>
  <path
     class="cls-1"
     d="M 23.039852,5.9137062 C 25.641637,4.4945654 27.812947,4.51927 29.54905,5.8862562 L 14.174853,16.166106 a 3.0559171,3.5464793 0 0 1 -1.707717,0.823486 c -0.572394,0.03568 -0.778172,-0.153717 -1.274877,-0.260771 A 1.7077185,1.9818561 0 0 0 9.9150191,17.003317 L 9.5105596,17.43153 c -0.361885,0.381547 -0.797093,0.713687 -0.7261352,1.372476 0.047305,0.433702 0.3666154,0.798781 0.8727812,1.114451 a 3.6425019,4.2272277 0 0 1 0.8940684,1.410905 4.2385476,4.9189559 0 0 1 0.340597,1.78422 c -0.09224,2.07244 -0.9271814,3.862149 -2.9352879,5.21541 -2.2895727,1.646972 -4.2243561,1.44659 -5.955727,0.236066 -1.04308006,-0.941518 -1.51613226,-2.069693 -1.51613226,-3.348841 0,-1.965387 0.80655406,-3.54099 2.06487276,-4.770729 a 17.427243,20.224814 0 0 1 2.8217562,-2.108124 l 3.3113653,-3.005724 0.059132,0.233321 z m 0,18.1441398 c 2.601785,1.419141 4.773095,1.394436 6.509198,0.02745 L 16.842868,15.589664 13.619017,17.700533 Z M 10.487411,13.24822 A 1.7502931,2.0312653 0 0 1 9.9173844,12.973726 L 9.5129247,12.545513 C 9.1510398,12.163964 8.7158318,11.831825 8.7867896,11.173036 8.8340947,10.736589 9.1534051,10.37151 9.659571,10.058585 A 3.6519629,4.2382075 0 0 0 10.551274,8.6312096 4.224356,4.9024861 0 0 0 10.891871,6.860715 C 10.79963,4.7882754 9.9646896,2.995821 7.9565831,1.6453041 5.671741,0.0202919 3.7369575,0.2069487 2.0055866,1.417473 0.95777604,2.3480121 0.48472384,3.4871676 0.48472384,4.7580809 c 0,1.9516616 0.80655406,3.5409895 2.06487276,4.7679834 a 17.266405,20.038157 0 0 0 2.8217562,2.1081247 l 3.2120244,2.917884 0.1419156,-0.09607 0.014192,-0.04941 0.028384,0.02196 z M 8.254606,8.8206114 C 9.179423,8.1206484 9.2740334,6.9403186 8.9334359,5.8148878 8.6614309,4.9117982 8.0772114,4.1322316 7.2020648,3.4871676 A 5.0521974,5.8632197 0 0 0 4.2407582,2.6005478 C 2.244478,2.8119091 1.8754973,4.8761139 2.7388176,6.6795481 A 4.0375004,4.6856348 0 0 0 4.4820148,8.5790555 5.7215663,6.6400414 0 0 0 6.2654215,9.251569 2.8761572,3.3378629 0 0 0 8.254606,8.8233564 Z m 5.257975,6.2255536 a 0.84676342,0.98269319 0 1 1 -0.844398,-0.982693 0.84439815,0.97994823 0 0 1 0.844398,0.982693 z m -5.257975,6.107521 c 0.924817,0.699962 1.0194274,1.877547 0.6788299,3.002979 -0.272005,0.905834 -0.8562245,1.682656 -1.7313711,2.341444 a 5.0711194,5.8851793 0 0 1 -2.9613066,0.87015 C 2.244478,27.154153 1.8754973,25.089948 2.7388176,23.286514 a 4.0209436,4.6664202 0 0 1 1.7431972,-1.896763 5.6624347,6.5714176 0 0 1 1.7834067,-0.672513 2.8761572,3.3378629 0 0 1 1.9891845,0.430958 z"
     id="path8"
     style="opacity:1;stroke-width:1" />
  <metadata
     id="metadata13">
    <rdf:RDF>
      <cc:Work
         rdf:about="">
        <dc:title>scissors</dc:title>
      </cc:Work>
    </rdf:RDF>
  </metadata>
  <path
     style="fill:#ff0000;fill-rule:evenodd;stroke:url(#linearGradient1109);stroke-width:1"
     d="M 4.3179128,29.479923 C 3.4833737,29.393457 2.3679093,28.891241 1.8162016,28.353579 0.95878013,27.517985 0.49971389,26.415719 0.50000013,25.193245 c 2.0831e-4,-0.889531 0.17115029,-1.701612 0.53445027,-2.538969 0.4127227,-0.951272 1.0086524,-1.745301 1.879749,-2.504618 0.642513,-0.560065 1.708582,-1.345999 2.2792009,-1.680287 0.1012644,-0.05933 0.8949062,-0.754677 1.8120856,-1.587666 0.8975497,-0.815161 1.6461802,-1.482113 1.6636225,-1.482113 0.017444,0 0.031714,0.03012 0.031714,0.06693 0,0.03682 0.013501,0.07661 0.030001,0.08846 0.0165,0.01183 1.029398,-0.652968 2.2508836,-1.477338 1.221486,-0.824371 4.452043,-3.00491 7.179016,-4.8456433 5.245938,-3.5410574 5.215416,-3.5217398 6.110573,-3.8674167 0.946373,-0.3654559 1.430055,-0.4616289 2.332599,-0.4638048 0.757333,-0.00184 1.067273,0.047623 1.627036,0.2595772 0.387981,0.1469097 1.269201,0.6478796 1.269071,0.7214629 -1.6e-5,0.00948 -0.618217,0.4296077 -1.373781,0.9336097 -6.28077,4.189611 -14.019145,9.385821 -14.225337,9.552111 -0.476421,0.384229 -1.038672,0.597004 -1.574876,0.595985 -0.256229,-4.94e-4 -0.370432,-0.01949 -0.638864,-0.10632 -0.619718,-0.200457 -0.910574,-0.230335 -1.249201,-0.128324 -0.394532,0.118854 -0.5368961,0.234334 -1.2172599,0.987388 -0.3610107,0.39958 -0.4435254,0.574397 -0.4446961,0.94213 -7.094e-4,0.223593 0.012849,0.308555 0.071544,0.448301 0.094027,0.223861 0.3607371,0.526527 0.6238097,0.707904 0.4949446,0.341244 1.0217353,1.230694 1.2350823,2.085356 0.160636,0.643505 0.195578,1.178086 0.118265,1.809411 -0.119414,0.975117 -0.447163,1.908895 -0.9337824,2.660403 -0.2668059,0.412039 -0.8285155,1.056983 -1.1828275,1.3581 -0.6791266,0.577163 -1.62078,1.169049 -2.2692529,1.426358 -0.7138719,0.28326 -1.4457348,0.395649 -2.1209124,0.325694 z M 5.3430679,27.318279 C 6.1661827,27.158642 6.8851147,26.809122 7.5256702,26.257173 8.6085582,25.324079 9.1508784,24.1767 9.1104763,22.904227 9.0998089,22.568252 9.0819505,22.436236 9.019497,22.231671 8.7910443,21.483375 8.2468855,20.973768 7.423093,20.736635 6.4278575,20.45015 4.7907617,20.970001 3.7518195,21.902428 c -1.084561,0.97337 -1.6730481,2.597626 -1.3939807,3.847465 0.1561727,0.699439 0.6245442,1.256493 1.2566711,1.494612 0.4217331,0.158864 1.1332415,0.18923 1.728558,0.07378 z M 13.023463,15.955331 c 0.300497,-0.154261 0.467307,-0.44918 0.486204,-0.859597 0.01436,-0.311959 -0.04394,-0.509083 -0.213797,-0.722946 -0.192345,-0.242167 -0.314048,-0.300362 -0.628142,-0.300362 -0.217242,0 -0.28974,0.01394 -0.386291,0.0743 -0.581605,0.363569 -0.63666,1.31342 -0.100016,1.725563 0.243709,0.187169 0.575472,0.219888 0.842042,0.08304 z"
     id="path251" />
  <path
     style="display:inline;fill:#ff0000;fill-rule:evenodd;stroke:url(#linearGradient3326);stroke-width:1"
     d="M 6.9666994,13.055553 C 6.069913,12.240442 5.2953735,11.56192 5.1937258,11.502372 4.6174494,11.164769 3.5637029,10.388053 2.9159653,9.823433 2.0393932,9.0593432 1.4425175,8.2629643 1.0343774,7.3129311 0.70157769,6.5382692 0.54518484,5.8601205 0.50917446,5.0355539 0.46777645,4.0876214 0.67198558,3.233315 1.1134204,2.5076981 1.2958925,2.2077562 1.7443728,1.6729787 1.9735471,1.4820648 2.2072033,1.2874173 2.875139,0.91245605 3.2191527,0.78281529 4.4689238,0.31184188 5.7154011,0.41620011 7.0346238,1.1022561 7.6596424,1.4272943 8.485243,2.0179409 8.9533971,2.4749742 10.046154,3.5417733 10.642203,4.7561053 10.828747,6.2956326 11.008035,7.775272 10.409946,9.4611794 9.4507952,10.179839 9.315788,10.280995 9.1461187,10.432473 9.0737518,10.516457 8.7135474,10.934484 8.6692191,11.494276 8.960765,11.943298 c 0.06132,0.09444 0.2986929,0.369124 0.5274957,0.610407 0.3041092,0.320697 0.4717275,0.470255 0.6231683,0.556024 0.11394,0.06453 0.233808,0.117328 0.266371,0.117328 0.05161,0 0.05363,0.0062 0.0157,0.04796 -0.06031,0.06648 -1.7666973,1.227969 -1.8040573,1.227969 -0.016647,0 -0.7468801,-0.651347 -1.6227393,-1.447437 z M 7.310244,9.2604526 C 7.9461501,9.1223487 8.5052798,8.7390888 8.7992317,8.2398139 9.0080851,7.8850774 9.0936066,7.5707012 9.1105416,7.0954386 9.1588029,5.7410426 8.5490473,4.5176897 7.362661,3.5886658 6.480619,2.8979644 5.3544644,2.5220081 4.3476275,2.5821245 3.3155953,2.6437453 2.5742548,3.2503138 2.3574483,4.210499 2.1538771,5.1120678 2.4063628,6.2550567 3.0173546,7.1978558 3.5513037,8.0217735 4.314765,8.6195112 5.3185913,8.9995653 6.1089668,9.2988058 6.7481308,9.3825302 7.310244,9.2604526 Z"
     id="path1111" />
  <path
     style="fill:#ff0000;fill-rule:evenodd;stroke:#000000;stroke-width:1;stroke-opacity:1"
     d="m 25.905601,25.053256 c -0.783987,-0.11175 -1.824039,-0.464603 -2.617538,-0.888037 -0.205911,-0.109879 -9.533284,-6.376115 -9.600851,-6.449959 -0.01129,-0.01234 0.694198,-0.490299 1.567751,-1.062131 l 1.588278,-1.039696 4.004336,2.677718 c 2.202383,1.472746 5.050128,3.376035 6.328323,4.229531 1.278194,0.853496 2.32402,1.55957 2.324059,1.569054 1.22e-4,0.03135 -0.365347,0.269683 -0.682325,0.44494 -0.696831,0.385279 -1.236073,0.524189 -2.094881,0.539648 -0.326862,0.0059 -0.69458,-0.0036 -0.817152,-0.02106 z"
     id="path1150" />
</svg>
