<?xml version="1.0" encoding="UTF-8" standalone="no"?>
<svg
   id="Layer_1"
   data-name="Layer 1"
   viewBox="0 0 15.000001 15"
   version="1.1"
   sodipodi:docname="scissors15.svg"
   width="15"
   height="15"
   inkscape:version="1.1.1 (3bf5ae0d25, 2021-09-20)"
   xmlns:inkscape="http://www.inkscape.org/namespaces/inkscape"
   xmlns:sodipodi="http://sodipodi.sourceforge.net/DTD/sodipodi-0.dtd"
   xmlns:xlink="http://www.w3.org/1999/xlink"
   xmlns="http://www.w3.org/2000/svg"
   xmlns:svg="http://www.w3.org/2000/svg"
   xmlns:rdf="http://www.w3.org/1999/02/22-rdf-syntax-ns#"
   xmlns:cc="http://creativecommons.org/ns#"
   xmlns:dc="http://purl.org/dc/elements/1.1/">
  <sodipodi:namedview
     id="namedview11"
     pagecolor="#ffffff"
     bordercolor="#666666"
     borderopacity="1.0"
     inkscape:pageshadow="2"
     inkscape:pageopacity="0.0"
     inkscape:pagecheckerboard="0"
     showgrid="false"
     inkscape:zoom="7.9599169"
     inkscape:cx="61.432802"
     inkscape:cy="42.839643"
     inkscape:window-width="1920"
     inkscape:window-height="1046"
     inkscape:window-x="-11"
     inkscape:window-y="-11"
     inkscape:window-maximized="1"
     inkscape:current-layer="Layer_1" />
  <defs
     id="defs4">
    <linearGradient
       id="linearGradient3324"
       inkscape:swatch="solid">
      <stop
         style="stop-color:#000000;stop-opacity:1;"
         offset="0"
         id="stop3322" />
    </linearGradient>
    <linearGradient
       id="linearGradient3259"
       inkscape:swatch="solid">
      <stop
         style="stop-color:#000000;stop-opacity:1;"
         offset="0"
         id="stop3257" />
    </linearGradient>
    <linearGradient
       id="linearGradient1191"
       inkscape:swatch="solid">
      <stop
         style="stop-color:#000000;stop-opacity:1;"
         offset="0"
         id="stop1189" />
    </linearGradient>
    <linearGradient
       id="linearGradient1107"
       inkscape:swatch="solid">
      <stop
         style="stop-color:#000000;stop-opacity:1;"
         offset="0"
         id="stop1105" />
    </linearGradient>
    <style
       id="style2">.cls-1{fill-rule:evenodd;}</style>
    <linearGradient
       inkscape:collect="always"
       xlink:href="#linearGradient1107"
       id="linearGradient1109"
       x1="0.064585522"
       y1="60.958096"
       x2="122.67264"
       y2="60.958096"
       gradientUnits="userSpaceOnUse" />
    <linearGradient
       inkscape:collect="always"
       xlink:href="#linearGradient3324"
       id="linearGradient3326"
       x1="0.081226751"
       y1="25.613632"
       x2="43.867069"
       y2="25.613632"
       gradientUnits="userSpaceOnUse" />
  </defs>
  <title
     id="title6">scissors</title>
  <path
     class="cls-1"
     d="m 11.381308,3.1110039 c 1.256034,-0.6852454 2.304253,-0.6733165 3.142371,-0.013255 L 7.1016523,8.0614711 A 1.4752704,1.7124507 0 0 1 6.2772371,8.4590991 C 6.000909,8.4763275 5.9015679,8.3848752 5.6617792,8.3331834 A 0.82441589,0.95695772 0 0 0 5.0451806,8.4657264 L 4.8499243,8.6724928 C 4.6752211,8.8567262 4.4651206,9.0171031 4.4993761,9.3352059 4.522213,9.5446228 4.676363,9.7209045 4.9207189,9.8733286 a 1.7584494,2.0411563 0 0 1 0.4316193,0.6812694 2.0461956,2.3751638 0 0 1 0.1644261,0.861527 c -0.04453,1.000697 -0.4476048,1.864875 -1.4170356,2.51831 -1.1053111,0.795255 -2.0393446,0.6985 -2.8751789,0.113987 -0.50355596,-0.454622 -0.731926,-0.999372 -0.731926,-1.61702 0,-0.949006 0.38937096,-1.7098 0.9968353,-2.303591 A 8.4131526,9.7657407 0 0 1 2.8516863,9.1098832 l 1.5985902,-1.451342 0.028547,0.1126614 z m 0,8.7610681 c 1.256034,0.685245 2.304253,0.673316 3.142371,0.01325 L 8.3896597,7.7831306 6.8333176,8.8023835 Z M 5.3215077,6.6525424 A 0.84496915,0.98081544 0 0 1 5.0463225,6.5200004 L 4.8510661,6.3132338 C 4.676363,6.1289995 4.4662625,5.9686226 4.500518,5.6505203 4.5233549,5.439778 4.6775048,5.2634963 4.9218608,5.1123976 A 1.7630167,2.0464581 0 0 0 5.3523382,4.4231758 2.0393444,2.3672113 0 0 0 5.5167643,3.568276 C 5.4722342,2.5675791 5.0691595,1.7020757 4.0997287,1.049966 2.9967013,0.2653137 2.0626678,0.35544269 1.2268335,0.93995565 0.72099384,1.3892752 0.4926238,1.939327 0.4926238,2.5529995 c 0,0.9423779 0.38937096,1.7097998 0.9968353,2.3022653 a 8.3355066,9.6756114 0 0 0 1.3622272,1.0179278 l 1.5506325,1.4089272 0.068512,-0.046388 0.00685,-0.023858 0.013703,0.010603 z M 4.2436016,4.5146303 C 4.6900652,4.1766466 4.7357392,3.6067133 4.5713128,3.0632885 4.44,2.6272233 4.1579631,2.2508022 3.7354784,1.939327 A 2.438992,2.8311104 0 0 0 2.305882,1.5112144 C 1.3421604,1.6132721 1.1640318,2.6099928 1.5808072,3.4807978 A 1.9491384,2.2625025 0 0 0 2.4223507,4.3979927 2.7621357,3.2062061 0 0 0 3.2833058,4.7227222 1.3884898,1.6117183 0 0 0 4.2436016,4.5159557 Z M 6.7819348,7.5206969 A 0.40878238,0.47450259 0 1 1 6.3742942,7.0461946 0.40764052,0.47317716 0 0 1 6.7819348,7.5206969 Z M 4.2436016,10.469771 c 0.4464636,0.337984 0.4921376,0.906591 0.3277112,1.450017 C 4.44,12.357178 4.1579631,12.732274 3.7354784,13.050376 A 2.4481269,2.8417138 0 0 1 2.305882,13.470536 C 1.3421604,13.367152 1.1640318,12.370432 1.5808072,11.499627 a 1.9411454,2.2532247 0 0 1 0.8415435,-0.91587 2.7335894,3.1730705 0 0 1 0.8609551,-0.324728 1.3884898,1.6117183 0 0 1 0.9602958,0.208091 z"
     id="path8"
     style="opacity:1;stroke-width:0.999997" />
  <metadata
     id="metadata13">
    <rdf:RDF>
      <cc:Work
         rdf:about="">
        <dc:title>scissors</dc:title>
      </cc:Work>
    </rdf:RDF>
  </metadata>
  <path
     style="fill:#ff0000;fill-rule:evenodd;stroke:url(#linearGradient1109);stroke-width:0.999997"
     d="M 2.343129,14.490173 C 1.940248,14.448421 1.4017479,14.205922 1.1354063,13.946307 0.72147859,13.542833 0.49986039,13.010594 0.49999857,12.420311 0.50009913,11.990792 0.58262286,11.598671 0.75800906,11.194345 0.95725452,10.735014 1.2449447,10.35161 1.6654743,9.9849663 1.9756529,9.7145337 2.4903071,9.3350383 2.7657782,9.1736238 c 0.048886,-0.028648 0.4320238,-0.3644026 0.8748,-0.7666193 0.4333,-0.3936082 0.7947078,-0.7156521 0.8031281,-0.7156521 0.00842,0 0.015311,0.014544 0.015311,0.032317 0,0.017778 0.00651,0.036992 0.014484,0.042714 0.00796,0.00571 0.4969509,-0.3152917 1.0866336,-0.7133466 0.5896828,-0.398055 2.1492622,-1.4509486 3.4657321,-2.3397639 2.532522,-1.7098322 2.517786,-1.7005044 2.949932,-1.8674178 0.45687,-0.1764637 0.690372,-0.2229018 1.126082,-0.2239525 0.365609,-8.885e-4 0.515235,0.022995 0.785465,0.1253393 0.187302,0.070937 0.612719,0.3128347 0.612656,0.3483651 -8e-6,0.00457 -0.29845,0.2074401 -0.663205,0.4508022 C 10.8047,5.5694021 7.0689323,8.0784407 6.9693914,8.158735 6.739395,8.344264 6.4679634,8.447004 6.2091063,8.446512 6.0854095,8.4462734 6.030277,8.4371011 5.9006893,8.3951746 5.601515,8.2983819 5.4611017,8.283955 5.2976265,8.3332123 5.1071629,8.3906019 5.0384354,8.4463623 4.7099839,8.8099818 4.5357028,9.0029225 4.4958682,9.0873347 4.495303,9.264898 c -3.425e-4,0.107964 0.00621,0.1489886 0.034538,0.2164665 0.045393,0.1080931 0.174149,0.2542382 0.3011496,0.341818 0.2389389,0.1647728 0.4932516,0.5942525 0.5962467,1.0069345 0.077548,0.310722 0.094418,0.56885 0.057094,0.873691 -0.057649,0.470844 -0.2158718,0.921727 -0.4507914,1.2846 -0.1288028,0.198956 -0.3999729,0.510375 -0.5710202,0.655772 -0.3278541,0.278688 -0.7824456,0.564485 -1.0955015,0.68873 -0.3446278,0.136774 -0.697941,0.191042 -1.0238888,0.157264 z m 0.4949025,-1.04377 c 0.3973658,-0.07708 0.7444365,-0.245852 1.0536702,-0.512366 0.5227736,-0.450553 0.7845834,-1.004576 0.765079,-1.619 -0.00515,-0.162229 -0.013771,-0.225974 -0.043921,-0.324751 C 4.502572,10.628965 4.2398748,10.382896 3.8421818,10.268395 3.3617233,10.130063 2.571401,10.381077 2.0698427,10.831308 c -0.5235812,0.470001 -0.8076785,1.254288 -0.6729563,1.857784 0.075395,0.337731 0.3015042,0.60671 0.6066689,0.721688 0.2035954,0.07671 0.5470823,0.09137 0.8344763,0.03562 z M 6.5458088,7.9596962 C 6.6908763,7.8852102 6.7714052,7.7428058 6.780528,7.5446317 6.7874579,7.3939995 6.7593151,7.2988166 6.6773157,7.1955506 6.5844602,7.078618 6.5257063,7.0505181 6.3740747,7.0505181 c -0.1048756,0 -0.1398746,0.00673 -0.1864853,0.035876 -0.280775,0.1755524 -0.3073531,0.6341967 -0.048284,0.8332042 0.1176527,0.090376 0.2778141,0.1061751 0.4065034,0.040098 z"
     id="path251" />
  <path
     style="display:inline;fill:#ff0000;fill-rule:evenodd;stroke:url(#linearGradient3326);stroke-width:0.999997"
     d="M 3.6218537,6.5595116 C 3.1889223,6.1659275 2.8150066,5.838297 2.7659354,5.8095433 2.487733,5.6465285 1.9790276,5.2714842 1.6663267,4.9988521 1.243154,4.6299041 0.95500699,4.2453652 0.75797383,3.7866327 0.59731188,3.41258 0.52181188,3.0851296 0.50442756,2.6869799 0.4844423,2.2292617 0.58302603,1.816752 0.79613252,1.466381 0.8842225,1.3215513 1.1007302,1.063329 1.2113662,0.9711444 1.3241657,0.87715705 1.6466175,0.69610351 1.812693,0.63350526 2.4160308,0.40609134 3.0177786,0.45648169 3.6546448,0.78775025 3.956378,0.94469799 4.3549438,1.2298972 4.5809492,1.45058 5.108487,1.9656939 5.3962348,2.5520455 5.4862907,3.2954206 5.5728432,4.0098783 5.2841108,4.8239346 4.8210725,5.1709459 4.7558969,5.2197899 4.6739873,5.2929327 4.6390514,5.333485 4.4651596,5.5353336 4.4437598,5.8056341 4.5845057,6.0224487 c 0.029603,0.045601 0.1441965,0.1782349 0.2546531,0.2947408 0.1468113,0.1548515 0.2277306,0.2270667 0.3008398,0.2684814 0.055006,0.031159 0.1128729,0.056653 0.1285929,0.056653 0.024915,0 0.025891,0.003 0.00758,0.023158 -0.029115,0.032101 -0.8528884,0.5929363 -0.8709243,0.5929363 -0.00804,0 -0.3605627,-0.3145089 -0.7833913,-0.6989081 z M 3.7877028,4.7270117 C 4.0946921,4.6603269 4.3646166,4.4752663 4.5065245,4.2341867 4.6073503,4.0628989 4.6486365,3.9110994 4.6568122,3.6816144 4.6801107,3.0276316 4.3857458,2.4369243 3.8130076,1.9883364 3.3871942,1.6548247 2.8435333,1.4732908 2.3574741,1.5023185 1.8592515,1.5320727 1.501363,1.82496 1.3966979,2.2885943 c -0.098276,0.435331 0.023614,0.9872339 0.3185754,1.4424732 0.2577686,0.3978364 0.6263361,0.6864597 1.110942,0.8699723 0.3815605,0.1444911 0.6901225,0.1849182 0.9614875,0.1259719 z"
     id="path1111" />
  <path
     style="fill:#ff0000;fill-rule:evenodd;stroke:#000000;stroke-width:0.999997;stroke-opacity:1"
     d="M 12.764772,12.352715 C 12.386297,12.298755 11.884203,12.128378 11.501134,11.923918 11.401724,11.870862 6.8988579,8.8451507 6.8662393,8.8094945 6.8607894,8.8035361 7.2013695,8.5727489 7.6230846,8.2966344 L 8.3898398,7.7946077 10.322969,9.0875689 c 1.063218,0.7111293 2.437992,1.6301501 3.05505,2.0422691 0.61706,0.412118 1.121942,0.753053 1.121961,0.757632 5.9e-5,0.01514 -0.176375,0.130219 -0.329399,0.214844 -0.336401,0.186036 -0.596725,0.253109 -1.011322,0.260574 -0.157796,0.0029 -0.335314,-0.0017 -0.394487,-0.01017 z"
     id="path1150" />
</svg>
