<?xml version="1.0" encoding="UTF-8" standalone="no"?>
<svg
   id="Layer_1"
   data-name="Layer 1"
   viewBox="0 0 14.999999 15"
   version="1.1"
   sodipodi:docname="seedling15.svg"
   inkscape:version="1.1.1 (3bf5ae0d25, 2021-09-20)"
   width="15"
   height="15"
   xmlns:inkscape="http://www.inkscape.org/namespaces/inkscape"
   xmlns:sodipodi="http://sodipodi.sourceforge.net/DTD/sodipodi-0.dtd"
   xmlns="http://www.w3.org/2000/svg"
   xmlns:svg="http://www.w3.org/2000/svg"
   xmlns:rdf="http://www.w3.org/1999/02/22-rdf-syntax-ns#"
   xmlns:cc="http://creativecommons.org/ns#"
   xmlns:dc="http://purl.org/dc/elements/1.1/">
  <sodipodi:namedview
     id="namedview33"
     pagecolor="#ffffff"
     bordercolor="#666666"
     borderopacity="1.0"
     inkscape:pageshadow="2"
     inkscape:pageopacity="0.0"
     inkscape:pagecheckerboard="0"
     showgrid="true"
     inkscape:zoom="35.111299"
     inkscape:cx="6.1803467"
     inkscape:cy="8.9429902"
     inkscape:window-width="1920"
     inkscape:window-height="1046"
     inkscape:window-x="-11"
     inkscape:window-y="-11"
     inkscape:window-maximized="1"
     inkscape:current-layer="Layer_1"
     width="15px"
     scale-x="1">
    <inkscape:grid
       type="xygrid"
       id="grid202"
       originx="4.3654352e-09"
       originy="-3.9045331e-10" />
  </sodipodi:namedview>
  <defs
     id="defs24">
    <style
       id="style22">.cls-1{fill:#338032;}.cls-1,.cls-2{fill-rule:evenodd;}.cls-2{fill:#432a16;}</style>
  </defs>
  <title
     id="title26">seedling</title>
  <path
     class="cls-1"
     d="M 6.8647581,6.1977272 V 6.15877 L 10.900212,3.826581 7.1982268,6.9361636 A 3.3177718,4.8627085 0 0 0 9.344025,8.3368944 C 11.02345,8.4998106 12.572389,7.4036643 13.607834,5.5035606 A 5.0104878,7.3436462 0 0 0 14.123742,4.320644 C 14.306183,3.8106435 14.957415,2.0947062 14.863172,1.683873 14.725435,1.0853313 12.8092,0.67272721 12.370616,0.58595635 10.091914,0.1237687 7.3081742,0.67803971 6.6895662,4.6039772 A 1.29642,1.9001041 0 0 0 6.6629842,5.1883519 L 6.5349119,5.3123111 6.4140896,5.1830402 A 1.0728993,1.5724997 0 0 0 6.4467107,4.7668946 C 6.3899274,1.3792897 4.160762,0.2335605 2.2324429,0.0458522 1.8615194,0.0104354 0.23525561,-0.1241479 0.05402258,0.33449805 -0.0716322,0.64793565 0.26787765,2.2222063 0.35849397,2.6879354 A 4.2601832,6.2439588 0 0 0 0.64725873,3.7893939 4.2070215,6.1660418 0 0 0 3.8309178,7.1805397 2.7934042,4.0941667 0 0 0 5.7640694,6.557206 L 3.0733642,3.0828313 5.973092,5.8541849 v 0.030103 C 6.2038613,7.068976 6.1639907,8.784913 5.940471,10.219287 l 1.1610993,0.582602 C 6.8599257,9.4737633 6.5687447,7.5205353 6.8599257,6.1977233 Z"
     id="path28"
     style="stroke-width:0.999995" />
  <path
     class="cls-2"
     d="m 0.58395917,13.847537 c -0.39726104,0.02095 -0.6873772,0.673534 -0.54891267,1.055141 H 15.012284 A 2.0522412,2.3754977 0 0 0 13.416647,13.439221 C 13.222138,11.115239 11.260558,10.285244 9.8149231,11.176297 10.357242,9.4342651 9.20502,9.0660137 8.384123,9.3274143 7.972027,8.7397401 6.4060592,9.2072082 6.3566076,10.266163 4.4230511,8.7550021 2.5867489,10.008579 2.7779617,12.143665 2.1268489,11.708633 0.53450751,11.968128 0.58395917,13.847537 Z"
     id="path30"
     style="stroke-width:0.999994" />
  <metadata
     id="metadata204">
    <rdf:RDF>
      <cc:Work
         rdf:about="">
        <dc:title>seedling</dc:title>
      </cc:Work>
    </rdf:RDF>
  </metadata>
</svg>
