<?xml version="1.0" encoding="UTF-8" standalone="no"?>
<svg
   id="Layer_1"
   data-name="Layer 1"
   viewBox="0 0 30.000001 30"
   version="1.1"
   sodipodi:docname="watering30.svg"
   inkscape:version="1.1.1 (3bf5ae0d25, 2021-09-20)"
   width="30"
   height="30"
   xmlns:inkscape="http://www.inkscape.org/namespaces/inkscape"
   xmlns:sodipodi="http://sodipodi.sourceforge.net/DTD/sodipodi-0.dtd"
   xmlns="http://www.w3.org/2000/svg"
   xmlns:svg="http://www.w3.org/2000/svg"
   xmlns:rdf="http://www.w3.org/1999/02/22-rdf-syntax-ns#"
   xmlns:cc="http://creativecommons.org/ns#"
   xmlns:dc="http://purl.org/dc/elements/1.1/">
  <sodipodi:namedview
     id="namedview29"
     pagecolor="#ffffff"
     bordercolor="#666666"
     borderopacity="1.0"
     inkscape:pageshadow="2"
     inkscape:pageopacity="0.0"
     inkscape:pagecheckerboard="0"
     showgrid="false"
     inkscape:zoom="8.203125"
     inkscape:cx="61.44"
     inkscape:cy="34.011429"
     inkscape:window-width="1920"
     inkscape:window-height="1046"
     inkscape:window-x="-11"
     inkscape:window-y="-11"
     inkscape:window-maximized="1"
     inkscape:current-layer="Layer_1" />
  <defs
     id="defs22">
    <style
       id="style20">.cls-1{fill-rule:evenodd;}</style>
  </defs>
  <title
     id="title24">watering-can</title>
  <path
     class="cls-1"
     d="m 19.137961,26.075437 7.87382,-5.156841 a 1.4034242,1.9342356 0 0 0 0.676084,-2.63056 l -0.1318,-0.336389 0.688288,-0.454124 a 3.0631259,4.2216794 0 0 0 1.464443,-5.61433 L 27.848954,6.5379754 a 0.97629512,1.3455551 0 0 0 -0.0537,-0.1581028 3.0704482,4.231771 0 0 0 -3.983284,-1.951055 0.97629512,1.3455551 0 0 0 -0.114715,0.074005 L 22.454923,5.330339 h -0.02441 A 1.4644427,2.0183328 0 0 0 20.55847,4.479276 l -6.589992,4.3192321 a 1.4644427,2.0183328 0 0 0 -0.678525,2.6305599 l 1.769535,6.152552 -3.653785,-1.823228 c -0.244073,-0.127827 -0.20014,-0.08073 -0.312414,-0.427213 L 10.182894,12.559335 C 9.9607862,11.886557 9.9388195,11.550168 9.4848423,11.129683 A 1.6182092,2.2302577 0 0 0 8.6110582,10.749562 l -2.2650047,9.180051 a 1.7304831,2.3849965 0 0 0 0.7151362,0.359936 c 0.4588587,0.06728 0.7151361,-0.20856 1.1154171,-0.477672 l 2.2991752,-1.54066 c 0.107393,-0.07401 0.0781,-0.0841 0.180615,0 l 5.857771,4.373054 0.715136,2.489277 a 1.405865,1.9375995 0 0 0 1.908657,0.935161 z M 5.4698286,17.803636 a 0.35491132,0.48914796 0 0 0 0.1635295,-0.95198 4.4641094,6.1525511 0 0 0 -0.7566288,-0.158103 0.35634772,0.49112764 0 0 0 -0.1537664,0.945252 0.38319583,0.52813041 0 0 0 0.1049517,0.03028 3.6122919,4.9785542 0 0 1 0.641914,0.134555 z m -4.75943868,0.914978 a 0.35634772,0.49112764 0 0 0 0.35634768,0.834243 0.31241444,0.43057765 0 0 0 0.090307,-0.07737 6.5631439,9.0454943 0 0 1 0.5516068,-0.548315 0.35390698,0.48776375 0 0 0 -0.2928886,-0.881338 0.34170329,0.47094431 0 0 0 -0.1049517,0.06728 c -0.2099031,0.198469 -0.40272142,0.383483 -0.60042118,0.6055 z M 2.6385728,17.174589 a 0.35390698,0.48776375 0 0 0 0.1415628,0.938525 0.52475863,0.72323591 0 0 0 0.1073924,-0.03028 4.8351016,6.6638621 0 0 1 0.6321511,-0.265748 0.35634772,0.49112764 0 0 0 -0.03173,-0.962071 0.36855141,0.50794708 0 0 0 -0.1269183,0 5.7308524,7.8984091 0 0 0 -0.7322214,0.30275 z m 3.5512735,-2.287444 a 0.35878846,0.49449153 0 0 0 0.4246884,-0.137919 0.35390698,0.48776375 0 0 0 -0.1391221,-0.74342 4.0711507,5.6109651 0 0 0 -0.7322213,-0.336389 0.35435722,0.48838429 0 0 0 -0.158648,0.951981 3.3682182,4.6421654 0 0 1 0.6101844,0.275838 z m -6.10184452,1.385923 a 0.34902551,0.48103598 0 0 0 -0.0195259,0.605498 0.35390698,0.48776375 0 0 0 0.55404748,0.03364 l 0.1098332,-0.144647 a 0.35390698,0.48776375 0 0 0 -0.42468837,-0.766966 0.4710624,0.64923038 0 0 0 -0.092748,0.09419 c -0.0439333,0.06391 -0.0854258,0.127827 -0.12691837,0.195105 z M 1.398678,14.786229 A 0.35878846,0.49449153 0 0 0 1.2205041,15.22017 0.35390698,0.48776375 0 0 0 1.7550257,15.6272 5.4770156,7.5485646 0 0 1 2.348125,15.199987 0.35500993,0.48928386 0 0 0 2.0552364,14.308557 7.4027577,10.202672 0 0 0 1.3937965,14.786229 Z m 2.0819493,-1.116812 a 0.35390698,0.48776375 0 0 0 0.046374,0.965436 0.41492543,0.57186095 0 0 0 0.095189,0 5.9920113,8.2583453 0 0 1 0.6565585,-0.131191 0.35390698,0.48776375 0 0 0 -0.056137,-0.972163 6.311748,8.6990147 0 0 0 -0.7322213,0.144647 z m 3.4170329,-1.288369 a 0.35390698,0.48776375 0 0 0 0.4881476,-0.672777 0.35878846,0.49449153 0 0 0 -0.1122739,-0.158103 4.8448645,6.6773176 0 0 0 -0.6785252,-0.487764 0.35390698,0.48776375 0 0 0 -0.3758736,0.810697 0.37343288,0.51467486 0 0 0 0.09763,0.08746 3.7904658,5.224118 0 0 1 0.5857771,0.433942 z m -6.64124751,0.195105 a 0.35390698,0.48776375 0 0 0 0.42712912,0.770331 0.33438108,0.46085265 0 0 0 0.0585777,-0.06055 A 4.3298689,5.9675372 0 0 1 1.2522337,12.730891 0.35390698,0.48776375 0 0 0 0.97643034,11.836097 0.42224764,0.58195261 0 0 0 0.8446305,11.913468 5.5795266,7.6898478 0 0 0 0.25397195,12.586245 Z M 0.84707124,11.903377 1.2522337,12.730892 0.85195272,11.913468 Z M 2.1967992,10.971579 a 0.35480872,0.48900656 0 1 0 0.2440738,0.918342 c 0.2147849,-0.09755 0.4124847,-0.185014 0.6345918,-0.255655 a 0.35390698,0.48776375 0 0 0 -0.026848,-0.958709 0.30509223,0.420486 0 0 0 -0.1244776,0 7.2172617,9.9470165 0 0 0 -0.7322213,0.289295 z m 2.1966641,-0.51131 A 0.35390698,0.48776375 0 0 0 4.237256,11.385338 0.34170329,0.47094431 0 0 0 4.3910225,11.439157 5.0279199,6.9296091 0 0 1 5.0549032,11.4997 0.35390698,0.48776375 0 0 0 5.298977,10.608272 0.36855141,0.50794708 0 0 0 5.150092,10.530901 5.8748559,8.0968785 0 0 0 4.4032262,10.463625 Z M 20.553589,3.6483957 C 20.099611,3.0529876 19.49919,2.7670571 18.915854,3.1505403 l -4.786287,3.1351435 a 1.4278316,1.9678744 0 0 0 -0.763951,2.072155 z M 26.728655,15.916495 23.260367,7.3789474 24.480736,6.581706 a 1.3668132,1.8837773 0 0 1 1.813468,0.8847025 L 28.16625,12.89236 a 1.3741354,1.8938689 0 0 1 -0.641914,2.502732 l -0.702933,0.460853 c -0.03173,0.02018 -0.06102,0.04372 -0.09031,0.06728 z"
     id="path26"
     style="display:inline;stroke-width:0.999998" />
  <metadata
     id="metadata111">
    <rdf:RDF>
      <cc:Work
         rdf:about="">
        <dc:title>watering-can</dc:title>
      </cc:Work>
    </rdf:RDF>
  </metadata>
  <path
     style="display:inline;fill:#008000;fill-rule:evenodd;stroke-width:0.999998"
     d="m 18.115647,26.209596 c -0.371043,-0.124042 -0.755402,-0.523965 -0.910054,-0.946904 -0.04115,-0.112525 -0.23168,-0.750272 -0.423409,-1.417214 L 16.433586,22.632855 13.457241,20.410799 10.480896,18.188741 9.7035785,18.707199 C 9.2760545,18.99235 8.6316997,19.4274 8.2716794,19.673979 7.9116589,19.920556 7.5405313,20.157949 7.4469512,20.20152 7.247715,20.294284 6.9949095,20.302572 6.7791917,20.223408 6.5616231,20.143572 6.2930504,19.966926 6.293078,19.903684 c 2.37e-5,-0.05392 2.2268652,-9.102928 2.2469093,-9.130553 0.028646,-0.03948 0.4801529,0.125543 0.6510632,0.237962 0.2233502,0.146912 0.4937668,0.470603 0.5980652,0.715887 0.039735,0.09345 0.1513706,0.418538 0.2480803,0.722423 0.465345,1.462243 1.027677,3.142871 1.071609,3.202693 0.04717,0.06423 3.842996,1.976271 3.864499,1.946636 0.0058,-0.008 -0.40554,-1.460749 -0.914091,-3.22834 -1.023139,-3.556162 -1.024403,-3.561652 -0.94454,-4.101398 0.100572,-0.6796989 0.371814,-1.1574183 0.839974,-1.4793832 1.056324,-0.7264596 6.640678,-4.3471961 6.782669,-4.39769 0.207013,-0.073616 0.362534,-0.079258 0.584634,-0.021206 0.348997,0.091219 0.760231,0.455155 0.919118,0.8134046 0.04091,0.092245 0.08933,0.1682142 0.107588,0.1688209 0.01826,6.055e-4 0.335879,-0.200838 0.705817,-0.4476549 0.72179,-0.481568 0.993019,-0.6317208 1.298649,-0.7189342 0.799114,-0.2280323 1.639475,0.00182 2.32479,0.6358643 0.234299,0.2167689 0.658946,0.8015751 0.806979,1.111338 0.139932,0.2928114 0.161611,0.3531789 1.257151,3.5007261 0.502411,1.4434594 0.951395,2.7813254 0.997737,2.9730354 0.116159,0.480531 0.159365,0.94394 0.139085,1.491784 -0.02241,0.605191 -0.107417,1.057652 -0.301433,1.604274 -0.186592,0.525703 -0.374007,0.880813 -0.65776,1.246302 -0.268871,0.346323 -0.526891,0.571531 -1.04661,0.913515 -0.236197,0.155421 -0.425042,0.295871 -0.419658,0.312109 0.0054,0.01624 0.04535,0.12258 0.08882,0.236314 0.135856,0.355485 0.181615,0.644001 0.168364,1.061543 -0.01042,0.328149 -0.02552,0.414375 -0.121336,0.692446 -0.147912,0.429258 -0.351039,0.704745 -0.694659,0.942118 -0.145663,0.100624 -2.003701,1.321558 -4.128972,2.713186 -2.88263,1.887548 -3.914232,2.54487 -4.061387,2.58786 -0.236562,0.0691 -0.383724,0.06932 -0.588585,8.53e-4 z M 27.15608,15.610558 c 0.428933,-0.285837 0.505286,-0.352333 0.65742,-0.572561 0.355122,-0.514076 0.493458,-1.276897 0.344337,-1.89877 -0.04638,-0.193411 -1.952408,-5.721049 -2.033528,-5.8973958 -0.185108,-0.4024073 -0.582055,-0.7480304 -0.949713,-0.8269189 -0.355708,-0.076325 -0.536704,-0.00806 -1.311179,0.4945039 -0.485877,0.3152916 -0.68396,0.4633639 -0.681167,0.5091892 0.0022,0.035539 0.743896,1.8876033 1.64829,4.1157006 1.928498,4.751121 1.783496,4.399649 1.815116,4.399649 0.01381,0 0.243512,-0.145528 0.510424,-0.323397 z"
     id="path958" />
  <path
     style="fill:#0000ff;fill-rule:evenodd;stroke-width:0.999998"
     d="M 2.2019132,11.857717 C 2.0083166,11.73994 1.9307819,11.464925 2.0223613,11.220848 c 0.062538,-0.166677 0.2452369,-0.285901 0.6751558,-0.440586 0.3067873,-0.110383 0.3205045,-0.111837 0.4225344,-0.04478 0.2731269,0.179507 0.2791357,0.668183 0.01021,0.830348 -0.087745,0.05291 -0.7969869,0.351453 -0.8262494,0.347795 -0.00706,-8.55e-4 -0.053005,-0.02604 -0.1020989,-0.05591 z"
     id="path1071" />
  <path
     style="fill:#0000ff;fill-rule:evenodd;stroke-width:0.999998"
     d="m 4.55246,11.425642 c -0.2899799,-0.02734 -0.3968774,-0.09091 -0.4565976,-0.271553 -0.076284,-0.230752 -0.00967,-0.502956 0.1511371,-0.617563 0.079936,-0.05697 0.1502518,-0.06346 0.4383643,-0.04043 0.4512275,0.03607 0.5629984,0.07457 0.6630091,0.228387 0.1348385,0.207387 0.097882,0.560678 -0.071261,0.681227 -0.085318,0.0608 -0.2445117,0.06518 -0.7246519,0.01993 z"
     id="path1110" />
  <path
     style="fill:#0000ff;fill-rule:evenodd;stroke-width:0.999998"
     d="M 6.6476931,12.165526 C 6.2332751,11.871997 6.1145322,11.727685 6.1145322,11.51756 c 0,-0.243251 0.1661688,-0.463485 0.3497028,-0.463485 0.094575,0 0.4852843,0.248502 0.7301904,0.464421 0.180474,0.159113 0.2462739,0.320482 0.2173438,0.533018 -0.010305,0.07571 -0.048657,0.17628 -0.085227,0.223493 -0.06082,0.07852 -0.2012768,0.17332 -0.2567951,0.17332 -0.012531,0 -0.2024562,-0.127261 -0.422054,-0.282801 z"
     id="path1149" />
  <path
     style="fill:#0000ff;fill-rule:evenodd;stroke-width:0.999998"
     d="M 5.8497644,14.708814 C 5.4068107,14.498133 5.3349837,14.42018 5.3349837,14.150133 c 0,-0.178732 0.077579,-0.343518 0.2009003,-0.426733 0.1095152,-0.0739 0.3318962,-0.01572 0.7117677,0.1862 0.3089972,0.16425 0.3611538,0.218939 0.4061322,0.425843 0.041139,0.189246 -0.021244,0.398472 -0.1500861,0.503367 -0.1225233,0.09975 -0.2056312,0.08323 -0.6539334,-0.129996 z"
     id="path1188" />
  <path
     style="fill:#0000ff;fill-rule:evenodd;stroke-width:0.999998"
     d="M 3.3782432,14.532421 C 3.3201372,14.478 3.2570184,14.370181 3.233579,14.285304 3.196243,14.150105 3.197655,14.118877 3.247398,13.979542 3.27787,13.89419 3.342969,13.79322 3.3920622,13.755164 c 0.1110311,-0.08607 0.7794223,-0.218799 0.919466,-0.18259 0.203783,0.05269 0.3135796,0.378443 0.2214676,0.65707 -0.067821,0.205151 -0.1455885,0.236666 -0.9326574,0.377952 -0.092947,0.01669 -0.1415928,2.18e-4 -0.2220964,-0.07518 z"
     id="path1227" />
  <path
     style="fill:#0000ff;fill-rule:evenodd;stroke-width:0.999998"
     d="M 1.4729614,15.642724 C 1.207973,15.493947 1.1594969,15.046769 1.3844276,14.826027 c 0.1780365,-0.174723 0.7250916,-0.532362 0.8140898,-0.532214 0.1474561,2.44e-4 0.2772765,0.134475 0.3199623,0.330835 0.032888,0.151287 0.030508,0.187953 -0.020751,0.319764 -0.04814,0.12379 -0.1221553,0.195519 -0.4391478,0.425579 -0.4237143,0.307515 -0.4783494,0.332959 -0.5856195,0.272733 z"
     id="path1266" />
  <path
     style="fill:#0000ff;fill-rule:evenodd;stroke-width:0.999998"
     d="m 0.32505544,13.314179 c -0.11520328,-0.09682 -0.17432013,-0.28557 -0.14860716,-0.474473 0.0147295,-0.108211 0.0681315,-0.20312 0.21911907,-0.389428 0.4508066,-0.556265 0.62628245,-0.680704 0.81109925,-0.575196 0.1342203,0.07662 0.206772,0.227821 0.206772,0.430912 0,0.202527 -0.054052,0.293753 -0.3585375,0.60513 -0.10554881,0.107939 -0.2498519,0.260179 -0.32067344,0.338312 -0.14847067,0.163799 -0.26867842,0.182819 -0.40917222,0.06474 z"
     id="path1305" />
  <path
     style="fill:#0000ff;fill-rule:evenodd;stroke-width:0.999998"
     d="m 0.13326212,16.923386 c -0.15510586,-0.21377 -0.15329883,-0.433774 0.005612,-0.683218 0.18711775,-0.293721 0.41219868,-0.35285 0.5612397,-0.147438 0.17086512,0.235491 0.15345243,0.460543 -0.0582031,0.752253 -0.1297369,0.178806 -0.15476865,0.196171 -0.28276833,0.196171 -0.11497062,0 -0.1559233,-0.02134 -0.22588027,-0.117768 z"
     id="path1344" />
  <path
     style="fill:#0000ff;fill-rule:evenodd;stroke-width:0.999998"
     d="M 0.71124999,19.403181 C 0.57954107,19.221656 0.5709297,18.997925 0.68825519,18.805754 0.79292171,18.634318 1.3264854,18.112471 1.4450021,18.065625 c 0.181933,-0.07191 0.4147429,0.162925 0.4147429,0.418356 0,0.19611 -0.079111,0.348967 -0.2755163,0.532348 -0.1021168,0.09535 -0.2641277,0.252763 -0.3600242,0.349816 -0.22937751,0.232145 -0.36431983,0.241887 -0.51295451,0.03703 z"
     id="path1383" />
  <path
     style="fill:#0000ff;fill-rule:evenodd;stroke-width:0.999998"
     d="m 2.6430269,18.048556 c -0.1262413,-0.07708 -0.202503,-0.246831 -0.1987808,-0.442474 0.00334,-0.175776 0.083641,-0.324092 0.2336689,-0.431611 0.1442113,-0.103349 0.52211,-0.254808 0.7055663,-0.282785 0.1652294,-0.0252 0.1728589,-0.02189 0.2752222,0.119187 0.082077,0.113121 0.1052818,0.178089 0.1052818,0.294765 0,0.186324 -0.062613,0.358764 -0.1536686,0.423213 -0.05753,0.04072 -0.6734328,0.310172 -0.8282054,0.362333 -0.024547,0.0083 -0.087135,-0.01091 -0.1390844,-0.04262 z"
     id="path1422" />
  <path
     style="fill:#ff0000;fill-rule:evenodd;stroke-width:0.999998"
     d="M 5.3966997,17.760461 C 5.3891897,17.750109 5.231566,17.714295 5.0464319,17.680885 4.6806458,17.61487 4.6199025,17.572802 4.546888,17.334942 4.495183,17.166499 4.53207,16.977902 4.645281,16.831896 c 0.06875,-0.08866 0.1000039,-0.09759 0.3189893,-0.09113 0.2785624,0.0082 0.6424134,0.105844 0.7642743,0.205055 0.1004535,0.08178 0.1479573,0.213072 0.1479573,0.408921 0,0.111017 -0.024078,0.178883 -0.1011627,0.285122 -0.084623,0.116629 -0.1227293,0.139426 -0.2330709,0.139426 -0.07255,0 -0.1380555,-0.0084 -0.1455686,-0.01883 z"
     id="path1461" />
  <path
     style="fill:#0000ff;fill-rule:evenodd;stroke-width:0.999998"
     d="m 13.380753,7.9268313 c 0.01227,-0.3232324 0.03029,-0.4354086 0.104636,-0.65124 0.123313,-0.3579897 0.245453,-0.5752665 0.430937,-0.7665955 0.153306,-0.1581372 4.829054,-3.2508151 5.167365,-3.4178482 0.213676,-0.1054968 0.525311,-0.1035684 0.779223,0.00482 0.195126,0.083296 0.504059,0.3304495 0.597783,0.4782398 0.04788,0.075507 -0.06493,0.1529486 -3.488954,2.3949485 -1.946141,1.2743048 -3.553597,2.3239494 -3.572124,2.3325432 -0.02419,0.011219 -0.02951,-0.094489 -0.01887,-0.37487 z"
     id="path1537" />
  <path
     style="fill:#0000ff;fill-rule:evenodd;stroke-width:0.999998"
     d="m 5.1649895,17.686306 c -0.4515294,-0.09557 -0.4925231,-0.116111 -0.5693079,-0.285314 -0.082614,-0.182049 -0.059684,-0.384978 0.060353,-0.534119 0.075174,-0.0934 0.1181234,-0.11277 0.2500428,-0.11277 0.2127115,0 0.64585,0.106579 0.7731469,0.190243 0.2576973,0.169366 0.2212426,0.685265 -0.055629,0.787252 -0.056296,0.02074 -0.225666,0.0041 -0.4586054,-0.04528 z"
     id="path1613" />
  <path
     style="fill:#ff0000;fill-rule:evenodd;stroke-width:0.999998"
     d="m 13.409947,7.8926252 c 0.01177,-0.3427647 0.02514,-0.4176375 0.120062,-0.6727416 0.144001,-0.3869873 0.288168,-0.6066809 0.510634,-0.7781464 0.29848,-0.2300523 3.426584,-2.3071034 4.570467,-3.0347755 0.587627,-0.3738138 0.714754,-0.4169425 1.031705,-0.3500119 0.220966,0.046661 0.642144,0.3048034 0.739691,0.4533596 0.05709,0.086936 0.05707,0.088467 -0.0014,0.1508525 -0.0778,0.082948 -1.118438,0.7823443 -2.915473,1.9594396 -3.003161,1.967133 -3.98815,2.6112899 -4.027946,2.6341718 -0.03359,0.019312 -0.03856,-0.045746 -0.0277,-0.3621481 z"
     id="path1800" />
</svg>
