<?xml version="1.0" encoding="UTF-8" standalone="no"?>
<svg
   id="Layer_1"
   data-name="Layer 1"
   viewBox="0 0 15.000001 15"
   version="1.1"
   sodipodi:docname="watering15.svg"
   inkscape:version="1.1.1 (3bf5ae0d25, 2021-09-20)"
   width="15"
   height="15"
   xmlns:inkscape="http://www.inkscape.org/namespaces/inkscape"
   xmlns:sodipodi="http://sodipodi.sourceforge.net/DTD/sodipodi-0.dtd"
   xmlns="http://www.w3.org/2000/svg"
   xmlns:svg="http://www.w3.org/2000/svg"
   xmlns:rdf="http://www.w3.org/1999/02/22-rdf-syntax-ns#"
   xmlns:cc="http://creativecommons.org/ns#"
   xmlns:dc="http://purl.org/dc/elements/1.1/">
  <sodipodi:namedview
     id="namedview29"
     pagecolor="#ffffff"
     bordercolor="#666666"
     borderopacity="1.0"
     inkscape:pageshadow="2"
     inkscape:pageopacity="0.0"
     inkscape:pagecheckerboard="0"
     showgrid="false"
     inkscape:zoom="8.203125"
     inkscape:cx="61.44"
     inkscape:cy="34.011429"
     inkscape:window-width="1920"
     inkscape:window-height="1046"
     inkscape:window-x="-11"
     inkscape:window-y="-11"
     inkscape:window-maximized="1"
     inkscape:current-layer="Layer_1" />
  <defs
     id="defs22">
    <style
       id="style20">.cls-1{fill-rule:evenodd;}</style>
  </defs>
  <title
     id="title24">watering-can</title>
  <path
     class="cls-1"
     d="m 9.5689805,13.630442 3.9369105,-2.798019 a 0.7017121,1.0494852 0 0 0 0.338041,-1.4273002 l -0.0659,-0.1825193 0.344144,-0.2464004 A 1.531563,2.2906156 0 0 0 14.854398,5.9299577 L 13.924477,3.0297282 a 0.48814756,0.73007665 0 0 0 -0.02685,-0.085784 1.5352241,2.2960912 0 0 0 -1.991642,-1.0586112 0.48814756,0.73007665 0 0 0 -0.05736,0.040154 l -0.621164,0.448997 h -0.0122 A 0.73222135,1.0951151 0 0 0 10.279235,1.9127109 L 6.984239,4.256257 A 0.73222135,1.0951151 0 0 0 6.6449765,5.6835567 L 7.529744,9.0218327 5.7028515,8.0325784 C 5.580815,7.9632216 5.6027815,7.9887757 5.5466445,7.8007795 L 5.091447,6.2968215 C 4.9803931,5.9317829 4.9694097,5.7492636 4.7424211,5.5211152 A 0.8091046,1.2101022 0 0 0 4.3055291,5.3148677 L 3.1730268,10.295816 a 0.86524155,1.294061 0 0 0 0.3575681,0.195296 c 0.2294293,0.0365 0.357568,-0.113162 0.5577085,-0.259177 L 5.237891,9.395997 c 0.053697,-0.040157 0.03905,-0.045631 0.090307,0 l 2.9288855,2.372749 0.357568,1.350641 A 0.7029325,1.0513105 0 0 0 9.56898,13.626792 Z M 2.7349143,9.1422951 A 0.17745566,0.26540386 0 0 0 2.8166793,8.625766 2.2320547,3.3382757 0 0 0 2.438365,8.5399818 0.17817386,0.266478 0 0 0 2.361482,9.0528604 0.19159791,0.28655511 0 0 0 2.413958,9.0692899 1.8061459,2.7012838 0 0 1 2.734915,9.1422972 Z M 0.35519496,9.6387479 A 0.17817386,0.266478 0 0 0 0.5333688,10.091394 0.15620722,0.23362454 0 0 0 0.5785223,10.049414 3.281572,4.9079404 0 0 1 0.8543257,9.7519078 0.17695349,0.2646528 0 0 0 0.7078814,9.2737079 0.17085164,0.25552684 0 0 0 0.6554056,9.3102129 C 0.550454,9.417899 0.45404484,9.5182846 0.35519496,9.6387479 Z M 1.3192864,8.8009843 A 0.17695349,0.2646528 0 0 0 1.3900674,9.3102129 0.26237932,0.39241622 0 0 0 1.4437634,9.2937839 2.4175508,3.6157049 0 0 1 1.759839,9.1495933 0.17817386,0.266478 0 0 0 1.743974,8.627589 a 0.18427571,0.27560395 0 0 0 -0.063459,0 2.8654262,4.2855504 0 0 0 -0.3661107,0.1642668 z M 3.0949232,7.5598537 A 0.17939423,0.26830319 0 0 0 3.3072674,7.4850211 0.17695349,0.2646528 0 0 0 3.2377064,7.0816534 2.0355753,3.0444199 0 0 0 2.8715958,6.8991341 0.17717861,0.26498951 0 0 0 2.7922718,7.4156637 1.6841091,2.5187646 0 0 1 3.0973639,7.565329 Z M 0.04400089,8.3118334 A 0.17451276,0.26100242 0 0 0 0.03423799,8.640367 0.17695349,0.2646528 0 0 0 0.31126173,8.65862 L 0.36617833,8.580136 A 0.17695349,0.2646528 0 0 0 0.1538341,8.1639928 0.2355312,0.352262 0 0 0 0.1074601,8.2150988 C 0.08549345,8.2497754 0.0647472,8.2844557 0.04400091,8.3209597 Z M 0.699339,7.5050983 A 0.17939423,0.26830319 0 0 0 0.6102521,7.7405477 0.17695349,0.2646528 0 0 0 0.8775129,7.9613957 2.7385078,4.0957303 0 0 1 1.1740626,7.7295968 0.17750496,0.26547759 0 0 0 1.0276183,7.2459212 3.7013789,5.5358065 0 0 0 0.6968983,7.5050983 Z M 1.7403136,6.8991341 a 0.17695349,0.2646528 0 0 0 0.023187,0.5238301 0.20746272,0.3102826 0 0 0 0.047595,0 2.9960056,4.480846 0 0 1 0.3282792,-0.071183 0.17695349,0.2646528 0 0 0 -0.028068,-0.5274801 3.155874,4.7199461 0 0 0 -0.3661106,0.078483 z M 3.4488301,6.2000859 A 0.17695349,0.2646528 0 0 0 3.6929039,5.8350479 0.17939423,0.26830319 0 0 0 3.6367669,5.7492636 2.4224323,3.6230056 0 0 0 3.2975043,5.4846107 0.17695349,0.2646528 0 0 0 3.1095675,5.9244819 0.18671644,0.27925434 0 0 0 3.1583825,5.9719364 1.8952329,2.8345228 0 0 1 3.4512711,6.2073863 Z M 0.12820635,6.3059468 A 0.17695349,0.2646528 0 0 0 0.34177091,6.7239157 0.16719054,0.25005127 0 0 0 0.37105981,6.6910622 2.1649345,3.2378902 0 0 1 0.6261169,6.3899051 0.17695349,0.2646528 0 0 0 0.48821522,5.9044042 0.21112382,0.31575817 0 0 0 0.42231532,5.9463844 2.7897633,4.1723882 0 0 0 0.12698604,6.3114225 Z M 0.42353562,5.9409092 0.62611685,6.3899056 0.42597636,5.9463844 Z M 1.0983996,5.4353305 A 0.17740436,0.26532713 0 1 0 1.2204365,5.9336082 C 1.3278289,5.8806792 1.4266788,5.8332226 1.5377324,5.7948939 a 0.17695349,0.2646528 0 0 0 -0.013424,-0.5201801 0.15254612,0.22814897 0 0 0 -0.062239,0 3.6086309,5.3970919 0 0 0 -0.3661107,0.1569668 z M 2.1967317,5.1579019 a 0.17695349,0.2646528 0 0 0 -0.078104,0.5019277 0.17085164,0.25552684 0 0 0 0.076883,0.029201 2.5139599,3.759895 0 0 1 0.3319403,0.03285 A 0.17695349,0.2646528 0 0 0 2.6494885,5.238206 0.18427571,0.27560395 0 0 0 2.575046,5.1962257 2.937428,4.3932367 0 0 0 2.2016131,5.1597229 Z M 10.276794,1.4618885 C 10.049806,1.1388296 9.749595,0.98368829 9.457927,1.1917601 L 7.0647835,2.8928389 A 0.7139158,1.0677371 0 0 0 6.682808,4.017157 Z m 3.087534,6.6564741 -1.734145,-4.6323365 0.610185,-0.4325704 a 0.6834066,1.0221074 0 0 1 0.906734,0.4800255 l 0.936023,2.9440343 a 0.6870677,1.027583 0 0 1 -0.320957,1.3579422 l -0.351466,0.2500515 c -0.01586,0.010949 -0.03051,0.023721 -0.04516,0.036505 z"
     id="path26"
     style="display:inline;stroke-width:0.999994" />
  <metadata
     id="metadata111">
    <rdf:RDF>
      <cc:Work
         rdf:about="">
        <dc:title>watering-can</dc:title>
      </cc:Work>
    </rdf:RDF>
  </metadata>
  <path
     style="display:inline;fill:#008000;fill-rule:evenodd;stroke-width:0.999994"
     d="M 9.0578235,13.703234 C 8.872302,13.635932 8.6801225,13.418939 8.6027965,13.189459 8.5822215,13.128406 8.4869565,12.782373 8.391092,12.420502 L 8.216793,11.762552 6.7286205,10.556901 5.240448,9.3512469 4.8517893,9.6325542 C 4.6380273,9.787272 4.3158498,10.023323 4.1358397,10.157114 c -0.1800102,0.133788 -0.3655741,0.262594 -0.4123641,0.286235 -0.099618,0.05033 -0.2260208,0.05483 -0.3338797,0.01188 -0.1087843,-0.04332 -0.2430707,-0.13916 -0.2430569,-0.173474 1.19e-5,-0.02926 1.1134326,-4.939103 1.1234546,-4.9540919 0.014323,-0.021421 0.2400765,0.068118 0.3255316,0.1291144 0.1116751,0.079712 0.2468834,0.2553416 0.2990326,0.3884288 0.019868,0.050704 0.075685,0.227092 0.1240402,0.3919752 0.2326725,0.7933894 0.5138385,1.7052713 0.5358045,1.7377297 0.023585,0.03485 1.921498,1.072293 1.9322495,1.0562136 C 7.489552,9.0267779 7.283882,8.2385395 7.0296065,7.2794729 6.518037,5.3499566 6.517405,5.3469778 6.5573365,5.0541203 6.6076225,4.6853266 6.7432435,4.4261236 6.9773235,4.2514306 7.5054855,3.8572653 10.297663,1.8927116 10.368658,1.8653144 c 0.103507,-0.039943 0.181267,-0.043004 0.292317,-0.011506 0.174499,0.049494 0.380116,0.2469598 0.459559,0.4413403 0.02046,0.050051 0.04467,0.09127 0.05379,0.091599 0.0091,3.286e-4 0.16794,-0.1089714 0.352909,-0.2428904 0.360895,-0.261291 0.496509,-0.3427615 0.649324,-0.3900821 0.399557,-0.1237267 0.819738,9.873e-4 1.162395,0.3450097 0.11715,0.1176153 0.329473,0.4349219 0.40349,0.6029942 0.06997,0.1588749 0.08081,0.1916293 0.628575,1.899438 0.251206,0.783198 0.475698,1.5091026 0.498869,1.6131215 0.05808,0.2607283 0.07968,0.5121665 0.06954,0.8094178 -0.01121,0.3283669 -0.05371,0.573865 -0.150716,0.8704534 -0.0933,0.2852381 -0.187004,0.477915 -0.32888,0.6762235 -0.134436,0.1879093 -0.263446,0.3101036 -0.523305,0.4956586 -0.118099,0.084328 -0.212521,0.1605349 -0.209829,0.1693454 0.0027,0.00881 0.02268,0.06651 0.04441,0.1282202 0.06793,0.1928801 0.09081,0.3494248 0.08418,0.5759764 -0.0052,0.1780491 -0.01276,0.2248341 -0.06067,0.3757111 -0.07396,0.232907 -0.17552,0.382383 -0.34733,0.511177 -0.07283,0.0546 -1.00185,0.717056 -2.064486,1.472132 -1.441315,1.024153 -1.957116,1.380806 -2.0306935,1.404131 -0.118281,0.03749 -0.191862,0.03761 -0.2942925,4.63e-4 z M 13.57804,7.9523661 C 13.792507,7.7972754 13.830683,7.7611958 13.90675,7.6417036 14.084311,7.3627743 14.153479,6.9488798 14.078918,6.6114614 14.055728,6.5065199 13.102714,3.5073121 13.062155,3.4116291 12.969605,3.1932893 12.771127,3.0057598 12.587298,2.9629562 c -0.177854,-0.041412 -0.268352,-0.00437 -0.655589,0.2683099 -0.242939,0.1710721 -0.34198,0.2514138 -0.340584,0.2762779 0.0011,0.019283 0.371948,1.0241833 0.824145,2.2331132 0.964249,2.577882 0.891748,2.3871789 0.907558,2.3871789 0.0069,0 0.121756,-0.078961 0.255212,-0.17547 z"
     id="path958" />
  <path
     style="fill:#0000ff;fill-rule:evenodd;stroke-width:0.999994"
     d="M 1.1009566,5.9161349 C 1.0041586,5.8522309 0.96539095,5.7030122 1.0111806,5.5705799 1.0424496,5.4801436 1.1337991,5.4154547 1.3487585,5.3315249 1.5021522,5.2716329 1.5090108,5.270844 1.5600257,5.3072281 1.6965892,5.4046257 1.6995936,5.6697735 1.5651357,5.7577616 1.5212627,5.7864698 1.1666423,5.9484544 1.152011,5.9464696 1.148481,5.9460057 1.125508,5.9323407 1.100962,5.9161338 Z"
     id="path1071" />
  <path
     style="fill:#0000ff;fill-rule:evenodd;stroke-width:0.999994"
     d="M 2.27623,5.6816978 C 2.1312401,5.6668636 2.0777913,5.6323715 2.0479312,5.5343575 2.0097892,5.4091552 2.0431012,5.2614617 2.1235002,5.1992778 c 0.039968,-0.030911 0.075126,-0.034432 0.2191822,-0.021937 0.2256137,0.019571 0.2814992,0.04046 0.3315045,0.1239192 0.067419,0.1125248 0.048941,0.3042149 -0.03563,0.3696229 -0.042659,0.03299 -0.1222558,0.035365 -0.3623259,0.010813 z"
     id="path1110" />
  <path
     style="fill:#0000ff;fill-rule:evenodd;stroke-width:0.999994"
     d="M 3.3238465,6.0831471 C 3.1166375,5.9238829 3.0572661,5.8455816 3.0572661,5.7315711 c 0,-0.1319841 0.083084,-0.2514795 0.1748514,-0.2514795 0.047287,0 0.2426421,0.1348332 0.3650952,0.2519873 0.090237,0.086333 0.1231369,0.1738884 0.1086719,0.2892071 -0.00515,0.041079 -0.024329,0.095647 -0.042614,0.1212637 -0.03041,0.042603 -0.1006384,0.094041 -0.1283975,0.094041 -0.00627,0 -0.1012282,-0.06905 -0.2110266,-0.1534436 z"
     id="path1149" />
  <path
     style="fill:#0000ff;fill-rule:evenodd;stroke-width:0.999994"
     d="M 2.9248822,7.4630942 C 2.7034054,7.3487821 2.6674919,7.3064861 2.6674919,7.1599629 c 0,-0.096977 0.03879,-0.1863874 0.1004501,-0.2315386 C 2.8227,6.8883273 2.9338901,6.919895 3.1238259,7.0294535 3.2783245,7.1185729 3.3044028,7.1482463 3.326892,7.260509 3.347462,7.363191 3.31627,7.4767136 3.251849,7.5336279 3.190587,7.5877507 3.1490334,7.5787872 2.9248822,7.4630942 Z"
     id="path1188" />
  <path
     style="fill:#0000ff;fill-rule:evenodd;stroke-width:0.999994"
     d="m 1.6891216,7.3673862 c -0.029053,-0.029527 -0.060612,-0.088028 -0.072332,-0.1340817 -0.018668,-0.073357 -0.017962,-0.090301 0.00691,-0.1659016 0.015236,-0.04631 0.047786,-0.1010953 0.072332,-0.1217439 0.055516,-0.046701 0.3897112,-0.1187168 0.459733,-0.09907 0.1018915,0.028589 0.1567898,0.205337 0.1107338,0.3565155 -0.033911,0.1113117 -0.072794,0.1284113 -0.4663287,0.2050707 -0.046474,0.00905 -0.070796,1.184e-4 -0.1110482,-0.040791 z"
     id="path1227" />
  <path
     style="fill:#0000ff;fill-rule:evenodd;stroke-width:0.999994"
     d="M 0.7364807,7.9698188 C 0.6039865,7.8890948 0.57974845,7.6464632 0.6922138,7.5266921 0.781232,7.4318902 1.0547596,7.2378411 1.0992587,7.2379213 c 0.073728,1.324e-4 0.1386383,0.072964 0.1599811,0.1795058 0.016444,0.082086 0.015254,0.1019802 -0.010376,0.1734988 -0.02407,0.067166 -0.061078,0.1060855 -0.2195739,0.2309124 C 0.8174328,7.9886909 0.79011525,8.0024966 0.7364807,7.9698188 Z"
     id="path1266" />
  <path
     style="fill:#0000ff;fill-rule:evenodd;stroke-width:0.999994"
     d="M 0.16252772,6.7063876 C 0.10492612,6.6538547 0.07536765,6.5514418 0.08822414,6.4489464 0.09558884,6.3902329 0.12228989,6.3387367 0.19778368,6.2376489 0.42318698,5.9358285 0.5109249,5.8683099 0.6033333,5.9255568 c 0.0671102,0.041573 0.103386,0.123612 0.103386,0.233806 0,0.1098879 -0.027026,0.1593856 -0.17926875,0.3283338 -0.0527744,0.058566 -0.12492595,0.1411688 -0.16033672,0.1835625 -0.0742353,0.088875 -0.13433921,0.099195 -0.20458611,0.035127 z"
     id="path1305" />
  <path
     style="fill:#0000ff;fill-rule:evenodd;stroke-width:0.999994"
     d="M 0.06663106,8.6646855 C -0.01092187,8.5486973 -0.01001835,8.4293267 0.06943706,8.2939823 0.16299594,8.1346141 0.2755364,8.1025317 0.35005691,8.2139848 c 0.0854326,0.1277738 0.0767262,0.2498833 -0.0291015,0.4081605 -0.0648685,0.097017 -0.0773843,0.1064393 -0.14138416,0.1064393 -0.0574853,0 -0.0779616,-0.011579 -0.11294019,-0.063899 z"
     id="path1344" />
  <path
     style="fill:#0000ff;fill-rule:evenodd;stroke-width:0.999994"
     d="M 0.355625,10.010182 C 0.2897705,9.9116901 0.2854648,9.7902972 0.3441276,9.6860285 0.3964609,9.5930095 0.6632427,9.3098641 0.72250105,9.2844462 c 0.0909665,-0.039017 0.20737145,0.0884 0.20737145,0.2269931 0,0.1064066 -0.0395555,0.1893437 -0.13775815,0.2888437 C 0.74105595,9.8520154 0.6600505,9.9374283 0.61210225,9.9900876 0.4974135,10.116045 0.42994234,10.121332 0.35562499,10.010177 Z"
     id="path1383" />
  <path
     style="fill:#0000ff;fill-rule:evenodd;stroke-width:0.999994"
     d="M 1.3215135,9.2751847 C 1.2583925,9.2333624 1.2202619,9.1412582 1.2221235,9.0351055 1.2237935,8.9397321 1.2639445,8.8592583 1.338958,8.8009203 1.411064,8.7448447 1.600013,8.6626655 1.6917411,8.6474856 c 0.082615,-0.013673 0.08643,-0.011877 0.1376111,0.06467 0.041039,0.061378 0.052641,0.096628 0.052641,0.1599348 0,0.1010964 -0.031306,0.1946595 -0.076834,0.2296285 -0.028765,0.022094 -0.3367164,0.1682944 -0.4141027,0.1965961 -0.012273,0.0045 -0.043567,-0.00592 -0.069542,-0.023125 z"
     id="path1422" />
  <path
     style="fill:#ff0000;fill-rule:evenodd;stroke-width:0.999994"
     d="M 2.6983499,9.118869 C 2.6945899,9.1132533 2.6157829,9.0938179 2.523216,9.0756901 2.3403229,9.0398688 2.3099513,9.0170461 2.273444,8.887987 2.247591,8.7965926 2.266034,8.6942628 2.32264,8.6150424 c 0.034375,-0.048106 0.050002,-0.052951 0.1594947,-0.049445 0.1392812,0.00445 0.3212066,0.057429 0.3821371,0.1112595 0.050227,0.044372 0.073979,0.1156094 0.073979,0.221874 0,0.060236 -0.012039,0.097059 -0.050581,0.1547026 -0.042312,0.063281 -0.061365,0.075651 -0.1165354,0.075651 -0.036275,0 -0.069028,-0.00455 -0.072784,-0.010217 z"
     id="path1461" />
  <path
     style="fill:#0000ff;fill-rule:evenodd;stroke-width:0.999994"
     d="M 6.6903765,3.7832992 C 6.6965065,3.6079184 6.7055215,3.5470534 6.7426945,3.4299468 6.804351,3.2357074 6.865421,3.1178164 6.958163,3.0140044 7.034816,2.9282017 9.37269,1.2501641 9.5418455,1.1595346 c 0.106838,-0.057241 0.2626555,-0.056194 0.3896115,0.00262 0.097563,0.045195 0.25203,0.1792966 0.298892,0.2594852 0.02394,0.040969 -0.03247,0.082987 -1.7444775,1.2994608 -0.9730705,0.6914127 -1.7767985,1.260933 -1.786062,1.2655959 -0.012095,0.00608 -0.014755,-0.051268 -0.00943,-0.2033985 z"
     id="path1537" />
  <path
     style="fill:#0000ff;fill-rule:evenodd;stroke-width:0.999994"
     d="M 2.5824948,9.0786337 C 2.3567301,9.026779 2.3362332,9.0156337 2.2978408,8.9238269 2.2565338,8.82505 2.2679988,8.714944 2.3280178,8.6340224 c 0.037587,-0.050677 0.059062,-0.061187 0.1250214,-0.061187 0.1063558,0 0.322925,0.057829 0.3865734,0.1032229 0.1288487,0.091896 0.1106213,0.3718137 -0.027815,0.4271502 -0.028148,0.011253 -0.112833,0.00223 -0.2293026,-0.024568 z"
     id="path1613" />
  <path
     style="fill:#ff0000;fill-rule:evenodd;stroke-width:0.999994"
     d="m 6.7049735,3.7647395 c 0.00588,-0.1859786 0.01257,-0.2266034 0.060031,-0.3650189 0.072001,-0.209973 0.144084,-0.3291753 0.255317,-0.4222097 C 7.1695615,2.8526882 8.7336135,1.7257135 9.305555,1.3308903 9.5993685,1.1280649 9.662932,1.104664 9.8214075,1.1409794 c 0.110483,0.025318 0.3210725,0.1653815 0.3698455,0.2459857 0.02855,0.04717 0.02853,0.048001 -7e-4,0.08185 -0.0389,0.045006 -0.559219,0.4244875 -1.4577365,1.0631606 -1.5015805,1.0673348 -1.994075,1.4168441 -2.013973,1.4292595 -0.016795,0.010478 -0.01928,-0.024821 -0.01385,-0.1964958 z"
     id="path1800" />
</svg>
