<svg width="674.1" height="682.52" version="1.0" viewBox="0 0 674.1 682.52" xmlns="http://www.w3.org/2000/svg" xmlns:xlink="http://www.w3.org/1999/xlink">
 <defs>
  <filter id="filter2884" x="-.035071" y="-.036979" width="1.0701" height="1.074">
   <feGaussianBlur stdDeviation="3.8592188"/>
  </filter>
  <filter id="filter2896" x="-.16291" y="-.070103" width="1.3258" height="1.1402">
   <feGaussianBlur stdDeviation="9.965 4.076"/>
  </filter>
  <radialGradient id="radialGradient9710" cx="308.9" cy="326.81" r="150.16" gradientTransform="matrix(1.3692,0,0,1.3037,-8.3078,-86.676)" gradientUnits="userSpaceOnUse">
   <stop stop-color="#faff1b" offset="0"/>
   <stop stop-color="#fccb1b" offset=".74648"/>
   <stop stop-color="#ff981b" offset="1"/>
  </radialGradient>
  <radialGradient id="radialGradient9712" cx="296.43" cy="343.4" r="132.55" gradientTransform="matrix(1 0 0 .9486 0 16.936)" gradientUnits="userSpaceOnUse">
   <stop stop-color="#ff981b" offset="0"/>
   <stop stop-color="#ff961b" offset=".64789"/>
   <stop stop-color="#eeff1b" offset="1"/>
  </radialGradient>
  <linearGradient id="SVGID_6_" x1="219.06" x2="244.92" y1="340.66" y2="314.79" gradientTransform="matrix(-.64759 0 0 .5368 565.13 233.98)" gradientUnits="userSpaceOnUse">
   <stop stop-color="#ABE1FA" offset="0"/>
   <stop stop-color="#C7EBFC" offset=".1638"/>
   <stop stop-color="#E0F4FD" offset=".3485"/>
   <stop stop-color="#F1FAFE" offset=".5429"/>
   <stop stop-color="#FCFEFF" offset=".7517"/>
   <stop stop-color="#fff" offset="1"/>
  </linearGradient>
  <linearGradient id="SVGID_7_" x1="244.22" x2="267.37" y1="333.76" y2="310.61" gradientTransform="matrix(-.64759 0 0 .5368 565.13 233.98)" gradientUnits="userSpaceOnUse">
   <stop stop-color="#ABE1FA" offset="0"/>
   <stop stop-color="#C7EBFC" offset=".1638"/>
   <stop stop-color="#E0F4FD" offset=".3485"/>
   <stop stop-color="#F1FAFE" offset=".5429"/>
   <stop stop-color="#FCFEFF" offset=".7517"/>
   <stop stop-color="#fff" offset="1"/>
  </linearGradient>
  <linearGradient id="SVGID_8_" x1="193.98" x2="216.89" y1="338.54" y2="315.63" gradientTransform="matrix(-.64759 0 0 .5368 565.13 233.98)" gradientUnits="userSpaceOnUse">
   <stop stop-color="#ABE1FA" offset="0"/>
   <stop stop-color="#C7EBFC" offset=".1638"/>
   <stop stop-color="#E0F4FD" offset=".3485"/>
   <stop stop-color="#F1FAFE" offset=".5429"/>
   <stop stop-color="#FCFEFF" offset=".7517"/>
   <stop stop-color="#fff" offset="1"/>
  </linearGradient>
  <linearGradient id="SVGID_9_" x1="169.46" x2="188.97" y1="328.14" y2="308.63" gradientTransform="matrix(-.64759 0 0 .5368 565.13 233.98)" gradientUnits="userSpaceOnUse">
   <stop stop-color="#ABE1FA" offset="0"/>
   <stop stop-color="#C7EBFC" offset=".1638"/>
   <stop stop-color="#E0F4FD" offset=".3485"/>
   <stop stop-color="#F1FAFE" offset=".5429"/>
   <stop stop-color="#FCFEFF" offset=".7517"/>
   <stop stop-color="#fff" offset="1"/>
  </linearGradient>
  <linearGradient id="SVGID_10_" x1="147.54" x2="163.71" y1="313.63" y2="297.46" gradientTransform="matrix(-.64759 0 0 .5368 565.13 233.98)" gradientUnits="userSpaceOnUse">
   <stop stop-color="#ABE1FA" offset="0"/>
   <stop stop-color="#C7EBFC" offset=".1638"/>
   <stop stop-color="#E0F4FD" offset=".3485"/>
   <stop stop-color="#F1FAFE" offset=".5429"/>
   <stop stop-color="#FCFEFF" offset=".7517"/>
   <stop stop-color="#fff" offset="1"/>
  </linearGradient>
  <linearGradient id="SVGID_11_" x1="266.82" x2="300.11" y1="334.86" y2="301.57" gradientTransform="matrix(-.64759 0 0 .5368 565.13 233.98)" gradientUnits="userSpaceOnUse">
   <stop stop-color="#ABE1FA" offset="0"/>
   <stop stop-color="#C7EBFC" offset=".1638"/>
   <stop stop-color="#E0F4FD" offset=".3485"/>
   <stop stop-color="#F1FAFE" offset=".5429"/>
   <stop stop-color="#FCFEFF" offset=".7517"/>
   <stop stop-color="#fff" offset="1"/>
  </linearGradient>
  <linearGradient id="SVGID_12_" x1="298.93" x2="334.31" y1="325.7" y2="290.32" gradientTransform="matrix(.52429 0 0 .52429 231.27 453.69)" gradientUnits="userSpaceOnUse">
   <stop stop-color="#ABE1FA" offset="0"/>
   <stop stop-color="#C7EBFC" offset=".1638"/>
   <stop stop-color="#E0F4FD" offset=".3485"/>
   <stop stop-color="#F1FAFE" offset=".5429"/>
   <stop stop-color="#FCFEFF" offset=".7517"/>
   <stop stop-color="#fff" offset="1"/>
  </linearGradient>
  <linearGradient id="SVGID_13_" x1="233.38" x2="233.38" y1="389.78" y2="354.79" gradientTransform="matrix(-.64759 0 0 .5368 565.13 233.98)" gradientUnits="userSpaceOnUse" xlink:href="#SVGID_12_">
   <stop stop-color="#FCE1ED" offset="0"/>
   <stop stop-color="#fbd8e1" offset=".099731"/>
   <stop stop-color="#F8BED7" offset=".22813"/>
   <stop stop-color="#F495BF" offset=".5256"/>
   <stop stop-color="#f21549" offset=".8185"/>
   <stop stop-color="#ec003d" offset="1"/>
  </linearGradient>
  <linearGradient id="linearGradient2" x1="307.01" x2="412.06" y1="630.15" y2="630.15" gradientTransform="matrix(-1.2352 0 0 1.0239 756.42 -321.54)" gradientUnits="userSpaceOnUse">
   <stop stop-color="#af0c1e" offset="0"/>
   <stop stop-color="#ce253a" stop-opacity=".8627" offset="1"/>
  </linearGradient>
  <linearGradient id="linearGradient3" x1="298.93" x2="334.31" y1="325.7" y2="290.32" gradientTransform="matrix(-.64759 0 0 .5368 565.13 233.98)" gradientUnits="userSpaceOnUse" xlink:href="#SVGID_12_"/>
  <linearGradient id="linearGradient7" x1="-30.088" x2="231.86" y1="-88.429" y2="182.83" gradientUnits="userSpaceOnUse">
   <stop stop-color="#212121" stop-opacity=".64139" offset="0"/>
   <stop stop-color="#0f0f0f" offset=".39399"/>
  </linearGradient>
  <filter id="filter17" x="-.054882" y="-.040586" width="1.1099" height="1.0812" color-interpolation-filters="sRGB">
   <feGaussianBlur stdDeviation="4.0419856"/>
  </filter>
  <filter id="filter16" x="-.061372" y="-.076444" width="1.1225" height="1.1528" color-interpolation-filters="sRGB">
   <feGaussianBlur stdDeviation="1.944714"/>
  </filter>
  <filter id="filter15" x="-.052634" y="-.065575" width="1.1051" height="1.1311" color-interpolation-filters="sRGB">
   <feGaussianBlur stdDeviation="2.544766"/>
  </filter>
  <filter id="filter14" x="-.052635" y="-.065577" width="1.1051" height="1.1311" color-interpolation-filters="sRGB">
   <feGaussianBlur stdDeviation="2.5447388"/>
  </filter>
  <filter id="filter13" x="-.05432" y="-.051037" width="1.1088" height="1.1021" color-interpolation-filters="sRGB">
   <feGaussianBlur stdDeviation="3.1164481"/>
  </filter>
  <filter id="filter18" x="-.047083" y="-.04837" width="1.0942" height="1.0968" color-interpolation-filters="sRGB">
   <feGaussianBlur stdDeviation="3.8424471"/>
  </filter>
 </defs>
 <rect width="674.1" height="682.52" rx="30" ry="30" fill="#fff" fill-opacity=".78723"/>
 <g transform="translate(44.699 122.44)">
  <g transform="translate(-147.41,-162.93)">
   <g transform="translate(-94.374 -91.004)" fill-rule="evenodd">
    <path d="m354.8 144.3c12.419 59.601 31.19 60.573 38.515 80.331 7.0376-38.817 24.331-61.833 61.477-73.772-20.976 29.383-29.451 54.206-3.2724 77.866-4.2034-38.488 51.016-22.564 90.983-37.694-17.211 17.197-43.403 39.583-38.529 63.928 23.783-31.163 93.872-19.456 115.57 20.497-32.217-24.591-53.07-18.347-80.331 11.474 22.236 13.651 64.338 14.322 78.687 45.074-72.704-26.508-49.784 26.48-61.477 35.243 18.402 38.255 45.348 52.262 49.181 97.541-17.991-21.469-44.156-13.5-68.035-21.305 24.81 17.991-11.145 53.878-13.103 50.003-6.7912-23.783-15.308-6.7227-32.792-17.224-15.376 14.952-33.121 6.2298-50.824 49.181-5.2166-18.292-5.7506-20.511-19.662-34.422-10.42 22.866-29.684 26.891-49.181 43.444 9.42-8.0372 2.6426-33.997-13.938-40.172-33.49-0.54768-53.371 15.759-82.781-5.7369 30.547 4.3951 12.063-25.946 29.506-36.065-28.835-8.6807-50.66-11.186-90.161-40.98 44.622-7.5032 47.251-38.967 48.36-53.275-9.5022-31.026-22.742-42.267-53.275-37.708 31.464-30.15 31.053-52.55 72.129-41.801-6.9555-36.407-14.486-32.669-40.158-48.36 27.712-12.295 67.761-40.336 104.91 3.2861-12.09-40.117 3.957-46.539 8.2014-89.353z" fill="url(#radialGradient9710)" stroke-width="1.3692"/>
    <path transform="matrix(1.3692,0,0,1.3692,-8.3078,-108.08)" d="m321.69 204.28c-12.21 8.52-18.4 20.88-21.85 39.91-0.52 2.93-2.95 5.15-5.92 5.41-2.97 0.25-5.75-1.52-6.76-4.32-2.05-5.52-6.16-8.81-11.88-16.9-2.96-4.21-6.03-9.59-8.97-16.85-0.77 2.61-1.62 5.54-2.19 7.78-2.04 8.09-2.75 14.59 1.41 28.38 0.92 2.99-0.39 6.22-3.14 7.73-2.75 1.5-6.18 0.85-8.2-1.54-12.36-14.51-23.19-16.29-34.75-14.32-7.5 1.28-15.02 4.63-22.38 8.13 3.6 1.94 6.81 3.84 9.82 6.65 5.72 5.36 8.87 13.14 11.5 26.91 0.42 2.22-0.32 4.5-1.97 6.05s-3.97 2.14-6.16 1.58c-6.96-1.83-11.63-2.06-14.87-1.5-3.25 0.55-5.39 1.72-8.04 4.09-3.39 3.04-7.33 8.38-12.78 14.78 5.17 0.79 9.81 2.55 13.82 5.5 7.83 5.77 12.44 14.97 16.09 26.91 0.23 0.79 0.32 1.61 0.25 2.43-0.41 5.25-1.07 14.93-6.66 24.22-3.93 6.54-10.49 12.61-20.18 16.69 21.07 13.77 34.16 15.54 52.71 21.12 2.53 0.76 4.36 2.94 4.67 5.56 0.3 2.61-0.98 5.16-3.26 6.48-1.51 0.87-1.99 1.68-2.59 3.78s-0.82 5.19-1.41 8.72c-0.46 2.76-1.27 6.13-3.5 9.09 3.6 0.7 7.11 0.69 11.06 0.28 8.51-0.87 18.81-3.88 32.13-3.65 0.75 0 1.51 0.14 2.22 0.4 8.61 3.2 13.81 10.78 16.18 18.34 0.27 0.85 0.39 1.76 0.6 2.63 2.74-1.75 5.47-3.4 7.78-5 5.79-4.02 9.99-7.82 13.22-14.91 0.89-1.96 2.69-3.37 4.82-3.75 2.12-0.39 4.3 0.29 5.83 1.82 5.46 5.45 8.51 9.29 10.78 13.59 4.85-7.51 9.91-12.25 14.79-15.12 7.34-4.34 12.4-5.19 16.65-9.32 2.15-2.09 5.43-2.48 8-0.94 4.63 2.78 6.34 1.71 11.53 1.72 2.6 0.01 6.6 0.78 9.5 3.5 0.87 0.81 1.57 1.72 2.22 2.69 1.3-1.56 2.59-3.3 3.69-5.22 1.86-3.26 2.98-6.7 2.94-9.22-0.04-2.51-0.55-4.17-3.63-6.4-2.68-1.89-3.56-5.47-2.07-8.39s4.91-4.3 8.01-3.24c7.41 2.43 16.06 2.47 25.31 3.78 4.1 0.58 8.4 1.66 12.6 3.35-2.34-7.14-5.61-13.14-9.69-19.13-6.65-9.75-15.31-19.74-22.44-34.56-1.28-2.67-0.63-5.86 1.59-7.81 0.03-0.05 0.11-0.17 0.22-0.57 0.26-0.9 0.5-2.59 0.72-4.62 0.45-4.06 0.69-9.51 3.1-15 2.4-5.49 7.98-10.81 15.9-12.12 2.37-0.4 4.99-0.43 7.75-0.29-2.3-1.14-4.75-2.17-7.34-3.15-10.43-3.96-22.34-6.38-32-12.32-1.68-1.02-2.81-2.74-3.09-4.69-0.28-1.94 0.33-3.91 1.65-5.37 10.36-11.34 20.19-19.14 31.72-21.15 0.2-0.04 0.4-0.04 0.59-0.07-3.73-1.42-7.62-2.51-11.53-3.18-15.33-2.66-29.85 0.91-36.4 9.5-1.57 2.06-4.21 3.02-6.74 2.43s-4.48-2.6-4.98-5.15c-2.3-11.5 2.77-21.94 9.22-30.53 1.58-2.12 3.29-4.16 5.03-6.13-8.84 1.11-17.24 1.56-24 2.56-6.24 0.93-10.85 2.47-13 4.19-2.16 1.72-3.14 3.22-2.53 8.75 0.3 2.73-1.12 5.36-3.57 6.6-2.45 1.25-5.41 0.85-7.43-1-10.67-9.65-15.14-21.18-13.85-32.5 0.55-4.8 2.09-9.46 4.13-14.1z" fill="url(#radialGradient9712)" filter="url(#filter2884)"/>
    <path transform="matrix(1.3692,0,0,1.3692,-8.3078,-108.08)" d="m301.04 268.14c-59.745-0.28-59.738 24.02-68.644 62.357-0.29 68.83 37.686 85.06 66.796 84.29 38.87-1.03 83.247-4.6151 83.077-65.995-0.19-70.23-23.509-80.362-81.229-80.652z" fill="#ffd511" filter="url(#filter2896)" stroke="#b47700" stroke-width="1px"/>
   </g>
   <g transform="matrix(.7654 0 0 .7654 -92.331 -215.83)">
    <g transform="translate(440.03,540.06)" stroke-width=".74619">
     <path d="m-61.018 35.964c0.83275-15.936 16.123-31.855 31.78-36.482 34.2-10.109 69.819-3.0818 100.31 11.622 10.394 5.0121 13.501 21.96 9.5997 32.608-16.571 45.247-57.437 72.365-107.26 57.79-24.108-7.0492-35.778-39.708-34.428-65.538zm323.81 0c1.3484 25.831-10.321 58.489-34.428 65.538-49.822 14.575-90.687-12.543-107.26-57.79-3.8996-10.649-0.7932-27.596 9.599-32.608 30.486-14.704 66.108-21.731 100.31-11.622 15.657 4.6271 30.948 20.546 31.782 36.482zm-161.91-24.617c-8.7901 0-16.982-4.7995-24.835-8.6513-46.349-22.735-99.719-27.188-157.88-11.678-4.7935 1.2775-5.577 8.5647-5.7651 13.408-1.4096 36.289 21.167 102.1 70.072 107.27 45.032 4.7614 86.431-10.365 105.55-62.715 3.0944-8.4774 4.3719-13.179 12.86-12.975 8.4871-0.20371 9.7654 4.498 12.861 12.975 19.117 52.35 60.519 67.476 105.55 62.715 48.904-5.1681 71.48-70.977 70.07-107.27-0.18729-4.8435-0.97153-12.131-5.7658-13.408-58.162-15.51-111.53-11.057-157.88 11.678-7.8521 3.8518-16.044 8.6513-24.834 8.6513" fill="url(#linearGradient7)"/>
     <path d="m262.79 35.964c-0.83349-15.936-16.124-31.855-31.782-36.482-34.199-10.109-69.82-3.0818-100.31 11.622-10.392 5.0121-13.499 21.96-9.599 32.608 16.571 45.247 57.436 72.365 107.26 57.79 24.107-7.0492 35.777-39.708 34.428-65.538zm-323.81 0c0.83275-15.936 16.123-31.855 31.78-36.482 34.2-10.109 69.819-3.0818 100.31 11.622 10.394 5.0121 13.501 21.96 9.5997 32.608-16.571 45.247-57.437 72.365-107.26 57.79-24.108-7.0492-35.778-39.708-34.428-65.538" fill="#4a5252"/>
     <path d="m259.16 36.155c-0.77305-14.789-15.504-29.142-29.178-33.184-18.97-5.6076-38.588-5.7837-57.609-2.1087 14.692-1.3506 29.559-0.23803 44.05 4.0458 13.673 4.0436 28.405 18.395 29.177 33.183 1.0566 20.221-6.6202 48.564-25.354 59.124-2.0453 1.1521-4.2085 2.0751-6.4612 2.7325-2.1908 0.64321-4.366 1.1984-6.5247 1.6737 6.5053-0.42085 13.215-1.5998 20.084-3.6116 2.255-0.65814 4.416-1.5789 6.4612-2.7325 18.734-10.558 26.41-38.903 25.355-59.123zm-254.95 65.53c33.469-1.7976 60.317-24.483 73.04-59.223 3.075-8.3909 1.1476-23.781-7.7626-28.079-27.485-13.257-58.644-19.84-88.693-13.66 25.74-2.1184 51.764 4.3271 75.133 15.598 8.908 4.2973 10.835 19.687 7.7626 28.079-10.953 29.908-32.378 50.883-59.48 57.286" fill="#5a6162"/>
    </g>
   </g>
   <path class="st6" d="m376.86 295.59s-20.399 19.325-57.117 17.553c-36.718-1.7714-71.688-17.553-71.688-17.553s26.098 58.619 76.416 56.525c50.318-2.0935 52.39-56.525 52.39-56.525z" fill="url(#linearGradient2)" stroke="#de4f19" stroke-miterlimit="10" stroke-width="3.4654"/>
   <g transform="translate(-94.374 -91.004)" stroke="#fff" stroke-miterlimit="10" stroke-width=".5896">
    <path class="st7" d="m423.83 404.15-0.97142 12.078s1.2952 2.3082-5.5045 2.1472c-6.7997-0.16105-11.527-2.8451-11.527-2.8451v-12.024z" fill="url(#SVGID_6_)"/>
    <path class="st8" d="m405.83 403.5v10.575h-6.4759c-2.9141 0-6.4759-4.2407-6.4759-4.2407l-1.7485-8.4278z" fill="url(#SVGID_7_)"/>
    <path class="st9" d="m423.83 404.15-0.97142 12.078s1.4895 2.8451 8.0949 2.1472c6.6702-0.69785 8.6129-2.684 8.6129-2.684l0.64759-13.903z" fill="url(#SVGID_8_)"/>
    <path class="st10" d="m440.21 401.79v9.1793s1.36 4.0797 5.634 3.1135c4.2093-0.96627 9.5843-3.9723 9.5843-3.9723l0.58283-13.85z" fill="url(#SVGID_9_)"/>
    <path class="st11" d="m455.95 396.26-0.45331 11.488s3.3027 0.21474 5.893 0c2.5904-0.21471 6.6702-4.2407 6.6702-4.2407s1.4247-4.7239 2.0075-7.9447c0.58282-3.2208 1.1657-8.9646 1.1657-8.9646z" fill="url(#SVGID_10_)"/>
    <path class="st12" d="m391.19 401.41 1.878 11.756s-6.3464 2.0399-11.203 0.96625c-4.8569-1.0736-6.6054-3.1134-6.6054-3.1134l-4.9864-14.708z" fill="url(#SVGID_11_)"/>
    <path class="st13" d="m370.34 396.26-21.111-6.8711 6.1521 15.943s2.3961 5.6901 7.1235 5.6364c4.7274-0.10734 11.203-3.865 11.203-3.865z" fill="url(#linearGradient3)"/>
    <path class="st14" d="m441.9 437.43s-10.426 6.4953-23.054 5.7438c-12.628-0.75153-22.925-2.8451-28.3-5.5291s-10.297-5.6901-10.297-5.6901 8.1596-6.4417 15.542-7.3542c7.3177-0.91255 20.075 3.9187 20.075 3.9187s15.736-1.7714 21.37-0.53681c5.634 1.2346 10.556 5.9048 10.556 5.9048z" fill="url(#SVGID_13_)"/>
   </g>
   <g transform="translate(2713,997.69)" fill="#1a3968">
    <path d="m-2596.5-450.24-9.0447 127.8 116.73 4.5684-11.396-7.1039-97.7-5.1478z"/>
    <path d="m-2491.3-438.65-14.239-13.986 8.5778 146.53z"/>
    <path d="m-2550.4-515.01-58.903 78.826 63.523-59.102 56.659 63.791z"/>
    <path d="m-2557.9-432.29 1.4062 35.39 23.75 3.5957 2.625-35.33z"/>
    <path d="m-2533.2-386.12-22.969-4.365 1.2188 31.342 19.688 0.71459z"/>
    <path d="m-2559.7-359.34-1.3125-32.054-16.125-3.0549 0.625 34.503z"/>
    <path d="m-2577.2-400.05 16 2.4293-1.4688-35.313-15.156-1.9951z"/>
    <path d="m-2544.7-511.26 61.25 79.796-2.4369 109.69 51.004-13.401-42.373 2.0591 3.1334-100.39 29.263 2.9665 3.3225 91.649 1.1679-98.156 43.877-73.14-95.776 10.716z"/>
    <path d="m-2441.6-433.85 52.592-79.22 57.178 68.133-13.394 1.5754-41.048-51.669-48.191 59.956z"/>
    <path d="m-2274.6-440.67 43.162-75.514 40.843 69.428-5.7093 3.5561-35.256-55.638-37.784 64.683z"/>
    <path d="m-2346.1-451.05-1.8214 122.66-85.897-2.6461 85.241 11.367-0.094 1.0672 9.75-0.49506v-9.75l-7.1786-122.21z" opacity=".99"/>
    <path d="m-2398.8-432.64 1.4062 34.977 23.75-3.384 2.625-36.101z"/>
    <path d="m-2374.2-393.71-22.969 2.3851 1.2188 30.984 19.688-5.0712z"/>
    <path d="m-2400.6-359.16-1.3125-31.668-16.125 1.6839 0.625 34.32z"/>
    <path d="m-2418.2-394.7 16-2.2728-1.4688-34.881-15.156 2.459z"/>
    <path d="m-2383.2-517.93 56.465 73.971-14.15 2.888 3.9362 117.45 29.553-12.242 115.73 1.253 0.2405-11.655-124.33 6.4771 3.1334-100.39 29.263 2.9665 0.3314 77.614 4.159-84.122 43.877-73.14-95.776 10.716z"/>
    <path d="m-2249.3-347.35 3.5028-0.0996-0.6761-82.15-3.1144 0.82949z"/>
    <path d="m-2219.5-340.42 6.9009 0.21331-0.359-85.112-6.6946 0.49982z"/>
    <path d="m-2250-430.1 0.1008 5.4892 38.487 1.6643-0.4313-5.1455z"/>
    <path d="m-2239.5-425.82 0.1008 73.89 24.421 8.3676-0.028-5.3014-22.744-4.1077 1.1846-72.728z"/>
    <path d="m-2232-391.7-1.356 6.7035 5.4681 1.069-4.0358-2.8754z"/>
   </g>
   <path d="m593.94 327.81h2.5587c17.168 0.50803 33.326 8.9835 45.01 21.306-11.604-3.4943-24.119-3.8102-35.928-1.1462-10.706 2.4472-21.046 8.1533-27.304 17.403 11.053-2.8066 23.103-1.2019 33.103 4.2563 10.991 5.8485 19.243 16.015 24.02 27.396 6.3937 15.235 7.3045 32.229 5.4768 48.486-7.354-15.823-17.942-31.015-33.449-39.719-12.719-7.2859-28.251-8.9153-42.377-5.2724 13.388 14.435 23.555 31.554 31.764 49.378 10.65 23.32 18.097 48.003 23.376 73.057 6.1088 29.311 9.2003 59.247 9.2808 89.19-0.0495 2.9119 3.5796 5.6627 6.019 0.55085 0.79585 5.2883 6.2605 3.0921 6.1365-0.52606 1.5365-35.11 7.5957-70.133 19.169-103.36 6.561-18.525 14.683-36.622 25.581-53.027 4.1014-6.1707 8.6737-12.038 13.853-17.354-6.8088-2.5711-14.361-0.92933-20.91 1.6604-13.364 5.4272-23.543 16.858-29.577 29.738-1.1586-12.168-0.22924-24.98 5.4334-36.021 4.2997-8.5374 11.827-15.644 21.071-18.45 5.6193-1.8153 11.716-1.84 17.434-0.45846-4.4979-6.7841-12.125-10.867-19.943-12.509-7.763-1.6108-15.916-1.4126-23.543 0.75586 7.0319-7.0381 15.811-12.577 25.606-14.751 11.579-2.7508 24.268-0.65671 34.236 5.8919 9.411 6.0034 16.114 15.991 18.159 26.969 17.192-3.4075 35.327 6.9885 42.328 22.793 3.581 7.5957 4.752 16.121 4.436 24.454-5.7061-13.035-17.422-23.202-31.108-27.062 9.4915 7.478 16.276 18.574 17.694 30.661 1.7595 14.188-4.2068 28.239-13.128 39.013 2.7694-10.904 2.695-22.675-1.2453-33.288-2.6455-7.1992-6.8336-13.766-11.926-19.479 3.2898 10.037 2.5835 21.436-2.5649 30.73-4.089 7.5771-10.681 13.562-18.097 17.812-6.1583 3.55-12.918 5.9291-19.788 7.6514 7.9984-6.561 13.816-15.693 16.437-25.699 3.4757-13.178 2.3357-27.235-1.5303-40.19-22.149 29.738-35.977 65.288-41.479 101.87-2.2366 14.504-2.7244 40.707-2.5881 55.378 47.092-3.4733 54.813 73.668 108.88 103.98-58.428 22.421-60.958-28.408-93.411-55.899-21.163-20.618-28.39-15.452-50.489-14.999-30.231 7.0741-29.511 25.402-65.194 47.26-52.871 19.423-272.61 36.722-452.53-14.514 222.94 11.533 311.78 2.2378 404.56-14.308 55.286-14.352 42.14-16.919 87.813-44.414 0.45227-23.252-3.8822-85.142-8.5226-107.92-3.581-17.168-8.4754-34.112-15.396-50.245-7.1496-16.443-16.375-32.514-30.048-44.403-5.0183 16.307-6.0964 33.834-3.1535 50.636 3.1287 18.58 12.236 36.454 26.826 48.616-10.861-2.9181-21.529-6.9266-31.033-13.017-11.895-7.4594-21.926-18.45-26.622-31.826-4.3183-11.976-4.1138-25.383 0.0248-37.377-9.1074 9.9933-16.412 21.876-19.888 35.023-3.773 13.395-3.3022 27.688-0.17967 41.163-3.7235-4.69-7.0628-9.6897-9.888-14.968-6.8956-12.732-10.446-27.564-8.3825-42.024 2.2861-17.378 12.298-33.226 26.12-43.808-19.869 5.3343-37.018 19.838-45.5 38.598-0.34075-10.718 1.2391-21.61 5.545-31.479 5.9477-13.965 17.694-25.253 31.758-30.885 12.422-5.1113 26.405-6.1707 39.496-3.2464 1.1586-11.17 6.5982-21.641 14.442-29.59 11.208-11.462 27.056-18.196 43.077-18.432z" fill="#1a3968"/>
   <g transform="matrix(-.23388 0 0 .21038 253.43 398.7)" fill="#ffd511">
    <path d="m141.24 701.84c-80.655-8.69-143.02-55.295-130.02-176 13-120.7 69.015-251.65 178.15-234.66 101.52 15.805 137.36 117.05 122.6 234.28-15.18 120.46-90.08 185.06-170.73 176.38z"/>
    <path d="m141.24 701.84c-80.655-8.69-143.02-55.295-130.02-176 13-120.7 69.015-251.65 178.15-234.66 101.52 15.805 137.36 117.05 122.6 234.28-15.18 120.46-90.08 185.06-170.73 176.38z" filter="url(#filter17)" stroke="#f98e0b" stroke-linecap="round" stroke-linejoin="round" stroke-width="14.175"/>
    <path d="m199.71 676.38s-82.96-117.66-123.85-34.305c-17.91 36.505 48.475 114.27 104.67 123.1 53.265 8.36 100.18-45.99 79.13-118.15"/>
    <path d="m199.71 676.38s-82.96-117.66-123.85-34.305c-17.91 36.505 48.475 114.27 104.67 123.1 53.265 8.36 100.18-45.99 79.13-118.15" filter="url(#filter16)" stroke="#f98e0b" stroke-linecap="round" stroke-linejoin="round" stroke-width="14.175"/>
    <path d="m263.39 623.24s-108.56-153.97-162.06-44.895c-23.44 47.775 63.435 149.54 136.97 161.08 69.7 10.94 131.1-60.18 103.54-154.61"/>
    <path d="m263.39 623.24s-108.56-153.97-162.06-44.895c-23.44 47.775 63.435 149.54 136.97 161.08 69.7 10.94 131.1-60.18 103.54-154.61" filter="url(#filter15)" stroke="#f98e0b" stroke-linecap="round" stroke-linejoin="round" stroke-width="14.175"/>
    <path d="m306.1 555.82s-108.56-153.96-162.07-44.895c-23.44 47.775 63.435 149.54 136.97 161.08 69.7 10.935 131.09-60.185 103.54-154.6"/>
    <path d="m306.1 555.82s-108.56-153.96-162.07-44.895c-23.44 47.775 63.435 149.54 136.97 161.08 69.7 10.935 131.09-60.185 103.54-154.6" filter="url(#filter14)" stroke="#f98e0b" stroke-linecap="round" stroke-linejoin="round" stroke-width="14.175"/>
    <path d="m332.42 334.49s-48.62-17.88-93.265-17.485c-44.65 0.395-51.24 103.02-51.24 103.02l170.61 31.01-26.105-116.54"/>
    <path d="m363.32 471.4s-118.98-168.76-177.64-49.21c-25.69 52.365 69.535 163.91 150.14 176.56 76.39 11.985 137.55-102.68 105.48-178.5-24.235-57.31-86.395-94.485-160.06-106.05"/>
    <path d="m363.32 471.4s-118.98-168.76-177.64-49.21c-25.69 52.365 69.535 163.91 150.14 176.56 76.39 11.985 137.55-102.68 105.48-178.5-24.235-57.31-86.395-94.485-160.06-106.05" filter="url(#filter13)" stroke="#f98e0b" stroke-linecap="round" stroke-linejoin="round" stroke-width="14.175"/>
    <path d="m132.75 296.06c210.62-65.455 203.57-373.78 321.85-265.34 22.9 20.995 32.575 77.84 16.805 127.02-35.465 110.58-155.9 68.375-140.08 186.79"/>
    <path d="m132.75 296.06c210.62-65.455 203.57-373.78 321.85-265.34 22.9 20.995 32.575 77.84 16.805 127.02-35.465 110.58-155.9 68.375-140.08 186.79" filter="url(#filter18)" stroke="#f98e0b" stroke-linecap="round" stroke-linejoin="round" stroke-width="14.175"/>
   </g>
  </g>
 </g>
</svg>
