<?xml version="1.0" encoding="UTF-8" standalone="no"?>
<!--part of the matt icon theme by sixsixfive released under CC0 (https://creativecommons.org/publicdomain/zero/1.0/) on openclipart-->

<svg
   viewBox="0 0 128 128"
   version="1.1"
   id="svg11"
   sodipodi:docname="opencarttre.svg"
   inkscape:version="1.2 (dc2aedaf03, 2022-05-15)"
   inkscape:export-filename="opencarttre.png"
   inkscape:export-xdpi="300"
   inkscape:export-ydpi="300"
   xmlns:inkscape="http://www.inkscape.org/namespaces/inkscape"
   xmlns:sodipodi="http://sodipodi.sourceforge.net/DTD/sodipodi-0.dtd"
   xmlns="http://www.w3.org/2000/svg"
   xmlns:svg="http://www.w3.org/2000/svg">
  <defs
     id="defs15">
    <filter
       inkscape:collect="always"
       style="color-interpolation-filters:sRGB"
       id="filter898"
       x="-0.037547543"
       y="-0.055161574"
       width="1.0750819"
       height="1.1104044">
      <feGaussianBlur
         inkscape:collect="always"
         stdDeviation="3.8259616"
         id="feGaussianBlur900" />
    </filter>
    <linearGradient
       id="SVGID_1_"
       y2="233.2"
       gradientUnits="userSpaceOnUse"
       x2="491.07001"
       y1="233.2"
       x1="14.916"
       gradientTransform="matrix(0.14963382,0,0,0.14963382,50.174168,-11.0742)">
	<stop
   style="stop-color:#00AEEF"
   offset="0"
   id="stop748" />

	<stop
   style="stop-color:#00AFEF;stop-opacity:.9008"
   offset=".0992"
   id="stop750" />

	<stop
   style="stop-color:#00B2F0;stop-opacity:.777"
   offset=".223"
   id="stop752" />

	<stop
   style="stop-color:#00B8F1;stop-opacity:.64"
   offset=".36"
   id="stop754" />

	<stop
   style="stop-color:#00C2F3;stop-opacity:.4936"
   offset=".5064"
   id="stop756" />

	<stop
   style="stop-color:#6DCFF6;stop-opacity:.3396"
   offset=".6604"
   id="stop758" />

	<stop
   style="stop-color:#B0E2FA;stop-opacity:.1792"
   offset=".8208"
   id="stop760" />

	<stop
   style="stop-color:#F5FBFE;stop-opacity:.0165"
   offset=".9835"
   id="stop762" />

	<stop
   style="stop-color:#FFFFFF;stop-opacity:0"
   offset="1"
   id="stop764" />

</linearGradient>
  </defs>
  <sodipodi:namedview
     id="namedview13"
     pagecolor="#ffffff"
     bordercolor="#000000"
     borderopacity="0.25"
     inkscape:showpageshadow="2"
     inkscape:pageopacity="0.0"
     inkscape:pagecheckerboard="0"
     inkscape:deskcolor="#d1d1d1"
     showgrid="false"
     inkscape:zoom="5.7125526"
     inkscape:cx="45.688858"
     inkscape:cy="63.719326"
     inkscape:window-width="1920"
     inkscape:window-height="1017"
     inkscape:window-x="-8"
     inkscape:window-y="-8"
     inkscape:window-maximized="1"
     inkscape:current-layer="svg11" />
  <rect
     style="fill:#c8c8c8;stroke-width:30;stroke-opacity:0.895288;fill-opacity:1"
     id="rect1245"
     width="126.03823"
     height="126.21328"
     x="1.0503186"
     y="1.2253716" />
  <path
     stroke="#00aeef"
     stroke-width="2.24451"
     stroke-miterlimit="10"
     d="m 85.742127,3.593207 c -4.267258,0.243155 -8.484986,2.7176492 -11.171961,6.0176742 -1.020053,1.2528828 -1.12764,3.3761868 -2.538837,4.2880558 -1.477933,0.955113 -3.688473,0.123747 -5.323372,0.269939 -2.851422,0.254976 -6.396397,2.270843 -8.656466,3.946592 -3.168197,2.349251 -5.85158,6.77542 -5.632068,10.799073 0.255126,4.676057 1.870423,8.417052 5.016175,10.96756 3.145752,2.550509 4.931033,3.399681 6.206362,3.909932 1.275329,0.510251 49.86398,0.170134 49.86398,0.170134 0,0 7.77916,-5.186009 8.88451,-7.396699 2.18734,-4.374695 1.7573,-11.091607 -3.01632,-13.503405 -0.94329,-0.476434 -1.95901,-0.775253 -3.02021,-0.793209 -1.21817,-0.02035 -2.92325,1.220414 -3.68473,-0.170582 -0.56143,-1.025441 -0.2264,-2.377233 -0.67081,-3.445918 -1.00898,-2.425863 -3.50592,-4.192739 -6.00511,-4.800402 -0.7561,-0.1839 -1.5315,-0.266498 -2.3072,-0.311687 -0.66512,-0.03861 -1.44576,0.247195 -2.09293,0.05087 -0.80518,-0.244202 -1.10744,-1.098611 -1.51295,-1.784234 C 96.990246,6.5831852 92.002955,3.2324349 85.74078,3.5893116 Z"
     fill="url(#SVGID_1_)"
     id="path767"
     style="fill:url(#SVGID_1_)" />
  <g
     id="g433"
     style="fill:#ffffff;fill-opacity:1;stroke:#ffba0a;stroke-width:50;stroke-dasharray:none;stroke-opacity:1"
     transform="matrix(0.06997364,0,0,0.07615909,6.0811403,51.118128)">
    <path
       style="fill:#ffffff;fill-opacity:1;stroke:#ffba0a;stroke-width:50;stroke-dasharray:none;stroke-dashoffset:0;stroke-opacity:1;filter:url(#filter898)"
       d="m 551.59259,784.87685 c -5.20752,-9.1064 -7.65971,-11.90294 -40.84205,-46.57749 -19.41602,-20.28917 -39.9004,-41.8968 -45.52084,-48.01695 -10.21896,-11.12753 -10.21896,-11.12753 -17.18645,-10.56778 -49.1965,3.95232 -116.43337,-0.0317 -159.78744,-9.46801 -7.89647,-1.71872 -7.89647,-1.71872 -33.90838,30.07906 -14.30655,17.48878 -26.63898,31.98517 -27.40541,32.21417 -0.76642,0.22898 -3.27471,4.43552 -5.57398,9.34785 -5.08086,10.85511 -2.76292,10.47834 -29.44037,4.78552 -23.02577,-4.91355 -20.55299,-5.40802 -24.45303,4.88973 -1.70068,4.49055 -3.41537,8.53819 -3.81039,8.99478 -0.80002,0.9247 -55.55146,-7.61202 -56.99099,-8.8859 -0.56158,-0.49697 0.0441,-4.59969 1.63297,-11.06183 2.83903,-11.54648 2.32589,-14.6664 -13.739477,-83.53657 -6.400881,-27.43976 -11.668577,-51.35155 -17.805028,-80.82273 -3.270363,-15.70638 -3.765988,-42.23814 -0.993994,-53.20986 1.064175,-4.21208 1.302162,-6.82535 0.719099,-7.89648 -1.421461,-2.61135 -7.31717,-25.98362 -8.95731,-35.50933 -1.738577,-10.09738 -2.869139,-60.38478 -1.357577,-60.38478 0.476185,0 0.628372,-1.46318 0.338166,-3.2515 -0.290207,-1.78832 -0.159417,-3.25475 0.290645,-3.25875 0.450076,-0.004 0.899713,-2.19103 0.9992,-4.86012 0.09946,-2.66906 0.57767,-4.9851 1.062617,-5.14676 0.48496,-0.16165 0.68934,-1.02965 0.454177,-1.92889 -0.235151,-0.89924 0.227281,-4.45855 1.027626,-7.90958 2.128776,-9.17914 2.186135,-9.04108 -2.957561,-7.11796 -7.520751,2.81185 -26.244158,1.40108 -26.244158,-1.97745 0,-0.42892 -0.627081,-0.77987 -1.3935,-0.77987 -0.766419,0 -1.3935,-0.41805 -1.3935,-0.929 0,-0.51094 -0.578309,-0.929 -1.285145,-0.929 -0.706823,0 -1.511894,-0.86713 -1.789039,-1.92693 -0.277158,-1.05981 -1.371038,-2.15369 -2.430846,-2.43085 -1.059821,-0.27714 -1.926939,-1.26139 -1.926939,-2.18719 0,-0.92581 -0.731587,-2.41485 -1.625747,-3.30899 -3.806305,-3.80617 -1.069022,-28.49905 3.541848,-31.95089 0.341255,-0.25548 0.914012,-1.40511 1.272776,-2.55474 0.358777,-1.14964 1.042192,-2.09024 1.518711,-2.09024 0.476519,0 0.866399,-0.62708 0.866399,-1.3935 0,-0.76642 0.41804,-1.3935 0.928991,-1.3935 0.51095,0 0.928991,-0.61237 0.928991,-1.36081 0,-0.74846 0.836108,-1.80827 1.857995,-2.35517 1.021901,-0.54691 1.857996,-1.51969 1.857996,-2.16175 0,-1.48363 7.591665,-8.98622 9.09288,-8.98622 0.619346,0 1.126089,-0.39185 1.126089,-0.87078 0,-4.64498 22.098582,-9.11623 30.465613,-6.16417 4.357412,1.53738 11.974765,8.7937 12.836815,12.2284 0.62954,2.50821 2.21842,2.12364 2.21842,-0.53694 0,-0.95523 0.57191,-2.30872 1.27092,-3.00774 0.69902,-0.69901 1.563287,-2.19203 1.920597,-3.31784 0.35731,-1.1258 1.03954,-2.04691 1.51606,-2.04691 0.47653,0 0.86639,-0.62708 0.86639,-1.3935 0,-0.76642 0.41806,-1.3935 0.92901,-1.3935 0.51095,0 0.92899,-0.62706 0.92899,-1.39348 0,-0.76642 0.41805,-1.3935 0.929,-1.3935 0.51095,0 0.92899,-0.62707 0.92899,-1.39349 0,-0.76643 0.41806,-1.3935 0.92901,-1.3935 0.51094,0 0.92899,-0.62707 0.92899,-1.3935 0,-0.76642 0.41805,-1.39349 0.92899,-1.39349 0.51096,0 0.92901,-0.64019 0.92901,-1.42266 0,-0.78246 0.62707,-1.66328 1.39349,-1.95739 0.76643,-0.2941 1.3935,-1.11707 1.3935,-1.82883 0,-0.71175 0.4284,-1.29411 0.95199,-1.29411 0.5236,0 1.34935,-1.04512 1.835,-2.32249 0.48565,-1.27737 1.31141,-2.32249 1.835,-2.32249 0.5236,0 0.952,-0.64018 0.952,-1.42265 0,-0.78246 0.62707,-1.66328 1.39348,-1.95739 0.76644,-0.2941 1.3935,-1.11353 1.3935,-1.82095 0,-0.70743 0.8361,-1.80838 1.858,-2.44657 1.0219,-0.63819 1.858,-1.67435 1.858,-2.30256 0,-0.62821 1.25413,-2.06944 2.78698,-3.20272 1.53284,-1.13328 2.78699,-2.5877 2.78699,-3.23203 0,-0.64433 1.46317,-2.28753 3.25149,-3.65154 1.78832,-1.36402 3.25149,-3.03261 3.25149,-3.70797 0,-0.67536 2.09024,-2.99046 4.64498,-5.14464 2.55475,-2.1542 4.64499,-4.38306 4.64499,-4.95303 0,-1.16455 14.95568,-16.32378 16.10458,-16.32378 0.40552,0 1.7926,-1.25414 3.08241,-2.78699 1.28982,-1.53284 2.67344,-2.78699 3.07474,-2.78699 0.4013,0 2.32706,-1.46318 4.27944,-3.25148 1.95241,-1.78832 4.05046,-3.2515 4.66237,-3.2515 0.61192,0 1.35319,-0.62707 1.64729,-1.3935 0.29411,-0.76642 1.17493,-1.39349 1.95741,-1.39349 0.78243,0 1.42263,-0.37265 1.42263,-0.82809 0,-2.48013 32.72768,-21.39168 49.23683,-28.45129 26.33981,-11.26337 61.10979,-19.85186 81.97878,-20.24947 4.9789,-0.0949 9.05488,-0.48601 9.05772,-0.86922 0.003,-0.38321 7.32104,-0.69676 16.26263,-0.69676 9.08353,0 16.25745,0.37107 16.25745,0.84091 0,0.4646 2.49437,0.61472 5.57398,0.33547 3.06569,-0.27798 5.57736,-0.13382 5.58151,0.32034 0.004,0.45418 2.40792,0.88946 5.34173,0.9673 14.5886,0.38704 98.90288,23.61968 103.91746,28.63427 0.62308,0.62307 3.15257,1.63963 5.62111,2.25902 10.40087,2.60974 15.17172,4.14387 15.17172,4.87865 0,0.43005 1.04512,0.78191 2.32249,0.78191 1.27737,0 2.32249,0.3623 2.32249,0.80513 0,1.08134 8.99829,4.76886 11.63695,4.76886 1.15457,0 2.33697,0.61958 2.62756,1.37683 0.29059,0.75726 2.25589,1.65308 4.36733,1.99071 2.11146,0.33764 4.53122,1.34216 5.37728,2.23226 1.85485,1.95141 18.10655,10.19314 20.09968,10.19314 0.77663,0 1.41204,0.42325 1.41204,0.94055 0,0.51727 2.40378,2.46928 5.34174,4.33774 2.93795,1.86848 8.47709,5.76059 12.3092,8.64915 17.99306,13.56268 17.85684,13.51099 24.71176,9.37658 25.8346,-15.58157 69.87795,-17.72074 104.09868,-5.05601 5.15488,1.90776 10.76706,3.36296 12.86158,3.33491 2.04379,-0.0274 10.61379,-0.16046 19.04444,-0.29575 27.63578,-0.4435 51.67251,6.98838 64.68353,19.99941 18.92601,18.92603 34.95313,60.38579 36.29217,93.88246 1.02906,25.74241 23.98076,42.73486 62.06323,45.94895 20.2101,1.70569 48.97169,4.57106 49.31348,4.91285 0.39073,0.39074 -2.00722,44.3679 -3.29349,60.40113 -1.07957,13.4564 -1.9929,15.20094 -11.18261,21.35994 -19.31004,12.94165 -19.65723,13.33149 -15.79294,17.73269 5.13624,5.84985 4.51456,6.49738 -10.91573,11.36954 -16.32283,5.15399 -18.64005,6.27264 -34.72959,16.76621 -58.20506,37.96123 -83.38314,45.26827 -190.43256,55.26627 l -22.87311,2.13627 -10.84974,65.11723 c -10.84973,65.11724 -10.84973,65.11724 -8.01603,72.47624 5.23154,13.58607 5.81518,12.91083 -14.51291,16.79097 -8.52116,1.62649 -8.52116,1.62649 -5.34174,7.93998 5.82667,11.5702 7.40679,10.33886 -24.00233,18.70416 -14.94051,3.97917 -27.59783,7.21904 -28.12737,7.19972 -0.52954,-0.0193 -3.45587,-4.39474 -6.50298,-9.72321 z M 55.077601,367.44259 c 0,-0.39206 2.508297,-1.70911 5.573987,-2.9268 3.065689,-1.21769 5.573973,-2.77815 5.573973,-3.46766 0,-0.68953 0.648411,-1.25368 1.4409,-1.25368 0.792502,0 2.052256,-1.46317 2.799462,-3.25149 0.747206,-1.78832 1.770998,-3.25149 2.275091,-3.25149 0.50408,0 0.916529,-0.6402 0.916529,-1.42265 0,-0.78247 0.627067,-1.66328 1.393486,-1.95739 0.766433,-0.29412 1.3935,-1.11708 1.3935,-1.82883 0,-0.71176 0.455548,-1.29411 1.012341,-1.29411 1.067011,0 4.477976,-3.68008 4.530729,-4.88821 0.01704,-0.38926 -1.584672,-0.44939 -3.559277,-0.13363 -6.007379,0.96061 -11.045663,-5.96055 -5.467536,-7.51083 10.586347,-2.94218 12.358716,-7.26912 4.962564,-12.11527 -4.673036,-3.0619 -20.058762,-1.092 -20.058762,2.56819 0,0.39206 -0.350003,0.71282 -0.777777,0.71282 -1.165619,0 -8.062711,6.77869 -8.768508,8.61796 -0.3379,0.88056 -1.045535,1.60101 -1.572516,1.60101 -0.526981,0 -0.95815,0.59224 -0.95815,1.31608 0,0.72384 -0.313534,1.45542 -0.696743,1.62574 -7.145464,3.17577 -5.285977,22.54592 2.518855,26.23878 2.063534,0.97637 3.751861,2.12601 3.751861,2.55474 0,0.42876 0.836108,0.77955 1.857996,0.77955 1.0219,0 1.857995,-0.32078 1.857995,-0.71283 z"
       id="path554" />
  </g>
  <g
     id="layer2"
     transform="matrix(0.07153585,0,0,0.07153585,5.5741573,53.27698)">
    <text
       xml:space="preserve"
       style="font-style:normal;font-variant:normal;font-weight:bold;font-stretch:normal;font-size:268.797px;font-family:'Sitka Banner';-inkscape-font-specification:'Sitka Banner Bold';fill:#2f2f2f;fill-opacity:1;stroke-width:1.39998"
       x="87.546349"
       y="545.11859"
       id="text7977"><tspan
         id="tspan7975"
         x="87.546349"
         y="545.11859"
         style="font-style:normal;font-variant:normal;font-weight:bold;font-stretch:normal;font-family:'Myanmar Text';-inkscape-font-specification:'Myanmar Text Bold';stroke-width:1.39998">GAzie</tspan></text>
    <path
       style="fill:#989898;fill-opacity:1"
       d="m 411.97171,393.02601 10.3998,29.61776 c 0,0 24.14812,-12.8163 47.59339,-21.57359 23.44527,-8.75729 56.22164,-18.65546 78.80409,-23.66522 22.58245,-5.00976 83.54789,-10.42934 83.54789,-10.42934 0,0 -56.60106,-4.22962 -96.17103,-1.16603 -39.56996,3.06359 -51.6552,6.0823 -73.81363,11.8088 -22.15843,5.72651 -50.36051,15.40762 -50.36051,15.40762 z"
       id="path9053" />
  </g>
  <g
     id="layer3"
     transform="matrix(0.07153585,0,0,0.07153585,5.5741573,53.27698)">
    <path
       style="fill:#989898;fill-opacity:1"
       d="m 266.38824,436.98989 c 0,0 18.31888,0.77608 31.51369,-1.79166 13.19481,-2.56774 23.94234,-7.37736 40.41531,-13.3075 16.47298,-5.93014 37.24129,-15.45125 37.24129,-15.45125 1.46171,4.90879 8.2876,26.94283 10.60225,32.93898 0,0 -14.66201,8.44091 -29.43677,15.7789 -13.90659,6.90681 -45.43209,29.04968 -57.99713,40.2703 -14.01061,12.51153 -32.52345,34.4092 -32.52345,34.4092 -0.54205,-17.07369 0.36544,-77.84031 0.18481,-92.84697 z"
       id="path8925" />
  </g>
  <text
     xml:space="preserve"
     style="font-weight:bold;font-size:13.7349px;font-family:'Myanmar Text';-inkscape-font-specification:'Myanmar Text Bold';fill:#989898;stroke:#ffba0a;stroke-width:3.57679;stroke-dasharray:none;stroke-opacity:1"
     x="-0.90765846"
     y="65.009888"
     id="text1004"><tspan
       sodipodi:role="line"
       id="tspan1002"
       x="-0.90765846"
       y="65.009888"
       style="stroke-width:3.57679" /></text>
  <text
     x="-828.23"
     y="-458.93"
     id="0"
     font-size="28"><tspan
       x="-828.23"
       y="-458.93"
       id="5" /></text>
  <text
     x="-828.23"
     y="-458.93"
     id="1"
     font-size="28"><tspan
       x="-828.23"
       y="-458.93"
       id="6" /></text>
  <text
     x="1632.44"
     y="-609.18"
     id="2"
     font-size="28"><tspan
       x="1632.44"
       y="-609.18"
       id="7" /></text>
  <text
     x="1632.44"
     y="-609.18"
     id="3"
     font-size="28"><tspan
       x="1632.44"
       y="-609.18"
       id="8" /></text>
  <path
     d="m 114.02792,68.285865 -9.99045,4.662257 2.33116,4.995448 c 7.45812,15.90785 -3.96904,24.92993 -9.546777,25.08742 H 96.710171 80.725069 V 91.486405 c 0.01245,-0.449414 -0.100772,-0.886001 -0.311939,-1.20285 -0.211168,-0.316847 -0.500782,-0.484698 -0.79792,-0.462449 -0.157182,0.02349 -0.308896,0.09986 -0.444016,0.22353 l -9.324573,8.10364 -9.435668,8.214394 c -0.464681,0.34016 -0.699243,1.13759 -0.555101,1.88713 0.07294,0.36681 0.230478,0.6819 0.443998,0.88803 l 9.435668,8.32551 c 0.03563,0.0408 0.07293,0.0781 0.111682,0.11177 l 9.32459,8.21473 c 0.208095,0.14529 0.441757,0.18451 0.665861,0.11178 0.533951,-0.13051 0.916916,-0.84868 0.888015,-1.6653 v -10.10156 l 16.096187,-0.11177 C 112.06593,113.83332 126.50798,94.930472 116.35905,73.283429 l -2.33113,-4.995184 v -0.0024 z"
     id="path474" />
  <path
     d="m 47.757878,5.0948681 c -0.489489,0.201812 -0.81541,0.900405 -0.776929,1.665298 V 16.861826 L 30.885094,16.973598 C 15.640687,17.163252 1.1986188,36.066068 11.347556,57.71321 l 2.331491,4.99515 9.990434,-4.662227 -2.331148,-4.995218 c -7.458114,-15.908189 3.968676,-24.930221 9.546761,-25.08737 h 0.111863 15.984769 v 11.544536 c -0.02877,0.816477 0.354163,1.534435 0.888014,1.664925 0.07431,0.01193 0.149238,0.01193 0.223545,0 0.157176,-0.02349 0.308883,-0.09987 0.443998,-0.22353 l 9.32459,-8.103528 9.435675,-8.214354 c 0.08035,-0.05884 0.155457,-0.132804 0.223526,-0.220145 0.317816,-0.407761 0.447752,-1.059578 0.331901,-1.664959 -0.07293,-0.366831 -0.230471,-0.681944 -0.443998,-0.888092 l -9.435676,-8.325882 c -0.03563,-0.04079 -0.07293,-0.07812 -0.111681,-0.111772 L 48.536975,5.2062581 c -0.208089,-0.145274 -0.441746,-0.184495 -0.665843,-0.111766 -0.0372,-0.003 -0.07448,-0.003 -0.111682,0 l -0.0016,3.76e-4 z"
     id="4" />
  <path
     fill="#444444"
     d="m 104.9049,44.270028 3.29038,-14.854054 c 0.23758,-1.072504 -0.55698,-2.093791 -1.62892,-2.093791 H 79.227265 l -0.637988,-3.200037 c -0.158955,-0.797621 -0.843021,-1.370447 -1.636593,-1.370447 h -7.13641 c -0.922582,0 -1.670509,0.767332 -1.670509,1.713942 v 1.142601 c 0,0.946571 0.74789,1.713941 1.670509,1.713941 h 4.864097 l 4.889513,24.525951 c -1.16975,0.690206 -1.95804,1.984369 -1.95804,3.468216 0,2.208676 1.745086,3.999183 3.897825,3.999183 2.152741,0 3.897833,-1.790466 3.897833,-3.999183 0,-1.119343 -0.448723,-2.130629 -1.171005,-2.856543 h 14.592229 c -0.72221,0.725914 -1.170966,1.7372 -1.170966,2.856543 0,2.208676 1.745086,3.999183 3.89783,3.999183 2.15274,0 3.89782,-1.790466 3.89782,-3.999183 0,-1.583389 -0.89704,-2.951666 -2.19799,-3.599611 l 0.38401,-1.733626 c 0.23758,-1.072503 -0.55698,-2.09379 -1.62893,-2.09379 H 83.327582 L 82.87201,45.604081 h 20.40401 c 0.77999,0 1.45611,-0.553747 1.62892,-1.334093 z"
     id="path5"
     style="stroke-width:0.0396579" />
</svg>
