<svg width="125" height="125" version="1.1" viewBox="0 0 125 125" xmlns="http://www.w3.org/2000/svg" xmlns:xlink="http://www.w3.org/1999/xlink">
 <title>World Wide Web</title>
 <defs>
  <linearGradient id="linearGradient6724" x1="284.8" x2="288.9" y1="-441.23" y2="-436.83" gradientUnits="userSpaceOnUse" xlink:href="#linearGradient6538"/>
  <linearGradient id="linearGradient6722" x1="286.67" x2="289.77" y1="-439.48" y2="-436.71" gradientUnits="userSpaceOnUse">
   <stop stop-color="#fff" offset="0"/>
   <stop stop-color="#fff" stop-opacity="0" offset="1"/>
  </linearGradient>
  <linearGradient id="linearGradient6720" x1="275.94" x2="279.98" y1="-437.11" y2="-431.92" gradientUnits="userSpaceOnUse">
   <stop stop-color="#fff" offset="0"/>
   <stop stop-color="#fff" stop-opacity="0" offset="1"/>
  </linearGradient>
  <linearGradient id="linearGradient6538">
   <stop stop-color="#fff" offset="0"/>
   <stop stop-color="#fff" stop-opacity="0" offset="1"/>
  </linearGradient>
  <linearGradient id="linearGradient6718" x1="285.94" x2="289.39" y1="-439.94" y2="-436.44" gradientUnits="userSpaceOnUse" xlink:href="#linearGradient6538"/>
  <linearGradient id="linearGradient6716" x1="286.51" x2="289.85" y1="-441.29" y2="-436.14" gradientUnits="userSpaceOnUse">
   <stop stop-color="#fff" offset="0"/>
   <stop stop-color="#fff" stop-opacity="0" offset="1"/>
  </linearGradient>
  <linearGradient id="linearGradient6714" x1="287.52" x2="289.68" y1="-439.75" y2="-436.32" gradientUnits="userSpaceOnUse">
   <stop stop-color="#fff" offset="0"/>
   <stop stop-color="#fff" stop-opacity="0" offset="1"/>
  </linearGradient>
  <linearGradient id="linearGradient6712" x1="271.02" x2="285.03" y1="-441.05" y2="-431.97" gradientUnits="userSpaceOnUse">
   <stop stop-color="#fff" offset="0"/>
   <stop stop-color="#fff" stop-opacity="0" offset="1"/>
  </linearGradient>
  <linearGradient id="linearGradient6019" x1="-21.659" x2="-21.962" y1="15.649" y2="21.336" gradientUnits="userSpaceOnUse" xlink:href="#linearGradient6538"/>
  <linearGradient id="linearGradient6015" x1="-22.823" x2="-22.114" y1="28.338" y2="22.662" gradientUnits="userSpaceOnUse" xlink:href="#linearGradient6538"/>
  <linearGradient id="linearGradient6011" x1="-25.176" x2="-22.114" y1="30.057" y2="22.662" gradientUnits="userSpaceOnUse" xlink:href="#linearGradient6538"/>
  <linearGradient id="linearGradient6007" x1="-25.176" x2="-22.252" y1="30.057" y2="21.042" gradientUnits="userSpaceOnUse" xlink:href="#linearGradient6538"/>
  <radialGradient id="radialGradient5989" cx="12.071" cy="12.493" r="6.7175" gradientUnits="userSpaceOnUse" xlink:href="#linearGradient6538"/>
  <radialGradient id="radialGradient4132" cx="15.601" cy="12.142" r="43.527" gradientTransform="scale(.99999 1)" gradientUnits="userSpaceOnUse">
   <stop stop-color="#fff" offset="0"/>
   <stop stop-color="#fff" stop-opacity=".16495" offset="1"/>
  </radialGradient>
  <radialGradient id="radialGradient3968" cx="18.248" cy="15.716" r="29.993" gradientTransform="scale(.99999 1)" gradientUnits="userSpaceOnUse">
   <stop stop-color="#d3e9ff" offset="0"/>
   <stop stop-color="#d3e9ff" offset=".15517"/>
   <stop stop-color="#4074ae" offset=".75"/>
   <stop stop-color="#36486c" offset="1"/>
  </radialGradient>
 </defs>
 <g transform="translate(-341.46 -509.92)">
  <g transform="matrix(.82556 0 0 .82556 222.02 141.73)">
   <g transform="matrix(5.1724,0,0,5.1724,-1230.4,2772.5)">
    <path d="m280.5-445.5c-2.2708 0-4.1099 1.5503-4.7188 3.625-0.69323-0.36383-1.4445-0.625-2.2812-0.625-2.76 0-5 2.24-5 5 0 0.57893 0.16252 1.1077 0.34375 1.625-1.3735 0.77074-2.3438 2.189-2.3438 3.875 0 2.484 2.016 4.5 4.5 4.5h19c2.484 0 4.5-2.016 4.5-4.5 0-1.686-0.97028-3.1043-2.3438-3.875 0.18124-0.51729 0.34375-1.0461 0.34375-1.625 0-2.76-2.24-5-5-5-0.83674 0-1.588 0.26117-2.2812 0.625-0.60884-2.0747-2.4479-3.625-4.7188-3.625z" fill="#c4c5c2" stroke="#888a85" stroke-miterlimit="2"/>
    <path d="m280.5-445c-2.1897 0-3.7236 1.3358-4.3956 3.8435-0.66846-0.34362-1.5476-0.83335-2.3544-0.83335-2.7165 0-4.7551 1.9388-4.7551 4.5455 0 0.54677 0.26721 1.3334 0.44196 1.822-1.3244 0.72795-2.4368 1.8905-2.4368 3.3726 0 2.346 1.5462 4.2501 4.3393 4.2501h18.321c2.771 0 4.3393-1.904 4.3393-4.2501 0-1.5924-1.1124-2.6667-2.4368-3.3946 0.17476-0.48856 0.46407-1.2532 0.46407-1.7999 0-2.6067-2.1158-4.5676-4.7772-4.5676-0.80687 0-1.6418 0.48974-2.3103 0.83336-0.65-2.42-2.25-3.82-4.44-3.82z" fill="url(#linearGradient6712)"/>
    <path transform="matrix(1.0566,0,0,1.0566,-24.198,21.863)" d="m291.69-437.59c0 1.8294-1.4831 3.3125-3.3125 3.3125s-3.3125-1.4831-3.3125-3.3125 1.4831-3.3125 3.3125-3.3125 3.3125 1.4831 3.3125 3.3125z" fill="#c4c5c2"/>
    <path transform="matrix(1.0566,0,0,1.0566,-24.198,21.863)" d="m291.69-437.59c0 1.8294-1.4831 3.3125-3.3125 3.3125s-3.3125-1.4831-3.3125-3.3125 1.4831-3.3125 3.3125-3.3125 3.3125 1.4831 3.3125 3.3125z" fill="url(#linearGradient6714)"/>
    <rect x="271" y="-438" width="20" height="9" fill="#c4c5c2"/>
    <path transform="matrix(.90566 0 0 .90566 9.8302 -35.689)" d="m291.69-437.59c0 1.8294-1.4831 3.3125-3.3125 3.3125s-3.3125-1.4831-3.3125-3.3125 1.4831-3.3125 3.3125-3.3125 3.3125 1.4831 3.3125 3.3125z" fill="#c4c5c2"/>
    <path transform="matrix(1.0566,0,0,1.0566,-17.198,24.863)" d="m291.69-437.59c0 1.8294-1.4831 3.3125-3.3125 3.3125s-3.3125-1.4831-3.3125-3.3125 1.4831-3.3125 3.3125-3.3125 3.3125 1.4831 3.3125 3.3125z" fill="#c4c5c2"/>
    <path transform="matrix(1.0566,0,0,1.0566,-17.198,24.863)" d="m291.69-437.59c0 1.8294-1.4831 3.3125-3.3125 3.3125s-3.3125-1.4831-3.3125-3.3125 1.4831-3.3125 3.3125-3.3125 3.3125 1.4831 3.3125 3.3125z" fill="url(#linearGradient6716)"/>
    <path transform="matrix(1.0566,0,0,1.0566,-31.198,24.863)" d="m291.69-437.59c0 1.8294-1.4831 3.3125-3.3125 3.3125s-3.3125-1.4831-3.3125-3.3125 1.4831-3.3125 3.3125-3.3125 3.3125 1.4831 3.3125 3.3125z" fill="#c4c5c2"/>
    <path transform="matrix(1.0566,0,0,1.0566,-31.198,24.863)" d="m291.69-437.59c0 1.8294-1.4831 3.3125-3.3125 3.3125s-3.3125-1.4831-3.3125-3.3125 1.4831-3.3125 3.3125-3.3125 3.3125 1.4831 3.3125 3.3125z" fill="url(#linearGradient6718)"/>
    <g transform="translate(-1)">
     <path d="m280.47-440.97c-3.5794 0-6.4688 2.9206-6.4688 6.5 0 2.3707 1.3494 4.3378 3.25 5.4688h6.4688c1.9006-1.131 3.25-3.1293 3.25-5.5 0-3.5794-2.9206-6.4688-6.5-6.4688z" fill="#c4c5c2"/>
     <path d="m280.5-441c-3.588 0-6.5 2.912-6.5 6.5 0 2.3764 1.3448 4.3663 3.25 5.5h6.5c1.9052-1.1337 3.25-3.1236 3.25-5.5 0-3.588-2.912-6.5-6.5-6.5z" fill="url(#linearGradient6720)"/>
    </g>
    <path transform="matrix(.90566 0 0 .90566 9.8303 -35.689)" d="m291.69-437.59c0 1.8294-1.4831 3.3125-3.3125 3.3125s-3.3125-1.4831-3.3125-3.3125 1.4831-3.3125 3.3125-3.3125 3.3125 1.4831 3.3125 3.3125z" fill="url(#linearGradient6722)"/>
    <path d="m292.96-437.33c-2e-3 2.6846-3.2693 3.714-3.2693 3.714s2.3487-1.626 2.3368-3.705l0.93241-9e-3z" fill="#888a85" fill-rule="evenodd"/>
    <g transform="matrix(1.1429,0,0,1.1429,-28.571,67)">
     <path transform="matrix(1.0566,0,0,1.0566,-31.198,24.863)" d="m291.69-437.59c0 1.8294-1.4831 3.3125-3.3125 3.3125s-3.3125-1.4831-3.3125-3.3125 1.4831-3.3125 3.3125-3.3125 3.3125 1.4831 3.3125 3.3125z" fill="#c4c5c2"/>
     <path transform="matrix(1.0566,0,0,1.0566,-31.198,24.863)" d="m291.69-437.59c0 1.8294-1.4831 3.3125-3.3125 3.3125s-3.3125-1.4831-3.3125-3.3125 1.4831-3.3125 3.3125-3.3125 3.3125 1.4831 3.3125 3.3125z" fill="url(#linearGradient6724)"/>
    </g>
   </g>
  </g>
  <g transform="matrix(1.3103,0,0,1.3103,373.03,541.56)">
   <path d="m43.96 23.485c0 10.71-8.6821 19.392-19.39 19.392-10.709 0-19.391-8.6821-19.391-19.392 0-10.709 8.6816-19.39 19.391-19.39 10.708 0 19.39 8.6811 19.39 19.39z" fill="url(#radialGradient3968)" stroke="#39396c"/>
   <g transform="matrix(.98237 0 0 .98237 .12108 .23291)" fill="#204a87" fill-opacity=".71345">
    <g fill="#204a87">
     <path d="m44.071 20.714-0.5449 0.6172c-0.334-0.3936-0.709-0.7246-1.0898-1.0703l-0.8359 0.123-0.7637-0.8633v1.0684l0.6543 0.4951 0.4355 0.4932 0.582-0.6582c0.1465 0.2744 0.291 0.5488 0.4365 0.8232v0.8223l-0.6553 0.7402-1.1992 0.8232-0.9082 0.9063-0.582-0.6602 0.291-0.7402-0.5811-0.6582-0.9814-2.0977-0.8359-0.9453-0.2188 0.2461 0.3281 1.1934 0.6172 0.6992c0.3525 1.0176 0.7012 1.9902 1.1641 2.9629 0.7178 0 1.3945-0.0762 2.1074-0.166v0.5762l-0.8721 2.1392-0.7998 0.9043-0.6543 1.4004v2.3027l0.2188 0.9063-0.3633 0.4102-0.8008 0.4941-0.8359 0.6992 0.6914 0.7813-0.9453 0.8242 0.1816 0.5332-1.418 1.6055h-0.9443l-0.7998 0.4941h-0.5098v-0.6582l-0.2168-1.3184c-0.2813-0.8262-0.5742-1.6465-0.8721-2.4668 0-0.6055 0.0361-1.2051 0.0723-1.8105l0.3643-0.8223-0.5098-0.9883 0.0371-1.3574-0.6914-0.7813 0.3457-1.1309-0.5625-0.6382h-0.9824l-0.3271-0.3701-0.9814 0.6177-0.3994-0.4536-0.9092 0.7817c-0.6172-0.6997-1.2354-1.3989-1.8535-2.0981l-0.7266-1.7285 0.6543-0.9863-0.3633-0.4111 0.7988-1.8936c0.6563-0.8164 1.3418-1.5996 2.0352-2.3857l1.2363-0.3291 1.3809-0.1641 0.9453 0.2471 1.3447 1.3564 0.4727-0.5342 0.6533-0.082 1.2363 0.4111h0.9453l0.6543-0.5762 0.291-0.4111-0.6553-0.4111-1.0908-0.082c-0.3027-0.4199-0.584-0.8613-0.9434-1.2344l-0.3643 0.1641-0.1455 1.0703-0.6543-0.7402-0.1445-0.8242-0.7266-0.5742h-0.292l0.7275 0.8223-0.291 0.7402-0.5811 0.1641 0.3633-0.7402-0.6553-0.3281-0.5801-0.6582-1.0918 0.2461-0.1445 0.3281-0.6543 0.4121-0.3633 0.9053-0.9082 0.4521-0.4004-0.4521h-0.4355v-1.4814l0.9453-0.4941h0.7266l-0.1465-0.5752-0.5801-0.5762 0.9805-0.2061 0.5449-0.6162 0.4355-0.7412h0.8008l-0.2188-0.5752 0.5098-0.3291v0.6582l1.0898 0.2461 1.0898-0.9043 0.0732-0.4121 0.9443-0.6577c-0.3418 0.0425-0.6836 0.0737-1.0176 0.1646v-0.7411l0.3633-0.8228h-0.3633l-0.7984 0.7402-0.2188 0.4116 0.2188 0.5767-0.3643 0.9863-0.5811-0.3291-0.5078-0.5752-0.8008 0.5752-0.291-1.3159 1.3809-0.9048v-0.4941l0.873-0.5757 1.3809-0.3296 0.9453 0.3296 1.7441 0.3291-0.4355 0.4932h-0.9453l0.9453 0.9873 0.7266-0.8223 0.2207-0.3618s2.7871 2.498 4.3799 5.2305c1.5928 2.7334 2.3408 5.9551 2.3408 6.6094z" fill="#204a87"/>
    </g>
    <g fill="#204a87">
     <path d="m26.07 9.2363-0.0732 0.4932 0.5098 0.3291 0.8711-0.5757-0.4355-0.4937-0.582 0.3296-0.29-0.0825" fill="#204a87"/>
    </g>
    <g fill="#204a87">
     <path d="m26.87 5.8633-1.8906-0.7407-2.1797 0.2466-2.6904 0.7402-0.5088 0.4941 1.6719 1.1514v0.6582l-0.6543 0.6582 0.873 1.729 0.5801-0.3301 0.7285-1.1514c1.123-0.3472 2.1299-0.7407 3.1973-1.2344l0.873-2.2212" fill="#204a87"/>
    </g>
    <g fill="#204a87">
     <path d="m28.833 12.775-0.291-0.7412-0.5098 0.165 0.1465 0.9043 0.6543-0.3281" fill="#204a87"/>
    </g>
    <g fill="#204a87">
     <path d="m29.123 12.609-0.1455 0.9883 0.7998-0.165 0.5811-0.5752-0.5088-0.4941c-0.171-0.455-0.368-0.88-0.582-1.317h-0.4355v0.4932l0.29 0.3291v0.7402" fill="#204a87"/>
    </g>
    <g fill="#204a87">
     <path d="m18.365 28.242-0.582-1.1523-1.0903-0.2466-0.5815-1.5625-1.4536 0.1641-1.2354-0.9043-1.3091 1.1514v0.1816c-0.396-0.1143-0.8828-0.1299-1.2354-0.3467l-0.291-0.8223v-0.9053l-0.8721 0.082c0.0728-0.5762 0.145-1.1514 0.2183-1.7275h-0.5093l-0.5083 0.6582-0.5093 0.2461-0.7271-0.4102-0.0728-0.9053 0.1455-0.9873 1.0908-0.8223h0.8721l0.145-0.4941 1.0903 0.2461 0.7998 0.9883 0.1455-1.6465 1.3813-1.1514 0.5088-1.2344 1.0176-0.4111 0.5815-0.8223 1.3081-0.248 0.6548-0.9863h-1.9629l1.2358-0.5762h0.8716l1.2363-0.4121 0.1455-0.4922-0.4365-0.4121-0.5088-0.165 0.1455-0.4932-0.3633-0.7402-0.8726 0.3281 0.1455-0.6577-1.0176-0.5762-0.7993 1.3979 0.0723 0.4941-0.7993 0.3301-0.5093 1.0693-0.2178-0.9873-1.3813-0.5762-0.2183-0.7402 1.8174-1.0703 0.7998-0.7402 0.0728-0.9048-0.436-0.2471-0.5815-0.0825-0.3633 0.9053s-0.6079 0.1191-0.7642 0.1577c-1.9961 1.8394-6.0293 5.8101-6.9663 13.306 0.0371 0.1738 0.6792 1.1816 0.6792 1.1816l1.5264 0.9043 1.5264 0.4121 0.6548 0.8232 1.0171 0.7402 0.5815-0.082 0.436 0.1963v0.1328l-0.5811 1.563-0.4365 0.6582 0.1455 0.3301-0.3633 1.2324 1.3086 2.3867 1.3081 1.1523 0.582 0.8223-0.0732 1.7285 0.4365 0.9863-0.4365 1.8926s-0.0342-0.0117 0.0215 0.1777c0.0562 0.1895 2.3291 1.4512 2.4736 1.3438 0.144-0.1094 0.2671-0.2051 0.2671-0.2051l-0.145-0.4102 0.5811-0.5762 0.2183-0.5762 0.9453-0.3301 0.7266-1.8105-0.2178-0.4922 0.5078-0.7402 1.0908-0.248 0.582-1.3164-0.1455-1.6445 0.8721-1.2344 0.1455-1.2344c-1.194-0.59-2.377-1.2-3.562-1.809" fill="#204a87"/>
    </g>
    <g fill="#204a87">
     <path d="m16.766 9.5649 0.7266 0.4937h0.582v-0.5757l-0.7266-0.3291-0.582 0.4111" fill="#204a87"/>
    </g>
    <g fill="#204a87">
     <path d="m14.876 8.9072-0.3638 0.9048h0.7271l0.3638-0.8228c0.314-0.2217 0.626-0.4448 0.945-0.6582l0.7271 0.2471c0.4844 0.3291 0.9688 0.6582 1.4536 0.9868l0.727-0.6577-0.8-0.3291-0.364-0.7407-1.381-0.1646-0.073-0.4116-0.654 0.165-0.29 0.5758-0.364-0.7407-0.145 0.3291 0.0728 0.8228-0.5816 0.494" fill="#204a87"/>
    </g>
    <g fill="#204a87">
     <path d="m17.492 6.8496 0.364-0.3286 0.727-0.1646c0.498-0.2422 0.998-0.4053 1.5264-0.5762l-0.29-0.4937-0.9385 0.1348-0.4434 0.4419-0.731 0.106-0.6499 0.3052-0.3159 0.1528-0.1929 0.2583 0.9443 0.1641" fill="#204a87"/>
    </g>
    <g fill="#204a87">
     <path d="m18.728 14.666 0.4365-0.6582-0.6548-0.4932 0.2183 1.1514" fill="#204a87"/>
    </g>
   </g>
   <g fill="none">
    <path d="m42.975 23.486c0 10.166-8.2412 18.407-18.406 18.407s-18.406-8.2412-18.406-18.407c0-10.165 8.2407-18.406 18.406-18.406 10.164 0 18.406 8.2402 18.406 18.406z" opacity=".3956" stroke="url(#radialGradient4132)"/>
    <path transform="matrix(1.131 .6131 -.47656 .87914 54.091 16.044)" d="m-2.8284 21.042c0 5.2233-7.044 9.4576-15.733 9.4576-8.6892 0-15.733-4.2343-15.733-9.4576s7.044-9.4576 15.733-9.4576c8.6892 0 15.733 4.2343 15.733 9.4576z" color="#000000" stroke="url(#linearGradient6007)" stroke-linecap="round" stroke-linejoin="round" stroke-width=".88164"/>
    <path transform="matrix(.93933 -.87909 .68331 .73013 32.314 -4.4516)" d="m-2.8284 21.042c0 5.2233-7.044 9.4576-15.733 9.4576-8.6892 0-15.733-4.2343-15.733-9.4576s7.044-9.4576 15.733-9.4576c8.6892 0 15.733 4.2343 15.733 9.4576z" color="#000000" stroke="url(#linearGradient6011)" stroke-linecap="round" stroke-linejoin="round" stroke-width=".88164"/>
   </g>
   <g transform="matrix(-1.0458 .76725 .76725 1.0458 35.617 -22.144)" fill-rule="evenodd">
    <path transform="translate(14.95,22.93)" d="m18.789 12.493c0 3.71-3.0075 6.7175-6.7175 6.7175s-6.7175-3.0075-6.7175-6.7175 3.0075-6.7175 6.7175-6.7175 6.7175 3.0075 6.7175 6.7175z" color="#000000" fill="url(#radialGradient5989)"/>
    <path transform="matrix(.30827 0 0 .30827 23.3 31.572)" d="m18.789 12.493c0 3.71-3.0075 6.7175-6.7175 6.7175s-6.7175-3.0075-6.7175-6.7175 3.0075-6.7175 6.7175-6.7175 6.7175 3.0075 6.7175 6.7175z" color="#000000" fill="#fff"/>
   </g>
   <path transform="matrix(-1.2803 -.12616 .098062 -.99518 -2.4051 40.524)" d="m-2.8284 21.042c0 5.2233-7.044 9.4576-15.733 9.4576-8.6892 0-15.733-4.2343-15.733-9.4576s7.044-9.4576 15.733-9.4576c8.6892 0 15.733 4.2343 15.733 9.4576z" color="#000000" fill="none" stroke="url(#linearGradient6015)" stroke-linecap="round" stroke-linejoin="round" stroke-width=".88164"/>
   <path transform="matrix(.91787 -.85898 .6677 .71343 27.633 -6.9091)" d="m-2.8284 21.042c0 5.2233-7.044 9.4576-15.733 9.4576-8.6892 0-15.733-4.2343-15.733-9.4576s7.044-9.4576 15.733-9.4576c8.6892 0 15.733 4.2343 15.733 9.4576z" color="#000000" fill="none" stroke="url(#linearGradient6019)" stroke-linecap="round" stroke-linejoin="round" stroke-width=".90226"/>
   <g fill-rule="evenodd">
    <g transform="matrix(-.80628 .59154 .59154 .80628 12.386 -18.029)">
     <path transform="translate(14.95,22.93)" d="m18.789 12.493c0 3.71-3.0075 6.7175-6.7175 6.7175s-6.7175-3.0075-6.7175-6.7175 3.0075-6.7175 6.7175-6.7175 6.7175 3.0075 6.7175 6.7175z" color="#000000" fill="url(#radialGradient5989)"/>
     <path transform="matrix(.30827 0 0 .30827 23.3 31.572)" d="m18.789 12.493c0 3.71-3.0075 6.7175-6.7175 6.7175s-6.7175-3.0075-6.7175-6.7175 3.0075-6.7175 6.7175-6.7175 6.7175 3.0075 6.7175 6.7175z" color="#000000" fill="#fff"/>
    </g>
    <g transform="matrix(-.80628 .59154 .59154 .80628 13.499 -31.5)">
     <path transform="translate(14.95,22.93)" d="m18.789 12.493c0 3.71-3.0075 6.7175-6.7175 6.7175s-6.7175-3.0075-6.7175-6.7175 3.0075-6.7175 6.7175-6.7175 6.7175 3.0075 6.7175 6.7175z" color="#000000" fill="url(#radialGradient5989)"/>
     <path transform="matrix(.30827 0 0 .30827 23.3 31.572)" d="m18.789 12.493c0 3.71-3.0075 6.7175-6.7175 6.7175s-6.7175-3.0075-6.7175-6.7175 3.0075-6.7175 6.7175-6.7175 6.7175 3.0075 6.7175 6.7175z" color="#000000" fill="#fff"/>
    </g>
    <g transform="matrix(-.87023 .63857 .63846 .87038 25.205 -35.313)">
     <path transform="translate(14.95,22.93)" d="m18.789 12.493c0 3.71-3.0075 6.7175-6.7175 6.7175s-6.7175-3.0075-6.7175-6.7175 3.0075-6.7175 6.7175-6.7175 6.7175 3.0075 6.7175 6.7175z" color="#000000" fill="url(#radialGradient5989)"/>
     <path transform="matrix(.30827 0 0 .30827 23.3 31.572)" d="m18.789 12.493c0 3.71-3.0075 6.7175-6.7175 6.7175s-6.7175-3.0075-6.7175-6.7175 3.0075-6.7175 6.7175-6.7175 6.7175 3.0075 6.7175 6.7175z" color="#000000" fill="#fff"/>
    </g>
   </g>
  </g>
 </g>
 <path d="m13.245 23.03c23.123-24.058 72.516-26.238 104.43 0.21505" fill="none" stroke="#6c5353" stroke-linecap="round" stroke-linejoin="round" stroke-width="5.5558"/>
 <path d="m12.685 12.068c-1.4139 3.2189-2.9803 7.0478-5.5265 14.796l16.128-0.73921" fill="none" stroke="#6c5353" stroke-linecap="round" stroke-linejoin="round" stroke-width="5.5558"/>
 <g transform="rotate(180 59.59 41.394)" fill="none" stroke="#6c5353" stroke-linecap="round" stroke-linejoin="round" stroke-width="5.5558">
  <path d="m8.0366-19.208c30.22-26.853 71.225-26.238 104.64 1.0753"/>
  <path d="m11.347-32.32c-1.4139 3.2189-2.9803 7.0478-5.5265 14.796l16.128-0.73921"/>
 </g>
</svg>
